<?xml version="1.0" encoding="iso-8859-1"?>
<!-- Generator: Adobe Illustrator 19.0.0, SVG Export Plug-In . SVG Version: 6.00 Build 0)  -->
<svg version="1.1" id="Capa_1" xmlns="http://www.w3.org/2000/svg" xmlns:xlink="http://www.w3.org/1999/xlink" x="0px" y="0px"
	 viewBox="0 0 464 464" style="enable-background:new 0 0 464 464;" xml:space="preserve">
<polygon style="fill:#A0D92A;" points="200,128 161.28,187.76 184,184 187.68,206 216,160 247.12,160 279.92,212.64 264,224 
	289.76,228.32 312,232 315.92,208.32 320,184 306.48,193.68 264,128 "/>
<polygon style="fill:#25C656;" points="289.76,228.32 312,264 296,288 248,288 248,272 232,288 216,304 232,320 248,336 248,320 
	312,320 352,264 315.92,208.32 312,232 "/>
<polygon style="fill:#039D7B;" points="232,288 168,288 152,264 177.92,221.92 192,232 187.68,206 184,184 161.28,187.76 136,192 
	151.44,203.04 112,264 152,320 232,320 216,304 "/>
<polygon style="fill:#25C656;" points="216,160 187.68,206 192,232 177.92,221.92 152,264 168,288 232,288 232,160 "/>
<polygon style="fill:#1D9942;" points="248,288 296,288 312,264 289.76,228.32 264,224 279.92,212.64 247.12,160 232,160 232,288 
	248,272 "/>
<rect x="112" y="368" style="fill:#F1E200;" width="120" height="64"/>
<rect x="232" y="368" style="fill:#C4B800;" width="120" height="64"/>
<rect x="232" style="fill:#DBCE00;" width="64" height="40"/>
<path style="fill:#1D9942;" d="M368,40h-72h-64v88h32l42.48,65.68L320,184l-4.08,24.32L352,264l-40,56h-64v16l-16-16v48h120v64H232
	v32h136c8.836,0,16-7.164,16-16V56C384,47.163,376.836,40,368,40z"/>
<path style="fill:#25C656;" d="M112,432v-64h120v-48h-80l-40-56l39.44-60.96L136,192l25.28-4.24L200,128h32V40h-64H96
	c-8.836,0-16,7.163-16,16v392c0,8.836,7.164,16,16,16h136v-32H112z"/>
<rect x="168" style="fill:#F1E200;" width="64" height="40"/>
<g>
</g>
<g>
</g>
<g>
</g>
<g>
</g>
<g>
</g>
<g>
</g>
<g>
</g>
<g>
</g>
<g>
</g>
<g>
</g>
<g>
</g>
<g>
</g>
<g>
</g>
<g>
</g>
<g>
</g>
</svg>
