<?xml version="1.0" encoding="iso-8859-1"?>
<!-- Generator: Adobe Illustrator 19.0.0, SVG Export Plug-In . SVG Version: 6.00 Build 0)  -->
<svg version="1.1" id="Capa_1" xmlns="http://www.w3.org/2000/svg" xmlns:xlink="http://www.w3.org/1999/xlink" x="0px" y="0px"
	 viewBox="0 0 480 480" style="enable-background:new 0 0 480 480;" xml:space="preserve">
<path style="fill:#50BF3A;" d="M228,64V8H116v32c44.183,0,80,35.817,80,80c0,44.183-35.817,80-80,80v75.636L148,232l-24,88h48
	l-56,70v82h112V80v-8V64z"/>
<path style="fill:#59D541;" d="M76,440l24-88H60l56-76.364V200c-44.183,0-80-35.817-80-80c0-44.183,35.817-80,80-80V8H4v464h112v-82
	L76,440z"/>
<polygon style="fill:#F1E200;" points="100,352 76,440 116,390 116,275.636 60,352 "/>
<polygon style="fill:#DBCE00;" points="172,320 124,320 148,232 116,275.636 116,390 "/>
<path style="fill:#F1E200;" d="M36,120c0,44.183,35.817,80,80,80V96h-8V72h8V40C71.817,40,36,75.817,36,120z M86.344,130.344
	l11.313,11.313l-16,16l-11.313-11.313L86.344,130.344z"/>
<path style="fill:#DBCE00;" d="M124,72v24h-8v104c44.183,0,80-35.817,80-80c0-44.183-35.817-80-80-80v32H124z M145.656,130.344
	l16,16l-11.313,11.313l-16-16L145.656,130.344z"/>
<polygon style="fill:#A0D92A;" points="380,96 364,96 364,128 348,128 324,152 324,184 308,184 308,216 356,216 388,216 388,96 "/>
<g>
	<path style="fill:#183F5E;" d="M380,384v24c0,30.879-25.125,56-56,56s-56-25.121-56-56V104c0-22.055-17.945-40-40-40v8v8
		c13.234,0,24,10.766,24,24v304c0,39.699,32.297,72,72,72s72-32.301,72-72v-24h-8H380z"/>
	<path style="fill:#183F5E;" d="M452,16h24V0h-24c-39.703,0-72,32.301-72,72v24h8h8V72C396,41.121,421.125,16,452,16z"/>
	
		<rect x="72.685" y="135.998" transform="matrix(-0.7071 0.7071 -0.7071 -0.7071 245.214 186.4254)" style="fill:#183F5E;" width="22.624" height="16"/>
	
		<rect x="140.004" y="132.687" transform="matrix(-0.7071 0.7071 -0.7071 -0.7071 354.4815 141.1672)" style="fill:#183F5E;" width="16" height="22.624"/>
	<polygon style="fill:#183F5E;" points="124,72 116,72 108,72 108,96 116,96 124,96 	"/>
</g>
<polygon style="fill:#87B623;" points="388,216 420,216 468,216 468,184 452,184 452,152 428,128 412,128 412,96 396,96 388,96 "/>
<polygon style="fill:#25C656;" points="388,264 308,264 308,296 324,296 324,328 348,352 364,352 364,384 380,384 388,384 "/>
<polygon style="fill:#1E9E45;" points="388,384 396,384 412,384 412,352 428,352 452,328 452,296 468,296 468,264 388,264 "/>
<g>
	<rect x="348" y="216" style="fill:#183F5E;" width="16" height="24"/>
	<rect x="412" y="216" style="fill:#183F5E;" width="16" height="24"/>
</g>
<g>
</g>
<g>
</g>
<g>
</g>
<g>
</g>
<g>
</g>
<g>
</g>
<g>
</g>
<g>
</g>
<g>
</g>
<g>
</g>
<g>
</g>
<g>
</g>
<g>
</g>
<g>
</g>
<g>
</g>
</svg>
