<?xml version="1.0" encoding="UTF-8" standalone="no"?>
<!-- Created with Inkscape (http://www.inkscape.org/) -->

<svg
   xmlns:dc="http://purl.org/dc/elements/1.1/"
   xmlns:cc="http://creativecommons.org/ns#"
   xmlns:rdf="http://www.w3.org/1999/02/22-rdf-syntax-ns#"
   xmlns:svg="http://www.w3.org/2000/svg"
   xmlns="http://www.w3.org/2000/svg"
   xmlns:xlink="http://www.w3.org/1999/xlink"
   xmlns:sodipodi="http://sodipodi.sourceforge.net/DTD/sodipodi-0.dtd"
   xmlns:inkscape="http://www.inkscape.org/namespaces/inkscape"
   width="640mm"
   height="640mm"
   viewBox="0 0 640 640"
   version="1.1"
   id="svg8"
   inkscape:version="0.92.3 (2405546, 2018-03-11)"
   sodipodi:docname="logonaget5.svg">
  <defs
     id="defs2">
    <linearGradient
       inkscape:collect="always"
       id="linearGradient1035">
      <stop
         style="stop-color:#ffffff;stop-opacity:1;"
         offset="0"
         id="stop1031" />
      <stop
         style="stop-color:#ffffff;stop-opacity:0;"
         offset="1"
         id="stop1033" />
    </linearGradient>
    <linearGradient
       inkscape:collect="always"
       xlink:href="#linearGradient1035"
       id="linearGradient1037"
       x1="318.60988"
       y1="-122.41215"
       x2="385.05634"
       y2="-122.41215"
       gradientUnits="userSpaceOnUse"
       gradientTransform="matrix(1.1778658,0.20094369,-0.20094369,1.1778658,-53.712809,-78.710164)" />
  </defs>
  <sodipodi:namedview
     id="base"
     pagecolor="#ffffff"
     bordercolor="#666666"
     borderopacity="1.0"
     inkscape:pageopacity="0.0"
     inkscape:pageshadow="2"
     inkscape:zoom="0.11313708"
     inkscape:cx="1733.7082"
     inkscape:cy="1027.5756"
     inkscape:document-units="mm"
     inkscape:current-layer="layer1"
     showgrid="false"
     inkscape:window-width="1366"
     inkscape:window-height="712"
     inkscape:window-x="0"
     inkscape:window-y="25"
     inkscape:window-maximized="1" />
  <metadata
     id="metadata5">
    <rdf:RDF>
      <cc:Work
         rdf:about="">
        <dc:format>image/svg+xml</dc:format>
        <dc:type
           rdf:resource="http://purl.org/dc/dcmitype/StillImage" />
        <dc:title></dc:title>
      </cc:Work>
    </rdf:RDF>
  </metadata>
  <g
     inkscape:label="Layer 1"
     inkscape:groupmode="layer"
     id="layer1"
     transform="translate(0,343)">
    <circle
       style="fill:#ffffff;fill-opacity:1;stroke:#ffffff;stroke-width:0.17872034;stroke-opacity:0.93617022"
       id="path1084"
       cx="334.86331"
       cy="-14.712231"
       r="235.68748" />
    <rect
       style="fill:#fecb00;fill-opacity:1;stroke:none;stroke-width:0.36510977"
       id="rect832"
       width="462.48077"
       height="285.82886"
       x="-142.4216"
       y="176.59447"
       ry="68.997124"
       transform="rotate(-73.891654)" />
    <path
       style="fill:#584700;fill-opacity:1;stroke:none;stroke-width:0.52260435"
       id="path906"
       d="m 342.42021,-98.746866 c 1.97679,1.698444 4.00094,3.334678 5.94184,5.084552 1.85438,1.731992 3.66521,3.494033 5.44563,5.320607 2.04347,2.148582 4.02126,4.374661 5.99757,6.599597 1.89408,2.43194 3.71827,4.91215 5.65212,7.309341 1.91618,2.391395 3.90077,4.732849 5.93065,7.010429 2.05407,2.078835 3.72936,4.527097 5.74947,6.637711 1.9664,1.979881 3.50521,4.36869 4.96034,6.803872 1.97982,2.896219 2.87844,5.964412 2.98858,9.549019 -0.029,3.211481 -0.96288,6.145244 -2.06682,9.060526 -8.27835,4.07147 -7.09723,16.413575 -12.52948,23.134627 -0.92219,1.141037 -1.98046,2.068609 -2.8891,3.2276579 -2.01117,2.344139 -4.25057,4.5343923 -6.97005,5.7912935 -3.48832,1.4048939 -7.17129,2.23595637 -10.82829,2.94851138 -5.01874,0.85444645 -10.11334,0.71590373 -15.1646,1.16971495 -4.76394,0.50003667 -9.51243,1.16918927 -14.28406,1.59062587 -3.94302,0.2916416 -7.90198,0.4455699 -11.7476,1.5075457 -2.77544,0.090645 -5.27886,1.3509604 -7.9039,2.1266502 -3.01752,0.9164093 -5.856,2.3656512 -8.6326,3.9278105 -0.92246,0.817799 -1.37661,1.086128 -2.02924,2.209151 -0.25243,0.434394 -0.84253,1.839949 -0.60327,1.396697 20.2362,-37.487977 10.70819,-23.3120683 9.1129,-16.2653084 -0.50433,2.76412641 0.3426,5.2613928 1.35483,7.7455568 1.16008,3.3712237 2.3345,6.7245896 3.73128,9.9888686 1.23116,2.736103 2.4213,5.494387 4.22252,7.836111 1.36287,1.793097 3.14009,3.129353 4.9087,4.395247 2.31336,1.609491 4.72184,3.031696 7.13529,4.450812 3.01014,1.660765 6.02722,3.303539 9.03409,4.97237 3.58465,1.865194 7.21213,3.622562 10.79599,5.48888 3.50046,1.697315 6.72112,4.042578 9.88709,6.387501 2.24743,2.036832 4.62347,3.920755 6.69338,6.181921 1.89003,2.222239 3.33196,4.830527 4.75597,7.42102 1.58293,2.928167 2.00737,6.091173 1.98254,9.427226 -0.92218,10.86781 -6.77646,21.13074 -13.30096,29.063042 -2.10605,2.25256 -4.65955,3.8872 -7.1765,5.51496 -2.7956,1.17033 -5.59324,2.21855 -8.4816,3.05564 -3.23414,0.58509 -6.32095,1.73087 -9.5268,2.4449 -2.63323,0.84904 -5.1673,1.87968 -7.89806,2.30885 -2.65843,0.72724 -5.35993,1.18544 -8.02126,1.89213 -2.31182,0.74057 -4.73972,0.99052 -7.11615,1.42905 -2.48371,0.31179 -4.91157,1.02613 -7.37806,1.46112 -2.73323,0.81603 -5.51111,1.48631 -8.20301,2.46603 -2.96623,1.49834 -6.02803,2.63928 -9.0949,3.85376 -2.54985,1.04679 -4.97074,2.42132 -7.34098,3.88106 -4.04064,7.13436 1.40814,-2.47754 10.02754,-18.39498 0.105,-0.19372 -0.31449,0.32096 -0.37441,0.53641 -0.21668,0.77869 -0.044,2.02271 0.012,2.81664 0.35725,2.28624 1.31646,4.37094 2.27961,6.41025 1.01893,2.32094 2.74887,4.09096 4.46714,5.78929 2.21739,1.40749 4.37874,2.79957 6.31531,4.66243 2.0194,2.0568 4.17387,3.92364 6.2658,5.88542 2.24366,1.79874 4.15804,4.00662 6.17693,6.08645 2.36463,2.00596 4.47522,4.3221 6.66879,6.54088 1.89293,2.02196 4.01102,3.78105 6.06674,5.60159 2.24332,2.05324 4.43232,4.12637 6.35451,6.5472 1.85455,2.46756 3.35727,5.21585 4.84368,7.95789 1.44542,2.70362 2.85994,5.42698 4.28407,8.14409 1.36222,2.40397 2.42664,4.94106 2.01936,7.80329 -5.78351,13.67659 -6.50471,18.44387 -15.09886,23.81101 -1.78954,0.98126 -3.40659,2.50702 -5.38692,2.9267 -0.87648,0.15478 -1.57286,0.19927 -2.4456,0.0356 0,0 9.73962,-20.64188 9.73962,-20.64188 v 0 c 0.57437,-0.0861 1.1576,-0.15052 1.70318,-0.38137 1.65942,-0.99147 3.29548,-2.02957 4.9083,-3.10982 6.68758,-4.92621 11.15059,-18.89457 -6.5052,15.50844 1.76305,-2.27691 0.89348,-4.28505 -0.35907,-6.65166 -1.42044,-2.71016 -2.83122,-5.42637 -4.26324,-8.12915 -1.41647,-2.64839 -2.8275,-5.31425 -4.54143,-7.7488 -1.78522,-2.37594 -3.86275,-4.35176 -6.02943,-6.29608 -2.09685,-1.84942 -4.27543,-3.61824 -6.16691,-5.72336 -2.19025,-2.22936 -4.28866,-4.57014 -6.68865,-6.53598 -2.00016,-2.05593 -3.89601,-4.24462 -6.13794,-5.99265 -2.06487,-2.01293 -4.21297,-3.91301 -6.27084,-5.93597 -1.909,-1.91812 -4.16181,-3.10632 -6.32008,-4.6367 -1.90937,-1.83362 -3.89451,-3.6987 -5.10416,-6.19417 -1.11075,-2.17245 -2.19805,-4.36023 -2.86213,-6.75645 -2.36033,-9.29569 1.99446,-20.53506 11.07924,-25.03718 2.46929,-1.31489 4.94229,-2.63766 7.55161,-3.59255 3.09049,-1.16686 6.07829,-2.58541 9.15115,-3.8009 2.79086,-0.915037 5.6054,-1.783536 8.45595,-2.442358 2.46355,-0.619924 4.95183,-0.939494 7.43528,-1.436479 2.35544,-0.411824 4.71466,-0.847114 7.02689,-1.493107 2.6937,-0.565549 5.36293,-1.220423 8.05342,-1.802899 2.6578,-0.668654 5.19677,-1.761869 7.87408,-2.339729 3.1594,-0.687568 6.24006,-1.744106 9.38903,-2.490415 2.72845,-0.840265 5.44441,-1.886487 7.95376,-3.337198 2.37399,-1.630714 4.76792,-3.3259 6.45367,-5.838883 4.14342,-7.151641 1.77666,-3.114476 -8.73355,17.013049 -0.2506,0.47982 0.49501,-0.965802 0.69458,-1.473657 0.0821,-0.209355 0.89803,-2.819327 0.95485,-3.083864 0.11182,-0.520652 0.14268,-1.058336 0.214,-1.587533 0.24111,-3.025131 0.31476,-5.863539 -0.9728,-8.657525 -1.32874,-2.452853 -2.65454,-4.932852 -4.36082,-7.099571 -1.91987,-2.22974 -4.1843,-4.053013 -6.26643,-6.089287 -3.04281,-2.337498 -6.1762,-4.60888 -9.59072,-6.239662 -3.58533,-1.901803 -7.19645,-3.747745 -10.85985,-5.461619 -3.02155,-1.669792 -6.04626,-3.329469 -9.08512,-4.959565 -2.4866,-1.420323 -4.97058,-2.838368 -7.37772,-4.415044 -1.93162,-1.382795 -3.87522,-2.851189 -5.39175,-4.777214 -1.97276,-2.469805 -3.34748,-5.313049 -4.63375,-8.272725 -1.41534,-3.235013 -2.73844,-6.52842 -3.76297,-9.939889 -1.22638,-2.693165 -2.45837,-5.386112 -2.41546,-8.472082 0.64405,-10.5430905 6.67451,-21.2123669 14.78853,-26.751675 2.89298,-1.499499 5.86041,-2.803179 8.93878,-3.77649 2.62239,-0.990786 5.2738,-1.696743 8.04303,-1.988902 3.94174,-0.776613 7.94647,-0.877465 11.93142,-1.244668 4.75048,-0.429301 9.4888,-1.000851 14.23819,-1.439941 5.01024,-0.336715 10.06853,-0.400411 15.0104,-1.44892 3.52656,-0.823425 7.12811,-1.60547 10.36525,-3.418763 2.37099,-1.685302 4.44911,-3.771602 6.30243,-6.111407 5.76502,-6.471691 12.34082,-21.730582 -5.65324,12.981557 1.40214,-2.68769 2.39971,-5.497607 2.87593,-8.565342 0.2342,-3.295109 -0.10259,-6.013905 -2.01185,-8.698565 -1.34237,-2.306456 -2.73685,-4.597614 -4.56273,-6.486591 -2.03037,-2.138058 -3.69997,-4.601858 -5.74824,-6.724419 -2.11574,-2.24593 -4.06387,-4.713666 -6.05504,-7.086691 -1.89865,-2.389476 -3.80536,-4.742084 -5.57025,-7.252921 -1.91713,-2.208326 -3.91547,-4.330172 -5.8949,-6.467107 -1.81642,-1.727846 -3.5408,-3.576218 -5.38179,-5.271748 -1.84907,-1.720034 -3.79949,-3.347414 -5.81261,-4.817799 0,0 10.68986,-20.043208 10.68986,-20.043208 z"
       inkscape:connector-curvature="0" />
    <path
       style="fill:#957900;fill-opacity:1;stroke:none;stroke-width:0.50768435"
       id="path906-6"
       d="m 331.27679,-84.664154 c 1.95142,1.651735 3.94874,3.244047 5.86531,4.945015 1.83161,1.682956 3.6207,3.394471 5.38047,5.167843 2.02014,2.085515 3.97644,4.245053 5.93132,6.40348 1.87569,2.356922 3.68327,4.759659 5.59778,7.083479 1.89714,2.318077 3.86094,4.588707 5.86875,6.798246 2.03,2.018518 3.69134,4.389218 5.68832,6.437994 1.94324,1.922544 3.47026,4.234815 4.91554,6.591022 1.96334,2.804429 2.86751,5.76495 3.00235,9.215454 -0.004,3.090242 -0.89838,5.905368 -1.9592,8.70114 -8.08832,3.84562 -6.83771,15.7331385 -12.11499,22.1534896 -0.89594,1.08997953 -1.92683,1.97336393 -2.80932,3.0807887 -1.95489,2.2382311 -4.13473,4.3263839 -6.79242,5.5121271 -3.4106,1.3214661 -7.01638,2.0889879 -10.59752,2.7426796 -4.91561,0.778335 -9.91308,0.600433 -14.86357,0.99293 -4.66837,0.439504 -9.32031,1.041885 -13.99685,1.405705 -3.86481,0.246108 -7.74636,0.35961 -11.50994,1.347922 -2.72121,0.06294 -5.1669,1.25386 -7.73561,1.977375 -2.95251,0.855481 -5.72541,2.225269 -8.43681,3.704284 -0.89865,0.778914 -1.34196,1.033211 -1.97365,2.108171 -0.2443,0.415813 -0.81253,1.763291 -0.58123,1.338817 19.56588,-35.898727 10.3275,-22.34019727 8.8157,-15.5728499 -0.47397,2.6556039 0.37529,5.0662049 1.38659,7.4656699 1.16294,3.254354 2.33978,6.491691 3.73405,9.645235 1.22782,2.643859 2.41569,5.308604 4.19951,7.578036 1.35004,1.737447 3.10294,3.038928 4.84695,4.27262 2.28076,1.569113 4.65347,2.958841 7.03103,4.345606 2.96454,1.624534 5.93576,3.231815 8.89713,4.864125 3.5295,1.826296 7.10021,3.549214 10.62895,5.376612 3.44566,1.664017 6.62177,3.949096 9.74426,6.233414 2.21934,1.97978 4.56367,3.813527 6.61066,6.007592 1.8702,2.155073 3.30379,4.677781 4.71972,7.183135 1.57428,2.831715 2.01422,5.879301 2.01485,9.089449 -0.82318,10.450371 -6.48791,20.275471 -12.82738,27.851898 -2.04861,2.14925 -4.5407,3.69999 -6.99697,5.24438 -2.73295,1.10179 -5.46882,2.08602 -8.29526,2.86633 -3.16741,0.5347 -6.18619,1.61033 -9.3249,2.26943 -2.57613,0.79398 -5.05365,1.76364 -7.72852,2.15269 -2.60169,0.67654 -5.2477,1.09385 -7.85248,1.75065 -2.26168,0.6924 -4.64092,0.91168 -6.9683,1.31292 -2.43349,0.2783 -4.80921,0.94449 -7.22494,1.34149 -2.67444,0.76139 -5.39377,1.38212 -8.02644,2.30136 -2.89784,1.41594 -5.89208,2.48708 -8.89082,3.62901 -2.49284,0.98501 -4.85678,2.28658 -7.17041,3.6706 -3.90942,6.83023 1.3624,-2.37186 9.69671,-17.61431 0.10183,-0.18556 -0.30605,0.30608 -0.36319,0.51295 -0.20668,0.74742 -0.0281,1.94611 0.0322,2.7106 0.36745,2.20326 1.32372,4.21784 2.28356,6.18876 1.01647,2.24252 2.72646,3.9609 4.42431,5.61031 2.18521,1.37389 4.31528,2.73243 6.22844,4.54206 1.99586,1.99701 4.12279,3.81237 6.18904,5.71857 2.2139,1.75063 4.10788,3.8921 6.10337,5.91124 2.33406,1.95112 4.42129,4.19844 6.58918,6.35284 1.87156,1.96236 3.96195,3.67376 5.99165,5.44369 2.21545,1.99554 4.3777,4.00972 6.28101,6.3562 1.83725,2.39085 3.33154,5.04878 4.80978,7.70048 1.43888,2.61376 2.84566,5.24743 4.2624,7.87486 1.35435,2.32502 2.41641,4.77636 2.0388,7.52703 -5.56978,13.11073 -6.24148,17.69216 -14.62985,22.78191 -1.74772,0.92866 -3.32221,2.3827 -5.2612,2.76926 -0.85847,0.14131 -1.54104,0.17802 -2.3982,0.0135 0,0 9.39759,-19.7791 9.39759,-19.7791 v 0 c 0.56268,-0.0778 1.13415,-0.13477 1.66751,-0.35211 1.61992,-0.93968 3.21681,-1.92414 4.79038,-2.94967 6.5219,-4.68214 10.79447,-18.08527 -6.26381,14.86729 1.71201,-2.17572 0.84422,-4.11582 -0.40189,-6.40422 -1.41307,-2.62063 -2.81614,-5.24744 -4.24125,-7.86067 -1.41007,-2.56031 -2.81208,-5.13915 -4.51178,-7.49663 -1.76866,-2.30205 -3.82087,-4.22166 -5.96031,-6.11171 -2.07032,-1.7981 -4.2201,-3.51932 -6.09081,-5.56173 -2.16477,-2.16451 -4.24022,-4.4355 -6.60864,-6.34828 -1.97698,-1.99599 -3.85261,-4.11885 -6.06437,-5.82066 -2.04079,-1.95479 -4.16173,-3.80208 -6.19507,-5.76682 -1.88653,-1.86259 -4.10479,-3.02577 -6.23297,-4.51735 -1.88625,-1.78129 -3.84706,-3.59346 -5.05201,-6.00551 -1.1041,-2.10131 -2.18841,-4.21516 -2.85753,-6.52698 -2.3843,-8.9662 1.80253,-19.7441 10.67856,-23.99712 2.41185,-1.24371 4.82726,-2.49504 7.37918,-3.3911 3.02219,-1.09586 5.94178,-2.43483 8.94633,-3.57763 2.73023,-0.85612 5.48401,-1.66728 8.27473,-2.27637 2.41142,-0.57498 4.84935,-0.86075 7.28117,-1.31726 2.30697,-0.37569 4.61751,-0.77395 6.8803,-1.37534 2.63755,-0.52068 5.2505,-1.12755 7.88479,-1.66455 2.6015,-0.620185 5.08338,-1.650005 7.70476,-2.182648 3.09339,-0.634035 6.10674,-1.623794 9.18941,-2.314439 2.66962,-0.784735 5.32544,-1.767805 7.77558,-3.141883 2.31599,-1.548495 4.65111,-3.158877 6.2856,-5.562443 4.01004,-6.845972 1.71907,-2.981601 -8.43806,16.295753 -0.24218,0.45957 0.4783,-0.9251 0.6702,-1.41208 0.0793,-0.20082 0.85966,-2.705281 0.91341,-2.959378 0.10593,-0.500042 0.13201,-1.017174 0.19798,-1.525825 0.21384,-2.909065 0.2649,-5.639928 -1.0188,-8.339886 -1.3217,-2.371949 -2.64029,-4.77025 -4.32976,-6.870367 -1.89956,-2.162529 -4.13401,-3.936913 -6.19122,-5.914728 -3.00164,-2.276087 -6.09157,-4.489337 -9.4525,-6.08856 -3.53044,-1.861544 -7.08579,-3.669538 -10.69138,-5.350928 -2.97575,-1.633325 -5.95462,-3.256956 -8.94709,-4.852234 -2.44927,-1.38859 -4.89598,-2.774961 -7.2685,-4.313337 -1.90473,-1.347616 -3.82186,-2.777704 -5.32353,-4.644466 -1.9532,-2.394025 -3.32265,-5.142201 -4.60655,-8.001475 -1.41246,-3.125405 -2.7345,-6.306428 -3.76479,-9.598378 -1.22284,-2.602449 -2.45134,-5.204656 -2.43226,-8.174081 0.55283,-10.140306 6.38729,-20.3549003 14.30356,-25.61454203 2.82596,-1.41767507 5.72648,-2.64630427 8.73821,-3.55598607 2.56448,-0.9305335 5.15951,-1.5866836 7.87316,-1.8435981 3.85997,-0.7128594 7.78676,-0.7748773 11.69215,-1.0933565 4.65571,-0.3715469 9.29843,-0.8801147 13.95296,-1.2610662 4.91116,-0.2801716 9.87143,-0.2972032 14.71031,-1.2629904 3.45239,-0.7615157 6.97873,-1.4826117 10.13991,-3.1992527 2.31265,-1.600962 4.33508,-3.590578 6.1352,-5.826028 5.60556,-6.177472 11.94054,-20.804037 -5.44724,12.4430845 1.35507,-2.5741817 2.31237,-5.2695245 2.75649,-8.2175255 0.20502,-3.168943 -0.14562,-5.788248 -2.03803,-8.388549 -1.33348,-2.231488 -2.71844,-4.448381 -4.52336,-6.282161 -2.0072,-2.075287 -3.66304,-4.460846 -5.68773,-6.52142 -2.09175,-2.179838 -4.02076,-4.57166 -5.99125,-6.872738 -1.87995,-2.316069 -3.76753,-4.596729 -5.51715,-7.028471 -1.89671,-2.141896 -3.87237,-4.201308 -5.82963,-6.275063 -1.79433,-1.678682 -3.4993,-3.472482 -5.31747,-5.120259 -1.82624,-1.671426 -3.75126,-3.254593 -5.73658,-4.687214 0,0 10.33395,-19.194607 10.33395,-19.194607 z"
       inkscape:connector-curvature="0" />
    <path
       style="fill:#fefe50;fill-opacity:1;stroke:none;stroke-width:0.46489725px;stroke-linecap:butt;stroke-linejoin:miter;stroke-opacity:1"
       d="m 424.29502,129.95914 c -15.82228,58.23516 -17.32794,76.72684 -27.85158,87.63858 -2.2241,2.30613 -8.708,8.48432 -16.83391,12.47963 -2.9946,1.47241 -6.22141,2.22116 -9.73162,2.77924 -3.36348,0.53472 -6.96879,0.93088 -11.70344,-0.0224 -8.17969,-1.64683 -13.08571,-3.08952 -19.09319,-4.77104 -3.00937,-0.84226 -4.24024,-0.88123 -6.70625,-1.81817 -1.02306,-0.38871 -2.81673,-0.55007 -4.09577,-1.0841 -0.24785,-0.10339 -1.15191,-0.36152 -1.15191,-0.36152 -0.46271,-0.12401 -0.81569,-0.29866 -1.19134,-0.40075 -0.68381,-0.18576 -1.11278,-0.42724 -1.66527,-0.60619 -1.70065,-0.55081 -2.95758,-0.83477 -3.09677,-1.13035 -0.12228,-0.27168 1.52993,-1.49478 3.01372,-1.52079 53.08721,-0.92784 100.10733,-91.18219 100.10733,-91.18219 z"
       id="path939"
       inkscape:connector-curvature="0"
       sodipodi:nodetypes="cssssssssssssc" />
    <path
       style="fill:#fefe50;fill-opacity:1;stroke:none;stroke-width:0.29112461px;stroke-linecap:butt;stroke-linejoin:miter;stroke-opacity:1"
       d="m 400.56141,138.68407 c -1.42715,37.19081 0.28166,48.96081 -4.63044,56.01387 -1.03815,1.49064 -4.14227,5.48992 -8.56618,8.12014 -1.63037,0.96939 -3.50656,1.48132 -5.58394,1.87524 -1.99058,0.3775 -4.1495,0.66964 -7.19455,0.11664 -5.2606,-0.9553 -8.48074,-1.81746 -12.41169,-2.81904 -1.96907,-0.50171 -2.73101,-0.51273 -4.3797,-1.08068 -0.68404,-0.23561 -1.80917,-0.31812 -2.67114,-0.64324 -0.16657,-0.0634 -0.75931,-0.21687 -0.75931,-0.21687 -0.30219,-0.0735 -0.5439,-0.18063 -0.78917,-0.24141 -0.44664,-0.11049 -0.74456,-0.25913 -1.10955,-0.36672 -1.12349,-0.33108 -1.93628,-0.49753 -2.06393,-0.68379 -0.11691,-0.16913 0.72708,-0.96734 1.63507,-1.00054 32.48804,-1.18311 48.5244,-59.07382 48.5244,-59.07382 z"
       id="path939-7"
       inkscape:connector-curvature="0"
       sodipodi:nodetypes="cssssssssssssc" />
    <path
       style="fill:#fecb00;fill-opacity:1;stroke:none;stroke-width:0.76577049"
       d="m 117.1318,19.054935 c -2.16175,-8.099014 -3.87405,-14.7854476 -3.80511,-14.858729 0.30981,-0.3293694 55.17742,-14.783425 56.11788,-14.783425 1.61194,0 6.98921,7.6165624 7.96534,11.28238165 0.72911,2.73813875 0.64946,3.74124365 -0.50537,6.36590945 l -1.37088,3.1155979 -26.76009,11.801872 c -14.71806,6.491015 -26.97413,11.801843 -27.23569,11.801843 -0.26159,0 -2.2443,-6.626435 -4.40608,-14.72545 z"
       id="path107"
       inkscape:connector-curvature="0" />
    <path
       style="fill:#ffffff;fill-opacity:1;stroke:#000000;stroke-width:1.17374957;stroke-opacity:1"
       d="M 56.230244,72.509938 C 48.774455,70.58513 47.282983,64.14107 51.43597,51.795754 c 1.667471,-4.956819 3.031786,-9.582734 3.031786,-10.279776 0,-2.595637 -10.05637,-17.423659 -11.823281,-17.433313 -1.009698,-0.0057 -6.528556,1.572835 -12.26411,3.507465 C 17.866715,31.811057 14.915476,31.931454 9.7134755,28.433247 4.6351245,25.018212 3.0657569,20.809061 5.0702838,15.979972 6.7586908,11.912419 7.359019,11.683899 28.502281,7.060441 l 13.396856,-2.9295302 6.28431,2.8709716 c 3.456359,1.57901 6.284309,2.4414681 6.284309,1.9165791 0,-0.5249192 -3.152525,-2.3187132 -7.005638,-3.9862013 C 34.48694,-0.68301564 20.833287,-17.578338 23.418509,-24.819865 c 1.601076,-4.484814 6.612978,-7.64223 13.121519,-8.266286 6.527187,-0.625837 6.037559,-0.963875 20.095058,13.873135 l 8.42375,8.890868 -1.748908,9.86921346 C 61.143688,11.771354 61.137895,15.64293 63.280167,19.382599 c 1.962591,3.425918 2.387722,1.011622 0.456091,-2.590033 -0.987905,-1.841997 -0.817272,-5.469728 0.699936,-14.8799429 1.620329,-10.0496926 1.75866,-13.7812331 0.718923,-19.3937181 -3.981359,-21.491478 0.86173,-38.005375 11.863447,-40.451913 5.694618,-1.266356 15.000628,0.533377 17.943736,3.470273 2.336451,2.331482 2.335838,2.350164 -0.426465,12.915289 -3.946383,15.094069 -3.22689,25.757659 2.558099,37.9133712 2.341759,4.9206557 4.825636,8.9466035 5.519726,8.9466035 0.69411,0 1.76456,-1.3190693 2.37883,-2.9312537 1.1328,-2.97318704 3.34784,-3.5245838 7.55409,-1.880482 1.74288,0.6812482 3.28191,4.6584603 6.66039,17.212028 l 4.39373,16.326112 -2.26191,3.668437 c -2.54121,4.121465 -12.15467,13.332885 -13.91478,13.332885 -0.63027,0 -2.46855,-0.601327 -4.08504,-1.33632 -5.043018,-2.292869 -13.329019,2.653067 -34.771313,20.755056 -2.083889,1.759258 -9.008422,2.910353 -12.337465,2.050947 z"
       id="path111"
       inkscape:connector-curvature="0" />
    <path
       style="fill:#ffffff;fill-opacity:1;stroke:#000000;stroke-width:0.34950432px;stroke-linecap:butt;stroke-linejoin:miter;stroke-opacity:1"
       d="M 544.0767,4.2296891 C 563.61796,21.315193 563.61796,21.315193 563.61796,21.315193 Z"
       id="path60"
       inkscape:connector-curvature="0" />
    <path
       style="fill:#ffffff;fill-opacity:1;stroke:#000000;stroke-width:0.34950432px;stroke-linecap:butt;stroke-linejoin:miter;stroke-opacity:1"
       d="m 571.30728,-71.018329 c 19.07092,25.002997 15.14521,37.966615 15.14521,37.966615 0,0 -0.80744,16.511825 -15.65004,7.787584 -14.84264,-8.724259 -13.95651,-20.467817 -14.11092,-20.735269 -0.15439,-0.267401 0.0565,-0.21089 0.0565,-0.21089"
       id="path62"
       inkscape:connector-curvature="0" />
    <path
       style="fill:#ffffff;fill-opacity:1;stroke:#000000;stroke-width:0.34950432px;stroke-linecap:butt;stroke-linejoin:miter;stroke-opacity:1"
       d="m 608.93654,-25.245352 c -16.70068,13.636241 -21.25399,10.38167 -21.25399,10.38167 0,0 -6.79061,-2.497684 -4.01037,-10.342864"
       id="path66"
       inkscape:connector-curvature="0" />
    <path
       style="fill:#ffffff;fill-opacity:1;stroke:#000000;stroke-width:0.34950432px;stroke-linecap:butt;stroke-linejoin:miter;stroke-opacity:1"
       d="m 595.36195,-16.555199 c -1.35585,8.9112301 -2.12836,13.4824806 13.12355,15.59835137"
       id="path70"
       inkscape:connector-curvature="0"
       sodipodi:nodetypes="cc" />
    <path
       style="fill:#fecb00;fill-opacity:1;stroke:none;stroke-width:1.18939304"
       d="M 506.19706,40.153892 C 488.1339,23.703113 486.20105,21.56332 484.11777,15.710512 480.41983,5.321565 483.42449,0.58999303 494.12005,-0.0404915 l 6.18604,-0.36469327 10.55782,11.52485477 c 5.80678,6.338705 10.95973,11.632592 11.451,11.764225 1.6425,0.440117 26.26409,-29.1309564 33.11045,-39.766433 3.71826,-5.776115 6.93671,-10.626945 7.15214,-10.779616 0.2154,-0.152672 5.95219,4.709132 12.74835,10.804012 l 12.3567,11.0815774 -29.70989,32.3400946 c -16.3404,17.787004 -30.2205,32.177884 -30.84465,31.979701 -0.62412,-0.198276 -10.04306,-8.473376 -20.93095,-18.389339 z"
       id="path109"
       inkscape:connector-curvature="0" />
    <path
       style="fill:#ffffff;fill-opacity:1;stroke:#000000;stroke-width:1.23519456;stroke-opacity:1"
       d="m 555.01623,12.876896 c -4.85789,-4.0934143 -9.00105,-7.7345309 -9.20708,-8.0913644 -0.20602,-0.3568335 1.31873,-3.4804016 3.38834,-6.9412611 2.06964,-3.4608594 3.58406,-6.6023465 3.36539,-6.9810793 -0.46424,-0.8041145 -1.45455,0.4971624 -5.51731,7.2499052 -3.71264,6.1708047 -6.63306,6.2373206 -7.7439,0.1763771 -1.43255,-7.8163188 -0.65207,-15.3126795 3.53027,-33.9069135 6.47789,-28.800075 12.75851,-38.141323 23.67735,-35.215623 4.44368,1.190688 5.77798,2.364825 9.92481,8.733505 8.7674,13.464812 12.05335,30.097052 7.00906,35.477149 -4.29671,4.582733 1.60456,14.059379 7.77003,12.477656 2.11512,-0.542633 2.54498,4.5e-5 2.77697,3.50593 0.30301,4.579558 3.50702,8.1632913 8.5266,9.5371605 1.80198,0.49323227 3.20308,1.17009374 3.11357,1.50419627 -0.0896,0.33410126 -4.2265,4.26074813 -9.19328,8.72588483 -8.95074,8.0467394 -9.1276,8.1319464 -20.02483,9.6482044 -6.04688,0.841379 -11.34738,1.532701 -11.77889,1.536297 -0.43152,0.0035 -4.75922,-3.342603 -9.6171,-7.436024 z m 25.42441,-35.271447 c 0.71051,-0.669125 -0.0429,-1.053592 -2.12936,-1.086753 -5.13273,-0.08161 -14.0506,-6.73598 -17.85273,-13.321436 -1.86371,-3.228032 -3.17275,-6.67449 -2.90902,-7.658809 0.26375,-0.984309 -0.0682,-1.936442 -0.73781,-2.115853 -2.12504,-0.569394 0.92676,10.150769 3.92255,13.778925 5.65246,6.845601 17.07911,12.878249 19.70637,10.403926 z"
       id="path113"
       inkscape:connector-curvature="0" />
    <path
       style="fill:#ffffff;fill-opacity:1;stroke:#000000;stroke-width:1.23519456;stroke-opacity:1"
       d="m 585.48862,-17.671158 c -1.502,-1.866446 -1.44265,-3.798581 0.32147,-10.463693 2.85478,-10.785808 1.29679,-18.53064 -6.41475,-31.887404 l -5.90996,-10.236394 3.43835,-8.34174 c 1.89113,-4.587932 6.26422,-18.821536 9.71801,-31.630221 6.88876,-25.54741 7.54877,-26.75856 15.5353,-28.50639 6.45466,-1.41257 18.19951,0.19755 23.3985,3.20774 6.20125,3.59052 6.92262,9.16574 2.73714,21.15429 -4.6783,13.40013 -19.58656,37.375849 -32.66394,52.530825 -2.1805,2.52692 -3.76785,4.935113 -3.52744,5.351538 0.24044,0.416415 2.79039,-2.165156 5.66665,-5.736811 l 5.22947,-6.493926 5.13478,1.375854 c 2.82412,0.756718 6.96078,3.021673 9.19256,5.033223 7.90044,7.120834 6.95681,16.742576 -2.85006,29.060489 -6.75384,8.483139 -15.1249,15.075264 -21.53534,16.958865 -5.14628,1.512146 -5.14634,1.512127 -7.47074,-1.376245 z"
       id="path115"
       inkscape:connector-curvature="0" />
    <path
       style="fill:#ffffff;fill-opacity:1;stroke:#000000;stroke-width:1.23519456;stroke-opacity:1"
       d="m 599.77903,-4.0084307 c -3.20836,-1.7831 -4.38469,-3.773391 -4.32825,-7.3230933 0.0391,-2.463351 1.61906,-4.254956 7.4877,-8.491055 4.09095,-2.95292 9.76725,-8.197512 12.61403,-11.654657 9.94175,-12.073352 16.98627,-12.748969 19.32969,-1.853848 2.39715,11.144919 -4.59467,21.016782 -20.38007,28.7749172 -5.13618,2.5243122 -10.78832,2.7345833 -14.7231,0.5477361 z"
       id="path117"
       inkscape:connector-curvature="0" />
    <path
       style="fill:#ffffff;fill-opacity:1;stroke:#000000;stroke-width:0.16880246px;stroke-linecap:butt;stroke-linejoin:miter;stroke-opacity:1"
       d="m 330.52635,-173.96635 c 87.84957,27.88999 96.33062,21.85322 96.33062,21.85322 l -13.42874,12.16029 -14.52113,-0.1548 -2.78066,16.29936 c 0,0 6.64408,6.81074 10.61801,14.71429 3.97393,7.90357 -55.19542,1.16404 -60.03512,-9.98392 -4.83972,-11.14794 -16.32098,-27.04173 -16.18298,-54.88844 z"
       id="path953"
       inkscape:connector-curvature="0" />
    <path
       style="fill:#ffffff;fill-opacity:1;stroke:#000000;stroke-width:0.16880246px;stroke-linecap:butt;stroke-linejoin:miter;stroke-opacity:1"
       d="m 346.69096,-168.88613 c 10.05934,15.90929 13.37886,17.24976 13.37886,17.24976 l 38.83728,11.52873"
       id="path955"
       inkscape:connector-curvature="0" />
    <path
       style="fill:#ffffff;fill-opacity:1;stroke:#000000;stroke-width:0.16880246px;stroke-linecap:butt;stroke-linejoin:miter;stroke-opacity:1"
       d="m 396.12644,-123.80828 c -21.59048,-2.39304 -20.68194,0.60057 -20.68194,0.60057 0,0 -3.80026,-6.84169 -34.69479,-6.6931"
       id="path957"
       inkscape:connector-curvature="0" />
    <path
       style="fill:#ff0000;fill-opacity:1;stroke:#000000;stroke-width:0.49464235;stroke-opacity:1"
       d="m 367.75058,-109.61983 c -12.53676,-2.82147 -19.30074,-6.23278 -21.26393,-10.72421 -0.55454,-1.26865 -1.7666,-3.74821 -2.69351,-5.51014 -0.92686,-1.76189 -1.51868,-3.32144 -1.31514,-3.46562 0.73647,-0.52186 8.74676,-0.12827 15.96596,0.78454 8.09415,1.02341 12.69501,2.35746 15.59944,4.52317 0.94321,0.70332 1.74905,1.07871 1.79077,0.83421 0.14829,-0.86932 4.30171,-1.33159 9.98883,-1.11179 9.84045,0.38031 9.91926,0.40825 13.58511,4.8186 3.74477,4.50533 7.25462,10.33615 6.86398,11.40298 -1.17417,3.20671 -20.91055,2.41169 -38.52151,-1.55174 z"
       id="path983"
       inkscape:connector-curvature="0" />
    <path
       style="fill:url(#linearGradient1037);fill-opacity:1;stroke:#000000;stroke-width:0.49464235;stroke-opacity:1"
       d="m 378.85067,-146.34034 c -17.71468,-5.30581 -18.89453,-5.72422 -20.58262,-7.29903 -2.08458,-1.94474 -10.74832,-13.97411 -10.29545,-14.29496 0.1685,-0.11931 5.11493,1.18183 10.99208,2.89161 24.24243,7.05262 40.85814,11.02049 53.20587,12.70561 4.85469,0.66254 9.73477,1.13893 10.84464,1.05875 1.10986,-0.0803 2.07259,-0.0687 2.13936,0.0255 0.0667,0.0943 -2.61464,2.61295 -5.95868,5.59712 l -6.08007,5.42573 -6.76462,-0.0558 c -3.72053,-0.0308 -7.20204,-0.13907 -7.73663,-0.24089 -0.53459,-0.10206 -9.42836,-2.71784 -19.76388,-5.81349 z"
       id="path985"
       inkscape:connector-curvature="0" />
    <path
       style="fill:#000000;fill-opacity:1;stroke:#000000;stroke-width:0.69953001;stroke-opacity:1"
       d="m 372.85917,-125.53242 c -3.18706,-2.02419 -14.68823,-4.28573 -23.28664,-4.57892 -4.07442,-0.13896 -7.62006,-0.42304 -7.87914,-0.63134 -1.07137,-0.86129 -4.81167,-10.06924 -6.84215,-16.84422 -2.27681,-7.59679 -3.36516,-13.67815 -3.79317,-21.19454 -0.29895,-5.24949 -1.10743,-5.06563 8.60579,-1.95706 l 6.57424,2.10396 4.39811,6.37365 c 7.53535,10.92 6.04509,10.01224 26.18273,15.94833 9.6619,2.84811 18.55604,5.52548 19.76474,5.94976 l 2.19762,0.77136 -1.51203,7.689 -1.51207,7.68901 -6.54413,-0.56683 c -3.5993,-0.31174 -8.25929,-0.29599 -10.35556,0.0351 -3.39372,0.53586 -4.05106,0.4496 -5.99834,-0.78716 z"
       id="path987"
       inkscape:connector-curvature="0" />
    <circle
       style="fill:#ffffff;fill-opacity:1;stroke:#000000;stroke-width:1;stroke-opacity:1;stroke-miterlimit:4;stroke-dasharray:none"
       id="path989"
       cx="332.76816"
       cy="-246.12109"
       r="33.095276"
       transform="rotate(3.6714345)" />
    <circle
       style="fill:#ffffff;fill-opacity:0.98936169;stroke:#000000;stroke-width:1;stroke-opacity:1;stroke-miterlimit:4;stroke-dasharray:none"
       id="path989-6"
       cx="422.55933"
       cy="-235.60011"
       r="33.095276"
       transform="rotate(3.6714345)" />
    <path
       style="fill:#0c0c0c;fill-opacity:1;stroke:#000000;stroke-width:0.3191171px;stroke-linecap:butt;stroke-linejoin:miter;stroke-opacity:1"
       d="m 307.95283,-255.68848 c 53.61743,-33.77198 71.5271,2.93296 71.5271,2.93296 0,0 1.83784,-53.21222 -40.24447,-47.76003 -42.08232,5.45221 -13.47018,36.38973 -31.28263,44.82707 z"
       id="path1014"
       inkscape:connector-curvature="0" />
    <path
       style="fill:#000000;fill-opacity:1;stroke:#000000;stroke-width:0.3191171px;stroke-linecap:butt;stroke-linejoin:miter;stroke-opacity:1"
       d="m 413.16202,-249.07501 c 62.26754,-11.75282 65.4666,28.96296 65.4666,28.96296 0,0 21.22669,-48.82975 -19.9226,-59.19229 -41.14931,-10.36253 -25.87828,28.91319 -45.544,30.22933 z"
       id="path1014-7"
       inkscape:connector-curvature="0" />
    <circle
       style="fill:#000000;fill-opacity:1;stroke:#ffffff;stroke-width:0.12118954;stroke-opacity:1"
       id="path989-5"
       cx="331.45529"
       cy="-237.60217"
       r="12.568432"
       transform="rotate(3.6714345)" />
    <circle
       style="fill:#000000;fill-opacity:1;stroke:#ffffff;stroke-width:0.12118954;stroke-opacity:1"
       id="path989-5-5"
       cx="421.25101"
       cy="-222.70062"
       r="12.568432"
       transform="rotate(3.6714345)" />
  </g>
</svg>
