<?xml version="1.0" encoding="UTF-8" standalone="no"?>
<!-- Created with Inkscape (http://www.inkscape.org/) -->

<svg
   xmlns:dc="http://purl.org/dc/elements/1.1/"
   xmlns:cc="http://creativecommons.org/ns#"
   xmlns:rdf="http://www.w3.org/1999/02/22-rdf-syntax-ns#"
   xmlns:svg="http://www.w3.org/2000/svg"
   xmlns="http://www.w3.org/2000/svg"
   xmlns:sodipodi="http://sodipodi.sourceforge.net/DTD/sodipodi-0.dtd"
   xmlns:inkscape="http://www.inkscape.org/namespaces/inkscape"
   width="540"
   height="140"
   viewBox="0 0 142.875 37.041668"
   version="1.1"
   id="svg8"
   inkscape:version="0.92.3 (2405546, 2018-03-11)"
   sodipodi:docname="logonaget4.svg">
  <defs
     id="defs2" />
  <sodipodi:namedview
     id="base"
     pagecolor="#ffffff"
     bordercolor="#666666"
     borderopacity="1.0"
     inkscape:pageopacity="0.0"
     inkscape:pageshadow="2"
     inkscape:zoom="0.64"
     inkscape:cx="187.01728"
     inkscape:cy="166.4264"
     inkscape:document-units="mm"
     inkscape:current-layer="layer1"
     showgrid="false"
     units="px"
     inkscape:window-width="1366"
     inkscape:window-height="712"
     inkscape:window-x="0"
     inkscape:window-y="25"
     inkscape:window-maximized="1" />
  <metadata
     id="metadata5">
    <rdf:RDF>
      <cc:Work
         rdf:about="">
        <dc:format>image/svg+xml</dc:format>
        <dc:type
           rdf:resource="http://purl.org/dc/dcmitype/StillImage" />
        <dc:title />
      </cc:Work>
    </rdf:RDF>
  </metadata>
  <g
     inkscape:label="Layer 1"
     inkscape:groupmode="layer"
     id="layer1"
     transform="translate(0,-259.95831)">
    <text
       xml:space="preserve"
       style="font-style:normal;font-weight:normal;font-size:28.7240715px;line-height:1.25;font-family:sans-serif;letter-spacing:0px;word-spacing:0px;fill:#000000;fill-opacity:1;stroke:none;stroke-width:0.71810168"
       x="-1.8122863"
       y="283.21936"
       id="text962"
       transform="scale(0.96396422,1.0373829)"><tspan
         sodipodi:role="line"
         id="tspan960"
         x="-1.8122863"
         y="283.21936"
         style="font-style:italic;font-variant:normal;font-weight:600;font-stretch:normal;font-family:FreeSans;-inkscape-font-specification:'FreeSans Semi-Bold Italic';fill:#000000;fill-opacity:1;stroke-width:0.71810168">N    GET<tspan
   style="fill:#fecb00;fill-opacity:1;stroke-width:0.71810168"
   id="tspan902">.</tspan>ID</tspan></text>
    <rect
       style="fill:#fecb00;fill-opacity:1;stroke:none;stroke-width:0.02821501"
       id="rect832"
       width="35.739658"
       height="22.08832"
       x="-182.1851"
       y="217.23387"
       ry="5.3319693"
       transform="rotate(-43.891654)" />
    <path
       style="fill:#584700;fill-opacity:1;stroke:none;stroke-width:0.05743285"
       id="path906"
       d="m 49.359466,264.88946 c 0.108015,0.26812 0.224023,0.53327 0.325767,0.80397 0.09404,0.2641 0.182189,0.52841 0.263905,0.79684 0.09106,0.31283 0.171507,0.62891 0.251862,0.94481 0.0613,0.32998 0.113102,0.6603 0.180191,0.98939 0.06564,0.32756 0.1407,0.65452 0.223639,0.97829 0.09578,0.30709 0.1344,0.62595 0.225123,0.93398 0.09222,0.29305 0.120359,0.59866 0.137722,0.90364 0.04549,0.37709 -0.02582,0.70755 -0.202858,1.03953 -0.171322,0.29009 -0.418324,0.50285 -0.681301,0.70413 -1.038968,-0.10666 -1.568542,1.08254 -2.462699,1.3804 -0.151799,0.0506 -0.305964,0.074 -0.457356,0.12693 -0.323484,0.0972 -0.661645,0.16723 -0.998727,0.12487 -0.421497,-0.0733 -0.83231,-0.2097 -1.234317,-0.35551 -0.545224,-0.21127 -1.045933,-0.51715 -1.573388,-0.7667 -0.501231,-0.2288 -1.009791,-0.44139 -1.507665,-0.67777 -0.408448,-0.2005 -0.811262,-0.41441 -1.250406,-0.53931 -0.281486,-0.15157 -0.597199,-0.18117 -0.899622,-0.26182 -0.348939,-0.0905 -0.707971,-0.12221 -1.066756,-0.14012 -0.134871,0.0212 -0.194227,0.0194 -0.318203,0.0839 -0.04794,0.0249 -0.180512,0.11864 -0.133408,0.0921 3.983955,-2.24071 2.290408,-1.50139 1.761749,-0.95305 -0.195268,0.22208 -0.241805,0.4977 -0.271168,0.78165 -0.06114,0.37304 -0.119937,0.74529 -0.151874,1.12225 -0.02076,0.31942 -0.04676,0.63852 0.01,0.95492 0.04184,0.24138 0.148957,0.46508 0.258905,0.68191 0.146247,0.27937 0.311797,0.54721 0.478005,0.81507 0.213029,0.32416 0.427693,0.6471 0.639974,0.97178 0.259589,0.3758 0.529105,0.74428 0.788557,1.12014 0.260003,0.35569 0.458117,0.75417 0.650803,1.14943 0.117256,0.31443 0.255356,0.62234 0.343145,0.94692 0.07191,0.31068 0.07886,0.63065 0.08498,0.94795 0.0044,0.35713 -0.11933,0.66891 -0.296779,0.97056 -0.661963,0.9342 -1.783974,1.52954 -2.850568,1.87456 -0.328137,0.0834 -0.668478,0.0848 -1.004815,0.0879 -0.340126,-0.0547 -0.674055,-0.12046 -1.005954,-0.21067 -0.353158,-0.13303 -0.721033,-0.20663 -1.078135,-0.32632 -0.307085,-0.0744 -0.613809,-0.12671 -0.9086,-0.24493 -0.303208,-0.087 -0.596607,-0.20084 -0.899027,-0.28986 -0.269351,-0.0657 -0.524542,-0.18285 -0.784492,-0.27982 -0.264,-0.11466 -0.543545,-0.18953 -0.812291,-0.292 -0.315326,-0.0833 -0.627459,-0.18222 -0.947251,-0.24819 -0.374346,-0.0345 -0.739469,-0.10733 -1.108964,-0.17345 -0.309145,-0.0518 -0.622621,-0.0661 -0.935517,-0.07 -0.777081,0.41552 0.270349,-0.14402 1.964641,-1.09385 0.02065,-0.0117 -0.04818,0.0114 -0.06546,0.0273 -0.06245,0.0583 -0.110479,0.18122 -0.146595,0.25653 -0.08429,0.22827 -0.09799,0.47287 -0.108917,0.71357 -0.02013,0.2695 0.0595,0.52991 0.141761,0.7831 0.147272,0.25551 0.289759,0.5064 0.385146,0.78711 0.09347,0.3031 0.210377,0.59673 0.316062,0.89537 0.129368,0.29257 0.204446,0.60335 0.296661,0.90851 0.130557,0.31836 0.21952,0.65027 0.321863,0.97811 0.08269,0.29266 0.201619,0.57441 0.311101,0.85812 0.115987,0.31568 0.225512,0.63002 0.2902,0.96059 0.05549,0.33095 0.06117,0.66712 0.06556,1.00178 0.0023,0.32882 5.16e-4,0.65766 0,0.98647 0.0097,0.29683 -0.01719,0.58857 -0.207933,0.82515 -1.293999,0.90953 -1.615952,1.3011 -2.754364,1.29396 -0.229901,-0.014 -0.471157,0.0317 -0.690625,-0.0443 -0.09551,-0.0363 -0.167282,-0.0725 -0.245718,-0.13754 0,0 2.053786,-1.31456 2.053786,-1.31456 v 0 c 0.06178,0.0252 0.123314,0.053 0.189824,0.0634 0.21746,0.005 0.435034,0.005 0.652504,5e-5 0.92519,-0.0627 2.102825,-1.0746 -1.462034,1.03439 0.295215,-0.10529 0.313836,-0.33784 0.313075,-0.62495 5.17e-4,-0.32797 0.0023,-0.65595 0.0013,-0.98391 -0.0023,-0.32215 -0.0033,-0.64557 -0.04639,-0.96538 -0.05338,-0.31863 -0.156902,-0.61771 -0.270959,-0.91909 -0.112064,-0.2887 -0.236516,-0.57481 -0.314702,-0.87493 -0.10146,-0.32863 -0.187913,-0.66207 -0.324104,-0.97882 -0.09161,-0.30191 -0.165833,-0.60989 -0.297685,-0.89773 -0.100313,-0.30175 -0.214832,-0.59803 -0.313918,-0.90026 -0.08973,-0.28416 -0.252037,-0.52177 -0.386969,-0.78505 -0.09421,-0.27648 -0.194319,-0.56021 -0.184042,-0.85655 0.0033,-0.2613 0.0095,-0.52262 0.06899,-0.77855 0.252216,-0.98035 1.275929,-1.75069 2.41789,-1.63673 0.315174,0.0226 0.631129,0.0448 0.941385,0.10841 0.369354,0.0721 0.741661,0.11504 1.111804,0.18149 0.326265,0.0776 0.65245,0.16067 0.971227,0.26493 0.27815,0.0855 0.543016,0.19969 0.816702,0.29752 0.256454,0.0983 0.514522,0.19444 0.778953,0.26888 0.298249,0.10367 0.598738,0.19785 0.897553,0.29981 0.300074,0.0921 0.610574,0.1391 0.90783,0.24072 0.351084,0.11943 0.713666,0.20078 1.066784,0.31426 0.31612,0.0807 0.6418,0.14203 0.968095,0.1547 0.322234,-0.0116 0.649843,-0.0277 0.949728,-0.15893 0.788239,-0.41116 0.340505,-0.18065 -1.763137,1.04282 -0.05017,0.0293 0.100011,-0.0593 0.146549,-0.0939 0.01918,-0.0144 0.237415,-0.20444 0.256955,-0.2252 0.03845,-0.0407 0.06974,-0.0879 0.10461,-0.1319 0.182708,-0.26095 0.338925,-0.51457 0.357088,-0.8425 -0.0039,-0.29933 -0.0059,-0.60094 -0.06244,-0.896 -0.07447,-0.31309 -0.204631,-0.60907 -0.305431,-0.91392 -0.180795,-0.38752 -0.374088,-0.77425 -0.629007,-1.11897 -0.257735,-0.37916 -0.520977,-0.75473 -0.796355,-1.12131 -0.213689,-0.32564 -0.428232,-0.65053 -0.645734,-0.97355 -0.173437,-0.27219 -0.346736,-0.544 -0.50405,-0.8258 -0.12007,-0.23683 -0.236848,-0.48211 -0.28704,-0.74439 -0.06714,-0.33793 -0.05511,-0.67537 -0.02812,-1.0183 0.02856,-0.37535 0.06937,-0.75071 0.146143,-1.11961 0.01898,-0.31524 0.03739,-0.63084 0.203518,-0.90869 0.617203,-0.92071 1.778088,-1.54284 2.877663,-1.57896 0.3671,0.0301 0.731356,0.0826 1.089345,0.17151 0.313443,0.0609 0.614837,0.14944 0.906272,0.28233 0.433759,0.15636 0.838356,0.37773 1.254945,0.57375 0.496181,0.23449 0.998611,0.45533 1.495192,0.68885 0.517223,0.25783 1.024918,0.54323 1.572657,0.73246 0.394817,0.12821 0.794937,0.2645 1.212815,0.28612 0.324798,-0.0167 0.64143,-0.0865 0.948945,-0.1924 0.914259,-0.25605 2.370245,-1.2637 -1.244557,0.85389 0.280775,-0.16344 0.52762,-0.36129 0.736006,-0.61256 0.19618,-0.28587 0.305196,-0.55225 0.255641,-0.90606 -0.01286,-0.28679 -0.03175,-0.57521 -0.114724,-0.85194 -0.0903,-0.31112 -0.12755,-0.63105 -0.22045,-0.94179 -0.09316,-0.32581 -0.157969,-0.66216 -0.232041,-0.99236 -0.06399,-0.32637 -0.130708,-0.64987 -0.174985,-0.97956 -0.07532,-0.31098 -0.163294,-0.61878 -0.24857,-0.92687 -0.09049,-0.26151 -0.165479,-0.5287 -0.260108,-0.78871 -0.09415,-0.26269 -0.203273,-0.52281 -0.326872,-0.77228 0,0 2.117127,-1.20548 2.117127,-1.20548 z"
       inkscape:connector-curvature="0" />
    <path
       style="fill:#957900;fill-opacity:1;stroke:none;stroke-width:0.05444424"
       id="path906-6"
       d="m 47.494168,265.81878 c 0.101418,0.25659 0.210333,0.51038 0.305858,0.76948 0.08831,0.25279 0.171063,0.50575 0.247786,0.76269 0.0855,0.29938 0.161025,0.60193 0.23647,0.90429 0.05756,0.31582 0.106188,0.63197 0.169176,0.94696 0.06164,0.31351 0.132103,0.62646 0.209973,0.93634 0.08992,0.29392 0.126188,0.59911 0.211371,0.89392 0.08657,0.28051 0.113007,0.573 0.129303,0.86493 0.04271,0.36089 -0.02426,0.67721 -0.190463,0.99496 -0.160848,0.27763 -0.392764,0.48127 -0.639669,0.67392 -0.975473,-0.10216 -1.472683,1.03613 -2.312206,1.32122 -0.142524,0.0484 -0.287269,0.0707 -0.429409,0.12146 -0.303714,0.093 -0.621215,0.16006 -0.937695,0.11953 -0.395745,-0.0701 -0.781456,-0.20071 -1.158892,-0.34026 -0.511908,-0.20222 -0.982021,-0.49498 -1.477243,-0.73383 -0.470602,-0.219 -0.948084,-0.42247 -1.415539,-0.64873 -0.383483,-0.19189 -0.761687,-0.39664 -1.173996,-0.51619 -0.264282,-0.14504 -0.560702,-0.17338 -0.84465,-0.25056 -0.327616,-0.0866 -0.664707,-0.11698 -1.001566,-0.13412 -0.126633,0.0204 -0.182361,0.0187 -0.298763,0.0802 -0.04501,0.0238 -0.16948,0.11356 -0.125255,0.0882 3.740508,-2.14461 2.150448,-1.437 1.654094,-0.91215 -0.183337,0.21254 -0.227026,0.47636 -0.254599,0.7481 -0.05741,0.35706 -0.112609,0.71335 -0.142595,1.07414 -0.01949,0.30573 -0.0439,0.61116 0.0095,0.91402 0.03929,0.23101 0.13986,0.44511 0.243091,0.65261 0.137305,0.26742 0.292739,0.52379 0.448793,0.78014 0.200013,0.31026 0.401565,0.61934 0.600866,0.93014 0.24373,0.35966 0.496776,0.71232 0.740373,1.07208 0.244111,0.34045 0.430125,0.72182 0.611032,1.10015 0.110093,0.30095 0.239751,0.59566 0.322187,0.90633 0.0675,0.29734 0.07403,0.60358 0.07978,0.9073 0.004,0.34182 -0.112043,0.64023 -0.278642,0.92893 -0.621516,0.89416 -1.674963,1.46396 -2.676384,1.79418 -0.308084,0.0798 -0.62763,0.0813 -0.943412,0.0842 -0.319344,-0.0522 -0.632863,-0.11529 -0.944484,-0.20164 -0.331572,-0.12733 -0.676974,-0.19777 -1.012254,-0.31233 -0.288319,-0.0712 -0.576302,-0.12127 -0.853071,-0.23442 -0.284673,-0.0833 -0.560141,-0.19225 -0.844087,-0.27742 -0.252889,-0.063 -0.492484,-0.17503 -0.736554,-0.26783 -0.247864,-0.10979 -0.510327,-0.18139 -0.76265,-0.27947 -0.29606,-0.0796 -0.589121,-0.17442 -0.889366,-0.23757 -0.351471,-0.0332 -0.694283,-0.1026 -1.041203,-0.16601 -0.290251,-0.0494 -0.58457,-0.0634 -0.878347,-0.067 -0.729591,0.39771 0.253822,-0.13783 1.84459,-1.04696 0.01938,-0.0114 -0.04526,0.0108 -0.06148,0.0261 -0.05862,0.0558 -0.103717,0.17345 -0.137634,0.24554 -0.07913,0.21846 -0.09201,0.45259 -0.102254,0.68297 -0.01892,0.25794 0.05588,0.50717 0.133101,0.74951 0.138269,0.24457 0.272052,0.4847 0.361608,0.75337 0.08776,0.29011 0.197522,0.57113 0.296751,0.857 0.121463,0.28 0.191952,0.57745 0.278527,0.86954 0.122585,0.30471 0.20611,0.62238 0.302201,0.93617 0.07762,0.28011 0.189296,0.54975 0.292089,0.82133 0.108893,0.30212 0.211729,0.60299 0.272466,0.91941 0.05209,0.31674 0.05744,0.63847 0.06156,0.95881 0.0023,0.31471 5.14e-4,0.62946 0,0.94419 0.0093,0.28407 -0.01621,0.56331 -0.19523,0.78974 -1.214919,0.87054 -1.517205,1.2453 -2.586051,1.23848 -0.215855,-0.0133 -0.442369,0.0302 -0.648421,-0.0423 -0.08968,-0.0347 -0.157055,-0.0693 -0.230701,-0.13164 0,0 1.928285,-1.25818 1.928285,-1.25818 v 0 c 0.05802,0.0241 0.11578,0.0507 0.178224,0.0608 0.204166,0.005 0.40845,0.005 0.612628,2e-5 0.868655,-0.0598 1.974331,-1.02852 -1.372687,0.99004 0.277168,-0.10088 0.294656,-0.32335 0.293941,-0.59816 5.13e-4,-0.3139 0.0023,-0.6278 0.0013,-0.94171 -0.0023,-0.30834 -0.0031,-0.61787 -0.04356,-0.92399 -0.05013,-0.30496 -0.147316,-0.59122 -0.2544,-0.87967 -0.105223,-0.27632 -0.22207,-0.55017 -0.295474,-0.83742 -0.09526,-0.31452 -0.176431,-0.63367 -0.3043,-0.93685 -0.08601,-0.28898 -0.155699,-0.58372 -0.279495,-0.85925 -0.09425,-0.28879 -0.20179,-0.57237 -0.294821,-0.86165 -0.08425,-0.27196 -0.236634,-0.4994 -0.363325,-0.75139 -0.08844,-0.26463 -0.182443,-0.53619 -0.172793,-0.81981 0.0033,-0.2501 0.0091,-0.50023 0.06477,-0.74518 0.236802,-0.93831 1.197959,-1.67563 2.270144,-1.56654 0.29591,0.0219 0.59256,0.0429 0.883856,0.10367 0.346778,0.0688 0.696339,0.11013 1.043863,0.17371 0.306327,0.0743 0.612579,0.15379 0.91188,0.25356 0.261154,0.0819 0.509835,0.19114 0.766793,0.28476 0.240781,0.0939 0.483084,0.18611 0.731349,0.25735 0.280023,0.0993 0.56216,0.18936 0.842716,0.28696 0.281732,0.0883 0.573258,0.13314 0.852348,0.23042 0.329632,0.11427 0.670053,0.19217 1.001594,0.30076 0.296808,0.0771 0.602588,0.13593 0.90894,0.14807 0.302545,-0.0115 0.61013,-0.0265 0.891697,-0.15208 0.740065,-0.39355 0.319687,-0.17292 -1.655401,0.99808 -0.04709,0.0279 0.0939,-0.0569 0.137595,-0.0898 0.01803,-0.0136 0.222911,-0.19567 0.241258,-0.21556 0.03612,-0.039 0.06547,-0.0841 0.09822,-0.12623 0.171541,-0.24974 0.318216,-0.49248 0.33526,-0.80636 -0.0036,-0.28651 -0.0056,-0.57518 -0.05861,-0.85759 -0.06993,-0.29966 -0.192134,-0.58297 -0.286775,-0.87474 -0.169742,-0.3709 -0.35122,-0.74105 -0.590565,-1.07098 -0.241987,-0.36289 -0.489146,-0.72237 -0.747695,-1.07324 -0.200635,-0.31168 -0.402067,-0.62264 -0.606278,-0.93181 -0.162836,-0.26051 -0.325544,-0.52069 -0.473245,-0.79038 -0.112737,-0.22667 -0.222376,-0.46144 -0.269496,-0.71247 -0.06305,-0.32343 -0.05172,-0.64639 -0.02644,-0.97463 0.0268,-0.35926 0.06513,-0.71853 0.137212,-1.07161 0.01781,-0.30174 0.03508,-0.60377 0.19108,-0.86973 0.579484,-0.88125 1.669435,-1.47667 2.701819,-1.51126 0.344666,0.0292 0.686666,0.0792 1.022775,0.16414 0.294292,0.0583 0.57727,0.14305 0.850896,0.27023 0.407254,0.14966 0.787128,0.36154 1.178258,0.54917 0.465861,0.22441 0.937588,0.43581 1.403822,0.65931 0.485618,0.24678 0.962283,0.51993 1.476563,0.70105 0.370684,0.12273 0.746361,0.25315 1.138702,0.27384 0.304944,-0.0158 0.602229,-0.0828 0.890952,-0.18414 0.858396,-0.24507 2.225414,-1.20951 -1.168505,0.81726 0.263622,-0.15641 0.49538,-0.34578 0.691032,-0.58627 0.184189,-0.27362 0.286543,-0.52859 0.240028,-0.8672 -0.01205,-0.27451 -0.02981,-0.55056 -0.10772,-0.8154 -0.08479,-0.29779 -0.119757,-0.60401 -0.20698,-0.90143 -0.08746,-0.31186 -0.14832,-0.63376 -0.217859,-0.94981 -0.06008,-0.31239 -0.122725,-0.62199 -0.164296,-0.93757 -0.07073,-0.29762 -0.153311,-0.59223 -0.233383,-0.88709 -0.08497,-0.25034 -0.155364,-0.50606 -0.24421,-0.75491 -0.08839,-0.25142 -0.190847,-0.5004 -0.3069,-0.73919 0,0 1.987753,-1.15376 1.987753,-1.15376 z"
       inkscape:connector-curvature="0" />
    <path
       style="fill:#fefe50;fill-opacity:1;stroke:none;stroke-width:0.03592639px;stroke-linecap:butt;stroke-linejoin:miter;stroke-opacity:1"
       d="m 41.160033,290.48511 c -3.309056,3.28604 -4.124324,4.4654 -5.250235,4.78907 -0.237954,0.0685 -0.910608,0.23133 -1.608809,0.18473 -0.257306,-0.0172 -0.502191,-0.0918 -0.758676,-0.19001 -0.245761,-0.0941 -0.502351,-0.20696 -0.782384,-0.45369 -0.483792,-0.42629 -0.756382,-0.7124 -1.093463,-1.05706 -0.168857,-0.17265 -0.249726,-0.22282 -0.378559,-0.3808 -0.05345,-0.0656 -0.167258,-0.14566 -0.23222,-0.23084 -0.0126,-0.0166 -0.06313,-0.0688 -0.06313,-0.0688 -0.02617,-0.0262 -0.04306,-0.0515 -0.06426,-0.0728 -0.03857,-0.0389 -0.05797,-0.0716 -0.08802,-0.10486 -0.09254,-0.1025 -0.165681,-0.17015 -0.163577,-0.19531 0.0023,-0.0229 0.160148,-0.0407 0.260455,0.0147 3.588703,1.98915 10.222864,-2.2343 10.222864,-2.2343 z"
       id="path939"
       inkscape:connector-curvature="0"
       sodipodi:nodetypes="cssssssssssssc" />
    <path
       style="fill:#fefe50;fill-opacity:1;stroke:none;stroke-width:0.02249757px;stroke-linecap:butt;stroke-linejoin:miter;stroke-opacity:1"
       d="m 39.234544,290.15201 c -1.532534,2.43384 -1.872953,3.28758 -2.47422,3.56979 -0.127073,0.0596 -0.489343,0.20737 -0.887043,0.21243 -0.146567,9.9e-4 -0.291912,-0.0364 -0.446161,-0.0903 -0.147807,-0.0517 -0.303579,-0.11551 -0.486001,-0.27019 -0.315155,-0.26721 -0.497349,-0.44931 -0.721726,-0.66824 -0.112395,-0.10967 -0.162959,-0.13983 -0.251355,-0.24156 -0.03668,-0.042 -0.10878,-0.0913 -0.15391,-0.14624 -0.0087,-0.0108 -0.04246,-0.0438 -0.04246,-0.0438 -0.01738,-0.0167 -0.02942,-0.0331 -0.04347,-0.0467 -0.02562,-0.0247 -0.03983,-0.0462 -0.06008,-0.0674 -0.06239,-0.0656 -0.110365,-0.10807 -0.11171,-0.12552 -0.0013,-0.0158 0.08604,-0.0367 0.148087,-0.004 2.219968,1.17611 5.530045,-2.07859 5.530045,-2.07859 z"
       id="path939-7"
       inkscape:connector-curvature="0"
       sodipodi:nodetypes="cssssssssssssc" />
  </g>
</svg>
