<?xml version="1.0" encoding="UTF-8" standalone="no"?>
<!-- Created with Inkscape (http://www.inkscape.org/) -->

<svg
   xmlns:dc="http://purl.org/dc/elements/1.1/"
   xmlns:cc="http://creativecommons.org/ns#"
   xmlns:rdf="http://www.w3.org/1999/02/22-rdf-syntax-ns#"
   xmlns:svg="http://www.w3.org/2000/svg"
   xmlns="http://www.w3.org/2000/svg"
   xmlns:sodipodi="http://sodipodi.sourceforge.net/DTD/sodipodi-0.dtd"
   xmlns:inkscape="http://www.inkscape.org/namespaces/inkscape"
   width="640mm"
   height="640mm"
   viewBox="0 0 640 640"
   version="1.1"
   id="svg8"
   inkscape:version="0.92.3 (2405546, 2018-03-11)"
   sodipodi:docname="logonaget.svg">
  <defs
     id="defs2" />
  <sodipodi:namedview
     id="base"
     pagecolor="#ffffff"
     bordercolor="#666666"
     borderopacity="1.0"
     inkscape:pageopacity="0.0"
     inkscape:pageshadow="2"
     inkscape:zoom="0.35"
     inkscape:cx="684.62719"
     inkscape:cy="1087.807"
     inkscape:document-units="mm"
     inkscape:current-layer="layer1"
     showgrid="false"
     inkscape:window-width="1366"
     inkscape:window-height="712"
     inkscape:window-x="0"
     inkscape:window-y="25"
     inkscape:window-maximized="1" />
  <metadata
     id="metadata5">
    <rdf:RDF>
      <cc:Work
         rdf:about="">
        <dc:format>image/svg+xml</dc:format>
        <dc:type
           rdf:resource="http://purl.org/dc/dcmitype/StillImage" />
        <dc:title></dc:title>
      </cc:Work>
    </rdf:RDF>
  </metadata>
  <g
     inkscape:label="Layer 1"
     inkscape:groupmode="layer"
     id="layer1"
     transform="translate(0,343)">
    <text
       xml:space="preserve"
       style="font-style:normal;font-variant:normal;font-weight:normal;font-stretch:normal;font-size:119.93112946px;line-height:1.25;font-family:FreeSans;-inkscape-font-specification:FreeSans;letter-spacing:0px;word-spacing:0px;fill:#000000;fill-opacity:1;stroke:none;stroke-width:2.99827838"
       x="59.71846"
       y="47.809227"
       id="text958"
       transform="scale(0.97228436,1.0285057)"><tspan
         sodipodi:role="line"
         id="tspan956"
         x="59.71846"
         y="47.809227"
         style="font-style:italic;font-variant:normal;font-weight:600;font-stretch:normal;font-family:FreeSans;-inkscape-font-specification:'FreeSans Semi-Bold Italic';stroke-width:2.99827838;fill:#ffffff;fill-opacity:1">N</tspan></text>
    <text
       xml:space="preserve"
       style="font-style:normal;font-weight:normal;font-size:111.5471344px;line-height:1.25;font-family:sans-serif;letter-spacing:0px;word-spacing:0px;fill:#000000;fill-opacity:1;stroke:none;stroke-width:2.78867817"
       x="263.05954"
       y="43.526913"
       id="text962"
       transform="scale(0.96396422,1.0373829)"><tspan
         sodipodi:role="line"
         id="tspan960"
         x="263.05954"
         y="43.526913"
         style="font-style:italic;font-variant:normal;font-weight:600;font-stretch:normal;font-family:FreeSans;-inkscape-font-specification:'FreeSans Semi-Bold Italic';stroke-width:2.78867817;fill:#ffffff;fill-opacity:1">GGET</tspan></text>
    <text
       xml:space="preserve"
       style="font-style:normal;font-weight:normal;font-size:97.70487213px;line-height:1.25;font-family:sans-serif;letter-spacing:0px;word-spacing:0px;fill:#ffffff;fill-opacity:1;stroke:none;stroke-width:2.44262147;"
       x="61.76976"
       y="-50.327042"
       id="text962-5"
       transform="scale(0.96396422,1.0373829)"><tspan
         sodipodi:role="line"
         id="tspan960-3"
         x="61.76976"
         y="-50.327042"
         style="font-style:italic;font-variant:normal;font-weight:600;font-stretch:normal;font-family:FreeSans;-inkscape-font-specification:'FreeSans Semi-Bold Italic';stroke-width:2.44262147;fill:#ffffff;fill-opacity:1;">BANANA</tspan></text>
    <rect
       style="fill:#fecb00;fill-opacity:1;stroke:none;stroke-width:0.10957022"
       id="rect832"
       width="138.79147"
       height="85.777847"
       x="107.01347"
       y="99.192734"
       ry="20.706184"
       transform="rotate(-43.891654)" />
    <path
       style="fill:#584700;fill-opacity:1;stroke:none;stroke-width:0.22303484"
       id="path906"
       d="m 262.56253,-72.489287 c 0.41948,1.041113 0.86997,2.070865 1.26508,3.122103 0.36525,1.025586 0.70752,2.052033 1.02486,3.094452 0.35362,1.214829 0.66602,2.442311 0.97808,3.669061 0.23805,1.281395 0.43921,2.564194 0.69975,3.842222 0.25486,1.272031 0.5464,2.541739 0.86848,3.799037 0.37192,1.192587 0.52193,2.43083 0.87424,3.627043 0.35813,1.138079 0.46741,2.324837 0.53484,3.509246 0.17669,1.464359 -0.1003,2.747678 -0.78779,4.036908 -0.66531,1.126527 -1.62451,1.952738 -2.64576,2.73443 -4.03473,-0.414287 -6.09128,4.203938 -9.56365,5.360664 -0.5895,0.196383 -1.18819,0.287046 -1.7761,0.492819 -1.25622,0.377375 -2.56944,0.649455 -3.87846,0.484923 -1.63685,-0.284191 -3.2322,-0.814346 -4.79335,-1.380498 -2.11733,-0.820522 -4.06178,-2.008318 -6.1101,-2.977448 -1.94648,-0.888592 -3.92143,-1.714067 -5.85487,-2.632101 -1.58617,-0.778592 -3.15046,-1.609329 -4.85583,-2.094385 -1.09313,-0.58848 -2.31917,-0.703498 -3.4936,-1.016683 -1.35507,-0.35128 -2.74933,-0.474551 -4.14264,-0.54416 -0.52376,0.08229 -0.75426,0.07543 -1.23571,0.325719 -0.18622,0.09682 -0.701,0.460768 -0.51807,0.357881 15.47129,-8.701522 8.89457,-5.830423 6.84157,-3.701017 -0.7583,0.862408 -0.93902,1.932753 -1.05305,3.035437 -0.23747,1.448678 -0.46576,2.894257 -0.58979,4.358124 -0.0806,1.240496 -0.18158,2.479657 0.0389,3.708466 0.16248,0.937261 0.57846,1.805982 1.00543,2.647959 0.56793,1.084977 1.21083,2.125143 1.85629,3.165334 0.82727,1.258829 1.6609,2.512865 2.48527,3.773813 1.00809,1.459383 2.05473,2.890307 3.06229,4.349913 1.00969,1.381342 1.77905,2.928714 2.52732,4.46375 0.45536,1.221003 0.99165,2.416804 1.33258,3.677263 0.27919,1.206507 0.30625,2.449034 0.32999,3.681279 0.0165,1.386898 -0.4634,2.5976646 -1.15251,3.7690439 -2.57067,3.6279069 -6.92789,5.9398207 -11.0699,7.27968148 -1.27429,0.32386794 -2.59597,0.32971214 -3.9021,0.34128727 -1.32085,-0.21208356 -2.61763,-0.46770461 -3.90652,-0.81809203 -1.37146,-0.51659352 -2.80007,-0.80243502 -4.18684,-1.26721822 -1.19254,-0.2891411 -2.38367,-0.4920372 -3.52846,-0.9511099 -1.17748,-0.3377419 -2.31686,-0.7800206 -3.49128,-1.1256573 -1.046,-0.2555528 -2.03701,-0.7101431 -3.0465,-1.0866929 -1.02522,-0.4452447 -2.11081,-0.7359929 -3.15445,-1.1339313 -1.22454,-0.3231333 -2.43668,-0.7076678 -3.67856,-0.9638234 -1.45373,-0.1345127 -2.87166,-0.4164725 -4.30656,-0.6736321 -1.20053,-0.2007311 -2.41788,-0.2570025 -3.63298,-0.2719011 -3.01772,1.6136346 1.04987,-0.5592602 7.62949,-4.2478764 0.0801,-0.04488 -0.18714,0.04293 -0.25422,0.10554 -0.24252,0.226269 -0.42902,0.703764 -0.56929,0.99623 -0.32735,0.88643 -0.38055,1.8363347 -0.42298,2.7710957 -0.0782,1.0465917 0.23111,2.0577643 0.55052,3.0410583 0.57191,0.9922588 1.12525,1.9665435 1.49567,3.0566712 0.36299,1.1770663 0.81698,2.31731153 1.2274,3.47707027 0.50239,1.13616253 0.79395,2.34304803 1.15205,3.52812243 0.50701,1.2363067 0.85249,2.5252481 1.24993,3.7983977 0.32112,1.1364969 0.78296,2.2305964 1.20813,3.3324324 0.45042,1.225868 0.87575,2.446605 1.12696,3.73037 0.21549,1.285128 0.23757,2.59064 0.25461,3.890287 0.009,1.276941 0.002,2.553948 0,3.830891 0.0378,1.152621 -0.0668,2.285639 -0.80749,3.204363 -5.02512,3.532047 -6.27539,5.052677 -10.6963,5.024887 -0.8928,-0.05388 -1.8297,0.122889 -2.68198,-0.17176 -0.37091,-0.141336 -0.64962,-0.281315 -0.95422,-0.534147 0,0 7.97568,-5.104934 7.97568,-5.104934 v 0 c 0.23995,0.09801 0.47888,0.205684 0.73716,0.246209 0.84448,0.02119 1.68942,0.02074 2.53394,1.57e-4 3.59288,-0.242885 8.16611,-4.173072 -5.67767,4.016969 1.14644,-0.409135 1.21875,-1.311981 1.2158,-2.426909 0.002,-1.273665 0.009,-2.547302 0.005,-3.820967 -0.009,-1.250979 -0.0124,-2.506913 -0.18017,-3.748947 -0.20732,-1.237309 -0.6093,-2.398807 -1.05223,-3.569116 -0.43522,-1.121217 -0.9185,-2.232266 -1.22212,-3.397779 -0.394,-1.276139 -0.72974,-2.571059 -1.25862,-3.8011178 -0.35572,-1.1724508 -0.644,-2.368432 -1.15605,-3.486304 -0.38953,-1.1717608 -0.83427,-2.3223079 -1.21905,-3.4960299 -0.34849,-1.10346483 -0.97878,-2.0262724 -1.50276,-3.0486638 -0.36585,-1.0737363 -0.75462,-2.175506 -0.71472,-3.3262998 0.0124,-1.0147412 0.037,-2.0296389 0.26794,-3.0234598 0.97945,-3.8070929 4.95493,-6.7987039 9.38963,-6.3560689 1.22395,0.08814 2.45094,0.174324 3.65578,0.420777 1.43434,0.27924 2.88017,0.446717 4.31758,0.704857 1.26702,0.301097 2.53372,0.623895 3.77167,1.028726 1.08017,0.332032 2.10875,0.775559 3.17158,1.15541 0.99592,0.381278 1.9981,0.755129 3.02499,1.0441373 1.15821,0.4026674 2.32514,0.7683546 3.48556,1.1643315 1.16531,0.3582606 2.3711,0.5401904 3.52547,0.9348503 1.3634,0.4637336 2.77144,0.779685 4.14275,1.2203575 1.22763,0.3135202 2.49237,0.5515874 3.75949,0.6007668 1.25138,-0.044584 2.52361,-0.1074579 3.68819,-0.6171601 3.06104,-1.5967511 1.32231,-0.701578 -6.84697,4.0496228 -0.19477,0.1132537 0.38839,-0.2300613 0.5691,-0.3646178 0.0745,-0.055466 0.92198,-0.7938713 0.99786,-0.8744974 0.14937,-0.1586678 0.27082,-0.3414675 0.40622,-0.5122223 0.70953,-1.0133366 1.31619,-1.9982366 1.38673,-3.2717656 -0.0149,-1.1623906 -0.0231,-2.3337026 -0.24248,-3.479544 -0.28923,-1.21583 -0.79466,-2.365284 -1.18612,-3.549131 -0.70209,-1.504883 -1.45272,-3.006687 -2.44268,-4.345341 -1.00089,-1.472452 -2.02316,-2.930966 -3.09257,-4.354575 -0.82985,-1.264563 -1.66299,-2.526269 -2.50764,-3.780705 -0.67353,-1.056964 -1.34651,-2.112541 -1.95743,-3.206905 -0.46629,-0.919662 -0.91978,-1.872199 -1.11469,-2.890708 -0.2608,-1.312338 -0.21398,-2.622734 -0.1092,-3.954433 0.11089,-1.457688 0.26939,-2.915355 0.56754,-4.347929 0.0737,-1.224283 0.14517,-2.449747 0.79034,-3.528858 2.39684,-3.575524 6.90503,-5.991413 11.17512,-6.1317 1.4256,0.117727 2.84015,0.321184 4.23036,0.665988 1.21722,0.236708 2.38766,0.58039 3.51943,1.096388 1.68446,0.607214 3.25566,1.466906 4.87345,2.228212 1.92687,0.910539 3.878,1.768176 5.80643,2.675013 2.00858,1.00127 3.98016,2.109598 6.10726,2.844476 1.53323,0.497879 3.08706,1.02712 4.70985,1.11109 1.26133,-0.06452 2.49093,-0.335978 3.68513,-0.747121 3.55044,-0.994355 9.20463,-4.907501 -4.8331,3.315971 1.09036,-0.634736 2.04895,-1.403046 2.8582,-2.378846 0.76184,-1.110133 1.1852,-2.144591 0.99276,-3.51853 -0.05,-1.113793 -0.12327,-2.233828 -0.44552,-3.308432 -0.35068,-1.208183 -0.49532,-2.450626 -0.8561,-3.657352 -0.36177,-1.265329 -0.61346,-2.571432 -0.90111,-3.853746 -0.24848,-1.267442 -0.50758,-2.523669 -0.67954,-3.804021 -0.29253,-1.207655 -0.63412,-2.402963 -0.9653,-3.599363 -0.3514,-1.015633 -0.64261,-2.053214 -1.0101,-3.062946 -0.36563,-1.020174 -0.78938,-2.030321 -1.26938,-2.99911 0,0 8.22166,-4.681295 8.22166,-4.681295 z"
       inkscape:connector-curvature="0" />
    <path
       style="fill:#957900;fill-opacity:1;stroke:none;stroke-width:0.21142887"
       id="path906-6"
       d="m 255.31883,-68.880422 c 0.39387,0.996471 0.81681,1.982058 1.18777,2.98823 0.34295,0.981611 0.6643,1.964044 0.96225,2.961768 0.33201,1.162735 0.62532,2.337587 0.91831,3.511737 0.22349,1.226449 0.41237,2.454246 0.65698,3.677476 0.2393,1.217486 0.51301,2.432752 0.81541,3.636135 0.34919,1.141451 0.49004,2.326607 0.82083,3.471525 0.33623,1.089285 0.43884,2.225153 0.50214,3.358779 0.1659,1.401569 -0.0942,2.629857 -0.73964,3.863809 -0.62464,1.078229 -1.52526,1.869012 -2.48409,2.617184 -3.78816,-0.39652 -5.71903,4.023683 -8.97923,5.130811 -0.55348,0.187958 -1.11559,0.27474 -1.66757,0.471685 -1.17945,0.361197 -2.41243,0.621608 -3.64145,0.464131 -1.53684,-0.272004 -3.03471,-0.779429 -4.50045,-1.321306 -1.98794,-0.785335 -3.81358,-1.922204 -5.73673,-2.849782 -1.82753,-0.850486 -3.68179,-1.640567 -5.4971,-2.519236 -1.48922,-0.745212 -2.95794,-1.540327 -4.5591,-2.004588 -1.02632,-0.563241 -2.17743,-0.673324 -3.28012,-0.973083 -1.27226,-0.336219 -2.58132,-0.454209 -3.88948,-0.520828 -0.49177,0.07875 -0.70818,0.07221 -1.16021,0.311748 -0.17483,0.09267 -0.65817,0.441017 -0.48642,0.342536 14.52589,-8.328417 8.35105,-5.580424 6.42351,-3.542317 -0.71197,0.825428 -0.88163,1.849881 -0.98871,2.905283 -0.22295,1.386555 -0.4373,2.770148 -0.55375,4.17125 -0.0757,1.187312 -0.17048,2.373331 0.0364,3.549458 0.15258,0.897072 0.54313,1.728541 0.94402,2.53442 0.53321,1.038451 1.13682,2.034021 1.74284,3.029605 0.77673,1.20485 1.55944,2.405118 2.33341,3.612 0.9465,1.396809 1.92918,2.766372 2.87516,4.163398 0.94799,1.322113 1.67035,2.80313 2.37289,4.272351 0.42753,1.168648 0.93105,2.313172 1.25118,3.519589 0.26213,1.154771 0.2875,2.344025 0.3098,3.523429 0.0155,1.3274309 -0.43508,2.4862854 -1.08207,3.6074358 -2.4136,3.4723491 -6.50456,5.6851319 -10.39348,6.96754307 -1.19641,0.30997999 -2.43734,0.31557175 -3.66365,0.32665001 -1.24014,-0.20298893 -2.45766,-0.44765061 -3.66781,-0.783013 -1.28763,-0.49444395 -2.62896,-0.76802908 -3.93099,-1.21287828 -1.11966,-0.2767482 -2.23801,-0.4709429 -3.31281,-0.9103301 -1.10551,-0.3232617 -2.17526,-0.746577 -3.27794,-1.0773895 -0.98206,-0.244596 -1.91251,-0.6796995 -2.86033,-1.0400988 -0.96256,-0.4261542 -1.98181,-0.704436 -2.96168,-1.0853117 -1.14972,-0.3092794 -2.28779,-0.6773259 -3.45377,-0.9224951 -1.3649,-0.128745 -2.69618,-0.3986177 -4.04341,-0.644747 -1.12716,-0.1921281 -2.27012,-0.2459845 -3.41097,-0.2602397 -2.8333,1.5444416 0.98569,-0.5352854 7.16328,-4.0657437 0.0753,-0.04292 -0.17572,0.04107 -0.23871,0.101014 -0.22768,0.216567 -0.40279,0.67359 -0.53448,0.953517 -0.30734,0.8484216 -0.35731,1.757596 -0.39715,2.6522725 -0.0735,1.0017164 0.217,1.9695318 0.51689,2.9106642 0.53696,0.9497198 1.05649,1.8822267 1.40427,2.9256088 0.34081,1.12659775 0.76706,2.21794586 1.1524,3.3279789 0.47169,1.087451 0.74543,2.2425853 1.08164,3.376847 0.47604,1.1832963 0.80041,2.4169647 1.17356,3.6355264 0.3015,1.0877636 0.73511,2.1349552 1.1343,3.1895422 0.4229,1.173305 0.82223,2.341696 1.0581,3.57042 0.20232,1.230024 0.22305,2.479556 0.23905,3.723473 0.009,1.222191 0.002,2.444443 0,3.666634 0.0357,1.103198 -0.0629,2.187631 -0.75815,3.066969 -4.71803,3.380599 -5.89192,4.836023 -10.04268,4.809422 -0.83825,-0.05155 -1.71789,0.117615 -2.51808,-0.164389 -0.34824,-0.135288 -0.60991,-0.269253 -0.8959,-0.511243 0,0 7.4883,-4.886046 7.4883,-4.886046 v 0 c 0.22528,0.09383 0.44962,0.196864 0.69212,0.235648 0.79286,0.02025 1.58617,0.01985 2.37908,1.54e-4 3.37334,-0.23247 7.66712,-3.994138 -5.3307,3.844729 1.07636,-0.39159 1.14427,-1.255728 1.14149,-2.322846 0.002,-1.219052 0.009,-2.438085 0.005,-3.657137 -0.009,-1.197338 -0.0113,-2.399414 -0.16915,-3.588192 -0.19467,-1.184261 -0.57208,-2.295957 -0.98794,-3.416083 -0.40864,-1.073145 -0.86238,-2.136552 -1.14744,-3.252087 -0.36994,-1.221424 -0.68515,-2.460815 -1.18172,-3.6381294 -0.33398,-1.1221836 -0.60464,-2.266879 -1.08539,-3.3368223 -0.36605,-1.1215141 -0.78363,-2.2227296 -1.1449,-3.3461252 -0.32719,-1.0561523 -0.91895,-1.93938848 -1.41095,-2.91794214 -0.34347,-1.02769776 -0.70849,-2.08222226 -0.67102,-3.18367126 0.0124,-0.9712365 0.0347,-1.9426169 0.25155,-2.8938193 0.9196,-3.6438554 4.65216,-6.5071914 8.81588,-6.0835384 1.14914,0.08437 2.30115,0.166851 3.43237,0.402741 1.34668,0.26726 2.70416,0.427559 4.05374,0.674632 1.18959,0.288188 2.37889,0.597145 3.5412,0.984612 1.01416,0.3178 1.97989,0.742308 2.97776,1.105871 0.93506,0.3649328 1.87601,0.7227502 2.84013,0.9993686 1.08744,0.3854028 2.18309,0.7354099 3.2726,1.114406 1.09408,0.3429001 2.22619,0.5170275 3.31001,0.8947649 1.2801,0.4438488 2.60209,0.7462544 3.8896,1.1680277 1.15262,0.3000807 2.34009,0.5279353 3.52978,0.5750134 1.1749,-0.042688 2.36938,-0.1028535 3.46281,-0.5906976 2.87397,-1.5282898 1.24148,-0.6715021 -6.42858,3.8759802 -0.18287,0.108407 0.36466,-0.2201995 0.53433,-0.348984 0.07,-0.05309 0.86565,-0.7598326 0.9369,-0.8370063 0.14023,-0.1518583 0.25425,-0.3268179 0.38138,-0.4902556 0.66617,-0.969889 1.23577,-1.9125544 1.30196,-3.131477 -0.0141,-1.1125494 -0.0217,-2.2336358 -0.22761,-3.3303483 -0.27157,-1.163694 -0.74613,-2.26386 -1.11366,-3.396951 -0.65918,-1.440355 -1.36393,-2.877764 -2.29341,-4.159019 -0.93973,-1.409315 -1.89955,-2.805292 -2.9036,-4.167859 -0.77914,-1.210337 -1.56138,-2.417947 -2.35442,-3.618592 -0.63236,-1.011641 -1.26422,-2.021958 -1.8378,-3.069405 -0.43779,-0.880226 -0.86357,-1.791919 -1.04656,-2.76676 -0.24487,-1.256067 -0.2009,-2.510269 -0.10267,-3.784871 0.10402,-1.395179 0.25291,-2.790342 0.53285,-4.161497 0.0692,-1.171785 0.13624,-2.344702 0.74204,-3.377548 2.25037,-3.422214 6.48309,-5.734509 10.49225,-5.868781 1.33848,0.112683 2.6666,0.307407 3.97185,0.637432 1.14285,0.226558 2.24177,0.555507 3.30437,1.049375 1.58153,0.58118 3.05673,1.40401 4.57565,2.132673 1.80912,0.871497 3.64103,1.692356 5.4516,2.560311 1.88585,0.958343 3.73694,2.019143 5.73409,2.722514 1.43952,0.476534 2.89842,0.98308 4.42204,1.063449 1.18422,-0.06172 2.3387,-0.321575 3.45993,-0.715086 3.3335,-0.951721 8.64218,-4.697082 -4.53778,3.173784 1.02375,-0.607514 1.92376,-1.342882 2.68356,-2.276842 0.71528,-1.062537 1.11276,-2.052634 0.93212,-3.367664 -0.0468,-1.06603 -0.11573,-2.138045 -0.41832,-3.166575 -0.32924,-1.156375 -0.46506,-2.34554 -0.80379,-3.500534 -0.33967,-1.211072 -0.57598,-2.461169 -0.84603,-3.688497 -0.23331,-1.213096 -0.47659,-2.415461 -0.63803,-3.64092 -0.27466,-1.155866 -0.59537,-2.299923 -0.90632,-3.445021 -0.32992,-0.97209 -0.60334,-1.965174 -0.94837,-2.931606 -0.34328,-0.976431 -0.74113,-1.943272 -1.19181,-2.870519 0,0 7.71925,-4.480567 7.71925,-4.480567 z"
       inkscape:connector-curvature="0" />
    <path
       style="fill:#fefe50;fill-opacity:1;stroke:none;stroke-width:0.13951664px;stroke-linecap:butt;stroke-linejoin:miter;stroke-opacity:1"
       d="m 230.72083,26.908953 c -12.8504,12.760941 -16.01641,17.340925 -20.38878,18.597756 -0.92407,0.26563 -3.53626,0.898401 -6.24765,0.717467 -0.99922,-0.06667 -1.95021,-0.356264 -2.94624,-0.737929 -0.95439,-0.36572 -1.95084,-0.803735 -3.03832,-1.761923 -1.87876,-1.655376 -2.93734,-2.766476 -4.24635,-4.10493 -0.65574,-0.670455 -0.96979,-0.865278 -1.4701,-1.478817 -0.20757,-0.25453 -0.64953,-0.565611 -0.90181,-0.896323 -0.0489,-0.06407 -0.24513,-0.266803 -0.24513,-0.266803 -0.10165,-0.10165 -0.16718,-0.200021 -0.24949,-0.282919 -0.14985,-0.150884 -0.2251,-0.278005 -0.34184,-0.407422 -0.35934,-0.398331 -0.6434,-0.660742 -0.63523,-0.758451 0.009,-0.08895 0.62192,-0.158917 1.01145,0.05698 13.93638,7.72464 39.69949,-8.67669 39.69949,-8.67669 z"
       id="path939"
       inkscape:connector-curvature="0"
       sodipodi:nodetypes="cssssssssssssc" />
    <path
       style="fill:#fefe50;fill-opacity:1;stroke:none;stroke-width:0.08736711px;stroke-linecap:butt;stroke-linejoin:miter;stroke-opacity:1"
       d="m 223.24337,25.61528 c -5.95143,9.451593 -7.27342,12.766982 -9.60838,13.86297 -0.49348,0.231636 -1.90032,0.805258 -3.44475,0.82503 -0.56918,0.0073 -1.13361,-0.141172 -1.73262,-0.350505 -0.57399,-0.200576 -1.17892,-0.448601 -1.88734,-1.049233 -1.22387,-1.037645 -1.9314,-1.744896 -2.80275,-2.595048 -0.43647,-0.425854 -0.63284,-0.543044 -0.97611,-0.938046 -0.14243,-0.163871 -0.42246,-0.354146 -0.5977,-0.567981 -0.0338,-0.04142 -0.1648,-0.170301 -0.1648,-0.170301 -0.0675,-0.06445 -0.11425,-0.128557 -0.16888,-0.181157 -0.0995,-0.09573 -0.15462,-0.179063 -0.23334,-0.261795 -0.24231,-0.25463 -0.42857,-0.419847 -0.4338,-0.487415 -0.005,-0.0615 0.33411,-0.142302 0.57508,-0.0147 8.62104,4.567383 21.47539,-8.071914 21.47539,-8.071914 z"
       id="path939-7"
       inkscape:connector-curvature="0"
       sodipodi:nodetypes="cssssssssssssc" />
  </g>
</svg>
