<?xml version="1.0" encoding="UTF-8" standalone="no"?>
<!-- Created with Inkscape (http://www.inkscape.org/) -->

<svg
   xmlns:dc="http://purl.org/dc/elements/1.1/"
   xmlns:cc="http://creativecommons.org/ns#"
   xmlns:rdf="http://www.w3.org/1999/02/22-rdf-syntax-ns#"
   xmlns:svg="http://www.w3.org/2000/svg"
   xmlns="http://www.w3.org/2000/svg"
   xmlns:sodipodi="http://sodipodi.sourceforge.net/DTD/sodipodi-0.dtd"
   xmlns:inkscape="http://www.inkscape.org/namespaces/inkscape"
   width="640mm"
   height="640mm"
   viewBox="0 0 640 640"
   version="1.1"
   id="svg8"
   inkscape:version="0.92.3 (2405546, 2018-03-11)"
   sodipodi:docname="logo.svg">
  <defs
     id="defs2" />
  <sodipodi:namedview
     id="base"
     pagecolor="#ffffff"
     bordercolor="#666666"
     borderopacity="1.0"
     inkscape:pageopacity="0.0"
     inkscape:pageshadow="2"
     inkscape:zoom="0.12374369"
     inkscape:cx="961.24104"
     inkscape:cy="395.04601"
     inkscape:document-units="mm"
     inkscape:current-layer="layer1"
     showgrid="false"
     inkscape:window-width="1366"
     inkscape:window-height="712"
     inkscape:window-x="0"
     inkscape:window-y="25"
     inkscape:window-maximized="1" />
  <metadata
     id="metadata5">
    <rdf:RDF>
      <cc:Work
         rdf:about="">
        <dc:format>image/svg+xml</dc:format>
        <dc:type
           rdf:resource="http://purl.org/dc/dcmitype/StillImage" />
        <dc:title></dc:title>
      </cc:Work>
    </rdf:RDF>
  </metadata>
  <g
     inkscape:label="Layer 1"
     inkscape:groupmode="layer"
     id="layer1"
     transform="translate(0,343)">
    <rect
       style="fill:#fecb00;fill-opacity:1;stroke:none;stroke-width:0.35540694"
       id="rect832"
       width="450.19031"
       height="278.23291"
       x="24.927896"
       y="63.462151"
       ry="67.163521"
       transform="rotate(-43.891654)" />
    <path
       style="fill:#584700;fill-opacity:1;stroke:none;stroke-width:0.72344595"
       id="path906"
       d="m 440.40846,-197.89191 c 1.36063,3.37701 2.82186,6.71715 4.10346,10.127 1.18474,3.32663 2.29494,6.65607 3.32429,10.0373 1.14701,3.94048 2.16032,7.92199 3.17253,11.90114 0.77215,4.15638 1.42464,8.31733 2.26975,12.4628 0.82667,4.12602 1.77232,8.24449 2.81704,12.32273 1.20637,3.86833 1.69295,7.88474 2.83572,11.76484 1.16164,3.69152 1.51611,7.54095 1.73483,11.38275 0.57312,4.74986 -0.32533,8.91249 -2.55531,13.0943 -2.15803,3.65403 -5.26933,6.333953 -8.58191,8.869469 -13.08724,-1.343785 -19.75796,13.636085 -31.02109,17.388094 -1.91213,0.636997 -3.85407,0.931076 -5.76103,1.59853 -4.07474,1.224071 -8.33435,2.106602 -12.58035,1.572918 -5.30937,-0.921815 -10.48411,-2.64145 -15.54792,-4.477847 -6.86788,-2.661481 -13.17498,-6.51427 -19.81901,-9.657784 -6.31368,-2.882278 -12.71973,-5.559824 -18.99112,-8.537583 -5.14497,-2.525467 -10.21897,-5.220067 -15.75059,-6.793417 -3.54573,-1.90882 -7.52257,-2.28189 -11.332,-3.29776 -4.39536,-1.13942 -8.91785,-1.53927 -13.43726,-1.76506 -1.69888,0.26693 -2.44655,0.24467 -4.0082,1.05652 -0.60403,0.31405 -2.2738,1.49457 -1.68043,1.16084 50.18337,-28.22466 28.85083,-18.91183 22.19163,-12.00479 -2.45966,2.79734 -3.04586,6.26917 -3.41572,9.84588 -0.77028,4.699 -1.51077,9.38793 -1.91308,14.13617 -0.26143,4.023723 -0.58898,8.043121 0.12618,12.028942 0.52703,3.040142 1.87632,5.857965 3.26126,8.589039 1.84216,3.519281 3.9275,6.893211 6.02115,10.267222 2.68337,4.083194 5.38736,8.150842 8.06134,12.240911 3.26988,4.73372 6.66481,9.37513 9.93297,14.109575 3.27507,4.480583 5.77061,9.499708 8.19773,14.478826 1.47703,3.960501 3.21657,7.839247 4.32242,11.927732 0.90559,3.9134769 0.99336,7.9437944 1.07036,11.94076144 0.0535,4.49860856 -1.50309,8.42589426 -3.73832,12.22543956 -8.33835,11.767641 -22.47162,19.266675 -35.90682,23.612704 -4.13336,1.050517 -8.42042,1.06947 -12.65704,1.107018 -4.28437,-0.687922 -8.49066,-1.517063 -12.67136,-2.653602 -4.44854,-1.675648 -9.08244,-2.602818 -13.58063,-4.110404 -3.86818,-0.937876 -7.73178,-1.596001 -11.44508,-3.085062 -3.81932,-1.095518 -7.51507,-2.530116 -11.32447,-3.651243 -3.39284,-0.828924 -6.60734,-2.303449 -9.88176,-3.524845 -3.32546,-1.444211 -6.84673,-2.387295 -10.23192,-3.678071 -3.97196,-1.048126 -7.90372,-2.29542 -11.93194,-3.126299 -4.71539,-0.436312 -9.31465,-1.350887 -13.96895,-2.18502 -3.89409,-0.651098 -7.84275,-0.8336271 -11.7841,-0.8819499 -9.78841,5.2340499 3.4054,-1.8140398 24.74736,-13.7786018 0.25981,-0.145579 -0.60702,0.1392541 -0.82461,0.3423334 -0.78664,0.733933 -1.39157,2.282759 -1.84657,3.23142081 -1.06181,2.87526229 -1.23437,5.95641009 -1.372,8.98844159 -0.25365,3.3947679 0.74964,6.6746609 1.78569,9.8641169 1.85507,3.218531 3.64992,6.378766 4.85142,9.914757 1.17741,3.817994 2.65,7.516534 3.98126,11.278384 1.62957,3.685316 2.57529,7.600024 3.73684,11.443982 1.64456,4.010135 2.76518,8.191011 4.05433,12.320655 1.0416,3.686385 2.53964,7.235265 3.91874,10.809225 1.461,3.976279 2.84063,7.935917 3.65547,12.100003 0.69896,4.168491 0.77059,8.403114 0.82586,12.618705 0.0292,4.141944 0.007,8.284104 0,12.426054 0.12261,3.73869 -0.21668,7.4138 -2.61922,10.39382 -16.2997,11.45675 -20.35513,16.38913 -34.695,16.29899 -2.89592,-0.17477 -5.93489,0.39861 -8.69939,-0.55713 -1.20311,-0.45845 -2.10713,-0.91248 -3.09515,-1.73258 0,0 25.87028,-16.55864 25.87028,-16.55864 v 0 c 0.77831,0.31791 1.55332,0.66717 2.39108,0.79861 2.7392,0.0688 5.47988,0.0673 8.21921,5.2e-4 11.65402,-0.78783 26.48796,-13.53597 -18.41635,13.02965 3.71863,-1.3271 3.95319,-4.25562 3.94362,-7.87206 0.007,-4.13133 0.0292,-8.26254 0.0162,-12.39386 -0.0292,-4.05775 -0.0403,-8.13154 -0.58441,-12.16026 -0.67246,-4.013394 -1.97635,-7.780884 -3.41307,-11.576946 -1.41168,-3.636831 -2.97928,-7.240681 -3.96412,-11.021194 -1.27798,-4.139339 -2.367,-8.339603 -4.08252,-12.329475 -1.15381,-3.803019 -2.08889,-7.682352 -3.74981,-11.30834 -1.26349,-3.800776 -2.70606,-7.532737 -3.95415,-11.339873 -1.13039,-3.579251 -3.17482,-6.572506 -4.87443,-9.888784 -1.18669,-3.482825 -2.44773,-7.05657 -2.31831,-10.789349 0.0403,-3.29145 0.12003,-6.583419 0.86911,-9.807031 3.17699,-12.34884729 16.07204,-22.0525739 30.45663,-20.6168278 3.97006,0.2859027 7.94999,0.5654458 11.85806,1.3648599 4.65249,0.9057551 9.34226,1.4489828 14.00469,2.2863011 4.10977,0.9766528 8.2185,2.0236975 12.23397,3.33681861 3.50368,1.0770021 6.84003,2.51564559 10.28748,3.74774799 3.23041,1.2367258 6.48113,2.4493702 9.81199,3.3868076 3.75682,1.306105 7.54193,2.4922657 11.30593,3.7766706 3.77984,1.162068 7.69099,1.752193 11.43536,3.03232 4.42239,1.504195 8.98957,2.529033 13.43762,3.958408 3.982,1.016949 8.08436,1.789154 12.19445,1.948683 4.05904,-0.144613 8.18569,-0.348555 11.96318,-2.001848 9.92893,-5.179298 4.2891,-2.275674 -22.20914,13.13554 -0.63177,0.367357 1.2598,-0.746238 1.84595,-1.182689 0.24165,-0.179918 2.99057,-2.575045 3.23671,-2.836567 0.4845,-0.514663 0.87844,-1.107594 1.31763,-1.661471 2.30147,-3.286897 4.26925,-6.481563 4.49805,-10.612438 -0.0482,-3.7703813 -0.0749,-7.5697066 -0.7865,-11.2864051 -0.93817,-3.9437202 -2.5776,-7.6721384 -3.84737,-11.5121186 -2.27732,-4.8813093 -4.71209,-9.7526253 -7.92318,-14.0947423 -3.24653,-4.776119 -6.56241,-9.50702 -10.03119,-14.124703 -2.69175,-4.101795 -5.39415,-8.19432 -8.13391,-12.263266 -2.18468,-3.428417 -4.3676,-6.852333 -6.3492,-10.402063 -1.51247,-2.983057 -2.98343,-6.072749 -3.61566,-9.37643 -0.84595,-4.25676 -0.69408,-8.50722 -0.35421,-12.826779 0.35969,-4.728222 0.87381,-9.456378 1.8409,-14.103129 0.23906,-3.971128 0.47088,-7.946078 2.56359,-11.446318 7.77449,-11.59774 22.39746,-19.43402 36.24811,-19.88906 4.62415,0.38185 9.21245,1.04179 13.72179,2.16022 3.94824,0.7678 7.74473,1.88258 11.41578,3.55629 5.4638,1.9696 10.56021,4.75812 15.80775,7.22753 6.25009,2.95347 12.57886,5.73534 18.834,8.6768 6.51513,3.24775 12.91023,6.842765 19.80979,9.226435 4.97325,1.614929 10.01332,3.3316 15.27708,3.603967 4.09131,-0.209279 8.0797,-1.089793 11.95325,-2.423391 11.51637,-3.22532 29.85656,-15.918141 -15.67686,10.75583 3.53675,-2.058859 6.64607,-4.550984 9.271,-7.716132 2.47113,-3.600874 3.84435,-6.956271 3.22015,-11.412809 -0.16218,-3.61276 -0.39984,-7.24576 -1.4451,-10.73139 -1.1375,-3.91892 -1.60665,-7.94896 -2.77689,-11.86314 -1.17346,-4.10429 -1.98985,-8.34083 -2.92288,-12.5002 -0.80598,-4.11113 -1.64642,-8.18588 -2.20419,-12.33889 -0.94887,-3.91721 -2.05687,-7.79436 -3.13109,-11.67505 -1.13982,-3.29437 -2.0844,-6.65991 -3.2764,-9.93512 -1.18598,-3.30909 -2.56048,-6.58565 -4.11742,-9.72804 0,0 26.66814,-15.18447 26.66814,-15.18447 z"
       inkscape:connector-curvature="0" />
    <path
       style="fill:#957900;fill-opacity:1;stroke:none;stroke-width:0.68580025"
       id="path906-6"
       d="m 416.91245,-186.18603 c 1.27758,3.2322 2.64945,6.4291 3.8527,9.69276 1.11241,3.184 2.15475,6.37066 3.12121,9.60692 1.07692,3.7715 2.0283,7.5823 2.97867,11.39084 0.72492,3.97815 1.33759,7.9607 2.131,11.92842 0.77621,3.94908 1.66402,7.89099 2.64492,11.79434 1.13264,3.70245 1.5895,7.54669 2.66247,11.26039 1.0906,3.53326 1.42344,7.21761 1.62876,10.89469 0.53812,4.54618 -0.30555,8.5303 -2.39913,12.53279 -2.02611,3.497377 -4.94741,6.062397 -8.0575,8.489201 -12.28745,-1.28617 -18.5505,13.051401 -29.12544,16.642532 -1.79529,0.609668 -3.61858,0.891158 -5.40901,1.529979 -3.82571,1.171595 -7.82505,2.016275 -11.81157,1.505475 -4.98496,-0.882285 -9.84353,-2.52819 -14.59786,-4.285846 -6.44818,-2.547349 -12.36989,-6.234949 -18.60793,-9.243683 -5.92785,-2.758675 -11.94241,-5.321417 -17.83063,-8.171507 -4.83051,-2.417205 -9.59452,-4.996269 -14.7881,-6.502169 -3.32902,-1.826933 -7.06282,-2.184006 -10.63955,-3.156312 -4.12676,-1.09057 -8.37288,-1.47328 -12.6161,-1.68938 -1.59513,0.25544 -2.29708,0.23424 -3.76331,1.0112 -0.56708,0.30059 -2.13486,1.430502 -1.57777,1.111057 47.11683,-27.014397 27.08785,-18.100887 20.83559,-11.489997 -2.30938,2.6774 -2.85969,6.00036 -3.20702,9.4237 -0.72317,4.497473 -1.41846,8.985341 -1.79617,13.530019 -0.24555,3.851219 -0.55298,7.698243 0.11807,11.513182 0.49492,2.909783 1.76172,5.606774 3.06206,8.220759 1.72955,3.368367 3.68744,6.597643 5.65316,9.826964 2.51943,3.908108 5.05827,7.80135 7.56875,11.716047 3.07011,4.530754 6.25758,8.97313 9.326,13.50459 3.07493,4.28846 5.41803,9.092362 7.69681,13.857992 1.38677,3.79068 3.02,7.503101 4.05839,11.4162908 0.85025,3.7456682 0.93255,7.60318589 1.00488,11.4287544 0.0503,4.3057186 -1.41126,8.0646228 -3.50985,11.7012358 -7.82886,11.263077 -21.09849,18.440558 -33.71276,22.60025 -3.88073,1.005461 -7.90586,1.023596 -11.88358,1.059534 -4.02258,-0.658423 -7.97179,-1.452018 -11.89707,-2.539819 -4.17663,-1.603797 -8.52743,-2.491209 -12.75075,-3.934143 -3.63178,-0.897671 -7.25932,-1.527575 -10.74557,-2.952788 -3.58589,-1.048552 -7.05577,-2.421635 -10.63249,-3.494671 -3.18545,-0.793388 -6.2035,-2.204708 -9.27789,-3.373711 -3.1222,-1.382294 -6.42829,-2.284944 -9.60664,-3.520372 -3.72928,-1.003194 -7.42078,-2.197002 -11.20281,-2.992242 -4.42725,-0.417613 -8.74544,-1.292973 -13.11539,-2.091329 -3.65609,-0.623199 -7.36346,-0.797896 -11.06396,-0.844126 -9.19023,5.009615 3.19723,-1.736277 23.23514,-13.18783331 0.24424,-0.13921952 -0.56998,0.13321661 -0.77431,0.32765918 -0.7385,0.70246851 -1.30649,2.18488103 -1.73365,3.09286653 -0.9969,2.7519819 -1.15898,5.7010178 -1.28822,8.6030306 -0.2384,3.249212 0.70388,6.38846 1.67661,9.441159 1.7417,3.080551 3.42687,6.105283 4.55495,9.489645 1.10548,3.654279 2.48807,7.194223 3.73799,10.794783 1.52998,3.527305 2.4179,7.274147 3.50846,10.953288 1.54409,3.838198 2.59623,7.839776 3.8066,11.792365 0.97796,3.528317 2.38443,6.92504 3.67927,10.345739 1.37174,3.805791 2.66702,7.595631 3.43209,11.581179 0.65627,3.989756 0.7235,8.042798 0.77541,12.077621 0.0292,3.964361 0.007,7.928911 0,11.893271 0.11579,3.57838 -0.20403,7.09589 -2.45918,9.94815 -15.30361,10.96548 -19.1113,15.68639 -32.57489,15.6001 -2.71898,-0.16721 -5.57223,0.3815 -8.16776,-0.53322 -1.12956,-0.43882 -1.97833,-0.87336 -2.90598,-1.6583 0,0 24.2894,-15.84863 24.2894,-15.84863 v 0 c 0.73072,0.30435 1.4584,0.63855 2.24498,0.76437 2.57176,0.0656 5.14497,0.0644 7.71689,4.8e-4 10.94193,-0.75404 24.86942,-12.95556 -17.29089,12.47096 3.49132,-1.27018 3.71161,-4.07315 3.70259,-7.5345 0.007,-3.95417 0.0292,-7.90828 0.0162,-11.86246 -0.0292,-3.88374 -0.0367,-7.78285 -0.54867,-11.638819 -0.63143,-3.841321 -1.85561,-7.447276 -3.20452,-11.080566 -1.32548,-3.480902 -2.79726,-6.930214 -3.72189,-10.548611 -1.19996,-3.961869 -2.22237,-7.98201 -3.83307,-11.800806 -1.08332,-3.63996 -1.96125,-7.352945 -3.52063,-10.823464 -1.18733,-3.637797 -2.54182,-7.209746 -3.71365,-10.853651 -1.06128,-3.425782 -2.98074,-6.290686 -4.57661,-9.464767 -1.11411,-3.333483 -2.2981,-6.75399 -2.17657,-10.3267 0.0402,-3.150346 0.1126,-6.301163 0.81595,-9.386521 2.98286,-11.8193763 15.08996,-21.1070176 28.59559,-19.7328427 3.7274,0.2736665 7.46411,0.5412037 11.13338,1.3063476 4.36816,0.8668964 8.77135,1.3868595 13.14891,2.18827467 3.85861,0.93478071 7.71627,1.93691693 11.48639,3.19372233 3.28958,1.0308399 6.42206,2.4077855 9.65879,3.5870574 3.033,1.183711 6.08512,2.3443405 9.21238,3.2415967 3.52728,1.250113 7.08117,2.385408 10.61515,3.61474 3.54881,1.112238 7.22097,1.677052 10.7365,2.902301 4.15219,1.439679 8.44026,2.420576 12.61648,3.788667 3.73869,0.973352 7.59043,1.712426 11.44935,1.865135 3.81097,-0.138461 7.68544,-0.333616 11.23213,-1.916011 9.32215,-4.957232 4.02693,-2.17812 -20.85202,12.572303 -0.59317,0.351637 1.18282,-0.714246 1.73317,-1.131974 0.22705,-0.172213 2.80786,-2.464633 3.03898,-2.714955 0.45484,-0.492581 0.82469,-1.060086 1.23706,-1.590215 2.16081,-3.145976 4.0084,-6.203655 4.22309,-10.157405 -0.0457,-3.608715 -0.0704,-7.2451214 -0.73829,-10.8024625 -0.88088,-3.7746117 -2.42018,-7.3431554 -3.61232,-11.0185009 -2.13814,-4.6720086 -4.4241,-9.3344486 -7.439,-13.4903816 -3.04815,-4.571326 -6.16147,-9.099375 -9.41825,-13.519062 -2.52726,-3.925909 -5.06456,-7.842962 -7.6369,-11.737427 -2.05116,-3.281405 -4.10069,-6.558516 -5.96118,-9.956062 -1.42003,-2.855141 -2.80111,-5.81235 -3.39466,-8.974388 -0.79427,-4.074236 -0.65165,-8.142422 -0.33303,-12.276779 0.3374,-4.525465 0.82036,-9.05088 1.72838,-13.498421 0.22446,-3.800854 0.44191,-7.605378 2.40691,-10.955538 7.2994,-11.100435 21.02884,-18.600695 34.03314,-19.036225 4.34156,0.36551 8.64951,0.99712 12.88327,2.06761 3.707,0.73487 7.2715,1.80186 10.71821,3.40379 5.12991,1.88515 9.91494,4.55411 14.84178,6.91763 5.86814,2.82683 11.81021,5.4894 17.68306,8.30472 6.11702,3.108503 12.12131,6.549364 18.59936,8.830852 4.66928,1.545706 9.40144,3.188762 14.34352,3.44945 3.84118,-0.200198 7.58592,-1.043076 11.22278,-2.319485 10.8127,-3.087045 28.03217,-15.235617 -14.71894,10.294629 3.32068,-1.97056 6.23999,-4.355833 8.70452,-7.385267 2.32011,-3.446493 3.60939,-6.658016 3.02346,-10.923497 -0.1518,-3.457815 -0.37538,-6.935032 -1.35687,-10.271212 -1.06795,-3.75087 -1.5085,-7.6081 -2.60721,-11.35449 -1.10178,-3.92829 -1.86828,-7.98316 -2.74423,-11.96417 -0.75678,-3.93486 -1.54589,-7.83491 -2.06955,-11.80986 -0.8909,-3.74921 -1.93116,-7.46012 -2.93978,-11.17443 -1.07015,-3.15311 -1.95702,-6.37432 -3.07617,-9.50908 -1.11348,-3.16719 -2.40397,-6.30329 -3.86581,-9.31094 0,0 25.03852,-14.53338 25.03852,-14.53338 z"
       inkscape:connector-curvature="0" />
    <path
       style="fill:#fefe50;fill-opacity:1;stroke:none;stroke-width:0.45254248px;stroke-linecap:butt;stroke-linejoin:miter;stroke-opacity:1"
       d="m 337.12526,124.52068 c -41.68214,41.39201 -51.95155,56.24786 -66.13397,60.32456 -2.99735,0.86161 -11.47036,2.91411 -20.26515,2.32721 -3.24111,-0.21624 -6.32579,-1.15559 -9.55656,-2.39358 -3.09571,-1.18626 -6.32783,-2.60703 -9.85524,-5.71505 -6.09402,-5.36945 -9.52768,-8.97346 -13.77365,-13.31494 -2.12699,-2.17471 -3.14565,-2.80665 -4.76849,-4.79675 -0.67328,-0.82562 -2.10684,-1.83465 -2.92514,-2.90736 -0.15861,-0.20782 -0.79511,-0.86541 -0.79511,-0.86541 -0.32973,-0.32972 -0.54228,-0.6488 -0.80927,-0.91769 -0.48606,-0.48942 -0.73014,-0.90175 -1.1088,-1.32154 -1.16557,-1.29203 -2.08696,-2.1432 -2.06046,-2.46014 0.0292,-0.28851 2.01728,-0.51547 3.28078,0.18482 45.20468,25.05599 128.77106,-28.14414 128.77106,-28.14414 z"
       id="path939"
       inkscape:connector-curvature="0"
       sodipodi:nodetypes="cssssssssssssc" />
    <path
       style="fill:#fefe50;fill-opacity:1;stroke:none;stroke-width:0.28338793px;stroke-linecap:butt;stroke-linejoin:miter;stroke-opacity:1"
       d="m 312.87104,120.32447 c -19.30433,30.65765 -23.59241,41.41159 -31.16618,44.96659 -1.60067,0.75134 -6.16397,2.61198 -11.17355,2.67611 -1.84622,0.0237 -3.67702,-0.45791 -5.62,-1.13692 -1.86183,-0.65059 -3.824,-1.4551 -6.12187,-3.40333 -3.96979,-3.36576 -6.26478,-5.65983 -9.09112,-8.41741 -1.41576,-1.38134 -2.0527,-1.76146 -3.16616,-3.0427 -0.46198,-0.53154 -1.3703,-1.14873 -1.93872,-1.84234 -0.10959,-0.13435 -0.53455,-0.55239 -0.53455,-0.55239 -0.21895,-0.20904 -0.37059,-0.41698 -0.54779,-0.5876 -0.32274,-0.31051 -0.50154,-0.58082 -0.75687,-0.84917 -0.78598,-0.82594 -1.39012,-1.36184 -1.40709,-1.58101 -0.0162,-0.19948 1.08373,-0.46157 1.86536,-0.0477 27.96358,14.81497 69.65854,-26.18246 69.65854,-26.18246 z"
       id="path939-7"
       inkscape:connector-curvature="0"
       sodipodi:nodetypes="cssssssssssssc" />
  </g>
</svg>
