<?xml version="1.0" encoding="iso-8859-1"?>
<!-- Generator: Adobe Illustrator 19.0.0, SVG Export Plug-In . SVG Version: 6.00 Build 0)  -->
<svg version="1.1" id="Capa_1" xmlns="http://www.w3.org/2000/svg" xmlns:xlink="http://www.w3.org/1999/xlink" x="0px" y="0px"
	 viewBox="0 0 464 464" style="enable-background:new 0 0 464 464;" xml:space="preserve">
<path style="fill:#F1E200;" d="M117.266,374.909c-7.594,15.188-4.617,33.53,7.39,45.537c1.957,1.957,4.076,3.641,6.302,5.092
	c0.601,0.393,1.261,0.64,1.877,0.996c1.683,0.968,3.376,1.915,5.156,2.612c0.671,0.264,1.375,0.397,2.056,0.624
	c1.801,0.594,3.612,1.154,5.468,1.482c0.661,0.119,1.332,0.13,1.998,0.214c1.491,0.187,2.987,0.281,4.488,0.3V305.44
	L117.266,374.909z"/>
<path style="fill:#D8C407;" d="M152,305.44v126.327c0.404,0.005,0.803,0.088,1.208,0.081c0.9-0.015,1.792-0.147,2.689-0.222
	c1.562-0.13,3.125-0.251,4.666-0.563c0.949-0.194,1.865-0.533,2.8-0.797c1.443-0.405,2.896-0.771,4.293-1.343
	c1.216-0.501,2.36-1.198,3.532-1.826c1.053-0.562,2.145-1.025,3.154-1.691c2.151-1.426,4.206-3.063,6.103-4.959
	c12.007-12.006,14.983-30.349,7.39-45.537l-34.54-69.079l-0.745-1.489L152,305.44z"/>
<polygon style="fill:#F1E200;" points="424,56 464,16 448,0 400,48 400,80 424,104 "/>
<polygon style="fill:#25C656;" points="400,80 392,72 392,200 424,232 424,368 368,424 304,424 304,448 376,448 448,376 448,240 
	464,224 464,144 424,104 "/>
<polygon style="fill:#A0D92A;" points="107.68,110 136,64 152.41,64 167.12,64 199.92,116.64 184,128 209.76,132.32 232,136 
	235.92,112.32 240,88 226.48,97.68 184,32 152.292,32 120,32 81.28,91.76 104,88 "/>
<polygon style="fill:#25C656;" points="168,224 232,224 272,168 235.92,112.32 232,136 209.76,132.32 232,168 216,192 168,192 
	168,176 152.875,191.125 152,192 136,208 152,224 152.999,224.999 168,240 "/>
<polygon style="fill:#59D541;" points="152,192 88,192 72,168 97.92,125.92 112,136 107.68,110 104,88 81.28,91.76 56,96 
	71.44,107.04 32,168 72,224 152,224 136,208 "/>
<path style="fill:#183F5E;" d="M304,272H153.171l0.124,33.83l34.54,69.079c7.594,15.188,4.617,33.53-7.39,45.537
	c-1.897,1.897-3.951,3.534-6.103,4.959c-1.009,0.666-2.101,1.129-3.154,1.691c-1.171,0.628-2.315,1.325-3.532,1.826
	c-1.397,0.571-2.851,0.938-4.293,1.343c-0.935,0.264-1.852,0.603-2.8,0.797c-1.541,0.313-3.104,0.433-4.666,0.563
	c-0.717,0.06-1.422,0.237-2.141,0.259L153.873,464H304v-16v-24V272z"/>
<path style="fill:#2F6780;" d="M153.208,431.848c-0.404,0.007-0.803-0.076-1.208-0.081c-1.501-0.019-2.998-0.114-4.488-0.3
	c-0.666-0.084-1.336-0.096-1.998-0.214c-1.855-0.328-3.667-0.889-5.468-1.482c-0.682-0.227-1.385-0.36-2.056-0.624
	c-1.78-0.697-3.473-1.645-5.156-2.612c-0.617-0.356-1.276-0.604-1.877-0.996c-2.226-1.451-4.345-3.135-6.302-5.092
	c-12.007-12.006-14.983-30.349-7.39-45.537L152,305.44l0.55-1.1l0.745,1.489L153.171,272H0v192h153.873l-0.117-32.116
	C153.573,431.89,153.391,431.845,153.208,431.848z"/>
<polygon style="fill:#FBF8EC;" points="152.999,224.999 152,224 72,224 32,168 71.44,107.04 56,96 81.28,91.76 120,32 152.292,32 
	152.176,0 0,0 0,272 153.171,272 "/>
<polygon style="fill:#E8E5D1;" points="184,32 226.48,97.68 240,88 235.92,112.32 272,168 232,224 168,224 168,240 152.999,224.999 
	153.171,272 304,272 304,0 152.176,0 152.292,32 "/>
<polygon style="fill:#FBF8EC;" points="136,64 107.68,110 112,136 97.92,125.92 72,168 88,192 152,192 152.875,191.125 152.41,64 
	"/>
<polygon style="fill:#E8E5D1;" points="199.92,116.64 167.12,64 152.41,64 152.875,191.125 168,176 168,192 216,192 232,168 
	209.76,132.32 184,128 "/>
<g>
</g>
<g>
</g>
<g>
</g>
<g>
</g>
<g>
</g>
<g>
</g>
<g>
</g>
<g>
</g>
<g>
</g>
<g>
</g>
<g>
</g>
<g>
</g>
<g>
</g>
<g>
</g>
<g>
</g>
</svg>
