<svg height="480pt" viewBox="-24 0 480 480.09091" width="480pt" xmlns="http://www.w3.org/2000/svg"><path d="m135.863281 266.640625 24.238281-66.640625c-10.007812 0-18.007812 12.800781-28 12.800781-9.992187 0-9.992187-12.800781-20-12.800781-10.007812 0-10.023437 12.800781-20 12.800781-9.976562 0-18.007812-12.800781-28-12.800781l24.242188 66.640625c15.644531-3.519531 31.875-3.519531 47.519531 0zm0 0" fill="#57565c"/><path d="m216.101562 376c0 61.839844-42.160156 96-104 96-25.8125 1.0625-51.21875-6.726562-72-22.078125-3.339843-2.664063-6.445312-5.609375-9.277343-8.800781-.386719-.335938-.738281-.710938-1.042969-1.121094-14.859375-17.9375-22.578125-40.726562-21.679688-64 0-53.519531 31.601563-98.320312 80.242188-109.359375 15.644531-3.519531 31.875-3.519531 47.519531 0 14.148438 3.152344 27.40625 9.441406 38.800781 18.398437 27.085938 22.320313 42.375 55.875 41.4375 90.960938zm0 0" fill="#787680"/><path d="m216.101562 376c0 61.839844-42.160156 96-104 96-25.8125 1.0625-51.21875-6.726562-72-22.078125-3.339843-2.664063-6.445312-5.609375-9.277343-8.800781 70.460937-25.5625 124.105469-83.769532 143.839843-156.082032 27.085938 22.320313 42.375 55.875 41.4375 90.960938zm0 0" fill="#6c6a73"/><path d="m392.101562 168v210.800781c-5.125-1.867187-10.542968-2.816406-16-2.800781-21.160156.023438-39.8125 13.902344-45.910156 34.167969s1.796875 42.132812 19.429688 53.832031h-109.519532l-9.199218-48.480469-46.800782-247.519531zm0 0" fill="#0b7"/><path d="m424.101562 424c0 26.507812-21.488281 48-48 48-9.425781.039062-18.648437-2.75-26.480468-8-17.632813-11.699219-25.527344-33.566406-19.429688-53.832031s24.75-34.144531 45.910156-34.167969c5.457032-.015625 10.875.933594 16 2.800781 19.1875 6.734375 32.023438 24.863281 32 45.199219zm0 0" fill="#787680"/><path d="m400.101562 424c0 13.253906-10.742187 24-24 24-13.253906 0-24-10.746094-24-24s10.746094-24 24-24c13.257813 0 24 10.746094 24 24zm0 0" fill="#57565c"/><path d="m392.101562 136c0 8.835938-7.164062 16-16 16-8.835937 0-16-7.164062-16-16h-176v32h208zm0 0" fill="#00665a"/><path d="m392.101562 136c0 8.835938-7.164062 16-16 16-8.835937 0-16-7.164062-16-16s7.164063-16 16-16c8.835938 0 16 7.164062 16 16zm0 0" fill="#898890"/><path d="m376.101562 120c8.828126.027344 15.976563 7.175781 16 16l-8-128h-24v128c.027344-8.824219 7.175782-15.972656 16-16zm0 0" fill="#00665a"/><path d="m392.101562 214.558594v164.242187c-5.125-1.867187-10.542968-2.816406-16-2.800781-21.160156.023438-39.8125 13.902344-45.910156 34.167969s1.796875 42.132812 19.429688 53.832031h-109.519532l-9.199218-48.480469c46.71875-28 133.121094-92.800781 161.199218-200.960937zm0 0" fill="#00b370"/><path d="m400.101562 373.601562v-237.601562c0-.917969-.054687-1.832031-.160156-2.742188l-7.839844-125.753906c-.261718-4.222656-3.765624-7.5117185-8-7.503906h-24c-4.417968 0-8 3.582031-8 8v120h-168c-4.417968 0-8 3.582031-8 8v32c0 .5.050782.996094.144532 1.488281l24.9375 131.816407c-13.425782-18.980469-32.6875-33.054688-54.847656-40.074219l21.277343-58.496094c.894531-2.449219.535157-5.183594-.960937-7.320313-1.496094-2.136718-3.941406-3.414062-6.550782-3.414062-6.894531.566406-13.425781 3.324219-18.640624 7.871094-2.667969 2.386718-5.882813 4.078125-9.359376 4.929687-.796874 0-1.214843-.167969-3.679687-3.320312-3.523437-5.679688-9.640625-9.230469-16.320313-9.480469-6.667968.257812-12.773437 3.800781-16.300781 9.464844-2.488281 3.199218-2.898437 3.335937-3.722656 3.335937-3.46875-.855469-6.675781-2.542969-9.34375-4.921875-5.207031-4.550781-11.738281-7.3125-18.632813-7.878906-2.609374 0-5.050781 1.277344-6.546874 3.414062-1.496094 2.136719-1.855469 4.871094-.964844 7.320313l21.273437 58.496094c-46.863281 14.808593-77.761719 59.777343-77.761719 114.769531-.839843 25.1875 7.566407 49.816406 23.632813 69.230469 3.453125 3.972656 7.253906 7.628906 11.351563 10.929687 22.203124 16.5 49.378906 24.910156 77.015624 23.839844 58.035157 0 97.480469-28.199219 108.65625-75.199219l11.488282 60.703125c.722656 3.769532 4.019531 6.496094 7.855468 6.496094h107.457032c8.605468 5.222656 18.476562 7.988281 28.542968 8 26.160157.039062 48.847657-18.074219 54.601563-43.589844 5.757813-25.519531-6.957031-51.617187-30.601563-62.808594zm-308-152.800781c6.671876-.257812 12.78125-3.804687 16.3125-9.472656 2.464844-3.160156 2.890626-3.328125 3.6875-3.328125.800782 0 1.21875.167969 3.679688 3.320312 3.527344 5.675782 9.644531 9.226563 16.320312 9.480469 4.84375-.152343 9.546876-1.6875 13.546876-4.425781l-15.015626 41.28125c-12.269531-1.945312-24.765624-1.945312-37.035156 0l-15.015625-41.257812c3.996094 2.726562 8.6875 4.253906 13.519531 4.402343zm20 243.199219c-23.980468 1.042969-47.597656-6.117188-66.964843-20.296875-3.371094-2.707031-6.492188-5.707031-9.328125-8.96875-13.601563-16.46875-20.621094-37.394531-19.707032-58.734375 0-50.695312 29.746094-91.503906 74.066407-101.601562 14.457031-3.25 29.460937-3.25 43.917969 0 44.273437 10.097656 74.015624 50.90625 74.015624 101.601562 0 55.105469-35.886718 88-96 88zm266.976563-335.398438c.296875.152344.582031.324219.855469.511719.574218.292969 1.113281.65625 1.601562 1.078125.261719.28125.503906.578125.726563.886719.382812.453125.714843.941406.984375 1.464844.164062.378906.296875.769531.402344 1.167969.246093.699218.394531 1.429687.4375 2.167968v.183594c0 3.550781-2.320313 6.683594-5.714844 7.714844-3.394532 1.03125-7.066406-.273438-9.042969-3.222656-1.980469-2.945313-1.796875-6.839844.445313-9.589844 2.242187-2.75 6.019531-3.710938 9.304687-2.363282zm-10.976563-112.601562h8.488282l6.050781 96.902344c-.320313-.085938-.664063-.117188-1-.191406-.503906-.125-1.019531-.214844-1.539063-.304688-.921874-.148438-1.851562-.242188-2.78125-.285156-.410156 0-.800781-.121094-1.21875-.121094-.175781 0-.335937.046875-.511718.054688-1.363282.023437-2.722656.160156-4.0625.410156-.390625.070312-.753906.207031-1.136719.296875-.800781.183593-1.550781.351562-2.289063.605469zm-176 128h161.371094c.09375.28125.246094.527344.359375.800781.167969.421875.351563.800781.542969 1.238281.421875.90625.902344 1.785157 1.433594 2.632813.238281.375.460937.761719.726562 1.128906.675782.953125 1.421875 1.855469 2.230469 2.703125.167969.167969.296875.359375.464844.527344.992187.976562 2.0625 1.867188 3.199219 2.664062.320312.214844.664062.402344 1 .609376.871093.546874 1.777343 1.039062 2.714843 1.472656.4375.199218.878907.375 1.328125.550781.941406.359375 1.90625.660156 2.886719.902344.441406.105469.863281.234375 1.3125.3125 1.457031.292969 2.941406.445312 4.429687.457031 1.515626-.007812 3.027344-.160156 4.511719-.457031.464844-.085938.898438-.238281 1.34375-.351563.722657-.183594 1.457031-.320312 2.144531-.558594v1.367188h-192zm54.625 312-52.96875-280h190.34375v192.574219c-2.648437-.382813-5.320312-.574219-8-.574219-16.257812-.089844-31.742187 6.929688-42.390624 19.214844-10.648438 12.285156-15.394532 28.609375-13 44.6875.113281.800781.304687 1.601562.457031 2.402344.335937 1.792968.734375 3.550781 1.238281 5.296874.257812.878907.535156 1.742188.800781 2.605469.574219 1.6875 1.246094 3.328125 1.984375 4.945313.351563.757812.671875 1.527344 1.046875 2.273437 1.035157 2.019531 2.191407 3.980469 3.464844 5.863281.152344.222657.253906.472657.40625.6875zm129.375 8c-7.855468.03125-15.542968-2.292969-22.070312-6.671875-14.691406-9.75-21.265625-27.972656-16.183594-44.855469 5.082032-16.886718 20.621094-28.453125 38.253906-28.472656 4.5625-.003906 9.089844.792969 13.378907 2.351562 18.277343 6.5625 29.203125 25.300782 25.90625 44.4375-3.296875 19.140626-19.863281 33.144532-39.285157 33.210938zm0 0"/><path d="m376.101562 392c-17.671874 0-32 14.328125-32 32s14.328126 32 32 32c17.675782 0 32-14.328125 32-32s-14.324218-32-32-32zm0 48c-8.835937 0-16-7.164062-16-16s7.164063-16 16-16c8.835938 0 16 7.164062 16 16s-7.164062 16-16 16zm0 0"/></svg>