<svg height="480pt" viewBox="-40 0 480 480.00003" width="480pt" xmlns="http://www.w3.org/2000/svg"><path d="m145.933594 143.800781c-.835938.109375-1.675782.15625-2.519532.144531.191407 0 .375.054688.578126.054688.648437-.027344 1.300781-.09375 1.941406-.199219zm0 0" fill="#bddbff"/><path d="m149.902344 142.832031c.472656-.207031.933594-.433593 1.382812-.6875-.449218.253907-.910156.480469-1.382812.6875zm0 0" fill="#bddbff"/><path d="m231.992188 88-24-8h-64c-8.828126.027344-15.976563 7.175781-16 16v32c.003906 1.136719.132812 2.265625.375 3.375.078124.359375.222656.695312.328124 1.050781.191407.710938.433594 1.40625.71875 2.085938.175782.382812.402344.734375.609376 1.105469.308593.585937.652343 1.15625 1.03125 1.703124.265624.359376.550781.679688.839843 1.015626.410157.496093.855469.964843 1.328125 1.398437.328125.300781.667969.585937 1.023438.851563.511718.394531 1.046875.757812 1.601562 1.09375.382813.222656.800782.441406 1.167969.632812.597656.289062 1.210937.542969 1.839844.757812.40625.136719.800781.273438 1.230469.386719.699218.167969 1.40625.289063 2.121093.359375.40625.046875.800781.113282 1.222657.128906.84375.011719 1.6875-.035156 2.519531-.144531.328125-.039062.671875-.039062 1-.097656.328125-.054687.800781-.222656 1.257812-.335937.578125-.144532 1.152344-.324219 1.710938-.535157.472656-.207031.933593-.433593 1.382812-.6875.355469-.175781.707031-.359375 1.042969-.558593 4.828125-3.257813 7.703125-8.722657 7.648438-14.546876v-15.039062h39.277343l8.722657 96 24-16h160v-104zm0 0" fill="#ffdaaa"/><path d="m159.992188 112v15.039062c.050781 5.828126-2.828126 11.292969-7.664063 14.546876 4.738281-2.894532 7.636719-8.035157 7.664063-13.585938h8c8.824218.027344 15.972656 7.175781 16 16-.066407 8.808594-7.191407 15.933594-16 16 8.835937 0 16 7.164062 16 16s-7.164063 16-16 16h-8c8.835937 0 16 7.164062 16 16h32l-8.722657-96zm0 0" fill="#787680"/><path d="m311.992188 336c0 75.109375-60.890626 136-136 136h-32c-65.734376.042969-122.089844-46.9375-133.882813-111.605469-11.789063-64.671875 24.363281-128.515625 85.882813-151.675781.417968 8.539062 7.449218 15.253906 16 15.28125h48c8.808593-.066406 15.933593-7.191406 16-16h32c10.609374 3.207031 20.851562 7.523438 30.558593 12.878906 41.917969 23.042969 73.441407 65.199219 73.441407 115.121094zm0 0" fill="#787680"/><path d="m311.992188 336c0 75.109375-60.890626 136-136 136h-32c-35.964844.054688-70.472657-14.191406-95.921876-39.601562 52-18.796876 171.839844-76.476563 190.480469-211.519532 41.917969 23.042969 73.441407 65.199219 73.441407 115.121094zm0 0" fill="#6c6a73"/><path d="m134.246094 140.585938c.511718.394531 1.046875.757812 1.601562 1.09375-.554687-.335938-1.089844-.699219-1.601562-1.09375zm0 0" fill="#bddbff"/><path d="m128.695312 132.425781c.195313.710938.433594 1.40625.71875 2.085938-.285156-.679688-.527343-1.375-.71875-2.085938zm0 0" fill="#bddbff"/><path d="m130.023438 135.617188c.308593.589843.652343 1.15625 1.03125 1.703124-.378907-.546874-.722657-1.117187-1.03125-1.703124zm0 0" fill="#bddbff"/><path d="m143.992188 80h55.277343l32.722657-72c-16 0-24 13.121094-40 13.121094s-16-13.121094-32-13.121094-16 13.121094-32 13.121094-24-13.121094-40-13.121094l40 88c.023437-8.824219 7.171874-15.972656 16-16zm0 0" fill="#57565c"/><path d="m127.992188 128c.003906 1.136719.132812 2.265625.375 3.375-.242188-1.109375-.371094-2.238281-.375-3.375zm0 0" fill="#bddbff"/><path d="m146.933594 143.703125c.433594-.085937.800781-.222656 1.257812-.335937-.425781.113281-.824218.257812-1.257812.335937zm0 0" fill="#bddbff"/><path d="m140.070312 143.457031c.699219.167969 1.40625.289063 2.121094.359375-.714844-.070312-1.421875-.191406-2.121094-.359375zm0 0" fill="#bddbff"/><path d="m137 142.3125c.597656.289062 1.210938.542969 1.839844.757812-.628906-.214843-1.242188-.46875-1.839844-.757812zm0 0" fill="#bddbff"/><path d="m133.222656 139.734375c-.472656-.433594-.917968-.902344-1.328125-1.398437.414063.492187.855469.960937 1.328125 1.398437zm0 0" fill="#bddbff"/><path d="m127.992188 96h-24c-8.8125.066406-15.9375 7.191406-16 16 .023437 8.824219 7.171874 15.972656 16 16h24zm0 0" fill="#ffc477"/><g fill="#bddbff"><path d="m151.285156 142.144531c.351563-.183593.714844-.351562 1.042969-.558593-.335937.199218-.691406.382812-1.042969.558593zm0 0"/><path d="m143.414062 143.945312c-.414062 0-.800781-.082031-1.222656-.128906.40625.046875.808594.113282 1.222656.128906zm0 0"/><path d="m148.191406 143.367188c.578125-.144532 1.152344-.324219 1.710938-.535157-.558594.210938-1.132813.390625-1.710938.535157zm0 0"/><path d="m134.246094 140.585938c-.355469-.265626-.695313-.550782-1.023438-.851563.367188.304687.671875.578125 1.023438.851563zm0 0"/><path d="m138.839844 143.070312c.40625.136719.796875.273438 1.230468.386719-.414062-.113281-.824218-.257812-1.230468-.386719zm0 0"/><path d="m146.933594 143.703125c-.328125.058594-.671875.058594-1 .097656.265625 0 .511718 0 .800781-.039062.066406-.023438.132813-.042969.199219-.058594zm0 0"/><path d="m128.367188 131.375c.078124.367188.222656.695312.328124 1.050781-.105468-.355469-.25-.691406-.328124-1.050781zm0 0"/><path d="m135.832031 141.679688c.382813.222656.796875.433593 1.167969.632812-.402344-.191406-.785156-.410156-1.167969-.632812zm0 0"/><path d="m129.414062 134.511719c.175782.382812.402344.734375.609376 1.105469-.207032-.371094-.433594-.722657-.609376-1.105469zm0 0"/><path d="m131.054688 137.320312c.265624.359376.550781.679688.839843 1.015626-.289062-.335938-.574219-.65625-.839843-1.015626zm0 0"/></g><path d="m167.992188 192c8.835937 0 16-7.164062 16-16s-7.164063-16-16-16h-64c-8.839844 0-16 7.164062-16 16s7.160156 16 16 16zm0 0" fill="#ffc477"/><path d="m111.992188 224h48c8.808593-.066406 15.933593-7.191406 16-16 0-8.835938-7.164063-16-16-16h-48c-8.8125.066406-15.9375 7.191406-16 16v.71875c.417968 8.539062 7.449218 15.253906 16 15.28125zm0 0" fill="#ffc477"/><path d="m167.992188 128h-64c-8.8125.066406-15.9375 7.191406-16 16 .023437 8.824219 7.171874 15.972656 16 16h64c8.808593-.066406 15.933593-7.191406 16-16-.027344-8.824219-7.175782-15.972656-16-16zm0 0" fill="#ffc477"/><path d="m391.992188 80h-158.707032l-21.910156-7.304688 27.894531-61.382812v-.097656c.175781-.519532.300781-1.054688.367188-1.597656.171875-.492188.292969-.996094.355469-1.511719v-.105469c-.046876-.382812-.121094-.757812-.226563-1.128906-.050781-.617188-.175781-1.226563-.367187-1.816406-.222657-.46875-.488282-.917969-.800782-1.335938-.226562-.4375-.492187-.851562-.800781-1.238281-.480469-.445313-1.019531-.828125-1.597656-1.136719-.273438-.226562-.5625-.4375-.863281-.625h-.097657c-.519531-.175781-1.054687-.296875-1.601562-.359375-.519531-.160156-1.054688-.2695312-1.597657-.3203125l-.046874-.0390625c-8.480469.335938-16.714844 2.941406-23.847657 7.535156-4.808593 3.238282-10.375 5.164063-16.152343 5.585938-4.136719.011718-8.085938-1.703125-10.898438-4.738282-11.832031-11.167968-30.320312-11.167968-42.152344 0-2.832031 3.035157-6.800781 4.75-10.949218 4.738282-5.78125-.425782-11.347657-2.355469-16.144532-5.601563-7.136718-4.59375-15.375-7.191406-23.855468-7.519531h-.082032c-.527344.0546875-1.050781.160156-1.558594.3125-.546874.070312-1.082031.191406-1.601562.367188h-.09375c-.304688.1875-.59375.394531-.867188.625-.578124.3125-1.113281.691406-1.597656 1.136718-.320312.386719-.601562.804688-.839844 1.246094-.3125.414062-.578124.859375-.800781 1.328125-.191406.59375-.316406 1.203125-.367187 1.824219-.097656.382812-.160156.769531-.191406 1.160156v.105469c.046874.511719.148437 1.019531.300781 1.511719.070312.542968.191406 1.078124.371093 1.597656v.097656l34.902344 76.6875h-11.574218c-13.230469.066406-23.9375 10.773438-24 24 .023437 5.925781 2.257812 11.632812 6.261718 16-4.03125 4.351562-6.269531 10.066406-6.261718 16 .019531 5.921875 2.242187 11.625 6.238281 16-4.773438 5.210938-6.980469 12.277344-6.019531 19.28125.960937 7.003906 4.988281 13.214844 10.988281 16.949219-1.300781 2.191406-2.226563 4.582031-2.746094 7.074219-63.292969 26.429687-99.136719 93.859374-85.640625 161.109374 13.5 67.25 72.585938 115.628907 141.179688 115.585938h32c79.527343 0 144-64.472656 144-144 0-55.601562-38.113282-107.113281-94.402344-130.144531l8.800781-5.855469h157.601563c4.417968 0 8-3.582031 8-8v-104c0-4.417969-3.582032-8-8-8zm-264-50.878906c7.839843.019531 15.386718-2.976563 21.078124-8.367188 2.824219-3.03125 6.777344-4.753906 10.921876-4.753906 4.136718-.015625 8.09375 1.703125 10.902343 4.742188 5.6875 5.414062 13.246094 8.414062 21.097657 8.378906 8.46875-.335938 16.695312-2.933594 23.824218-7.519532l1.597656-.859374-23.296874 51.257812h-50.125c-5.691407.023438-11.183594 2.085938-15.480469 5.816406l-25.945313-57.082031 1.601563.839844c7.121093 4.605469 15.347656 7.210937 23.824219 7.546875zm7.199218 121.136718c.261719.101563.527344.238282.800782.335938 1.175781.410156 2.382812.734375 3.605468.964844l.257813.066406c2.683593.480469 5.433593.480469 8.117187 0h.050782c1.320312-.226562 2.617187-.566406 3.878906-1.015625.25-.089844.472656-.203125.71875-.304687 6.523437-2.507813 11.632812-7.730469 14-14.304688h1.371094c4.417968 0 8 3.582031 8 8 .003906 2.160156-.886719 4.222656-2.457032 5.703125-1.460937 1.488281-3.460937 2.316406-5.542968 2.296875h-64c-4.417969 0-8-3.582031-8-8-.003907-2.160156.882812-4.222656 2.453124-5.703125 1.460938-1.488281 3.460938-2.316406 5.546876-2.296875h17.367187c.183594.519531.445313.992188.664063 1.488281.144531.335938.277343.664063.429687.984375 1.394531 2.847656 3.339844 5.394532 5.722656 7.488282.125.101562.214844.246093.335938.351562.117187.101562.359375.230469.527343.367188.75.597656 1.535157 1.152343 2.351563 1.65625.328125.207031.648437.417968.984375.609374.910156.492188 1.851562.933594 2.816406 1.3125zm56.800782-30.257812 7.261718 80h-16.800781c-.417969-1.3125-.953125-2.582031-1.597656-3.800781 5.976562-3.75 9.972656-9.964844 10.914062-16.957031.941407-6.992188-1.273437-14.042969-6.042969-19.242188 4.035157-4.351562 6.273438-10.066406 6.265626-16 0-13.253906-10.746094-24-24-24zm-88 88c-.003907-2.160156.882812-4.222656 2.453124-5.703125 1.460938-1.488281 3.460938-2.316406 5.546876-2.296875h48c2.871093.007812 5.515624 1.550781 6.933593 4.046875 1.832031 3.152344 1.257813 7.152344-1.390625 9.65625-1.460937 1.488281-3.460937 2.316406-5.542968 2.296875h-48c-4.382813-.085938-7.917969-3.617188-8-8zm0-24c-4.417969 0-8-3.582031-8-8s3.582031-8 8-8h64c4.417968 0 8 3.582031 8 8s-3.582032 8-8 8zm-5.546876-77.703125c1.460938-1.488281 3.460938-2.316406 5.546876-2.296875h16v16h-16c-4.417969 0-8-3.582031-8-8-.003907-2.160156.882812-4.222656 2.453124-5.703125zm205.546876 229.703125c-.027344 70.679688-57.320313 127.972656-128 128h-32c-60.203126-.054688-112.238282-42.039062-125.011719-100.871094-12.773438-58.832031 17.160156-118.617187 71.921875-143.632812.402344.714844.84375 1.40625 1.320312 2.070312.113282.167969.207032.34375.320313.511719.777343 1.054687 1.640625 2.046875 2.574219 2.960937.265624.257813.539062.496094.800781.746094.78125.695313 1.605469 1.347656 2.464843 1.941406.265626.183594.519532.386719.800782.554688 1.117187.710938 2.296875 1.324219 3.519531 1.839844.253906.109375.527344.183594.800781.277344 1.042969.394531 2.109375.71875 3.199219.960937.367187.082031.734375.167969 1.113281.234375 1.375.253906 2.773438.390625 4.175782.40625h48c10.144531-.019531 19.175781-6.429688 22.542968-16h24.152344c47.0625 14.488281 97.304688 57.984375 97.304688 120zm80-152h-152c-1.582032.003906-3.125.46875-4.441407 1.34375l-12.800781 8.535156-6.71875-73.878906c4.417969-.011719 7.992188-3.601562 7.980469-8.019531s-3.601563-7.992188-8.019531-7.980469h-48c-4.417969 0-8 3.582031-8 8v15.039062c.039062 2.921876-1.300782 5.691407-3.617188 7.472657-.644531.5-1.390625.855469-2.183594 1.039062-.550781.183594-1.125.300781-1.703125.34375-.285156.015625-.566406.015625-.851562 0-.867188-.027343-1.726563-.199219-2.542969-.511719-.191406-.078124-.34375-.167968-.519531-.246093-1.484375-.699219-2.695313-1.867188-3.457031-3.320313-.117188-.207031-.300782-.375-.40625-.59375-.464844-1.011718-.707032-2.109375-.71875-3.222656v-32c0-4.417969 3.582031-8 8-8h62.703124l22.765626 7.585938c.816406.273437 1.671874.410156 2.53125.414062h152zm0 0"/></svg>