<?xml version="1.0" encoding="iso-8859-1"?>
<!-- Generator: Adobe Illustrator 19.0.0, SVG Export Plug-In . SVG Version: 6.00 Build 0)  -->
<svg version="1.1" id="Capa_1" xmlns="http://www.w3.org/2000/svg" xmlns:xlink="http://www.w3.org/1999/xlink" x="0px" y="0px"
	 viewBox="0 0 480.997 480.997" style="enable-background:new 0 0 480.997 480.997;" xml:space="preserve">
<path style="fill:#2D9CCA;" d="M37.109,114.518c3.395,1.313,7.059,1.98,10.891,1.98h64c22.055,0,40-17.945,40-40s-17.945-40-40-40
	c-3.25,0-6.445,0.398-9.559,1.184C96.512,31.85,88.477,28.499,80,28.499c-14.891,0-27.434,10.223-30.992,24.016
	C31.312,51.909,16,66.518,16,84.499C16,98.143,24.605,110.249,37.109,114.518z"/>
<path style="fill:#D0DFEA;" d="M336.691,241.249c-1.738,3.91-0.094,8.492,3.73,10.406l32,16c1.129,0.563,2.355,0.844,3.578,0.844
	c1.461,0,2.922-0.402,4.207-1.195c1.246-0.771,2.212-1.865,2.867-3.125l-18.403-85.883L336.691,241.249z"/>
<path style="fill:#79BFCB;" d="M384,172.499c0-3.777-2.645-7.043-6.34-7.824c-3.68-0.801-7.438,1.121-8.969,4.574l-4.021,9.046
	l18.403,85.883c0.583-1.122,0.926-2.373,0.926-3.679V172.499z"/>
<path style="fill:#D0DFEA;" d="M359.005,289.453c-1.291-0.694-2.721-0.983-4.14-0.92l-65.175,58.879l68.509-7.246
	c4.255-0.45,7.401-4.165,7.147-8.434l-2.144-35.713c-0.078-1.259-0.447-2.462-1.059-3.521
	C361.413,291.233,360.334,290.169,359.005,289.453z"/>
<path style="fill:#79BFCB;" d="M351.215,289.57l-76.21,44c-3.271,1.889-4.777,5.812-3.606,9.402c1.146,3.587,4.69,5.881,8.446,5.48
	l9.845-1.041l65.175-58.879C353.602,288.588,352.347,288.917,351.215,289.57z"/>
<path style="fill:#D0DFEA;" d="M433.11,272.081c-2.517-3.46-7.308-4.327-10.877-1.972l-29.856,19.713
	c-1.051,0.696-1.908,1.618-2.52,2.677c-0.73,1.265-1.112,2.731-1.068,4.241c0.044,1.465,0.509,2.849,1.273,4.046l83.579,27.004
	L433.11,272.081z"/>
<path style="fill:#79BFCB;" d="M479.464,335.794l-5.824-8.005l-83.579-27.004c0.68,1.066,1.592,1.988,2.724,2.642l76.21,44
	c3.271,1.889,7.422,1.231,9.946-1.579C481.474,343.062,481.688,338.847,479.464,335.794z"/>
<path style="fill:#D0DFEA;" d="M93.666,178.3l-27.979,62.954c-1.738,3.91-0.094,8.492,3.73,10.406l32,16
	c1.129,0.563,2.355,0.844,3.578,0.844c1.461,0,2.922-0.402,4.207-1.195c1.246-0.771,2.212-1.865,2.867-3.125L93.666,178.3z"/>
<path style="fill:#79BFCB;" d="M112.995,260.503v-88c0-3.777-2.645-7.043-6.34-7.824c-3.68-0.801-7.438,1.121-8.969,4.574
	l-4.021,9.046l18.403,85.883C112.653,263.061,112.995,261.81,112.995,260.503z"/>
<path style="fill:#D0DFEA;" d="M87.194,340.17c4.255-0.45,7.401-4.165,7.147-8.434l-2.144-35.713
	c-0.077-1.259-0.447-2.462-1.059-3.521c-0.73-1.265-1.809-2.33-3.139-3.046c-1.291-0.694-2.721-0.983-4.14-0.92l-65.175,58.879
	L87.194,340.17z"/>
<path style="fill:#79BFCB;" d="M18.685,347.417l65.175-58.879c-1.263,0.056-2.518,0.385-3.649,1.038l-76.21,44
	c-3.271,1.889-4.777,5.812-3.606,9.402c1.146,3.587,4.689,5.88,8.446,5.48L18.685,347.417z"/>
<path style="fill:#D0DFEA;" d="M162.105,272.086c-2.517-3.46-7.308-4.327-10.877-1.972l-29.856,19.712
	c-1.052,0.697-1.909,1.618-2.52,2.677c-0.73,1.265-1.112,2.731-1.068,4.241c0.045,1.465,0.509,2.848,1.273,4.046l83.578,27.004
	L162.105,272.086z"/>
<path style="fill:#79BFCB;" d="M119.057,300.79c0.679,1.066,1.592,1.988,2.723,2.642l76.21,44c3.271,1.889,7.421,1.231,9.946-1.579
	c2.533-2.786,2.748-7.001,0.523-10.054l-5.824-8.005L119.057,300.79z"/>
<path style="fill:#D0DFEA;" d="M203.425,91.66l32,16c1.129,0.563,2.355,0.844,3.578,0.844c1.461,0,2.922-0.402,4.207-1.195
	c1.246-0.771,2.212-1.865,2.867-3.125L227.674,18.3l-27.979,62.954C197.956,85.164,199.601,89.746,203.425,91.66z"/>
<path style="fill:#79BFCB;" d="M247.003,100.503v-88c0-3.777-2.645-7.043-6.34-7.824c-3.68-0.801-7.438,1.121-8.969,4.574
	l-4.021,9.046l18.403,85.883C246.661,103.061,247.003,101.81,247.003,100.503z"/>
<path style="fill:#D0DFEA;" d="M228.348,171.737l-2.144-35.713c-0.077-1.259-0.447-2.462-1.058-3.521
	c-0.73-1.265-1.81-2.33-3.139-3.046c-1.291-0.694-2.722-0.983-4.141-0.92l-65.175,58.879l68.509-7.246
	C225.457,179.721,228.603,176.005,228.348,171.737z"/>
<path style="fill:#79BFCB;" d="M214.218,129.575l-76.21,44c-3.271,1.889-4.777,5.812-3.606,9.402c1.146,3.587,4.689,5.88,8.446,5.48
	l9.845-1.041l65.175-58.879C216.604,128.593,215.349,128.922,214.218,129.575z"/>
<path style="fill:#D0DFEA;" d="M336.642,167.794l-40.529-55.708c-2.517-3.46-7.308-4.327-10.877-1.972l-29.856,19.712
	c-1.052,0.697-1.908,1.618-2.52,2.677c-0.73,1.265-1.113,2.731-1.068,4.241c0.044,1.465,0.509,2.848,1.273,4.046L336.642,167.794z"
	/>
<path style="fill:#79BFCB;" d="M255.787,143.432l76.21,44c3.271,1.889,7.422,1.231,9.946-1.579
	c2.534-2.786,2.748-7.001,0.523-10.054l-5.824-8.005l-83.578-27.004C253.744,141.857,254.656,142.778,255.787,143.432z"/>
<path style="fill:#A0D92A;" d="M146.16,437.939c-8.16-0.88-16.88-1.44-26.16-1.44c-72,0-112,40-112,40h104
	C112,476.499,122.96,456.738,146.16,437.939z"/>
<path style="fill:#25C656;" d="M339.52,436.979c25.12,19.04,36.48,39.52,36.48,39.52h96c0,0-40-40-120-40
	C347.76,436.499,343.52,436.658,339.52,436.979z"/>
<path style="fill:#1B7DA4;" d="M377.44,116.499h37.44c1.84,0,3.68-0.16,5.44-0.48c-7.04-1.6-12.32-8-12.32-15.52
	c0-4.4,1.76-8.4,4.72-11.28c2.88-2.96,6.88-4.72,11.28-4.72h24c0-17.68-14.32-32-32-32c-14.88,0-27.44,10.16-30.96,24H372
	c-5.52,0-10.56,2.24-14.16,5.84c-3.36,3.36-5.52,7.92-5.84,12.96C351.36,106.899,361.6,116.499,377.44,116.499z"/>
<path style="fill:#2D9CCA;" d="M412.72,89.218c-2.96,2.88-4.72,6.88-4.72,11.28c0,7.52,5.28,13.92,12.32,15.52
	c1.2,0.32,2.4,0.48,3.68,0.48h32c4.4,0,8.4-1.76,11.28-4.72c2.96-2.88,4.72-6.88,4.72-11.28c0-8.8-7.2-16-16-16h-8h-24
	C419.6,84.499,415.6,86.258,412.72,89.218z"/>
<path style="fill:#4BB437;" d="M339.52,436.979c-22.08-16.8-54.64-32.48-99.52-32.48v72h136
	C376,476.499,364.64,456.019,339.52,436.979z"/>
<path style="fill:#59D541;" d="M146.16,437.939c-23.2,18.8-34.16,38.56-34.16,38.56h128v-72
	C198.08,404.499,167.12,420.818,146.16,437.939z"/>
<rect x="240" y="148.499" style="fill:#B3C0C9;" width="8" height="256"/>
<g>
	<rect x="232" y="148.499" style="fill:#D0DFEA;" width="8" height="256"/>
	<rect x="368" y="276.499" style="fill:#D0DFEA;" width="8" height="16"/>
</g>
<rect x="376" y="276.499" style="fill:#B3C0C9;" width="8" height="16"/>
<rect x="368" y="308.499" style="fill:#D0DFEA;" width="8" height="128"/>
<rect x="376" y="308.499" style="fill:#B3C0C9;" width="8" height="128"/>
<rect x="96" y="276.499" style="fill:#D0DFEA;" width="8" height="16"/>
<g>
	<rect x="104" y="276.499" style="fill:#B3C0C9;" width="8" height="16"/>
	<rect x="104" y="308.499" style="fill:#B3C0C9;" width="8" height="128"/>
</g>
<g>
	<rect x="96" y="308.499" style="fill:#D0DFEA;" width="8" height="128"/>
	<rect x="232" y="116.499" style="fill:#D0DFEA;" width="8" height="16"/>
</g>
<rect x="240" y="116.499" style="fill:#B3C0C9;" width="8" height="16"/>
<g>
</g>
<g>
</g>
<g>
</g>
<g>
</g>
<g>
</g>
<g>
</g>
<g>
</g>
<g>
</g>
<g>
</g>
<g>
</g>
<g>
</g>
<g>
</g>
<g>
</g>
<g>
</g>
<g>
</g>
</svg>
