<?xml version="1.0" encoding="iso-8859-1"?>
<!-- Generator: Adobe Illustrator 19.0.0, SVG Export Plug-In . SVG Version: 6.00 Build 0)  -->
<svg version="1.1" id="Capa_1" xmlns="http://www.w3.org/2000/svg" xmlns:xlink="http://www.w3.org/1999/xlink" x="0px" y="0px"
	 viewBox="0 0 464 464" style="enable-background:new 0 0 464 464;" xml:space="preserve">
<path style="fill:#DBCE00;" d="M289.21,216c-2.16-2.16-4.56-4.16-7.12-5.92V256v8h-24.88c-10.08,9.92-23.84,16-39.12,16
	c-11.95,0-22.942-3.758-32-10.124V288v8h24.88c10.08,9.92,23.84,16,39.12,16s29.04-6.08,39.12-16h24.88v-8v-64v-8H289.21z"/>
<path style="fill:#F1E200;" d="M257.21,264h24.88v-8v-45.92V192h-16h-32h-16v18.08c-2.56,1.76-4.96,3.76-7.12,5.92h-24.88v8v45.876
	c9.058,6.366,20.05,10.124,32,10.124C233.37,280,247.13,273.92,257.21,264z"/>
<path style="fill:#A0D92A;" d="M266.09,155.68c-4.72,2.8-10.16,4.32-16,4.32s-11.28-1.52-16-4.32V192h32V155.68z"/>
<path style="fill:#DBCE00;" d="M343.215,98.875c1.812,4.013,2.875,8.434,2.875,13.125c0,17.68-14.32,32-32,32
	c-11.84,0-22.16-6.4-27.68-16h-24.64c-2.8,4.88-6.88,8.96-11.68,11.68c-4.72,2.8-10.16,4.32-16,4.32s-11.28-1.52-16-4.32
	c-4.8-2.72-8.88-6.8-11.68-11.68h-24.64c-5.52,9.6-15.84,16-27.68,16c-4.691,0-9.112-1.063-13.125-2.875
	C145.981,152.237,157.101,160,170.09,160c11.84,0,22.16-6.4,27.68-16h24.64c2.8,4.88,6.88,8.96,11.68,11.68
	c4.72,2.8,10.16,4.32,16,4.32s11.28-1.52,16-4.32c4.8-2.72,8.88-6.8,11.68-11.68h24.64c5.52,9.6,15.84,16,27.68,16
	c17.68,0,32-14.32,32-32C362.09,115.011,354.328,103.891,343.215,98.875z"/>
<path style="fill:#F1E200;" d="M181.77,128h24.64c2.8,4.88,6.88,8.96,11.68,11.68c4.72,2.8,10.16,4.32,16,4.32s11.28-1.52,16-4.32
	c4.8-2.72,8.88-6.8,11.68-11.68h24.64c5.52,9.6,15.84,16,27.68,16c17.68,0,32-14.32,32-32c0-4.691-1.063-9.112-2.875-13.125
	C339.202,97.063,334.781,96,330.09,96c-11.84,0-22.16,6.4-27.68,16h-24.64c-5.52-9.6-15.84-16-27.68-16c-11.84,0-22.16,6.4-27.68,16
	h-24.64c-5.52-9.6-15.84-16-27.68-16c-17.68,0-32,14.32-32,32c0,4.691,1.064,9.112,2.875,13.125
	c4.013,1.812,8.434,2.875,13.125,2.875C165.93,144,176.25,137.6,181.77,128z"/>
<path style="fill:#92C612;" d="M394.09,304c0-17.673-14.327-32-32-32h-32v-48h-16v64h32c17.673,0,32,14.327,32,32v8h64v-8
	c0-2.701-0.185-5.355-0.404-8H394.09V304z"/>
<path style="fill:#A0D92A;" d="M346.09,224h-16v48h32c17.673,0,32,14.327,32,32v8h47.596C437.612,262.733,396.409,224,346.09,224z"
	/>
<path style="fill:#92C612;" d="M130.09,216c-5.464,0-10.786,0.563-16,1.439V264v8c-17.673,0-32,14.327-32,32h-8H34.494
	c-0.219,2.645-0.404,5.299-0.404,8v16h8h56h8c0-17.673,14.327-32,32-32v-8v-64v-8H130.09z"/>
<g>
	<path style="fill:#A0D92A;" d="M82.09,304c0-17.673,14.327-32,32-32v-8v-46.561C71.282,224.637,38.126,260.083,34.494,304H74.09
		H82.09z"/>
	<rect x="138.09" y="224" style="fill:#A0D92A;" width="48" height="48"/>
</g>
<rect x="138.09" y="272" style="fill:#92C612;" width="48" height="16"/>
<path style="fill:#20557D;" d="M440.548,409.494l-7.624-12.388C437.285,418.218,421.486,440,397.91,440
	c-9.272,0-17.311-3.414-23.439-8.788C375.991,448.634,390.296,464,410.09,464C438.068,464,455.211,433.321,440.548,409.494z"/>
<path style="fill:#2D9CCA;" d="M432.925,397.106L410.09,360l-30.458,49.494c-4.289,6.97-5.791,14.516-5.162,21.719
	c6.129,5.374,14.167,8.788,23.439,8.788C421.486,440,437.285,418.218,432.925,397.106z"/>
<polygon style="fill:#A0D92A;" points="42.09,328 42.09,464 73.805,464 74.06,328 "/>
<polygon style="fill:#92C612;" points="98.09,328 74.06,328 73.805,464 98.09,464 "/>
<path style="fill:#FE946F;" d="M306.09,16l74.501,45.847c0.4-0.462,0.817-0.904,1.165-1.425c4.542-6.813,2.596-16.027-4.311-20.422
	L314.09,0h-176v16H306.09z"/>
<path style="fill:#FFB398;" d="M306.09,16h-168v32h32l32,16h72c8.836,0,16-7.164,16-16c0-8.837-7.164-16-16-16h-24h24h32l56,32.845
	c6.148,3.688,13.921,2.289,18.501-2.998L306.09,16z"/>
<rect x="18.09" style="fill:#2BE664;" width="120" height="16"/>
<polygon style="fill:#25C656;" points="18.09,16 18.09,64 138.09,64 138.09,48 138.09,16 "/>
<g>
</g>
<g>
</g>
<g>
</g>
<g>
</g>
<g>
</g>
<g>
</g>
<g>
</g>
<g>
</g>
<g>
</g>
<g>
</g>
<g>
</g>
<g>
</g>
<g>
</g>
<g>
</g>
<g>
</g>
</svg>
