<?xml version="1.0" encoding="iso-8859-1"?>
<!-- Generator: Adobe Illustrator 19.0.0, SVG Export Plug-In . SVG Version: 6.00 Build 0)  -->
<svg version="1.1" id="Capa_1" xmlns="http://www.w3.org/2000/svg" xmlns:xlink="http://www.w3.org/1999/xlink" x="0px" y="0px"
	 viewBox="0 0 480 480" style="enable-background:new 0 0 480 480;" xml:space="preserve">
<g>
	<polygon style="fill:#D2D2D2;" points="96,288 96,152 80,152 80,288 88,280 	"/>
	<path style="fill:#D2D2D2;" d="M248,200h-8c0-8.061,3.081-15.337,8-20.964v-54.072c-4.919-5.626-8-12.903-8-20.964
		c0,8.061-3.081,15.337-8,20.964V256h8h8V200z"/>
	<polygon style="fill:#D2D2D2;" points="400,288 400,192 392,192 384,192 384,288 392,280 	"/>
</g>
<g>
	<polygon style="fill:#2D9CCA;" points="56,136 88,152 88,56 	"/>
	<polygon style="fill:#2D9CCA;" points="90.144,187.713 88,152 4.861,200 	"/>
	<polygon style="fill:#2D9CCA;" points="117.856,132.287 88,152 171.139,200 	"/>
</g>
<path style="fill:#F1E200;" d="M240,72V40c0-17.673-14.327-32-32-32s-32,14.327-32,32c0,17.673,14.327,32,32,32h24H240z"/>
<path style="fill:#A0D92A;" d="M240,72h-8h-24c-17.673,0-32,14.327-32,32c0,17.673,14.327,32,32,32c9.613,0,18.134-4.326,24-11.036
	c4.919-5.626,8-12.903,8-20.964V72z"/>
<path style="fill:#59D541;" d="M240,72v32c0,8.061,3.081,15.337,8,20.964c5.866,6.71,14.387,11.036,24,11.036
	c17.673,0,32-14.327,32-32c0-17.673-14.327-32-32-32h-24H240z"/>
<path style="fill:#25C656;" d="M248,72h24c17.673,0,32-14.327,32-32c0-17.673-14.327-32-32-32s-32,14.327-32,32v32H248z"/>
<polygon style="fill:#20557D;" points="424,152 408,112 376,112 392,152 "/>
<polygon style="fill:#2D9CCA;" points="376,112 344,112 360,152 392,152 "/>
<polygon style="fill:#20557D;" points="400,192 408,192 392,152 360,152 376,192 384,192 392,192 "/>
<polygon style="fill:#2D9CCA;" points="456,152 440,112 408,112 424,152 "/>
<polygon style="fill:#20557D;" points="440,192 472,192 456,152 424,152 "/>
<g>
	<polygon style="fill:#2D9CCA;" points="392,152 408,192 440,192 424,152 	"/>
	<path style="fill:#2D9CCA;" d="M248,200h40c17.673,0,32-14.327,32-32h-48c-9.613,0-18.134,4.326-24,11.036
		c-4.919,5.626-8,12.903-8,20.964H248z"/>
</g>
<polygon style="fill:#59D541;" points="96,288 88,280 80,288 40,328 0,328 0,376 104,376 144,336 "/>
<polygon style="fill:#1D9942;" points="440,328 400,288 392,280 384,288 336,336 376,376 480,376 480,328 "/>
<g>
	<path style="fill:#FE946F;" d="M208,436c0,11.045,8.954,20,20,20h75.716c5.304,0,10.391-2.107,14.142-5.858L356,412
		c-6.627-6.627-17.373-6.627-24,0l-28,28h-76c-6.627,0-12-5.373-12-12c0-5.799,4.113-10.637,9.581-11.756
		C215.69,417.451,208,425.783,208,436z"/>
	<path style="fill:#FE946F;" d="M168,432l32-32h64c0-8.837-7.164-16-16-16h-56l-24,24h-56v24H168z"/>
</g>
<rect y="408" style="fill:#2BE664;" width="112" height="24"/>
<path style="fill:#FFB398;" d="M317.858,450.142c-3.751,3.75-8.838,5.858-14.142,5.858H228c-11.046,0-20-8.955-20-20
	c0-10.217,7.69-18.549,17.581-19.756c0.781-0.16,1.59-0.244,2.419-0.244h4h16c8.836,0,16-7.164,16-16h-64l-32,32h-56v40h208l36-36
	c6.627-6.627,6.627-17.373,0-24L317.858,450.142z"/>
<rect y="432" style="fill:#25C656;" width="112" height="40"/>
<polygon style="fill:#A0D92A;" points="144,336 104,376 152,376 176,352 240,352 240,240 "/>
<path style="fill:#84B323;" d="M240,240v112h40c8.836,0,16,7.163,16,16v24h16l16-16h48l-40-40L240,240z"/>
<g>
</g>
<g>
</g>
<g>
</g>
<g>
</g>
<g>
</g>
<g>
</g>
<g>
</g>
<g>
</g>
<g>
</g>
<g>
</g>
<g>
</g>
<g>
</g>
<g>
</g>
<g>
</g>
<g>
</g>
</svg>
