<?xml version="1.0" encoding="iso-8859-1"?>
<!-- Generator: Adobe Illustrator 19.0.0, SVG Export Plug-In . SVG Version: 6.00 Build 0)  -->
<svg version="1.1" id="Capa_1" xmlns="http://www.w3.org/2000/svg" xmlns:xlink="http://www.w3.org/1999/xlink" x="0px" y="0px"
	 viewBox="0 0 480 480" style="enable-background:new 0 0 480 480;" xml:space="preserve">
<path style="fill:#183F5E;" d="M248,185.396v1.432h-16v-1.432c-2.974-1.061-5.699-2.644-8-4.728v54.16h32v-54.16
	C253.699,182.752,250.974,184.335,248,185.396z"/>
<path style="fill:#F1E200;" d="M224,250.828v24h-72v8h-8c-13.234,0-24,10.766-24,24v24.809c18.234,3.717,32,19.876,32,39.191h-16
	c0-10.416-6.708-19.213-16-22.526v47.334c18.234,3.717,32,19.876,32,39.191h-16c0-10.469-6.778-19.298-16.145-22.571
	c-0.772,21.38-18.29,38.571-39.855,38.571h-8v-16h8c13.234,0,24-10.766,24-24v-22.526c-9.292,3.313-16,12.11-16,22.526H72
	c0-19.315,13.766-35.474,32-39.191v-55.334c-9.292,3.313-16,12.11-16,22.526H72c0-19.567,14.146-35.83,32.734-39.266
	c1.87-10.118,7.621-18.814,15.556-24.734H112c-35.346,0-64,28.654-64,64v136h64c35.346,0,64-28.654,64-64v-104h64h64v104
	c0,35.346,28.654,64,64,64h64v-136c0-35.346-28.654-64-64-64h-8.29c7.935,5.92,13.686,14.617,15.556,24.734
	C393.854,302.998,408,319.261,408,338.828h-16c0-10.416-6.708-19.213-16-22.526v55.334c18.234,3.717,32,19.876,32,39.191h-16
	c0-10.416-6.708-19.213-16-22.526v22.526c0,13.234,10.766,24,24,24h8v16h-8c-21.565,0-39.083-17.191-39.855-38.571
	C350.778,415.53,344,424.359,344,434.828h-16c0-19.315,13.766-35.474,32-39.191v-47.334c-9.292,3.313-16,12.11-16,22.526h-16
	c0-19.315,13.766-35.474,32-39.191v-24.809c0-13.234-10.766-24-24-24h-8v-8h-72v-24H224z"/>
<path style="fill:#A0D92A;" d="M169.146,137.682c0.209,0.675,0.35,1.384,0.614,2.026c-1.496,0.397-2.91,0.972-4.274,1.635
	l-3.142,3.142l-0.742-0.742c-5.808,4.355-9.602,11.235-9.602,19.086c0,13.28,10.72,24,24,24c6.16,0,11.76-2.32,16-6.16
	c4.24,3.84,9.84,6.16,16,6.16s11.76-2.32,16-6.16c2.301,2.084,5.026,3.667,8,4.728v-67.255l-29.656-29.656l11.313-11.313L232,95.516
	V12.292c-9.311,3.298-16,12.079-16,22.537c0,3.12,0.64,6.16,1.76,8.88c-10.24,2.72-17.76,12-17.76,23.12c0,3.12,0.64,6.16,1.76,8.88
	c-10.24,2.72-17.76,12-17.76,23.12c0,3.12,0.64,6.16,1.76,8.88c-9.28,2.465-16.263,10.337-17.502,20.065l5.399,5.399
	L169.146,137.682z"/>
<path style="fill:#25C656;" d="M250.344,61.172l11.313,11.313L248,86.141v49.375l26.344-26.344l11.313,11.313L248,158.141v27.255
	c2.974-1.061,5.699-2.644,8-4.728c4.24,3.84,9.84,6.16,16,6.16s11.76-2.32,16-6.16c4.24,3.84,9.84,6.16,16,6.16
	c13.28,0,24-10.72,24-24c0-7.851-3.793-14.73-9.602-19.086l-0.742,0.742l-3.142-3.142c-1.364-0.663-2.779-1.237-4.274-1.635
	c0.264-0.642,0.405-1.351,0.614-2.026l-4.51-4.51l5.399-5.399c-1.239-9.728-8.222-17.6-17.502-20.065c1.12-2.72,1.76-5.76,1.76-8.88
	c0-11.12-7.52-20.4-17.76-23.12c1.12-2.72,1.76-5.76,1.76-8.88c0-11.12-7.52-20.4-17.76-23.12c1.12-2.72,1.76-5.76,1.76-8.88
	c0-10.458-6.689-19.239-16-22.537v51.224L250.344,61.172z"/>
<polygon style="fill:#D0DFEA;" points="80,202.828 80,170.828 96,170.828 96,202.828 104,202.828 112,202.828 120,202.828 
	120,146.828 56,146.828 56,202.828 64,202.828 72,202.828 "/>
<polygon style="fill:#79BFCB;" points="120,106.828 136,122.828 138.344,120.484 144,114.828 149.656,109.172 152,106.828 
	120,74.828 112,74.828 64,74.828 56,74.828 24,106.828 26.344,109.172 32,114.828 37.656,120.484 40,122.828 56,106.828 56,146.828 
	120,146.828 "/>
<rect x="64" y="42.828" style="fill:#FFB398;" width="48" height="32"/>
<path style="fill:#1B7DA4;" d="M112,34.828c0-13.255-10.745-24-24-24s-24,10.745-24,24v8h48V34.828z"/>
<polygon style="fill:#79BFCB;" points="344,202.828 368,202.828 376,202.828 384,202.828 400,202.828 408,202.828 416,202.828 
	440,202.828 424,146.828 360,146.828 "/>
<polygon style="fill:#D0DFEA;" points="341.656,120.484 344,122.828 360,106.828 360,146.828 424,146.828 424,106.828 440,122.828 
	442.344,120.484 448,114.828 453.656,109.172 456,106.828 424,74.828 416,74.828 368,74.828 360,74.828 328,106.828 
	330.344,109.172 336,114.828 "/>
<path style="fill:#1B7DA4;" d="M412.688,34.828l3.009-3.009C414.202,20.001,404.224,10.828,392,10.828s-22.202,9.173-23.697,20.991
	l3.009,3.009H412.688z"/>
<rect x="368" y="50.828" style="fill:#FFB398;" width="48" height="24"/>
<path style="fill:#1B7DA4;" d="M421.656,48.484l32-32L442.344,5.172l-26.647,26.647l-3.009,3.009h-41.375l-3.009-3.009
	L341.656,5.172l-11.313,11.313l32,32c1.5,1.5,3.535,2.344,5.656,2.344h48C418.121,50.828,420.156,49.984,421.656,48.484z"/>
<g>
	<path style="fill:#25C656;" d="M104.734,299.563C86.146,302.998,72,319.261,72,338.828h16c0-10.416,6.708-19.213,16-22.526v55.334
		c-18.234,3.717-32,19.876-32,39.191h16c0-10.416,6.708-19.213,16-22.526v22.526c0,13.234-10.766,24-24,24h-8v16h8
		c21.565,0,39.083-17.191,39.855-38.571C129.222,415.53,136,424.359,136,434.828h16c0-19.315-13.766-35.474-32-39.191v-47.334
		c9.292,3.313,16,12.11,16,22.526h16c0-19.315-13.766-35.474-32-39.191v-24.809c0-13.234,10.766-24,24-24h96v-8v-8h-96
		c-8.917,0-17.067,3.043-23.71,8C112.355,280.749,106.604,289.445,104.734,299.563z"/>
	<path style="fill:#25C656;" d="M336,282.828c13.234,0,24,10.766,24,24v24.809c-18.234,3.717-32,19.876-32,39.191h16
		c0-10.416,6.708-19.213,16-22.526v47.334c-18.234,3.717-32,19.876-32,39.191h16c0-10.469,6.778-19.298,16.145-22.571
		c0.772,21.38,18.29,38.571,39.855,38.571h8v-16h-8c-13.234,0-24-10.766-24-24v-22.526c9.292,3.313,16,12.11,16,22.526h16
		c0-19.315-13.766-35.474-32-39.191v-55.334c9.292,3.313,16,12.11,16,22.526h16c0-19.567-14.146-35.83-32.734-39.266
		c-1.87-10.118-7.621-18.814-15.556-24.734c-6.643-4.957-14.793-8-23.71-8h-96v8v8H336z"/>
</g>
<polygon style="fill:#FFB398;" points="480,250.828 480,234.828 416,234.828 416,202.828 408,202.828 400,202.828 400,234.828 
	384,234.828 384,202.828 376,202.828 368,202.828 368,234.828 256,234.828 224,234.828 112,234.828 112,202.828 104,202.828 
	96,202.828 96,234.828 80,234.828 80,202.828 72,202.828 64,202.828 64,234.828 0,234.828 0,250.828 224,250.828 256,250.828 "/>
<polygon style="fill:#183F5E;" points="213.656,77.172 202.344,88.484 232,118.141 232,185.396 232,186.828 248,186.828 
	248,185.396 248,158.141 285.656,120.484 274.344,109.172 248,135.516 248,86.141 261.656,72.484 250.344,61.172 248,63.516 
	248,12.292 248,10.828 232,10.828 232,12.292 232,95.516 "/>
<polygon style="fill:#42739B;" points="80,170.828 80,202.828 88,202.828 96,202.828 96,170.828 "/>
<g>
	<polygon style="fill:#FFB398;" points="26.344,109.172 2.344,133.172 13.656,144.484 37.656,120.484 32,114.828 	"/>
	<polygon style="fill:#FFB398;" points="138.344,120.484 161.602,143.742 162.344,144.484 165.485,141.343 169.146,137.682 
		173.656,133.172 168.257,127.773 149.656,109.172 144,114.828 	"/>
	<polygon style="fill:#FFB398;" points="442.344,120.484 466.344,144.484 477.656,133.172 453.656,109.172 448,114.828 	"/>
	<polygon style="fill:#FFB398;" points="310.854,137.682 314.515,141.343 317.656,144.484 318.398,143.742 341.656,120.484 
		336,114.828 330.344,109.172 311.743,127.773 306.344,133.172 	"/>
</g>
<rect x="232" y="234.828" style="fill:#25C656;" width="16" height="32"/>
<g>
</g>
<g>
</g>
<g>
</g>
<g>
</g>
<g>
</g>
<g>
</g>
<g>
</g>
<g>
</g>
<g>
</g>
<g>
</g>
<g>
</g>
<g>
</g>
<g>
</g>
<g>
</g>
<g>
</g>
</svg>
