<?xml version="1.0" encoding="iso-8859-1"?>
<!-- Generator: Adobe Illustrator 19.0.0, SVG Export Plug-In . SVG Version: 6.00 Build 0)  -->
<svg version="1.1" id="Capa_1" xmlns="http://www.w3.org/2000/svg" xmlns:xlink="http://www.w3.org/1999/xlink" x="0px" y="0px"
	 viewBox="0 0 464 464" style="enable-background:new 0 0 464 464;" xml:space="preserve">
<path style="fill:#A0D92A;" d="M216,270.8c-49.84-7.68-88-50.8-88-102.8c0-40.16,22.72-74.96,56-92.24V40.72
	C132.56,60.08,96,109.76,96,168c0,58.96,37.52,109.12,89.92,128H216V270.8z"/>
<path style="fill:#84B323;" d="M323.28,268.72C350.72,243.92,368,208,368,168c0-58.24-36.56-107.92-88-127.28v35.04
	c33.28,17.28,56,52.08,56,92.24c0,43.2-26.4,80.32-63.92,96H312C316.4,264,320.4,265.76,323.28,268.72z"/>
<path style="fill:#FE946F;" d="M312,264h-39.92H272v112h56v-96c0-4.4-1.76-8.4-4.72-11.28C320.4,265.76,316.4,264,312,264z"/>
<path style="fill:#FFB398;" d="M272,264h-24v-48c0-4.4-1.76-8.4-4.72-11.28c-2.48-2.56-5.84-4.24-9.6-4.64
	C224,199.04,216,207.76,216,217.52v53.28V296h-30.08H176v32l40,48h56V264z"/>
<rect x="272" y="376" style="fill:#163B57;" width="56" height="88"/>
<rect x="216" y="376" style="fill:#20557D;" width="56" height="88"/>
<polygon style="fill:#A0D92A;" points="233.763,0 216,0 216,168 232.153,168 "/>
<polygon style="fill:#84B323;" points="248,168 248,0 233.763,0 232.153,168 "/>
<g>
</g>
<g>
</g>
<g>
</g>
<g>
</g>
<g>
</g>
<g>
</g>
<g>
</g>
<g>
</g>
<g>
</g>
<g>
</g>
<g>
</g>
<g>
</g>
<g>
</g>
<g>
</g>
<g>
</g>
</svg>
