<?xml version="1.0" encoding="iso-8859-1"?>
<!-- Generator: Adobe Illustrator 19.0.0, SVG Export Plug-In . SVG Version: 6.00 Build 0)  -->
<svg version="1.1" id="Capa_1" xmlns="http://www.w3.org/2000/svg" xmlns:xlink="http://www.w3.org/1999/xlink" x="0px" y="0px"
	 viewBox="0 0 464 464" style="enable-background:new 0 0 464 464;" xml:space="preserve">
<g>
	<polygon style="fill:#F1E200;" points="194.328,241.738 218.4,202.637 244.852,202.637 272.732,247.381 259.2,257.037 
		281.096,260.709 300,263.837 303.332,243.709 306.8,223.037 295.308,231.265 259.2,175.437 204.8,175.437 171.888,226.233 
		191.2,223.037 	"/>
	<polygon style="fill:#F1E200;" points="300,263.837 281.096,260.709 300,291.037 286.4,311.437 245.6,311.437 245.6,297.837 
		232,311.437 218.4,325.037 232,338.637 245.6,352.238 245.6,338.637 300,338.637 334,291.037 303.332,243.709 	"/>
	<polygon style="fill:#F1E200;" points="232,311.437 177.6,311.437 164,291.037 186.032,255.269 198,263.837 194.328,241.738 
		191.2,223.037 171.888,226.233 150.4,229.837 163.524,239.221 130,291.037 164,338.637 232,338.637 218.4,325.037 	"/>
</g>
<g>
	<polygon style="fill:#84B323;" points="173.496,338.637 179.675,347.288 240.651,347.288 232,338.637 	"/>
	<polygon style="fill:#84B323;" points="302.198,226.332 274.875,184.088 264.795,184.088 295.308,231.265 	"/>
	<polygon style="fill:#84B323;" points="319.007,252.36 322.475,231.688 310.983,239.916 305.413,231.304 303.332,243.709 
		334,291.037 300,338.637 245.6,338.637 245.6,347.288 247.675,347.288 261.275,360.888 261.275,347.288 315.675,347.288 
		349.675,299.688 	"/>
	<polygon style="fill:#84B323;" points="201.707,263.92 213.675,272.488 210.003,250.388 234.075,211.288 250.243,211.288 
		244.852,202.637 218.4,202.637 194.328,241.738 198,263.837 186.032,255.269 164,291.037 177.6,311.437 187.508,311.437 
		179.675,299.688 	"/>
</g>
<g>
	<polygon style="fill:#A0D92A;" points="285.288,267.434 281.329,261.083 274.875,265.688 	"/>
	<polygon style="fill:#A0D92A;" points="256.326,311.437 261.275,311.437 261.275,306.488 	"/>
	<polygon style="fill:#A0D92A;" points="245.6,352.238 245.6,347.288 240.651,347.288 	"/>
	<polygon style="fill:#A0D92A;" points="306.8,223.037 302.198,226.332 305.413,231.304 	"/>
</g>
<path style="fill:#CAFF5C;" d="M179.675,347.288l-6.179-8.651H164l-34-47.6l33.524-51.816l-13.124-9.384l21.488-3.604l32.912-50.796
	H232V95.512c-3.368,0-6.736,0-15.786,0l-5.441,32.979c-10.468,2.804-13.741,3.68-21.124,5.658c-1.99,0.533-4.213,1.128-7.034,1.884
	l-11.14-13.582l-9.854-12.014c-15.682,9.061-11.658,6.736-27.34,15.797l11.679,30.94c-9.737,9.736-10.883,10.883-20.62,20.619
	l-30.945-11.681c-9.062,15.681-6.736,11.658-15.798,27.339l25.601,21c-3.56,13.289-3.983,14.868-7.542,28.157l-32.981,5.442
	c0,18.102,0,13.471,0,31.573l15.675,2.586l17.304,2.855c0.672,2.508,1.209,4.514,1.7,6.345c2.108,7.872,2.955,11.031,5.842,21.813
	L78.6,334.216c9.061,15.682,6.736,11.658,15.797,27.34l8.765-3.309l22.175-8.37c5.024,5.024,7.766,7.766,10.576,10.576
	c2.636,2.636,5.332,5.332,10.043,10.044l-11.682,30.945c15.682,9.062,11.658,6.737,27.34,15.798l0.226-0.276l20.773-25.325
	c13.289,3.56,14.868,3.983,28.157,7.542l0.769,4.658l4.673,28.323c7.696,0,11.275,0,14.248,0c0.526,0,1.033,0,1.54,0v-84.875
	H179.675z"/>
<g>
	<path style="fill:#A0D92A;" d="M381.322,244.915l-13.975-2.306c-3.56-13.29-3.982-14.868-7.542-28.158l25.596-20.993
		c-5.394-9.335-6.759-11.698-8.887-15.381c-1.447-2.504-3.243-5.612-6.91-11.959l-25.841,9.754l-5.1,1.925
		c-9.736-9.737-10.883-10.883-20.619-20.62l11.682-30.945c-6.29-3.634-9.398-5.431-11.891-6.871c-3.722-2.15-6.057-3.5-15.449-8.927
		l-21,25.601c-6.159-1.65-9.791-2.623-13.251-3.549c-4.005-1.073-7.776-2.083-14.906-3.993l-4.015-24.331l-1.427-8.651
		c-9.051,0-12.419,0-15.787,0v79.925h27.2l5.595,8.651h10.08l27.323,42.244l4.602-3.295l-1.387,8.267l5.57,8.612l11.492-8.228
		l-3.468,20.672l30.668,47.328l-34,47.6h-54.4v13.6l-13.6-13.6H245.6v4.949l-4.949-4.949H232v84.875c3.367,0,6.742,0,15.786,0
		l5.441-32.979c13.29-3.56,14.868-3.982,28.158-7.542l8.641,10.535l12.353,15.061c2.352-1.359,4.222-2.44,5.821-3.363
		c9.059-5.234,8.189-4.731,21.519-12.434l-11.679-30.94c9.737-9.736,10.883-10.883,20.62-20.62l30.945,11.682
		c9.062-15.682,6.736-11.658,15.798-27.34l-25.601-20.999c3.56-13.289,3.983-14.868,7.542-28.158l32.981-5.442
		c0-15.713,0-14.316,0-25.509c0-1.702,0-3.676,0-6.064L381.322,244.915z"/>
	<polygon style="fill:#A0D92A;" points="245.6,311.437 256.326,311.437 261.275,306.488 261.275,311.437 286.4,311.437 300,291.037 
		285.288,267.434 274.875,265.688 281.329,261.083 281.096,260.709 259.2,257.037 272.732,247.381 250.243,211.288 234.075,211.288 
		232,214.658 232,311.437 245.6,297.837 	"/>
</g>
<polygon style="fill:#CAFF5C;" points="210.003,250.388 213.675,272.488 201.707,263.92 179.675,299.688 187.508,311.437 
	232,311.437 232,214.658 "/>
<path style="fill:#25C656;" d="M40,96.163c0-13.255,10.745-24,24-24V31.837c-2.226,0-4.451,0-8.496,0l-9.244,21.154l-21.519-8.426
	c-5.718,5.718-6.295,6.295-12.013,12.013l8.425,21.519L0,87.342c0,8.089,0,8.903,0,16.991l21.154,9.244l-8.425,21.518
	c5.718,5.718,6.295,6.295,12.013,12.014l21.519-8.425l9.244,21.154c4.044,0,6.27,0,8.496,0v-39.674
	C50.745,120.163,40,109.418,40,96.163z"/>
<path style="fill:#188038;" d="M128,87.342l-21.154-9.244l8.425-21.518c-5.718-5.718-6.295-6.295-12.013-12.014L81.74,52.991
	l-9.244-21.154c-4.044,0-6.27,0-8.496,0v40.326c13.255,0,24,10.745,24,24s-10.745,24-24,24v39.674c2.226,0,4.451,0,8.496,0
	l9.244-21.154l21.519,8.426c5.718-5.718,6.295-6.295,12.013-12.013l-8.425-21.519L128,104.333C128,96.244,128,95.43,128,87.342z"/>
<path style="fill:#F1E200;" d="M40,96.163c0,13.255,10.745,24,24,24v-48C50.745,72.163,40,82.908,40,96.163z"/>
<path style="fill:#ABA000;" d="M88,96.163c0-13.255-10.745-24-24-24v48C77.255,120.163,88,109.418,88,96.163z"/>
<path style="fill:#2D9CCA;" d="M379.14,95.837c0-11.521,9.339-20.86,20.86-20.86v-43.14c-2.226,0-4.451,0-8.496,0l-9.244,21.154
	l-21.519-8.426c-5.718,5.718-6.295,6.295-12.013,12.013l8.425,21.519L336,87.342c0,8.089,0,8.903,0,16.991l21.154,9.244
	l-8.425,21.518c5.718,5.718,6.295,6.295,12.013,12.014l21.519-8.425l9.244,21.154c4.044,0,6.27,0,8.496,0v-43.14
	C388.479,116.698,379.14,107.358,379.14,95.837z"/>
<path style="fill:#1D6684;" d="M464,87.342l-21.154-9.244l8.425-21.518c-5.718-5.718-6.295-6.295-12.013-12.014l-21.519,8.425
	l-9.244-21.154c-4.044,0-6.27,0-8.496,0v43.14c11.521,0,20.86,9.34,20.86,20.86c0,11.521-9.339,20.86-20.86,20.86v43.14
	c2.226,0,4.451,0,8.496,0l9.244-21.154l21.519,8.426c5.718-5.718,6.295-6.295,12.013-12.013l-8.425-21.519L464,104.333
	C464,96.244,464,95.43,464,87.342z"/>
<path style="fill:#ABA000;" d="M420.86,95.837c0-11.521-9.339-20.86-20.86-20.86v41.721
	C411.521,116.698,420.86,107.358,420.86,95.837z"/>
<path style="fill:#F1E200;" d="M379.14,95.837c0,11.521,9.339,20.86,20.86,20.86V74.977C388.479,74.977,379.14,84.317,379.14,95.837
	z"/>
<g>
</g>
<g>
</g>
<g>
</g>
<g>
</g>
<g>
</g>
<g>
</g>
<g>
</g>
<g>
</g>
<g>
</g>
<g>
</g>
<g>
</g>
<g>
</g>
<g>
</g>
<g>
</g>
<g>
</g>
</svg>
