<?xml version="1.0" encoding="iso-8859-1"?>
<!-- Generator: Adobe Illustrator 19.0.0, SVG Export Plug-In . SVG Version: 6.00 Build 0)  -->
<svg version="1.1" id="Capa_1" xmlns="http://www.w3.org/2000/svg" xmlns:xlink="http://www.w3.org/1999/xlink" x="0px" y="0px"
	 viewBox="0 0 466.809 466.809" style="enable-background:new 0 0 466.809 466.809;" xml:space="preserve">
<polygon style="fill:#F1E200;" points="160.501,345.404 160.501,297.404 232.501,297.404 232.501,265.404 160.501,265.404 
	160.501,217.404 232.501,217.404 232.501,185.404 160.501,185.404 160.501,137.404 232.501,137.404 232.501,105.404 
	160.501,105.404 160.501,57.404 232.501,57.404 232.501,1.404 192.501,1.404 192.501,25.404 128.501,25.404 128.501,220.764 
	128.501,377.404 204.421,377.404 216.501,377.404 216.501,465.404 232.501,465.404 232.501,345.404 "/>
<polygon style="fill:#DBCE00;" points="272.501,25.404 272.501,1.404 232.501,1.404 232.501,57.404 304.501,57.404 304.501,105.404 
	232.501,105.404 232.501,137.404 304.501,137.404 304.501,185.404 232.501,185.404 232.501,217.404 304.501,217.404 
	304.501,265.404 232.501,265.404 232.501,297.404 304.501,297.404 304.501,345.404 232.501,345.404 232.501,465.404 
	248.501,465.404 248.501,377.404 262.742,377.404 336.501,377.404 336.501,191.324 336.501,25.404 "/>
<rect x="232.501" y="57.404" style="fill:#2580A6;" width="72" height="48"/>
<rect x="160.501" y="57.404" style="fill:#2D9CCA;" width="72" height="48"/>
<rect x="232.501" y="137.404" style="fill:#2580A6;" width="72" height="48"/>
<rect x="160.501" y="137.404" style="fill:#2D9CCA;" width="72" height="48"/>
<rect x="232.501" y="217.404" style="fill:#2580A6;" width="72" height="48"/>
<rect x="160.501" y="217.404" style="fill:#2D9CCA;" width="72" height="48"/>
<rect x="232.501" y="297.404" style="fill:#2580A6;" width="72" height="48"/>
<rect x="160.501" y="297.404" style="fill:#2D9CCA;" width="72" height="48"/>
<g>
	<path style="fill:#25C656;" d="M128.501,220.764c-24.88-9.84-49.28-14.48-64-19.36c-24-8-24-32-24-32s-79.28,135.44-16,224
		c40,56,97.44,40,97.44,40l14.56,32h33.44l-24-40c0,0,38.96-13.2,58.48-48h-75.92V220.764z M96.501,377.404h-48l16-24l-32-56h24
		l-8-64l24,32l24-24V377.404z"/>
	<path style="fill:#25C656;" d="M384.501,161.404c-8.24,8.24-26.96,17.52-48,29.92v186.08h-73.76c20.96,39.84,57.76,48,57.76,48
		l-16,40h40v-40c0,0,88,8,112-72c39.68-132.24-48-248-48-248S408.501,137.404,384.501,161.404z M440.501,273.404l-48,40l-24,64v-72
		v-71.158l16,23.158l32-72l-8.23,89.851L440.501,273.404z"/>
</g>
<g>
	<polygon style="fill:#A0D92A;" points="384.501,257.404 368.501,234.246 368.501,305.404 368.501,377.404 392.501,313.404 
		440.501,273.404 408.271,275.255 416.501,185.404 	"/>
	<polygon style="fill:#A0D92A;" points="48.501,233.404 56.501,297.404 32.501,297.404 64.501,353.404 48.501,377.404 
		96.501,377.404 96.501,241.404 72.501,265.404 	"/>
</g>
<g>
</g>
<g>
</g>
<g>
</g>
<g>
</g>
<g>
</g>
<g>
</g>
<g>
</g>
<g>
</g>
<g>
</g>
<g>
</g>
<g>
</g>
<g>
</g>
<g>
</g>
<g>
</g>
<g>
</g>
</svg>
