<?xml version="1.0" encoding="iso-8859-1"?>
<!-- Generator: Adobe Illustrator 19.0.0, SVG Export Plug-In . SVG Version: 6.00 Build 0)  -->
<svg version="1.1" id="Capa_1" xmlns="http://www.w3.org/2000/svg" xmlns:xlink="http://www.w3.org/1999/xlink" x="0px" y="0px"
	 viewBox="0 0 464 464" style="enable-background:new 0 0 464 464;" xml:space="preserve">
<rect x="336" y="432" style="fill:#E8E5D1;" width="96" height="32"/>
<rect x="240" y="432" style="fill:#FBF8EC;" width="96" height="32"/>
<g>
	<polygon style="fill:#8EBC1D;" points="224,216 336,216 336,184 272,184 240,184 	"/>
	<polygon style="fill:#8EBC1D;" points="448,216 424,168 408,168 392,184 336,184 336,216 	"/>
</g>
<polygon style="fill:#A0D92A;" points="208,216 208,248 224,248 336,248 336,216 224,216 "/>
<polygon style="fill:#99C923;" points="448,216 336,216 336,248 448,248 464,248 464,216 "/>
<path style="fill:#E8E5D1;" d="M336,272h16c2.906,0,5.586,1.574,6.992,4.113l14.503,26.106l2.918-8.751l15.172,5.063l-7.552,22.657
	l14.958,26.925c1.453,2.621,1.328,5.832-0.336,8.324l-16,24C381.172,382.664,378.672,384,376,384h-33.051l7.707,11.563
	l-13.313,8.875L336,402.422V432h96l16-184H336V272z"/>
<g>
	<path style="fill:#FBF8EC;" d="M240,432h96v-29.578L323.719,384H296c-2.672,0-5.172-1.336-6.656-3.563l-16-24
		c-1.664-2.492-1.789-5.703-0.336-8.324L288.626,320H280v-16h17.515l15.493-27.887c1.406-2.539,4.086-4.113,6.992-4.113h16v-24H224
		L240,432z"/>
	<polygon style="fill:#FBF8EC;" points="324.711,288 312.034,310.814 319.586,333.469 304.414,338.531 301.496,329.78 
		289.359,351.621 300.281,368 323.719,368 336,349.578 336,288 	"/>
</g>
<polygon style="fill:#E8E5D1;" points="336,288 336,349.578 337.344,347.563 350.656,356.438 342.949,368 371.719,368 
	382.641,351.621 369.515,328 352,328 352,312 360.625,312 347.289,288 "/>
<polygon style="fill:#DBCE00;" points="32,432 32,144 143.475,144 143.562,112 0,112 0,464 142.599,464 142.686,432 "/>
<g>
	<polygon style="fill:#C1AF06;" points="142.686,432 142.599,464 240,464 240,432 	"/>
	<polygon style="fill:#C1AF06;" points="143.475,144 240,144 240,184 272,184 272,112 143.562,112 	"/>
	<polygon style="fill:#C1AF06;" points="272,80 272,0 240,32 208,0 176,32 144,0 143.868,0.132 143.649,80 	"/>
</g>
<polygon style="fill:#DBCE00;" points="143.868,0.132 112,32 80,0 40,40 0,0 0,80 143.649,80 "/>
<polygon style="fill:#D3BF09;" points="143.562,112 272,112 272,80 143.649,80 "/>
<polygon style="fill:#F1E200;" points="143.649,80 0,80 0,112 143.562,112 "/>
<path style="fill:#84B323;" d="M208,248v-32h16l16-32v-40h-96.525l-0.241,88H152c2.906,0,5.586,1.574,6.992,4.113l14.503,26.106
	l2.918-8.751l15.172,5.063l-7.552,22.657l14.958,26.925c1.453,2.621,1.328,5.832-0.336,8.324l-16,24
	C181.172,342.664,178.672,344,176,344h-33.051l7.707,11.563l-7.775,5.184L142.686,432H240l-16-184H208z"/>
<g>
	<path style="fill:#A0D92A;" d="M137.344,364.438L123.719,344H96c-2.672,0-5.172-1.336-6.656-3.563l-16-24
		c-1.664-2.492-1.789-5.703-0.336-8.324L88.626,280H80v-16h17.515l15.493-27.887c1.406-2.539,4.086-4.113,6.992-4.113h23.233
		l0.241-88H32v288h110.686l0.195-71.254L137.344,364.438z"/>
	<polygon style="fill:#A0D92A;" points="142.949,328 142.971,328 142.971,327.968 	"/>
</g>
<polygon style="fill:#84B323;" points="143.189,248 143.016,311.344 150.656,316.438 142.971,327.968 142.971,328 171.719,328 
	182.641,311.621 169.515,288 152,288 152,272 160.625,272 147.289,248 "/>
<polygon style="fill:#A0D92A;" points="124.711,248 112.034,270.814 119.586,293.469 104.414,298.531 101.496,289.78 
	89.359,311.621 100.281,328 123.719,328 137.344,307.563 143.016,311.344 143.189,248 "/>
<path style="fill:#039D7B;" d="M313.008,276.113L297.515,304H280v16h8.626l-15.619,28.113c-1.453,2.621-1.328,5.832,0.336,8.324
	l16,24c1.484,2.227,3.984,3.563,6.656,3.563h27.719L336,402.422l1.344,2.016l13.313-8.875L342.949,384H376
	c2.672,0,5.172-1.336,6.656-3.563l16-24c1.664-2.492,1.789-5.703,0.336-8.324l-14.958-26.925l7.552-22.657l-15.172-5.063
	l-2.918,8.751l-14.503-26.106C357.586,273.574,354.906,272,352,272h-16h-16C317.094,272,314.414,273.574,313.008,276.113z M352,312
	v16h17.515l13.125,23.621L371.719,368h-28.77l7.707-11.563l-13.313-8.875L336,349.578L323.719,368h-23.438l-10.922-16.379
	l12.136-21.841l2.918,8.751l15.172-5.063l-7.552-22.655L324.711,288H336h11.289l13.336,24H352z"/>
<path style="fill:#F1E200;" d="M113.008,236.113L97.515,264H80v16h8.626l-15.619,28.113c-1.453,2.621-1.328,5.832,0.336,8.324l16,24
	C90.828,342.664,93.328,344,96,344h27.719l13.625,20.438l5.537-3.691l7.775-5.184L142.949,344H176c2.672,0,5.172-1.336,6.656-3.563
	l16-24c1.664-2.492,1.789-5.703,0.336-8.324l-14.958-26.925l7.552-22.657l-15.172-5.063l-2.918,8.751l-14.503-26.106
	C157.586,233.574,154.906,232,152,232h-8.767H120C117.094,232,114.414,233.574,113.008,236.113z M152,272v16h17.515l13.125,23.621
	L171.719,328h-28.748h-0.021l0.021-0.032l7.686-11.53l-7.64-5.093l-5.672-3.782L123.719,328h-23.438l-10.922-16.379l12.136-21.841
	l2.918,8.751l15.172-5.063l-7.552-22.655L124.711,248h18.479h4.1l13.336,24H152z"/>
<g>
</g>
<g>
</g>
<g>
</g>
<g>
</g>
<g>
</g>
<g>
</g>
<g>
</g>
<g>
</g>
<g>
</g>
<g>
</g>
<g>
</g>
<g>
</g>
<g>
</g>
<g>
</g>
<g>
</g>
</svg>
