<?xml version="1.0" encoding="iso-8859-1"?>
<!-- Generator: Adobe Illustrator 19.0.0, SVG Export Plug-In . SVG Version: 6.00 Build 0)  -->
<svg version="1.1" id="Capa_1" xmlns="http://www.w3.org/2000/svg" xmlns:xlink="http://www.w3.org/1999/xlink" x="0px" y="0px"
	 viewBox="0 0 480 480" style="enable-background:new 0 0 480 480;" xml:space="preserve">
<polygon style="fill:#20557D;" points="240,272 200,272 184,256 128,256 128,304 144,304 144,336 184,336 184,304 240,304 240,288 
	"/>
<polygon style="fill:#D0DFEA;" points="240,232 240,200 152,200 128,224 128,232 160,232 "/>
<polygon style="fill:#F1E200;" points="160,232 128,232 128,256 184,256 "/>
<polygon style="fill:#2D9CCA;" points="160,232 184,256 200,272 240,272 240,232 "/>
<polygon style="fill:#2580A6;" points="240,152 176,152 152,200 240,200 "/>
<path style="fill:#F1E200;" d="M81.806,264H96v-48h-8h-8H64h-8h-8v48h25.68l7.93-1.078C81.659,263.287,81.753,263.636,81.806,264z"
	/>
<path style="fill:#1D9942;" d="M240.609,419.063c0.098,0.238,0.269,0.422,0.388,0.646c-0.174-0.329-0.351-0.655-0.478-1.007
	C240.562,418.82,240.561,418.945,240.609,419.063z"/>
<g>
	<path style="fill:#2D9CCA;" d="M168,92.277V112h16V79.359c0-3.078-1.766-5.883-4.539-7.211l-32-15.359l-6.922,14.422l17.458,8.379
		c-28.586,16.139-52.872,39.935-69.333,68.402l13.844,8.016C117.963,129.278,140.94,107.019,168,92.277z"/>
	<polygon style="fill:#2D9CCA;" points="64,216 64,192 48,192 48,216 56,216 	"/>
	<polygon style="fill:#2D9CCA;" points="96,216 96,192 80,192 80,216 88,216 	"/>
</g>
<path style="fill:#F1E200;" d="M256,132.688l50.266-50.266c-16.156-6-33-9.43-50.266-10.234V132.688z"/>
<path style="fill:#188239;" d="M414.75,260.563L268.563,406.75C344.797,397.406,405.406,336.797,414.75,260.563z"/>
<g>
	<path style="fill:#3D912C;" d="M378.941,273.747l37.028-37.028c-0.497-25.704-6.807-50.655-18.417-73.277
		C399.139,172.74,400,182.272,400,192C400,221.517,392.366,249.315,378.941,273.747z"/>
	<path style="fill:#3D912C;" d="M256,396.688l52.648-52.648C292.5,353.062,274.795,359.793,256,363.78V396.688z"/>
</g>
<g>
	<path style="fill:#105525;" d="M394.898,133.914c2.375,0.227,4.531,1.516,5.867,3.492c-6.239-9.266-13.346-17.828-21.074-25.75
		c4.053,7.54,7.55,15.392,10.447,23.516C391.594,134.318,393.208,133.768,394.898,133.914z"/>
	<path style="fill:#105525;" d="M400.766,137.406c-1.336-1.977-3.492-3.266-5.867-3.492c-1.69-0.146-3.304,0.404-4.76,1.258
		c3.25,9.113,5.755,18.552,7.414,28.27c11.609,22.622,17.919,47.573,18.417,73.277l-37.028,37.028
		c-16.083,29.269-40.52,53.657-70.293,70.293L256,396.688V363.78c-5.252,1.114-10.589,2.006-16,2.681v41.352
		C160.232,404.002,93.158,343.516,81.806,264c-0.052-0.364-0.146-0.713-0.196-1.078L73.68,264l-7.93,1.078
		c11.965,87.937,86.172,154.689,174.25,158.55V480h16v-56.203c97.761-4.207,176-85.019,176-183.797
		C432,203.266,421.195,167.789,400.766,137.406z M240.997,419.708c-0.119-0.224-0.29-0.408-0.388-0.646
		c-0.049-0.117-0.047-0.243-0.09-0.361C240.646,419.053,240.823,419.379,240.997,419.708z M268.563,406.75L414.75,260.563
		C405.406,336.797,344.797,397.406,268.563,406.75z"/>
</g>
<path style="fill:#A0D92A;" d="M322.086,89.227L256,155.313v113.375l127.719-127.719
	C367.656,118.992,346.523,101.258,322.086,89.227z"/>
<path style="fill:#59D541;" d="M256,291.313v72.468c18.795-3.987,36.5-10.718,52.648-19.741l70.293-70.293
	C392.366,249.315,400,221.517,400,192c0-9.728-0.861-19.26-2.448-28.558c-1.531-2.983-3.134-5.935-4.849-8.833L256,291.313z"/>
<g>
	<path style="fill:#1D9942;" d="M390.139,135.172c-2.897-8.124-6.394-15.976-10.447-23.516
		c-16.002-16.404-34.911-29.821-55.989-39.352C302.197,62.586,279.455,57.211,256,56.209V0h-16v64v88v48v32v40v16v16v62.461
		c5.411-0.675,10.748-1.566,16-2.681v-72.468l136.703-136.703c1.715,2.898,3.318,5.849,4.849,8.833
		C395.894,153.724,393.389,144.285,390.139,135.172z M306.266,82.422L256,132.688v-60.5
		C273.266,72.992,290.109,76.422,306.266,82.422z M256,268.688V155.313l66.086-66.086c24.438,12.031,45.57,29.766,61.633,51.742
		L256,268.688z"/>
	<path style="fill:#1D9942;" d="M378.941,273.747l-70.293,70.293C338.421,327.404,362.858,303.015,378.941,273.747z"/>
</g>
<g>
</g>
<g>
</g>
<g>
</g>
<g>
</g>
<g>
</g>
<g>
</g>
<g>
</g>
<g>
</g>
<g>
</g>
<g>
</g>
<g>
</g>
<g>
</g>
<g>
</g>
<g>
</g>
<g>
</g>
</svg>
