<?xml version="1.0" encoding="iso-8859-1"?>
<!-- Generator: Adobe Illustrator 19.0.0, SVG Export Plug-In . SVG Version: 6.00 Build 0)  -->
<svg version="1.1" id="Capa_1" xmlns="http://www.w3.org/2000/svg" xmlns:xlink="http://www.w3.org/1999/xlink" x="0px" y="0px"
	 viewBox="0 0 480 480" style="enable-background:new 0 0 480 480;" xml:space="preserve">
<path style="fill:#2D9CCA;" d="M200,352c0,22.08-17.92,40-40,40c-7.28,0-14.16-1.92-20-5.36c-12-6.96-20-19.84-20-34.64
	c0,22.08-17.92,40-40,40s-40-17.92-40-40c0,19.36-13.76,35.52-32,39.2V472h232v-80C217.92,392,200,374.08,200,352z"/>
<path style="fill:#1B7DA4;" d="M440,352c0,22.08-17.92,40-40,40s-40-17.92-40-40c0,14.8-8,27.68-20,34.64
	c-5.84,3.44-12.72,5.36-20,5.36c-22.08,0-40-17.92-40-40c0,22.08-17.92,40-40,40v80h232v-80.8C453.76,387.52,440,371.36,440,352z"/>
<path style="fill:#A0D92A;" d="M192.72,248c-0.48-2.56-0.72-5.28-0.72-8c0-26.48,21.52-48,48-48s48,21.52,48,48
	c0,2.72-0.24,5.44-0.72,8H288l15.28,40.8C313.76,275.28,320,258.4,320,240c0-44.16-35.84-80-80-80s-80,35.84-80,80
	c0,18.4,6.24,35.28,16.72,48.8L192,248H192.72z"/>
<path style="fill:#F1E200;" d="M248,248h16h8.158h15.122c0.48-2.56,0.72-5.28,0.72-8c0-26.48-21.52-48-48-48s-48,21.52-48,48
	c0,2.72,0.24,5.44,0.72,8h15.122H216h16h8H248z"/>
<path style="fill:#79BFCB;" d="M392,304h-24l24,32l8-16l40-24l24-56l-16-64l-40-16l-16,40l24,40v40L392,304z M431.156,188.422l8,16
	l-14.313,7.156l-8-16L431.156,188.422z"/>
<path style="fill:#D0DFEA;" d="M88,200l-16-40l-40,16l-16,64l24,56l40,24l8,16l24-32H88l-24-24v-40L88,200z M55.156,211.578
	l-14.313-7.156l8-16l14.313,7.156L55.156,211.578z"/>
<path style="fill:#59D541;" d="M224,80h32v40h192v-16h-8V88h8V56L360,8v48L272,8v48L184,8v48h-80l-8-40H72l-8,40H32v32h8v16h-8v16
	h192V80z M408,88h16v16h-16V88z M376,88h16v16h-16V88z M344,88h16v16h-16V88z M312,88h16v16h-16V88z M280,88h16v16h-16V88z M72,104
	H56V88h16V104z M104,104H88V88h16V104z M136,104h-16V88h16V104z M168,104h-16V88h16V104z M200,104h-16V88h16V104z"/>
<rect x="224" y="80" style="fill:#F1E200;" width="32" height="40"/>
<polygon style="fill:#183F5E;" points="448,120 256,120 224,120 32,120 0,120 0,136 480,136 480,120 "/>
<g>
	<rect x="312" y="88" style="fill:#F1E200;" width="16" height="16"/>
	<rect x="280" y="88" style="fill:#F1E200;" width="16" height="16"/>
	<rect x="344" y="88" style="fill:#F1E200;" width="16" height="16"/>
	<rect x="376" y="88" style="fill:#F1E200;" width="16" height="16"/>
	<rect x="408" y="88" style="fill:#F1E200;" width="16" height="16"/>
	<polygon style="fill:#F1E200;" points="440,104 444,104 448,104 448,88 444,88 440,88 	"/>
	<rect x="56" y="88" style="fill:#F1E200;" width="16" height="16"/>
	<polygon style="fill:#F1E200;" points="40,88 36,88 32,88 32,104 36,104 40,104 	"/>
	<rect x="88" y="88" style="fill:#F1E200;" width="16" height="16"/>
	<rect x="120" y="88" style="fill:#F1E200;" width="16" height="16"/>
	<rect x="152" y="88" style="fill:#F1E200;" width="16" height="16"/>
	<rect x="184" y="88" style="fill:#F1E200;" width="16" height="16"/>
	
		<rect x="420.004" y="191.06" transform="matrix(-0.8944 0.4472 -0.4472 -0.8944 900.2673 187.4851)" style="fill:#F1E200;" width="16" height="17.888"/>
	
		<rect x="43.055" y="192" transform="matrix(-0.4472 0.8944 -0.8944 -0.4472 254.1396 242.9325)" style="fill:#F1E200;" width="17.888" height="16"/>
</g>
<g>
	<polygon style="fill:#79BFCB;" points="248,248 240,248 232,248 232,296 240,296 248,296 	"/>
	<polygon style="fill:#79BFCB;" points="248,312 240,312 232,312 232,328 240,328 248,328 	"/>
</g>
<path style="fill:#D0DFEA;" d="M303.28,288.8L288,248h-0.72h-15.122l15.686,78.43l-15.688,3.141l-16-80l0,0l-0.314-1.57H248v48h-8
	v16h8v16h-8v64c22.08,0,40-17.92,40-40c0,22.08,17.92,40,40,40c7.28,0,14.16-1.92,20-5.36L303.28,288.8z"/>
<polygon style="fill:#79BFCB;" points="272.156,329.57 287.844,326.43 272.158,248 264,248 255.842,248 256.156,249.57 "/>
<path style="fill:#FFFFFF;" d="M240,312v-16h-8v-48h-8l-0.305,1.541l0.149,0.03l-16,80l-15.688-3.141L207.842,248H192.72H192
	l-15.28,40.8L140,386.64c5.84,3.44,12.72,5.36,20,5.36c22.08,0,40-17.92,40-40c0,22.08,17.92,40,40,40v-64h-8v-16H240z"/>
<polygon style="fill:#79BFCB;" points="207.844,329.57 223.695,249.541 224,248 216,248 207.842,248 192.156,326.43 "/>
<g>
</g>
<g>
</g>
<g>
</g>
<g>
</g>
<g>
</g>
<g>
</g>
<g>
</g>
<g>
</g>
<g>
</g>
<g>
</g>
<g>
</g>
<g>
</g>
<g>
</g>
<g>
</g>
<g>
</g>
</svg>
