<?xml version="1.0" encoding="iso-8859-1"?>
<!-- Generator: Adobe Illustrator 19.0.0, SVG Export Plug-In . SVG Version: 6.00 Build 0)  -->
<svg version="1.1" id="Capa_1" xmlns="http://www.w3.org/2000/svg" xmlns:xlink="http://www.w3.org/1999/xlink" x="0px" y="0px"
	 viewBox="0 0 464 464" style="enable-background:new 0 0 464 464;" xml:space="preserve">
<polygon style="fill:#A0D92A;" points="161.28,275.76 184,272 187.68,294 216,248 232,248 247.12,248 279.92,300.64 264,312 
	289.76,316.32 312,320 315.92,296.32 320,272 306.48,281.68 264,216 232,216 200,216 "/>
<polygon style="fill:#25C656;" points="289.76,316.32 312,352 296,376 248,376 248,360 232,376 216,392 232,408 248,424 248,408 
	312,408 352,352 315.92,296.32 312,320 "/>
<polygon style="fill:#039D7B;" points="232,376 168,376 152,352 177.92,309.92 192,320 187.68,294 184,272 161.28,275.76 136,280 
	151.44,291.04 112,352 152,408 232,408 216,392 "/>
<polygon style="fill:#E8E5D1;" points="232,184 232,216 264,216 306.48,281.68 320,272 315.92,296.32 352,352 312,408 248,408 
	248,424 232,408 232,464 408,464 464,408 464,184 328,184 296,184 "/>
<g>
	<polygon style="fill:#FBF8EC;" points="152,408 112,352 151.44,291.04 136,280 161.28,275.76 200,216 232,216 232,184 168,184 
		136,184 0,184 0,408 56,464 232,464 232,408 	"/>
	<polygon style="fill:#FBF8EC;" points="177.92,309.92 152,352 168,376 232,376 232,248 216,248 187.68,294 192,320 	"/>
</g>
<polygon style="fill:#E8E5D1;" points="248,360 248,376 296,376 312,352 289.76,316.32 264,312 279.92,300.64 247.12,248 232,248 
	232,376 "/>
<g>
	<polygon style="fill:#FFB398;" points="212.688,48 202.344,37.656 213.656,26.344 243.313,56 312,56 312,88 328,88 328,0 192,0 
		165.656,26.344 200,60.688 	"/>
	<polygon style="fill:#FFB398;" points="192,120 192,75.313 168,51.313 168,88 168,120 	"/>
	<polygon style="fill:#FFB398;" points="224,120 224,64 228.688,64 224,59.313 208,75.313 208,120 	"/>
	<rect x="240" y="72" style="fill:#FFB398;" width="16" height="48"/>
	<polygon style="fill:#FFB398;" points="272,72 272,120 296,120 296,88 296,72 	"/>
</g>
<rect x="328" style="fill:#20557D;" width="136" height="88"/>
<g>
	<polygon style="fill:#25C656;" points="168,120 168,88 136,120 136,184 168,184 	"/>
	<polygon style="fill:#25C656;" points="296,184 328,184 328,120 296,88 296,120 	"/>
</g>
<g>
	<polygon style="fill:#FE946F;" points="264,120 272,120 272,72 256,72 256,120 	"/>
	<polygon style="fill:#FE946F;" points="224,120 232,120 240,120 240,72 236.688,72 224,56 	"/>
	<polygon style="fill:#FE946F;" points="200,120 208,120 208,75.313 200,83.313 192,75.313 192,120 	"/>
	<polygon style="fill:#FE946F;" points="312,88 312,56 243.313,56 213.656,26.344 202.344,37.656 212.688,48 200,60.688 
		165.656,26.344 160,32 154.344,37.656 168,51.313 192,75.313 200,83.313 208,75.313 224,59.313 228.688,64 236.688,72 240,72 
		256,72 272,72 296,72 296,88 304,88 	"/>
</g>
<g>
</g>
<g>
</g>
<g>
</g>
<g>
</g>
<g>
</g>
<g>
</g>
<g>
</g>
<g>
</g>
<g>
</g>
<g>
</g>
<g>
</g>
<g>
</g>
<g>
</g>
<g>
</g>
<g>
</g>
</svg>
