<?xml version="1.0" encoding="iso-8859-1"?>
<!-- Generator: Adobe Illustrator 19.0.0, SVG Export Plug-In . SVG Version: 6.00 Build 0)  -->
<svg version="1.1" id="Capa_1" xmlns="http://www.w3.org/2000/svg" xmlns:xlink="http://www.w3.org/1999/xlink" x="0px" y="0px"
	 viewBox="0 0 464 464" style="enable-background:new 0 0 464 464;" xml:space="preserve">
<polygon style="fill:#59D541;" points="200,264 192,256 176,272 200,296 224,272 208,256 "/>
<g>
	<polygon style="fill:#FFB398;" points="408,232 392,256 392,320 376,336 381.656,341.656 349.656,373.656 338.344,362.344 
		370.344,330.344 352,312 296,368 264,464 352,464 352,416 432,336 	"/>
	<polygon style="fill:#FFB398;" points="112,312 93.656,330.344 125.656,362.344 114.344,373.656 82.344,341.656 88,336 72,320 
		72,256 56,232 32,336 112,416 112,464 200,464 168,368 	"/>
</g>
<path style="fill:#2D9CCA;" d="M330.96,264H296l-16,16h-24v-24l-24-24l32-32h48l13.52-13.52c-7.84-16.16-19.84-30-34.56-40.16
	L280,160h-16l-16,16h-48l-23.76-31.68c-13.52,8.48-24.88,20.08-33.12,33.76L168,208h16l-32,40h-22.8c7.68,49.84,50.8,88,102.8,88
	C278.32,336,317.52,305.76,330.96,264z M200,296l-24-24l16-16l8,8l8-8l16,16L200,296z"/>
<path style="fill:#25C656;" d="M264,32c17.673,0,32-14.327,32-32h-32c-17.673,0-32,14.327-32,32h8H264z"/>
<path style="fill:#A0D92A;" d="M200,0h-32c0,17.673,14.327,32,32,32h24h8C232,14.327,217.673,0,200,0z"/>
<g>
	<path style="fill:#59D541;" d="M248,176l16-16h16l10.96-13.68C274.24,134.8,253.92,128,232,128c-20.56,0-39.68,6-55.76,16.32
		L200,176H248z"/>
	<path style="fill:#59D541;" d="M264,200l-32,32l24,24v24h24l16-16h34.96c3.28-10.08,5.04-20.88,5.04-32
		c0-16.32-3.76-31.76-10.48-45.52L312,200H264z"/>
	<path style="fill:#59D541;" d="M184,208h-16l-24.88-29.92C133.52,193.76,128,212.24,128,232c0,5.44,0.4,10.8,1.2,16H152L184,208z"
		/>
	<path style="fill:#59D541;" d="M240,75.036V32h-8h-8v43.036c4.919,5.626,8,12.903,8,20.964C232,87.939,235.081,80.663,240,75.036z"
		/>
	<polygon style="fill:#59D541;" points="240,96 232,96 224,96 224,136 232,136 240,136 	"/>
</g>
<path style="fill:#F1E200;" d="M240,96h24c17.673,0,32-14.327,32-32h-32c-9.613,0-18.134,4.326-24,11.036
	c-4.919,5.626-8,12.903-8,20.964H240z"/>
<path style="fill:#039D7B;" d="M224,75.036C218.134,68.326,209.613,64,200,64h-32c0,17.673,14.327,32,32,32h24h8
	C232,87.939,228.919,80.663,224,75.036z"/>
<g>
	<polygon style="fill:#FE946F;" points="349.656,373.656 381.656,341.656 376,336 370.344,330.344 338.344,362.344 	"/>
	<polygon style="fill:#FE946F;" points="114.344,373.656 125.656,362.344 93.656,330.344 88,336 82.344,341.656 	"/>
</g>
<g>
</g>
<g>
</g>
<g>
</g>
<g>
</g>
<g>
</g>
<g>
</g>
<g>
</g>
<g>
</g>
<g>
</g>
<g>
</g>
<g>
</g>
<g>
</g>
<g>
</g>
<g>
</g>
<g>
</g>
</svg>
