<?xml version="1.0" encoding="iso-8859-1"?>
<!-- Generator: Adobe Illustrator 19.0.0, SVG Export Plug-In . SVG Version: 6.00 Build 0)  -->
<svg version="1.1" id="Capa_1" xmlns="http://www.w3.org/2000/svg" xmlns:xlink="http://www.w3.org/1999/xlink" x="0px" y="0px"
	 viewBox="0 0 473.529 473.529" style="enable-background:new 0 0 473.529 473.529;" xml:space="preserve">
<g>
	<path style="fill:#F1E200;" d="M116.764,473.529c-2.205,0-4.306-0.447-6.217-1.254
		C112.459,473.087,114.561,473.529,116.764,473.529z"/>
	<path style="fill:#F1E200;" d="M100.764,457.529c0,2.203,0.442,4.305,1.254,6.217C101.211,461.834,100.764,459.734,100.764,457.529
		z"/>
</g>
<path style="fill:#FFB398;" d="M102.018,463.746c-0.812-1.912-1.254-4.014-1.254-6.217c0-8.837,7.164-16,16-16h8v-64v-24
	c0,2.121-0.844,4.156-2.344,5.656l-40,40l-11.313-11.313l37.656-37.656v-20.688h16h64c8.8,0,16.8-3.6,22.64-9.36
	c5.76-5.84,9.36-13.84,9.36-22.64c0-17.68-14.32-32-32-32h-64h-24l-32-32v-96l72-72h56h20c7.68,0,14.72-3.12,19.76-8.24
	c5.12-5.04,8.24-12.08,8.24-19.76c0-15.44-12.56-28-28-28h-100l-104,104v360h104c-2.203,0-4.305-0.442-6.217-1.254
	C106.711,470.656,103.637,467.582,102.018,463.746z"/>
<g>
	<path style="fill:#F1E200;" d="M110.547,472.275c-1.907-0.81-3.625-1.988-5.063-3.466c-1.478-1.438-2.656-3.156-3.466-5.063
		C103.637,467.582,106.711,470.656,110.547,472.275z"/>
	<path style="fill:#F1E200;" d="M100.764,457.529c0-8.8,7.2-16,16-16C107.928,441.529,100.764,448.692,100.764,457.529z"/>
</g>
<g>
	<path style="fill:#FFB398;" d="M364.764,289.529c0-13.28-10.72-24-24-24h-24h-24c-6.64,0-12.64,2.72-16.96,7.04
		c-4.32,4.32-7.04,10.32-7.04,16.96c0,13.28,10.72,24,24,24h48c6.64,0,12.64-2.72,16.96-7.04
		C362.044,302.168,364.764,296.168,364.764,289.529z"/>
	<path style="fill:#FFB398;" d="M275.804,320.569c-4.32,4.32-7.04,10.32-7.04,16.96c0,13.28,10.72,24,24,24h48
		c6.64,0,12.64-2.72,16.96-7.04c4.32-4.32,7.04-10.32,7.04-16.96c0-13.28-10.72-24-24-24h-48
		C286.124,313.529,280.124,316.248,275.804,320.569z"/>
	<path style="fill:#FFB398;" d="M275.804,368.569c-4.32,4.32-7.04,10.32-7.04,16.96c0,13.28,10.72,24,24,24h24h24
		c6.64,0,12.64-2.72,16.96-7.04c4.32-4.32,7.04-10.32,7.04-16.96c0-13.28-10.72-24-24-24h-48
		C286.124,361.529,280.124,364.248,275.804,368.569z"/>
</g>
<path style="fill:#84B323;" d="M268.764,385.529c0-6.64,2.72-12.64,7.04-16.96c4.32-4.32,10.32-7.04,16.96-7.04
	c-13.28,0-24-10.72-24-24c0-6.64,2.72-12.64,7.04-16.96c4.32-4.32,10.32-7.04,16.96-7.04c-13.28,0-24-10.72-24-24
	c0-6.64,2.72-12.64,7.04-16.96c4.32-4.32,10.32-7.04,16.96-7.04h24v-32h-96v64v144h96v-32h-24
	C279.484,409.529,268.764,398.808,268.764,385.529z"/>
<g>
	<path style="fill:#A0D92A;" d="M124.764,265.529h64c17.68,0,32,14.32,32,32v-64h-96V265.529z"/>
	<path style="fill:#A0D92A;" d="M188.764,329.529h-64v24v24v64h96v-144c0,8.8-3.6,16.8-9.36,22.64
		C205.564,325.928,197.564,329.529,188.764,329.529z"/>
</g>
<path style="fill:#B9C6D0;" d="M220.764,233.529h96h8c4.4,0,8.4-1.76,11.28-4.72c2.96-2.88,4.72-6.88,4.72-11.28c0-8.8-7.2-16-16-16
	h-13.52h-90.48V233.529z"/>
<g>
	<path style="fill:#D0DFEA;" d="M130.284,201.529h-13.52c-4.4,0-8.4,1.76-11.28,4.72c-2.96,2.88-4.72,6.88-4.72,11.28
		c0,8.8,7.2,16,16,16h8h96v-32H130.284z"/>
	<path style="fill:#D0DFEA;" d="M124.764,441.529h-8c-8.8,0-16,7.2-16,16c0,2.205,0.447,4.306,1.254,6.217
		c0.81,1.907,1.988,3.625,3.466,5.063c1.438,1.478,3.156,2.656,5.063,3.466c1.912,0.807,4.012,1.254,6.217,1.254h104v-32H124.764z"
		/>
</g>
<g>
	<path style="fill:#B9C6D0;" d="M220.764,473.529h104c8.836,0,16-7.164,16-16c0-8.837-7.164-16-16-16h-8h-96V473.529z"/>
	<path style="fill:#B9C6D0;" d="M220.764,201.529h90.48c-8.88-25.12-27.92-45.52-52.24-56h-38.24V201.529z"/>
</g>
<path style="fill:#D0DFEA;" d="M130.284,201.529h90.48v-56h-38.24C158.204,156.009,139.164,176.408,130.284,201.529z"/>
<polygon style="fill:#B9C6D0;" points="244.764,113.529 244.764,89.529 244.764,81.529 244.764,73.529 244.764,65.529 
	220.764,65.529 220.764,113.529 "/>
<polygon style="fill:#D0DFEA;" points="196.764,113.529 220.764,113.529 220.764,65.529 216.764,65.529 196.764,65.529 "/>
<polygon style="fill:#97A2AA;" points="220.764,145.529 259.005,145.529 260.764,145.529 260.764,113.529 244.764,113.529 
	220.764,113.529 "/>
<polygon style="fill:#AEBBC4;" points="180.764,145.529 182.524,145.529 220.764,145.529 220.764,113.529 196.764,113.529 
	180.764,113.529 "/>
<g>
	<rect x="284.764" y="73.529" style="fill:#1B7DA4;" width="16" height="16"/>
	<rect x="316.764" y="73.529" style="fill:#1B7DA4;" width="16" height="16"/>
	<rect x="348.764" y="73.529" style="fill:#1B7DA4;" width="16" height="16"/>
	<rect x="380.764" y="73.529" style="fill:#1B7DA4;" width="16" height="16"/>
	<rect x="412.764" y="73.529" style="fill:#1B7DA4;" width="16" height="16"/>
	<rect x="444.764" y="73.529" style="fill:#1B7DA4;" width="16" height="16"/>
	<polygon style="fill:#1B7DA4;" points="244.764,89.529 268.764,89.529 268.764,73.529 244.764,73.529 244.764,81.529 	"/>
	
		<rect x="281.74" y="106.261" transform="matrix(-0.2694 0.963 -0.963 -0.2694 477.2206 -134.7853)" style="fill:#1B7DA4;" width="16" height="14.752"/>
	
		<rect x="395.371" y="138.122" transform="matrix(-0.2696 0.963 -0.963 -0.2696 652.2335 -203.708)" style="fill:#1B7DA4;" width="16" height="14.752"/>
	
		<rect x="423.726" y="146.06" transform="matrix(-0.2696 0.963 -0.963 -0.2696 695.8771 -220.9351)" style="fill:#1B7DA4;" width="16" height="14.752"/>
	
		<rect x="338.552" y="122.199" transform="matrix(-0.2696 0.963 -0.963 -0.2696 564.763 -169.2101)" style="fill:#1B7DA4;" width="16" height="14.752"/>
	
		<rect x="310.178" y="114.266" transform="matrix(-0.2696 0.963 -0.963 -0.2696 521.0999 -151.9574)" style="fill:#1B7DA4;" width="16" height="14.752"/>
	
		<rect x="367.014" y="130.166" transform="matrix(-0.2696 0.963 -0.963 -0.2696 608.5706 -186.503)" style="fill:#1B7DA4;" width="16" height="14.752"/>
	
		<rect x="367.554" y="17.561" transform="matrix(-0.963 0.2696 -0.2696 -0.963 742.8715 -50.8912)" style="fill:#1B7DA4;" width="14.752" height="16"/>
	
		<rect x="424.373" y="1.692" transform="matrix(-0.963 0.2696 -0.2696 -0.963 850.1295 -97.3573)" style="fill:#1B7DA4;" width="14.752" height="16"/>
	
		<rect x="339.186" y="25.531" transform="matrix(-0.963 0.2696 -0.2696 -0.963 689.3348 -27.5999)" style="fill:#1B7DA4;" width="14.752" height="16"/>
	
		<rect x="282.384" y="41.405" transform="matrix(-0.963 0.2696 -0.2696 -0.963 582.1122 18.8726)" style="fill:#1B7DA4;" width="14.752" height="16"/>
	
		<rect x="310.766" y="33.458" transform="matrix(-0.963 0.2696 -0.2696 -0.963 635.6834 -4.3772)" style="fill:#1B7DA4;" width="14.752" height="16"/>
	
		<rect x="395.983" y="9.61" transform="matrix(-0.963 0.2696 -0.2696 -0.963 796.5342 -74.1615)" style="fill:#1B7DA4;" width="14.752" height="16"/>
</g>
<path style="fill:#FE946F;" d="M108.764,329.529v20.688l-37.656,37.656l11.313,11.313l40-40c1.5-1.5,2.344-3.535,2.344-5.656v-24
	H108.764z"/>
<g>
</g>
<g>
</g>
<g>
</g>
<g>
</g>
<g>
</g>
<g>
</g>
<g>
</g>
<g>
</g>
<g>
</g>
<g>
</g>
<g>
</g>
<g>
</g>
<g>
</g>
<g>
</g>
<g>
</g>
</svg>
