<?xml version="1.0" encoding="iso-8859-1"?>
<!-- Generator: Adobe Illustrator 19.0.0, SVG Export Plug-In . SVG Version: 6.00 Build 0)  -->
<svg version="1.1" id="Capa_1" xmlns="http://www.w3.org/2000/svg" xmlns:xlink="http://www.w3.org/1999/xlink" x="0px" y="0px"
	 viewBox="0 0 472 472" style="enable-background:new 0 0 472 472;" xml:space="preserve">
<path style="fill:#F1E200;" d="M146.655,169.172c-1.836-1.125-4.063-1.445-6.164-0.922c-2.094,0.539-3.883,1.906-4.953,3.781
	l-30.828,53.95l-1.172,2.05l4.355,2.489l6.97,9.937l30.479-53.332l30.601,18.696l1.649,1.007l4.172-6.828l5.742-5.742
	L146.655,169.172z"/>
<path style="fill:#20557D;" d="M447.302,281.888l-31.771-51.144c31.332,66.006-2.009,142.586-65.86,168.298l-0.015,12.126
	C355.523,404.383,364.09,400,373.764,400h32c0,17.673-14.327,32-32,32H349.63l-0.038,32.008l-16-0.016l0.071-59.779
	c-9.741,2.433-20.019,3.787-30.784,3.787c-2.869,0-5.662-0.207-8.463-0.389c1.159,0.535,1.854,0.789,1.879,0.795l-5.063,15.188
	c-0.523-0.18-13.008-4.445-26.281-17.992l2.642-2.591c-17.867-5.206-33.733-14.234-46.949-25.963
	C233.635,429.339,280.035,472,341.594,472C439.185,472,498.799,364.785,447.302,281.888z"/>
<path style="fill:#2D9CCA;" d="M276.373,394.398c7.695,7.856,14.792,11.71,18.043,13.212c2.801,0.183,5.594,0.389,8.463,0.389
	c10.765,0,21.043-1.354,30.784-3.787l0.051-42.406c-4.242,3.811-9.795,6.192-15.95,6.192c-13.255,0-24-10.745-24-24s10.745-24,24-24
	c-13.255,0-24-10.745-24-24s10.745-24,24-24s24,10.745,24,24c0-13.255,10.745-24,24-24s24,10.745,24,24s-10.745,24-24,24
	c13.255,0,24,10.745,24,24s-10.745,24-24,24c-6.198,0-11.792-2.413-16.05-6.27l-0.044,37.312
	c63.851-25.712,97.192-102.292,65.86-168.298L341.764,112L235.981,281.735c-19.101,30.649-22.957,64.635-15.336,95.313
	c13.216,11.729,29.082,20.757,46.949,25.963L276.373,394.398z M246.608,379.578c-17.406-34.813-0.977-76.781-0.273-78.547
	l14.859,5.93c-0.141,0.367-14.43,37.148-0.273,65.461L246.608,379.578z"/>
<polygon style="fill:#1D9942;" points="125.764,256 86.487,200 62.487,224 125.764,288 213.764,200 197.764,184 "/>
<polygon style="fill:#AEBBC4;" points="254.487,16 222.487,48 230.487,56 198.487,88 214.487,104 246.487,72 238.487,64 270.487,32 
	349.764,32 349.764,0 333.764,0 333.764,16 "/>
<g>
	<polygon style="fill:#84B323;" points="214.487,104 198.487,88 245.764,136 197.855,183.909 213.764,200 261.764,152 	"/>
	<polygon style="fill:#84B323;" points="150.396,136.091 134.487,120 70.487,184 46.487,208 62.487,224 86.487,200 	"/>
</g>
<path style="fill:#20557D;" d="M21.764,266.456V448h-16v16h32V282.456c0-22.026,8.918-43.113,24.723-58.456l-16.229-15.754
	C30.605,223.568,21.764,244.542,21.764,266.456z"/>
<polygon style="fill:#D0DFEA;" points="230.487,56 222.487,48 254.487,16 333.764,16 333.764,0 254.487,0 214.487,40 206.487,32 
	174.487,64 198.487,88 "/>
<g>
	<polygon style="fill:#A0D92A;" points="150.396,136.091 197.764,184 197.855,183.909 150.487,136 	"/>
	<polygon style="fill:#A0D92A;" points="134.487,120 150.396,136.091 150.487,136 197.855,183.909 245.764,136 198.487,88 
		174.487,64 126.487,64 102.487,88 118.487,104 30.487,192 46.487,208 70.487,184 	"/>
</g>
<path style="fill:#2580A6;" d="M21.764,266.456c0-21.914,8.841-42.887,24.494-58.21L37.764,200c-20.489,20.489-32,48.278-32,77.255
	V448h16V266.456z"/>
<g>
	<path style="fill:#1D9942;" d="M373.764,432c17.673,0,32-14.327,32-32h-32c-9.674,0-18.241,4.383-24.109,11.168L349.63,432H373.764
		z"/>
	<path style="fill:#1D9942;" d="M341.764,344v-24l-0.029,24.285c-0.083,6.982-3.195,13.187-8.021,17.522l-0.051,42.406
		l-0.071,59.779l16,0.016L349.63,432l0.025-20.832l0.015-12.126l0.044-37.312C344.865,357.339,341.764,351.057,341.764,344z"/>
</g>
<path style="fill:#A0D92A;" d="M341.764,320v-24c0-13.255-10.745-24-24-24s-24,10.745-24,24s10.745,24,24,24H341.764z"/>
<path style="fill:#59D541;" d="M341.735,344.285L341.764,320h-24c-13.255,0-24,10.745-24,24s10.745,24,24,24
	c6.155,0,11.708-2.381,15.95-6.192C338.54,357.472,341.652,351.268,341.735,344.285z"/>
<path style="fill:#F1E200;" d="M341.764,344c0,7.057,3.102,13.339,7.95,17.73c4.258,3.857,9.852,6.27,16.05,6.27
	c13.255,0,24-10.745,24-24s-10.745-24-24-24h-24V344z"/>
<path style="fill:#25C656;" d="M365.764,320c13.255,0,24-10.745,24-24s-10.745-24-24-24s-24,10.745-24,24v24H365.764z"/>
<g>
	<path style="fill:#FFFFFF;" d="M261.194,306.961l-14.859-5.93c-0.703,1.766-17.133,43.734,0.273,78.547l14.313-7.156
		C246.764,344.109,261.053,307.328,261.194,306.961z"/>
	<path style="fill:#FFFFFF;" d="M267.594,403.01l-2.642,2.591c13.273,13.547,25.758,17.813,26.281,17.992l5.063-15.188
		c-0.024-0.006-0.72-0.26-1.879-0.795c-3.251-1.502-10.348-5.356-18.043-13.212L267.594,403.01z"/>
</g>
<g>
</g>
<g>
</g>
<g>
</g>
<g>
</g>
<g>
</g>
<g>
</g>
<g>
</g>
<g>
</g>
<g>
</g>
<g>
</g>
<g>
</g>
<g>
</g>
<g>
</g>
<g>
</g>
<g>
</g>
</svg>
