<?xml version="1.0" encoding="iso-8859-1"?>
<!-- Generator: Adobe Illustrator 19.0.0, SVG Export Plug-In . SVG Version: 6.00 Build 0)  -->
<svg version="1.1" id="Capa_1" xmlns="http://www.w3.org/2000/svg" xmlns:xlink="http://www.w3.org/1999/xlink" x="0px" y="0px"
	 viewBox="0 0 480 480" style="enable-background:new 0 0 480 480;" xml:space="preserve">
<g>
	<path style="fill:#59D541;" d="M151.49,349.738L126.133,392h49.312C173.298,374.901,164.401,359.904,151.49,349.738z"/>
	<path style="fill:#59D541;" d="M122.382,367.147l15.405-25.676C129.889,337.978,121.177,336,112,336v2.598L122.382,367.147z"/>
	<path style="fill:#59D541;" d="M175.444,408h-49.588l41.465,23.94C171.5,424.717,174.36,416.64,175.444,408z"/>
</g>
<g>
	<path style="fill:#A0D92A;" d="M105.039,403.941c-1.422-2.508-1.383-5.586,0.102-8.059l6.644-11.073l-16.88-46.421
		C67.901,345.895,48,370.639,48,400c0,11.647,3.178,22.545,8.638,31.963l48.442-27.968
		C105.068,403.975,105.05,403.961,105.039,403.941z"/>
	<path style="fill:#A0D92A;" d="M112,336c-0.313,0-0.616,0.042-0.928,0.047l0.928,2.551V336z"/>
</g>
<path style="fill:#25C656;" d="M125.856,408H112c-2.86,0-5.49-1.533-6.92-4.005l-48.442,27.968C67.72,451.081,88.358,464,112,464
	c23.646,0,44.257-12.933,55.322-32.06L125.856,408z"/>
<path style="fill:#59D541;" d="M432,400c0-34.327-27.188-62.35-61.151-63.855L368,341.273v47.198
	c0.843,0.881,1.615,1.832,2.477,2.693l3.18,3.18L368,400l55.362,31.963C428.822,422.545,432,411.647,432,400z"/>
<g>
	<path style="fill:#A0D92A;" d="M351.365,338.27c-5.049,1.363-9.867,3.28-14.343,5.768c1.69,3.485,3.512,6.905,5.432,10.272
		L351.365,338.27z"/>
	<path style="fill:#A0D92A;" d="M352.245,369.631c4.779,6.671,10.098,12.928,15.755,18.839v-47.198L352.245,369.631z"/>
	<path style="fill:#A0D92A;" d="M359.164,402.477c-14.204-14.204-26.111-30.819-35.186-48.812C311.703,365.333,304,381.768,304,400
		c0,11.647,3.178,22.545,8.638,31.963l48.19-27.823L359.164,402.477z"/>
</g>
<path style="fill:#25C656;" d="M368,400l-5.656,5.656l-1.516-1.516l-48.19,27.823C323.72,451.081,344.358,464,368,464
	s44.28-12.919,55.362-32.037L368,400z"/>
<polygon style="fill:#20557D;" points="282.422,88 258.412,104 288,104 288,88 "/>
<g>
	<rect x="304" y="88" style="fill:#2D9CCA;" width="32" height="16"/>
	<polygon style="fill:#2D9CCA;" points="352,88 352,104 389.578,104 365.578,88 	"/>
</g>
<g>
	<circle style="fill:#D0DFEA;" cx="280" cy="168" r="16"/>
	<circle style="fill:#D0DFEA;" cx="416" cy="168" r="16"/>
</g>
<polygon style="fill:#2D9CCA;" points="153.223,40 144,40 144,72 158.557,72 "/>
<rect y="40" style="fill:#20557D;" width="24" height="32"/>
<g>
	<polygon style="fill:#F1E200;" points="161.055,24 155.719,16 0,16 0,24 160,24 	"/>
	<path style="fill:#F1E200;" d="M0,88v40c0-15.132,5.307-29.032,14.12-40H0z"/>
	<path style="fill:#F1E200;" d="M0,136h0.556C0.226,133.373,0,130.715,0,128V136z"/>
	<path style="fill:#F1E200;" d="M144,96c8.77,0,16.927,2.423,24,6.51V88h-54.184c3.255,4.049,6.133,8.436,8.34,13.254
		C128.867,97.824,136.359,96,144,96z"/>
</g>
<path style="fill:#2D9CCA;" d="M80,66.158V40H40v28.712C47.419,65.697,55.511,64,64,64C69.51,64,74.848,64.825,80,66.158z"/>
<rect x="96" y="40" style="fill:#20557D;" width="32" height="32"/>
<g>
	<path style="fill:#F1E200;" d="M463.758,41.941C462.867,45.5,459.672,48,456,48h-24v20.451c9.519,5.551,16,15.758,16,27.549
		c0,5.57-1.479,10.928-4.124,15.644l30.327,8.665c3.43,0.984,5.797,4.121,5.797,7.691V16h-9.75L463.758,41.941z"/>
	<path style="fill:#F1E200;" d="M240,120v40h9.016c0.282-1.092,0.713-2.118,1.104-3.162c0.19-0.507,0.32-1.039,0.535-1.533
		c0.766-1.764,1.675-3.446,2.732-5.028c0.236-0.353,0.53-0.655,0.78-0.998c0.875-1.205,1.802-2.363,2.833-3.433
		c0.469-0.486,0.983-0.914,1.481-1.37c0.916-0.839,1.857-1.637,2.866-2.366c0.595-0.43,1.204-0.822,1.828-1.211
		c1.031-0.643,2.096-1.215,3.201-1.74c0.659-0.313,1.309-0.625,1.992-0.894c1.224-0.481,2.492-0.848,3.783-1.176
		c0.621-0.158,1.217-0.362,1.852-0.483C275.95,136.234,277.945,136,280,136s4.05,0.234,5.998,0.606
		c0.635,0.121,1.231,0.325,1.852,0.483c1.291,0.329,2.559,0.695,3.783,1.176c0.683,0.268,1.333,0.581,1.992,0.894
		c1.105,0.524,2.17,1.097,3.201,1.74c0.625,0.389,1.233,0.782,1.828,1.211c1.009,0.729,1.95,1.527,2.866,2.366
		c0.498,0.456,1.012,0.883,1.481,1.37c1.031,1.07,1.958,2.228,2.833,3.433c0.25,0.343,0.544,0.645,0.78,0.998
		c1.058,1.583,1.967,3.265,2.732,5.028c0.215,0.495,0.345,1.026,0.535,1.533c0.391,1.044,0.822,2.07,1.104,3.162h74.031
		c0.282-1.092,0.713-2.118,1.104-3.162c0.19-0.507,0.32-1.039,0.535-1.533c0.766-1.764,1.675-3.446,2.732-5.028
		c0.236-0.353,0.53-0.655,0.78-0.998c0.875-1.205,1.802-2.363,2.833-3.433c0.469-0.486,0.983-0.914,1.481-1.37
		c0.916-0.839,1.857-1.637,2.866-2.366c0.595-0.43,1.204-0.822,1.828-1.211c1.031-0.643,2.096-1.215,3.201-1.74
		c0.659-0.313,1.309-0.625,1.992-0.894c1.224-0.481,2.492-0.848,3.783-1.176c0.621-0.158,1.217-0.362,1.852-0.483
		C411.95,136.234,413.945,136,416,136s4.05,0.234,5.998,0.606c0.635,0.121,1.231,0.325,1.852,0.483
		c1.291,0.329,2.559,0.695,3.783,1.176c0.683,0.268,1.333,0.581,1.992,0.894c1.105,0.524,2.17,1.097,3.201,1.74
		c0.625,0.389,1.233,0.782,1.828,1.211c1.009,0.729,1.95,1.527,2.866,2.366c0.498,0.456,1.012,0.883,1.481,1.37
		c1.031,1.07,1.958,2.228,2.833,3.433c0.25,0.343,0.544,0.645,0.78,0.998c1.058,1.583,1.967,3.265,2.732,5.028
		c0.215,0.495,0.345,1.026,0.535,1.533c0.391,1.044,0.822,2.07,1.104,3.162H464v-25.969L414.879,120H240z"/>
</g>
<g>
	<path style="fill:#79BFCB;" d="M200,144c-3.938,0-7.742,1.48-10.703,4.164c-2.313,2.086-5.625,2.645-8.461,1.453
		c-2.867-1.199-4.781-3.945-4.906-7.047C175.219,125.43,161.195,112,144,112c-7.602,0-14.961,2.703-20.742,7.613
		c-0.445,0.38-0.942,0.677-1.451,0.945c2.025-0.315,4.076-0.559,6.193-0.559c13.132,0,24.719,6.363,32,16.121
		c4.651,6.233,7.577,13.824,7.92,22.119c4.24-3.84,9.84-6.24,16.08-6.24c12.557,0,22.707,9.619,23.788,21.889
		C212.661,171.144,216,165.982,216,160C216,151.176,208.82,144,200,144z"/>
	<path style="fill:#79BFCB;" d="M72,93.57c6.008,2.864,11.392,6.786,16,11.465c6.624,6.728,11.592,15.068,14.08,24.485
		c4.434-3.771,9.774-6.457,15.587-8.014c-0.667-0.034-1.333-0.15-1.979-0.354c-2.625-0.82-4.641-2.934-5.344-5.59
		C104.813,94.625,85.75,80,64,80c-10.784,0-20.715,3.617-28.737,9.644C39.365,88.665,43.59,88,48,88
		C56.618,88,64.704,90.093,72,93.57z"/>
</g>
<path style="fill:#D0DFEA;" d="M184,152c-6.24,0-11.84,2.4-16.08,6.24c-0.343-8.294-3.269-15.885-7.92-22.119
	C152.719,126.363,141.132,120,128,120c-2.117,0-4.168,0.243-6.193,0.559c-1.277,0.675-2.705,1.019-4.14,0.947
	c-5.813,1.557-11.153,4.243-15.587,8.014c-2.488-9.417-7.457-17.757-14.08-24.485c-4.608-4.68-9.992-8.602-16-11.465
	C64.704,90.093,56.618,88,48,88c-4.41,0-8.635,0.665-12.737,1.644C23.594,98.408,16,112.315,16,128c0,26.469,21.531,48,48,48
	c15.125,0,28.953-6.832,37.93-18.738c1.664-2.207,4.375-3.406,7.094-3.152c2.742,0.242,5.172,1.883,6.43,4.34
	C120.961,169.273,131.898,176,144,176c10.531,0,20.391-5.191,26.367-13.891c1.508-2.191,3.984-3.469,6.594-3.469
	c0.43,0,0.859,0.035,1.289,0.105c3.055,0.496,5.547,2.715,6.406,5.695C186.633,171.355,192.797,176,200,176
	c2.841,0,5.473-0.807,7.788-2.111C206.707,161.619,196.557,152,184,152z"/>
<g>
	<path style="fill:#79BFCB;" d="M416,80c-3.938,0-7.742,1.48-10.703,4.164c-2.305,2.074-5.609,2.652-8.461,1.453
		c-2.867-1.199-4.781-3.945-4.906-7.047C391.219,61.43,377.195,48,360,48c-7.602,0-14.961,2.703-20.742,7.613
		c-2.094,1.781-4.969,2.355-7.57,1.539c-2.625-0.82-4.641-2.934-5.344-5.59C320.813,30.625,301.75,16,280,16
		c-14.019,0-26.613,6.077-35.396,15.691c6.046-2.246,12.559-3.531,19.396-3.531c25.92,0,47.76,17.6,54.08,41.52
		c6.96-5.92,16-9.52,25.92-9.52c12.476,0,23.476,5.795,30.776,14.743l25.996,17.332c2.531,0.096,4.952,0.583,7.229,1.389
		c5.754,2.038,10.431,6.205,13.2,11.538l6.44,1.827C430.414,104.043,432,100.129,432,96C432,87.176,424.82,80,416,80z"/>
	<path style="fill:#79BFCB;" d="M408,93.624c-2.277-0.806-4.698-1.293-7.229-1.389l18.619,12.414l1.81,0.513
		C418.431,99.828,413.754,95.662,408,93.624z"/>
</g>
<path style="fill:#D0DFEA;" d="M344,60.16c-9.92,0-18.96,3.6-25.92,9.52c-6.32-23.92-28.16-41.52-54.08-41.52
	c-6.837,0-13.35,1.285-19.396,3.531C236.804,40.23,232,51.55,232,64c0,11.379,4.047,22.328,11.258,30.852l32.305-21.512
	c1.32-0.875,2.859-1.34,4.438-1.34h88c1.578,0,3.125,0.469,4.438,1.344l2.338,1.559C367.476,65.956,356.476,60.16,344,60.16z"/>
<path style="fill:#183F5E;" d="M379.32,320.896L388.707,304H416v-16h-59.719l-13.625-20.438l-13.313,8.875l16,24
	c1.484,2.227,3.984,3.563,6.656,3.563h18.404l-9.077,16.338c-10.972,0.913-21.319,4.022-30.595,8.93
	c-0.293-0.785-0.63-1.554-0.912-2.342L307.352,264H328c2.516,0,4.891-1.184,6.398-3.199l10.273-13.695
	c4.445-5.93,5.148-13.73,1.836-20.359S336.531,216,329.117,216H296v16h33.117c1.852,0,2.727,1.191,3.078,1.902
	c0.359,0.711,0.789,2.121-0.32,3.602L324,248h-28c-2.602,0-5.039,1.266-6.539,3.391c-1.5,2.129-1.867,4.852-0.992,7.301L296.078,280
	h-103.25l-1.469-3.148L179.819,248h21.236l-7.711,11.563l13.313,8.875l16-24c1.633-2.453,1.789-5.609,0.398-8.211
	S218.953,232,216,232h-64v16h10.581l12.516,31.289l-29.054,48.423C135.696,322.818,124.185,320,112,320
	c-2.241,0-4.445,0.155-6.641,0.336L99.419,304H144c3.445,0,6.5-2.203,7.586-5.469l8-24l-15.172-5.063L138.234,288H56
	c-4.422,0-8,3.582-8,8v24h16v-16h18.399l7.018,19.299C56.277,333.075,32,363.733,32,400c0,44.113,35.891,80,80,80
	c41.409,0,75.566-31.629,79.594-72H240c2.526,0,4.854-1.229,6.357-3.23l0.041,0.031l8.267-11.022
	c1.003,2.359,1.497,4.916,1.28,7.545c-0.352,4.258-2.344,8.125-5.609,10.887s-7.453,4.047-11.656,3.734
	c-4.258-0.355-8.125-2.344-10.883-5.602l-12.219,10.336c5.523,6.523,13.258,10.504,21.781,11.211
	c0.898,0.074,1.797,0.113,2.695,0.113c7.555-0.004,14.797-2.645,20.625-7.582c6.523-5.523,10.508-13.258,11.211-21.777
	c0.677-8.208-1.825-16.161-6.95-22.567l45.304-60.405l4.513,12.637c0.724,2.026,1.549,4.018,2.344,6.02
	C299.339,353.014,288,375.207,288,400c0,44.113,35.891,80,80,80s80-35.887,80-80C448,359.739,418.075,326.424,379.32,320.896z
	 M112,464c-23.642,0-44.28-12.919-55.362-32.037C51.178,422.545,48,411.647,48,400c0-29.361,19.901-54.105,46.904-61.611
	l16.88,46.421l-6.644,11.073c-1.484,2.473-1.523,5.551-0.102,8.059c0.011,0.02,0.029,0.034,0.041,0.054
	c1.43,2.472,4.06,4.005,6.92,4.005h13.856h49.588c-1.084,8.64-3.945,16.717-8.123,23.94C156.257,451.067,135.646,464,112,464z
	 M112,336c9.177,0,17.889,1.978,25.787,5.472l-15.405,25.676L112,338.598l-0.928-2.551C111.384,336.042,111.687,336,112,336z
	 M126.133,392l25.357-42.262c12.912,10.167,21.808,25.164,23.955,42.262H126.133z M191.594,392
	c-2.286-22.912-14.328-42.937-31.843-56.033l23.366-38.944L227.438,392H191.594z M241.607,384.525L200.295,296h98.759l3.578,7.156
	L241.607,384.525z M368,464c-23.642,0-44.28-12.919-55.362-32.037C307.178,422.545,304,411.647,304,400
	c0-18.232,7.703-34.667,19.979-46.335c9.074,17.993,20.982,34.608,35.186,48.812l1.664,1.664l1.516,1.516L368,400l5.656-5.656
	l-3.18-3.18c-0.862-0.862-1.634-1.813-2.477-2.693c-5.657-5.912-10.976-12.168-15.755-18.839L368,341.273l2.849-5.128
	C404.812,337.65,432,365.673,432,400c0,11.647-3.178,22.545-8.638,31.963C412.28,451.081,391.642,464,368,464z M351.365,338.27
	l-8.912,16.041c-1.919-3.368-3.742-6.788-5.432-10.272C341.498,341.55,346.316,339.633,351.365,338.27z"/>
<path style="fill:#1B7DA4;" d="M464,0c-3.672,0-6.867,2.5-7.758,6.059L449.75,32H424c-4.422,0-8,3.582-8,8v24
	c-3.492,0-6.93,0.574-10.18,1.676C399.766,46.055,381.539,32,360,32c-7.641,0-15.133,1.824-21.844,5.254
	C327.906,14.879,305.32,0,280,0c-35.289,0-64,28.711-64,64c0,14.561,5.045,28.554,13.968,39.737l-2.421,1.614
	c-2.219,1.484-3.547,3.98-3.547,6.648v27.058C218.13,132.339,209.604,128,200,128c-3.492,0-6.93,0.574-10.18,1.676
	c-1.344-4.356-3.373-8.379-5.82-12.094V80c0-4.418-3.578-8-8-8h-1.227l-5.328-32H176c2.953,0,5.664-1.625,7.055-4.227
	s1.234-5.758-0.398-8.211l-16-24C165.172,1.336,162.672,0,160,0H0v8v8h155.719l5.336,8H160H0v8v8h24v32H0v8v8h14.12
	C5.307,98.968,0,112.868,0,128c0,2.715,0.226,5.373,0.556,8c3.957,31.52,30.87,56,63.444,56c16.453,0,31.766-6.074,43.383-16.953
	C116.391,185.699,129.648,192,144,192c11.641,0,22.727-4.223,31.344-11.656C181.297,187.535,190.281,192,200,192
	c12.247,0,22.78-6.991,28.158-17.119C229.314,175.53,230.579,176,232,176h17.136c3.577,13.762,15.994,24,30.864,24
	s27.287-10.238,30.864-24h74.272c3.577,13.762,15.994,24,30.864,24s27.287-10.238,30.864-24H472c4.422,0,8-3.582,8-8v-40
	c0-3.57-2.367-6.707-5.797-7.691l-30.327-8.665C446.521,106.928,448,101.57,448,96c0-11.791-6.481-21.999-16-27.549V48h24
	c3.672,0,6.867-2.5,7.758-6.059L470.25,16H480V8V0H464z M207.788,173.889C205.473,175.193,202.841,176,200,176
	c-7.203,0-13.367-4.645-15.344-11.559c-0.859-2.98-3.352-5.199-6.406-5.695c-0.43-0.07-0.859-0.105-1.289-0.105
	c-2.609,0-5.086,1.277-6.594,3.469C164.391,170.809,154.531,176,144,176c-12.102,0-23.039-6.727-28.547-17.551
	c-1.258-2.457-3.688-4.098-6.43-4.34c-2.719-0.254-5.43,0.945-7.094,3.152C92.953,169.168,79.125,176,64,176
	c-26.469,0-48-21.531-48-48c0-15.685,7.594-29.592,19.263-38.356C43.285,83.617,53.216,80,64,80
	c21.75,0,40.813,14.625,46.344,35.563c0.703,2.656,2.719,4.77,5.344,5.59c0.647,0.204,1.313,0.32,1.979,0.354
	c1.436,0.072,2.863-0.272,4.14-0.947c0.508-0.269,1.005-0.565,1.451-0.945C129.039,114.703,136.398,112,144,112
	c17.195,0,31.219,13.43,31.93,30.57c0.125,3.102,2.039,5.848,4.906,7.047c2.836,1.191,6.148,0.633,8.461-1.453
	C192.258,145.48,196.063,144,200,144c8.82,0,16,7.176,16,16C216,165.982,212.661,171.144,207.788,173.889z M144,40h9.223l5.333,32
	H144V40z M113.816,88H168v14.51c-7.073-4.087-15.23-6.51-24-6.51c-7.641,0-15.133,1.824-21.844,5.254
	C119.949,96.436,117.072,92.049,113.816,88z M96,40h32v32H96V40z M40,40h40v26.158C74.848,64.825,69.51,64,64,64
	c-8.489,0-16.581,1.697-24,4.712V40z M464,160h-17.016c-0.282-1.092-0.713-2.118-1.104-3.162c-0.19-0.507-0.32-1.039-0.535-1.533
	c-0.766-1.764-1.675-3.446-2.732-5.028c-0.236-0.353-0.53-0.655-0.78-0.998c-0.875-1.205-1.802-2.363-2.833-3.433
	c-0.469-0.486-0.983-0.914-1.481-1.37c-0.916-0.839-1.857-1.637-2.866-2.366c-0.595-0.43-1.204-0.822-1.828-1.211
	c-1.031-0.643-2.096-1.215-3.201-1.74c-0.659-0.313-1.309-0.625-1.992-0.894c-1.224-0.481-2.492-0.848-3.783-1.176
	c-0.621-0.158-1.217-0.362-1.852-0.483C420.05,136.234,418.055,136,416,136s-4.05,0.234-5.998,0.606
	c-0.635,0.121-1.231,0.325-1.852,0.483c-1.291,0.329-2.559,0.695-3.783,1.176c-0.683,0.268-1.333,0.581-1.992,0.894
	c-1.105,0.524-2.17,1.097-3.201,1.74c-0.625,0.389-1.233,0.782-1.828,1.211c-1.009,0.729-1.95,1.527-2.866,2.366
	c-0.498,0.456-1.012,0.883-1.481,1.37c-1.031,1.07-1.958,2.228-2.833,3.433c-0.25,0.343-0.544,0.645-0.78,0.998
	c-1.058,1.583-1.967,3.265-2.732,5.028c-0.215,0.495-0.345,1.026-0.535,1.533c-0.391,1.044-0.822,2.07-1.104,3.162h-74.031
	c-0.282-1.092-0.713-2.118-1.104-3.162c-0.19-0.507-0.32-1.039-0.535-1.533c-0.766-1.764-1.675-3.446-2.732-5.028
	c-0.236-0.353-0.53-0.655-0.78-0.998c-0.875-1.205-1.802-2.363-2.833-3.433c-0.469-0.486-0.983-0.914-1.481-1.37
	c-0.916-0.839-1.857-1.637-2.866-2.366c-0.595-0.43-1.204-0.822-1.828-1.211c-1.031-0.643-2.096-1.215-3.201-1.74
	c-0.659-0.313-1.309-0.625-1.992-0.894c-1.224-0.481-2.492-0.848-3.783-1.176c-0.621-0.158-1.217-0.362-1.852-0.483
	C284.05,136.234,282.055,136,280,136s-4.05,0.234-5.998,0.606c-0.635,0.121-1.231,0.325-1.852,0.483
	c-1.291,0.329-2.559,0.695-3.783,1.176c-0.683,0.268-1.333,0.581-1.992,0.894c-1.105,0.524-2.17,1.097-3.201,1.74
	c-0.625,0.389-1.233,0.782-1.828,1.211c-1.009,0.729-1.95,1.527-2.866,2.366c-0.498,0.456-1.012,0.883-1.481,1.37
	c-1.031,1.07-1.958,2.228-2.833,3.433c-0.25,0.343-0.544,0.645-0.78,0.998c-1.058,1.583-1.967,3.265-2.732,5.028
	c-0.215,0.495-0.345,1.026-0.535,1.533c-0.391,1.044-0.822,2.07-1.104,3.162H240v-40h174.879L464,134.031V160z M416,184
	c-8.82,0-16-7.176-16-16s7.18-16,16-16s16,7.176,16,16S424.82,184,416,184z M280,184c-8.82,0-16-7.176-16-16s7.18-16,16-16
	s16,7.176,16,16S288.82,184,280,184z M258.412,104l24.01-16H288v16H258.412z M304,104V88h32v16H304z M352,104V88h13.578l24,16H352z
	 M427.641,106.988l-6.44-1.827l-1.81-0.513l-18.619-12.414l-25.996-17.332l-2.338-1.559C371.125,72.469,369.578,72,368,72h-88
	c-1.578,0-3.117,0.465-4.438,1.34l-32.305,21.512C236.047,86.328,232,75.379,232,64c0-12.45,4.804-23.77,12.604-32.309
	C253.387,22.077,265.981,16,280,16c21.75,0,40.813,14.625,46.344,35.563c0.703,2.656,2.719,4.77,5.344,5.59
	c2.602,0.816,5.477,0.242,7.57-1.539C345.039,50.703,352.398,48,360,48c17.195,0,31.219,13.43,31.93,30.57
	c0.125,3.102,2.039,5.848,4.906,7.047c2.852,1.199,6.156,0.621,8.461-1.453C408.258,81.48,412.063,80,416,80c8.82,0,16,7.176,16,16
	C432,100.129,430.414,104.043,427.641,106.988z"/>
<g>
</g>
<g>
</g>
<g>
</g>
<g>
</g>
<g>
</g>
<g>
</g>
<g>
</g>
<g>
</g>
<g>
</g>
<g>
</g>
<g>
</g>
<g>
</g>
<g>
</g>
<g>
</g>
<g>
</g>
</svg>
