<?xml version="1.0" encoding="iso-8859-1"?>
<!-- Generator: Adobe Illustrator 19.0.0, SVG Export Plug-In . SVG Version: 6.00 Build 0)  -->
<svg version="1.1" id="Capa_1" xmlns="http://www.w3.org/2000/svg" xmlns:xlink="http://www.w3.org/1999/xlink" x="0px" y="0px"
	 viewBox="0 0 464 464" style="enable-background:new 0 0 464 464;" xml:space="preserve">
<path style="fill:#A0D92A;" d="M216,264h-40l87.749-87.749L232,176.281l-232,0.22v159.476l187.28-0.178L216,264z M128,272h-24v24H72
	v-24H48v-32h24v-24h32v24h24V272z"/>
<path style="fill:#87B623;" d="M248,240h48l-103.163,95.794L464,335.536V176.061l-190.497,0.181L248,240z M336,240h80v32h-80V240z"
	/>
<g>
	<polygon style="fill:#25C656;" points="448,128 448,80 416,80 416,128 368,128 336,128 288,128 256,128 208,128 176,128 128,128 
		96,128 48,128 48,80 16,80 16,128 0,128 0,128.681 232,128.373 464,128.064 464,128 	"/>
	<polygon style="fill:#25C656;" points="232,336 464,336 464,335.536 232,335.757 	"/>
</g>
<rect x="232" y="336" style="fill:#1E9E45;" width="232" height="48"/>
<polygon style="fill:#25C656;" points="232,335.757 192.837,335.794 184,344 187.28,335.799 0,335.977 0,336 0,384 232,384 232,336 
	"/>
<polygon style="fill:#48AD35;" points="232,176.281 263.749,176.251 280,160 273.503,176.242 464,176.061 464,176 464,128.064 
	232,128.373 "/>
<polygon style="fill:#59D541;" points="232,128.373 0,128.681 0,176 0,176.501 232,176.281 "/>
<g>
	<polygon style="fill:#F1E200;" points="104,216 72,216 72,240 48,240 48,272 72,272 72,296 104,296 104,272 128,272 128,240 
		104,240 	"/>
	<rect x="336" y="240" style="fill:#F1E200;" width="80" height="32"/>
	<rect x="96" y="96" style="fill:#F1E200;" width="32" height="32"/>
	<rect x="176" y="96" style="fill:#F1E200;" width="32" height="32"/>
	<rect x="256" y="96" style="fill:#F1E200;" width="32" height="32"/>
	<rect x="336" y="96" style="fill:#F1E200;" width="32" height="32"/>
	<polygon style="fill:#F1E200;" points="216,264 187.28,335.799 184,344 296,240 248,240 280,160 263.749,176.251 176,264 	"/>
</g>
<g>
</g>
<g>
</g>
<g>
</g>
<g>
</g>
<g>
</g>
<g>
</g>
<g>
</g>
<g>
</g>
<g>
</g>
<g>
</g>
<g>
</g>
<g>
</g>
<g>
</g>
<g>
</g>
<g>
</g>
</svg>
