<?xml version="1.0" encoding="iso-8859-1"?>
<!-- Generator: Adobe Illustrator 19.0.0, SVG Export Plug-In . SVG Version: 6.00 Build 0)  -->
<svg version="1.1" id="Capa_1" xmlns="http://www.w3.org/2000/svg" xmlns:xlink="http://www.w3.org/1999/xlink" x="0px" y="0px"
	 viewBox="0 0 480 480" style="enable-background:new 0 0 480 480;" xml:space="preserve">
<path style="fill:#1D9942;" d="M444,391.432H36c-11.031,0-20-8.969-20-20s8.969-20,20-20h140v-16H36c-19.852,0-36,16.148-36,36
	s16.148,36,36,36h408c11.031,0,20,8.969,20,20s-8.969,20-20,20H256v8v8h188c19.852,0,36-16.148,36-36S463.852,391.432,444,391.432z"
	/>
<path style="fill:#A0D92A;" d="M176,367.432h64.031l0.014-21.248l-0.841,0.561l-9.344-14.016h-19.156
	c-2.672,0-5.172-1.336-6.656-3.563l-11.719-17.578c-1.664-2.492-1.789-5.703-0.336-8.32l9.674-17.414h-2.682v-16h11.571
	l10.733-19.32c1.406-2.539,4.086-4.117,6.992-4.117h11.827l0.015-22.984H216h-72v32h16L176,367.432z"/>
<path style="fill:#84B323;" d="M240.108,246.416h11.611c2.906,0,5.586,1.578,6.992,4.117l8.26,14.868l0.6-1.797l15.172,5.063
	l-5.234,15.702l10.5,18.899c1.453,2.617,1.328,5.828-0.336,8.32l-11.719,17.578c-1.484,2.227-3.984,3.563-6.656,3.563h-20.208
	l3.426,5.141l-12.471,8.314l-0.014,21.248H304l16-112h16v-32h-72h-23.877L240.108,246.416z"/>
<polygon style="fill:#A0D92A;" points="240.071,303.292 240.098,262.416 232.992,262.416 224.775,277.202 230.008,292.901 
	214.836,297.963 214.236,296.165 208.344,306.768 214.984,316.729 229.859,316.729 239.203,302.713 "/>
<polygon style="fill:#84B323;" points="252.516,311.588 249.089,316.729 265.016,316.729 271.656,306.768 263.29,291.713 
	251.719,291.713 251.719,275.713 254.397,275.713 247.008,262.416 240.098,262.416 240.071,303.292 "/>
<path style="fill:#D0DFEA;" d="M240.173,143.432H192h-2.599c3.28,6.909,7.914,13.043,13.601,18.03
	c7.903,6.931,12.999,16.499,12.999,27.01v2.96h24.143L240.173,143.432z"/>
<path style="fill:#AEBBC4;" d="M240.143,191.432H264v-4.112c0-9.897,4.841-18.905,12.377-25.321
	c5.967-5.079,10.803-11.412,14.202-18.567h-50.405L240.143,191.432z"/>
<path style="fill:#C4B800;" d="M248,111.432v16h-7.816l-0.01,16h50.405c3.686-7.759,5.675-16.49,5.395-25.753
	c-0.884-29.234-25.481-53.598-54.722-54.233c-0.347-0.007-0.682,0.032-1.027,0.03l-0.031,47.956H248z M264,111.432h16v16h-16
	V111.432z"/>
<path style="fill:#F1E200;" d="M240.173,143.432l0.01-16H232v-16h8.194l0.031-47.956C209.166,63.36,184,88.4,184,119.432
	c0,8.611,1.951,16.734,5.401,24H192H240.173z M200,111.432h16v16h-16V111.432z"/>
<rect x="240.16" y="191.432" style="fill:#1D9942;" width="23.864" height="32"/>
<rect x="216" y="191.432" style="fill:#25C656;" width="24.16" height="32"/>
<path style="fill:#1D9942;" d="M252.516,337.87l-3.426-5.141h20.208c2.672,0,5.172-1.336,6.656-3.563l11.719-17.578
	c1.664-2.492,1.789-5.703,0.336-8.32l-10.5-18.899l5.234-15.702l-15.172-5.063l-0.6,1.797l-8.26-14.868
	c-1.406-2.539-4.086-4.117-6.992-4.117h-11.611h-11.827c-2.906,0-5.586,1.578-6.992,4.117l-10.733,19.32h-11.571v16h2.682
	l-9.674,17.414c-1.453,2.617-1.328,5.828,0.336,8.32l11.719,17.578c1.484,2.227,3.984,3.563,6.656,3.563h19.156l9.344,14.016
	l0.841-0.561L252.516,337.87z M214.984,316.729l-6.641-9.961l5.893-10.603l0.6,1.798l15.172-5.063l-5.233-15.699l8.217-14.786h7.105
	h6.91l7.39,13.297h-2.679v16h11.571l8.367,15.055l-6.641,9.961h-15.926l3.426-5.141l-12.444-8.296l-0.868-0.579l-9.344,14.016
	H214.984z"/>
<g>
	<rect x="200" y="111.432" style="fill:#FFFFFF;" width="16" height="16"/>
	<polygon style="fill:#FFFFFF;" points="248,111.432 240.194,111.432 232,111.432 232,127.432 240.184,127.432 248,127.432 	"/>
	<rect x="264" y="111.432" style="fill:#FFFFFF;" width="16" height="16"/>
</g>
<g>
	<rect x="232" y="7.432" style="fill:#F1E200;" width="16" height="32"/>
	<rect x="320" y="111.432" style="fill:#F1E200;" width="48" height="16"/>
	<rect x="384" y="111.432" style="fill:#F1E200;" width="16" height="16"/>
	<rect x="416" y="111.432" style="fill:#F1E200;" width="64" height="16"/>
	
		<rect x="306.075" y="59.422" transform="matrix(-0.866 0.5 -0.5 -0.866 649.6402 -39.2231)" style="fill:#F1E200;" width="48" height="16"/>
	
		<rect x="363.605" y="35.421" transform="matrix(-0.8661 0.4999 -0.4999 -0.8661 715.141 -104.745)" style="fill:#F1E200;" width="15.992" height="16"/>
	
		<rect x="389.069" y="11.406" transform="matrix(-0.8552 0.5184 -0.5184 -0.8552 774.7791 -177.6762)" style="fill:#F1E200;" width="46.288" height="16"/>
	
		<rect x="268.031" y="21.367" transform="matrix(-0.4999 0.8661 -0.8661 -0.4999 463.4571 -208.8704)" style="fill:#F1E200;" width="48" height="16"/>
	
		<rect x="322.074" y="147.419" transform="matrix(-0.5 0.866 -0.866 -0.5 643.5616 -28.7279)" style="fill:#F1E200;" width="16" height="48"/>
	
		<rect x="363.613" y="187.466" transform="matrix(-0.5001 0.866 -0.866 -0.5001 726.7281 -28.5791)" style="fill:#F1E200;" width="16" height="15.992"/>
	
		<rect x="404.227" y="196.253" transform="matrix(-0.5185 0.8551 -0.8551 -0.5185 813.5708 -19.3262)" style="fill:#F1E200;" width="16" height="46.288"/>
	<rect x="112" y="111.432" style="fill:#F1E200;" width="48" height="16"/>
	<rect x="80" y="111.432" style="fill:#F1E200;" width="16" height="16"/>
	<rect y="111.432" style="fill:#F1E200;" width="64" height="16"/>
	
		<rect x="141.937" y="43.43" transform="matrix(-0.5 0.866 -0.866 -0.5 283.2997 -28.7058)" style="fill:#F1E200;" width="16" height="48"/>
	
		<rect x="100.358" y="35.439" transform="matrix(-0.5001 0.866 -0.866 -0.5001 200.164 -28.6742)" style="fill:#F1E200;" width="16" height="15.992"/>
	
		<rect x="59.785" y="-3.707" transform="matrix(-0.5185 0.8551 -0.8551 -0.5185 119.5521 -28.4453)" style="fill:#F1E200;" width="16" height="46.288"/>
	
		<rect x="179.998" y="5.368" transform="matrix(-0.866 0.5 -0.5 -0.866 365.4932 -39.1958)" style="fill:#F1E200;" width="16" height="48"/>
	
		<rect x="125.938" y="163.434" transform="matrix(-0.8661 0.4999 -0.4999 -0.8661 365.498 244.9509)" style="fill:#F1E200;" width="48" height="16"/>
	
		<rect x="100.368" y="187.434" transform="matrix(-0.8661 0.4999 -0.4999 -0.8661 299.9158 310.5211)" style="fill:#F1E200;" width="15.992" height="16"/>
	
		<rect x="44.644" y="211.429" transform="matrix(-0.8551 0.5185 -0.5185 -0.8551 239.5284 371.9075)" style="fill:#F1E200;" width="46.288" height="16"/>
	<path style="fill:#F1E200;" d="M240,431.432h-24v8v8v16v8v8h24c13.255,0,24-10.745,24-24S253.255,431.432,240,431.432z"/>
</g>
<g>
	<polygon style="fill:#1D9942;" points="216,431.432 192,431.432 192,447.432 216,447.432 216,439.432 	"/>
	<polygon style="fill:#1D9942;" points="216,463.432 192,463.432 192,479.432 216,479.432 216,471.432 	"/>
</g>
<g>
</g>
<g>
</g>
<g>
</g>
<g>
</g>
<g>
</g>
<g>
</g>
<g>
</g>
<g>
</g>
<g>
</g>
<g>
</g>
<g>
</g>
<g>
</g>
<g>
</g>
<g>
</g>
<g>
</g>
</svg>
