<?xml version="1.0" encoding="iso-8859-1"?>
<!-- Generator: Adobe Illustrator 19.0.0, SVG Export Plug-In . SVG Version: 6.00 Build 0)  -->
<svg version="1.1" id="Capa_1" xmlns="http://www.w3.org/2000/svg" xmlns:xlink="http://www.w3.org/1999/xlink" x="0px" y="0px"
	 viewBox="0 0 480 480" style="enable-background:new 0 0 480 480;" xml:space="preserve">
<g>
	<path style="fill:#A0D92A;" d="M229.561,289.14c0.829,0.383,1.586,0.847,2.439,1.203v0v4.686l13.657,13.657L240,314.343l0,0h8
		v-19.314v-4.686v0c0.856-0.357,1.617-0.823,2.449-1.208c6.313-2.917,11.926-6.626,16.82-10.928
		c0.106-0.093,0.217-0.184,0.322-0.278c1.585-1.411,3.097-2.883,4.526-4.415c0.052-0.056,0.101-0.113,0.153-0.169
		c5.821-6.279,10.325-13.507,13.43-21.252c0.062-0.153,0.119-0.308,0.179-0.461c0.469-1.194,0.854-2.416,1.257-3.632h-55.373
		C235.125,261.028,234.682,275.229,229.561,289.14z"/>
	<polygon style="fill:#A0D92A;" points="240,146.343 218.343,168 261.657,168 	"/>
	<path style="fill:#A0D92A;" d="M193.476,202.023c13.772,6.369,24.878,17.003,31.947,29.977h65.021
		c0.137-1.577,0.27-3.156,0.3-4.742c0.001-0.047,0.002-0.095,0.003-0.143c0.144-8.442-1.231-16.956-4.222-25.092l0,0
		c-2.316-6.303-5.501-12.394-9.797-18.023h-73.455C198.977,189.629,195.792,195.721,193.476,202.023z"/>
</g>
<g>
	<path style="fill:#59D541;" d="M245.657,308.686L232,295.029l-3.313-3.313v0c0.352-0.854,0.559-1.718,0.875-2.575
		c5.121-13.911,5.563-28.112,2.203-41.14H144c-8.411,0-16.201-2.637-22.649-7.089c1.541,48.298,50.9,80.698,96.022,62.119
		L234.343,320l5.657-5.657L245.657,308.686z"/>
	<path style="fill:#59D541;" d="M193.476,202.023c-8.789-4.064-18.593-6.474-29.191-6.474h-40.701
		c-1.01,1.649-1.786,3.434-2.377,5.313v14.276C124.267,224.873,133.268,232,144,232h81.423
		C218.354,219.026,207.248,208.393,193.476,202.023z"/>
</g>
<g>
	<path style="fill:#F1E200;" d="M285.701,252.093c-3.105,7.745-7.609,14.973-13.43,21.252c-0.052,0.056-0.101,0.114-0.153,0.169
		c-1.429,1.532-2.94,3.004-4.526,4.415c-0.106,0.094-0.216,0.185-0.322,0.278c-4.895,4.302-10.507,8.01-16.82,10.928
		c-0.003,0.001-0.007,0.004-0.01,0.005c0.315,0.857,0.522,1.721,0.875,2.575L248,295.029v19.314h-8l5.657,5.657l16.971-16.971
		c42.885,17.659,89.681-10.708,95.538-55.029h-71.028c-0.402,1.216-0.788,2.438-1.257,3.632
		C285.819,251.786,285.762,251.94,285.701,252.093z"/>
	<path style="fill:#F1E200;" d="M290.747,227.116c-0.001,0.048-0.002,0.095-0.003,0.143c-0.03,1.586-0.163,3.165-0.3,4.742h68.35
		v-36.451h-43.078c-10.598,0-20.403,2.41-29.191,6.474l0,0C289.515,210.16,290.891,218.674,290.747,227.116z"/>
</g>
<g>
	<polygon style="fill:#1B7DA4;" points="224,32 224,0 208,0 208,32 216,32 	"/>
	<polygon style="fill:#1B7DA4;" points="272,32 272,0 256,0 256,32 264,32 	"/>
</g>
<path style="fill:#B3C0C9;" d="M428,232h-69.206h-68.35h-65.021H144c-10.732,0-19.733-7.127-22.794-16.862
	c-0.713-2.27-1.206-4.636-1.206-7.138s0.493-4.869,1.206-7.138c0.591-1.879,1.367-3.663,2.377-5.313
	C127.804,188.654,135.339,184,144,184h59.272h73.455H340c19.852,0,36-16.148,36-36s-16.148-36-36-36h-84c-4.414,0-8-3.59-8-8V92.451
	c-5.294,0.821-10.706,0.821-16,0V104c0,13.234,10.766,24,24,24h84c11.031,0,20,8.973,20,20s-8.969,20-20,20h-78.343h-43.313H144
	c-22.055,0-40,17.945-40,40c0,13.644,6.89,25.688,17.351,32.911C127.799,245.363,135.589,248,144,248h87.764h55.373h71.028H428
	c19.852,0,36,16.148,36,36s-16.148,36-36,36H245.657h-11.313H52c-28.672,0-52,23.328-52,52s23.328,52,52,52h60v-16H52
	c-19.852,0-36-16.148-36-36s16.148-36,36-36h376c28.672,0,52-23.328,52-52S456.672,232,428,232z"/>
<path style="fill:#F1E200;" d="M248,92.451c17.89-2.776,34.382-14.915,40-36.451V32h-16h-8h-8h-32h-8h-8h-16v24
	c5.618,21.536,22.11,33.675,40,36.451C237.294,93.272,242.706,93.272,248,92.451z"/>
<polygon style="fill:#2D9CCA;" points="312,392 240,360 240,392 "/>
<polygon style="fill:#20557D;" points="176,360 128,360 136,368 112,392 176,392 "/>
<rect x="176" y="360" style="fill:#1B7DA4;" width="64" height="32"/>
<path style="fill:#59D541;" d="M112,448h16c0-17.645,14.352-32,32-32s32,14.355,32,32h112c0-17.645,14.352-32,32-32s32,14.355,32,32
	h24l-8-8l8-32l-56-16h-24h-72h-64h-64v16v16V448z"/>
<g>
	<circle style="fill:#F1E200;" cx="160" cy="448" r="16"/>
	<circle style="fill:#F1E200;" cx="336" cy="448" r="16"/>
</g>
<g>
	<path style="fill:#183F5E;" d="M160,416c-17.648,0-32,14.355-32,32s14.352,32,32,32s32-14.355,32-32S177.648,416,160,416z M160,464
		c-8.82,0-16-7.176-16-16s7.18-16,16-16s16,7.176,16,16S168.82,464,160,464z"/>
	<path style="fill:#183F5E;" d="M336,416c-17.648,0-32,14.355-32,32s14.352,32,32,32s32-14.355,32-32S353.648,416,336,416z M336,464
		c-8.82,0-16-7.176-16-16s7.18-16,16-16s16,7.176,16,16S344.82,464,336,464z"/>
</g>
<g>
</g>
<g>
</g>
<g>
</g>
<g>
</g>
<g>
</g>
<g>
</g>
<g>
</g>
<g>
</g>
<g>
</g>
<g>
</g>
<g>
</g>
<g>
</g>
<g>
</g>
<g>
</g>
<g>
</g>
</svg>
