<?xml version="1.0" encoding="iso-8859-1"?>
<!-- Generator: Adobe Illustrator 19.0.0, SVG Export Plug-In . SVG Version: 6.00 Build 0)  -->
<svg version="1.1" id="Capa_1" xmlns="http://www.w3.org/2000/svg" xmlns:xlink="http://www.w3.org/1999/xlink" x="0px" y="0px"
	 viewBox="0 0 491.313 491.313" style="enable-background:new 0 0 491.313 491.313;" xml:space="preserve">
<polygon style="fill:#A0D92A;" points="261.656,412.684 221.656,412.684 189.656,444.684 229.656,444.684 "/>
<path style="fill:#FBF8EC;" d="M293.656,468.684v-24l-32-32l-32,32v32h24v-32h16v32h21.194c-0.944-0.793-1.968-1.461-2.85-2.344
	L293.656,468.684z"/>
<path style="fill:#D0DFEA;" d="M189.656,444.684v20.232c0.793-0.614,1.624-1.169,2.344-1.889l11.313,11.313
	c-0.882,0.882-1.906,1.551-2.85,2.344h29.194v-32H189.656z"/>
<path style="fill:#F1E200;" d="M61.978,436.904c0-14.932,20.888-36.816,23.679-39.673v-63.476
	c-14.71,8.448-34.756,21.304-39.679,31.149c-8,16,0,32,0,32l-24-8c0,0-16,32,16,56c27.763,20.822,43.463,23.575,47.139,23.94
	c0.178-0.062,0.362-0.095,0.54-0.16C82.866,466.757,61.978,451.836,61.978,436.904z"/>
<path style="fill:#CEC200;" d="M107.313,463.027c0.096,0.096,0.215,0.157,0.313,0.251c7.874-3.485,17.093-9.115,26.353-18.375
	c24-24,16-56,16-56l-32,16c0,0,16-16,8-32s-16-8-24-16s0-32,0-32s-7.124,3.569-16.321,8.851v63.476
	c0.2-0.205,0.321-0.327,0.321-0.327s24,24,24,40c0,14.286-19.086,28.537-23.187,31.434c4.069-1.657,7.884-4.132,11.187-7.434
	c0.18,0.18,0.395,0.297,0.578,0.472C101.467,460.219,105.046,460.761,107.313,463.027z"/>
<path style="fill:#2D9CCA;" d="M61.978,436.904c0,14.932,20.888,29.853,23.679,31.78v-71.453
	C82.866,400.088,61.978,421.972,61.978,436.904z"/>
<path style="fill:#217496;" d="M109.978,436.904c0-16-24-40-24-40s-0.122,0.123-0.321,0.327v71.453
	c0.374-0.137,0.765-0.195,1.135-0.346C90.891,465.44,109.978,451.189,109.978,436.904z"/>
<path style="fill:#A0D92A;" d="M237.656,212.707c-8.101-0.997-15.856-3.469-22.932-7.344c-2.394,10.327-3.832,20.795-4.316,31.32
	h27.248V212.707z"/>
<path style="fill:#7AA520;" d="M280.905,252.684h-27.249v23.977c8.101,0.997,15.856,3.469,22.932,7.344
	C278.982,273.677,280.42,263.209,280.905,252.684z"/>
<g>
	<path style="fill:#59D541;" d="M194.407,252.684h-12.195c1.749,13.931,7.976,26.464,17.213,36.135
		C196.584,276.916,194.919,264.831,194.407,252.684z"/>
	<path style="fill:#59D541;" d="M220.363,303.451c5.417,2.341,11.229,3.916,17.293,4.677v-15.311
		c-6.596,1.089-12.848,3.491-18.43,7.128C219.617,301.112,219.948,302.291,220.363,303.451z"/>
</g>
<path style="fill:#A0D92A;" d="M237.656,276.66v-23.977h-27.248c0.484,10.525,1.922,20.994,4.316,31.32
	C221.8,280.129,229.555,277.657,237.656,276.66z"/>
<g>
	<path style="fill:#43A131;" d="M272.086,299.946c-5.582-3.637-11.834-6.04-18.43-7.128v15.311
		c6.064-0.762,11.875-2.337,17.293-4.678C271.365,302.291,271.696,301.112,272.086,299.946z"/>
	<path style="fill:#43A131;" d="M296.905,252.684c-0.512,12.147-2.177,24.232-5.017,36.135c9.236-9.671,15.463-22.205,17.212-36.135
		H296.905z"/>
</g>
<path style="fill:#25C656;" d="M237.656,181.239c-6.064,0.762-11.875,2.336-17.293,4.677c-0.416,1.16-0.747,2.339-1.137,3.505
	c5.582,3.637,11.833,6.04,18.43,7.128V181.239z"/>
<path style="fill:#1B923F;" d="M270.949,185.917c-5.417-2.341-11.229-3.916-17.293-4.678v15.311
	c6.596-1.089,12.849-3.491,18.43-7.128C271.696,188.255,271.365,187.076,270.949,185.917z"/>
<path style="fill:#25C656;" d="M199.425,200.548c-9.237,9.671-15.464,22.204-17.213,36.135h12.195
	C194.919,224.537,196.584,212.452,199.425,200.548z"/>
<path style="fill:#1B923F;" d="M309.101,236.684c-1.749-13.931-7.976-26.464-17.212-36.135c2.84,11.903,4.505,23.989,5.017,36.135
	H309.101z"/>
<path style="fill:#7AA520;" d="M276.588,205.363c-7.076,3.875-14.831,6.347-22.932,7.344v23.977h27.249
	C280.42,226.158,278.982,215.69,276.588,205.363z"/>
<path style="fill:#2D9CCA;" d="M245.656,324.684v-160c-44.113,0-80,35.891-80,80S201.543,324.684,245.656,324.684z M237.656,308.128
	c-6.064-0.762-11.875-2.336-17.293-4.677c-0.416-1.16-0.747-2.339-1.137-3.505c5.582-3.637,11.833-6.04,18.43-7.128V308.128z
	 M220.363,185.917c5.417-2.341,11.229-3.916,17.293-4.677v15.311c-6.596-1.089-12.848-3.491-18.43-7.128
	C219.617,188.255,219.948,187.076,220.363,185.917z M214.724,205.363c7.076,3.875,14.831,6.347,22.932,7.344v23.977h-27.248
	C210.893,226.158,212.33,215.69,214.724,205.363z M237.656,252.684v23.977c-8.101,0.997-15.856,3.469-22.932,7.344
	c-2.394-10.327-3.832-20.795-4.316-31.32H237.656z M199.425,200.548c-2.84,11.903-4.506,23.988-5.018,36.135h-12.195
	C183.961,222.752,190.188,210.219,199.425,200.548z M194.407,252.684c0.512,12.147,2.177,24.232,5.018,36.135
	c-9.237-9.671-15.464-22.204-17.213-36.135H194.407z"/>
<g>
	<path style="fill:#F1E200;" d="M53.008,247.832l15.973-37.258l33.141,92.797c1.109,3.102,4,5.203,7.289,5.313
		c0.082,0,0.164,0,0.246,0c3.191,0,6.09-1.898,7.352-4.852l21.922-51.148h26.727v-8v-8h-32c-3.199,0-6.094,1.906-7.352,4.852
		l-15.973,37.258l-33.141-92.797c-1.109-3.102-4-5.203-7.289-5.313c-3.316,0-6.309,1.82-7.598,4.852l-21.922,51.148H5.656v16h40
		C48.855,252.684,51.75,250.777,53.008,247.832z"/>
	<path style="fill:#F1E200;" d="M365.656,252.684c3.336,0,6.32-2.07,7.492-5.188l16.063-42.844l32.855,98.563
		c1.051,3.148,3.938,5.32,7.258,5.461c0.113,0.008,0.223,0.008,0.332,0.008c3.191,0,6.09-1.898,7.352-4.852l21.922-51.148h26.727
		v-16h-32c-3.199,0-6.094,1.906-7.352,4.852l-15.715,36.656l-33.344-100.039c-1.07-3.211-4.055-5.406-7.441-5.469
		c-3.684,0.125-6.449,2.023-7.641,5.188l-22.051,58.813h-34.457v8v8H365.656z"/>
</g>
<g>
	<path style="fill:#79BFCB;" d="M421.576,38.124c2.48-0.96,5.2-1.44,8.08-1.44c5.333,0,10.206,1.786,14.185,4.715
		c-4.097-13.84-15.332-24.585-29.556-27.725c4.607,6.518,7.371,14.427,7.371,23.01C421.656,37.164,421.656,37.644,421.576,38.124z"
		/>
	<path style="fill:#79BFCB;" d="M429.656,84.684h-40H319.12c3.298,9.311,12.079,16,22.537,16h62.004l3.598-4.797l6.398,4.797h40
		c13.28,0,24-10.72,24-24c0-13.28-10.72-24-24-24c-0.49,0-0.945,0.095-1.426,0.123c0.863,2.479,1.426,5.101,1.426,7.877
		C453.656,73.963,442.936,84.684,429.656,84.684z"/>
</g>
<path style="fill:#D0DFEA;" d="M389.656,84.684h40c13.28,0,24-10.72,24-24c0-2.777-0.563-5.399-1.426-7.877
	c-2.343,0.136-4.596,0.521-6.654,1.317c0.08-0.48,0.08-0.96,0.08-1.44c0-3.947-0.749-7.683-1.815-11.285
	c-3.979-2.929-8.852-4.715-14.185-4.715c-2.88,0-5.6,0.48-8.08,1.44c0.08-0.48,0.08-0.96,0.08-1.44
	c0-8.583-2.764-16.492-7.371-23.01c-2.786-0.615-5.659-0.99-8.629-0.99c-22.08,0-40,17.92-40,40c0,5.68,1.2,11.12,3.28,16h-4.72
	c-3.2-9.36-12.08-16-22.56-16c-13.28,0-24,10.72-24,24c0,2.822,0.574,5.488,1.463,8H389.656z"/>
<path style="fill:#217496;" d="M325.656,244.684c0-44.109-35.887-80-80-80v160C289.77,324.684,325.656,288.793,325.656,244.684z
	 M309.101,236.684h-12.195c-0.512-12.146-2.177-24.232-5.017-36.135C301.125,210.22,307.352,222.753,309.101,236.684z
	 M296.905,252.684h12.195c-1.749,13.931-7.976,26.464-17.212,36.135C294.729,276.916,296.394,264.831,296.905,252.684z
	 M253.656,181.239c6.064,0.762,11.875,2.337,17.293,4.678c0.416,1.159,0.747,2.338,1.137,3.504
	c-5.582,3.637-11.834,6.04-18.43,7.128V181.239z M253.656,212.707c8.101-0.997,15.856-3.469,22.932-7.344
	c2.394,10.327,3.832,20.795,4.316,31.32h-27.249V212.707z M253.656,252.684h27.249c-0.484,10.525-1.922,20.993-4.316,31.32
	c-7.076-3.875-14.831-6.347-22.932-7.344V252.684z M253.656,292.817c6.596,1.089,12.849,3.491,18.43,7.128
	c-0.39,1.166-0.722,2.345-1.137,3.504c-5.417,2.341-11.229,3.916-17.293,4.678V292.817z"/>
<g>
	<path style="fill:#F1E200;" d="M383.258,127.887c-1.82,2.422-2.113,5.664-0.758,8.375s4.125,4.422,7.156,4.422h16l-14.398,19.203
		l12.797,9.594l24-32c1.82-2.422,2.113-5.664,0.758-8.375s-4.125-4.422-7.156-4.422h-16l14.398-19.203l-6.398-4.797h-9.996
		L383.258,127.887z"/>
	<polygon style="fill:#F1E200;" points="403.66,100.684 413.656,100.684 407.258,95.887 	"/>
</g>
<g>
	
		<rect x="352.702" y="116.694" transform="matrix(-0.4472 0.8944 -0.8944 -0.4472 634.9075 -143.0074)" style="fill:#2D9CCA;" width="17.888" height="16"/>
	
		<rect x="336.704" y="148.692" transform="matrix(-0.4472 0.8944 -0.8944 -0.4472 640.3752 -82.3914)" style="fill:#2D9CCA;" width="17.888" height="16"/>
	
		<rect x="320.706" y="180.698" transform="matrix(-0.4472 0.8944 -0.8944 -0.4472 645.8501 -21.7639)" style="fill:#2D9CCA;" width="17.888" height="16"/>
	
		<rect x="448.682" y="116.693" transform="matrix(-0.4472 0.8944 -0.8944 -0.4472 773.8098 -228.8567)" style="fill:#2D9CCA;" width="17.888" height="16"/>
	
		<rect x="432.7" y="148.667" transform="matrix(-0.4472 0.8944 -0.8944 -0.4472 779.2792 -168.2898)" style="fill:#2D9CCA;" width="17.888" height="16"/>
	
		<rect x="416.703" y="180.728" transform="matrix(-0.4472 0.8944 -0.8944 -0.4472 784.8041 -107.5812)" style="fill:#2D9CCA;" width="17.888" height="16"/>
	<path style="fill:#2D9CCA;" d="M397.656,412.684c5.424,21.698-0.182,39.689-4.356,49.043c0.716,0.355,1.434,0.722,2.012,1.3
		c9.805,9.797,26.883,9.797,36.688,0c1.845-1.845,4.538-2.416,7.056-1.992c6.128-41.091-11.516-82.434-46.041-106.335h0
		c-25.107-17.382-59.054-14.321-80.647,7.272l-2.711,2.711c-8.836,8.836-8.836,23.163,0,32c8.836,8.836,23.164,8.836,32,0l8-8l16-16
		C365.656,372.684,389.656,380.684,397.656,412.684z"/>
</g>
<path style="fill:#20557D;" d="M384,463.027c2.422-2.422,6.297-2.789,9.3-1.3c4.174-9.354,9.78-27.346,4.356-49.043
	c-8-32-32-40-32-40l-16,16c19.031,19.031,16.707,55.276-1.956,74.657C357.559,472.783,374.314,472.705,384,463.027z"/>
<path style="fill:#F1E200;" d="M480,463.027c-9.805,9.797-26.883,9.797-36.688,0c-1.155-1.155-2.68-1.726-4.257-1.992
	c-2.518-0.424-5.211,0.147-7.056,1.992c-9.805,9.797-26.883,9.797-36.688,0c-0.578-0.578-1.296-0.945-2.012-1.3
	c-3.003-1.489-6.878-1.122-9.3,1.3c-9.686,9.678-26.441,9.755-36.299,0.313c-0.122-0.116-0.269-0.194-0.388-0.313
	c-3-3-8.313-3-11.313,0c-9.805,9.797-26.883,9.797-36.688,0l-5.656,5.656L288,474.34c0.882,0.882,1.906,1.551,2.85,2.344
	c7.532,6.327,16.851,9.945,26.806,9.945c8.711,0,17.012-2.641,24-7.539c13.977,9.797,34.023,9.797,48,0
	c13.977,9.797,34.023,9.797,48,0c6.988,4.898,15.289,7.539,24,7.539c11.203,0,21.738-4.367,29.656-12.289L480,463.027z"/>
<path style="fill:#25C656;" d="M192,463.027c-0.72,0.719-1.551,1.275-2.344,1.889c-10.001,7.745-25.259,7.189-34.344-1.889
	c-3-3-8.313-3-11.313,0c-9.708,9.701-26.527,9.763-36.375,0.251c-0.097-0.094-0.216-0.156-0.313-0.251
	c-2.266-2.266-5.845-2.809-8.757-1.651c-0.943,0.375-1.822,0.917-2.556,1.651c-9.805,9.797-26.883,9.797-36.688,0
	c-3-3-8.313-3-11.313,0c-9.805,9.797-26.883,9.797-36.688,0L0,474.34c7.918,7.922,18.453,12.289,29.656,12.289
	c8.711,0,17.012-2.641,24-7.539c13.977,9.797,34.023,9.797,48,0c13.977,9.797,34.023,9.797,48,0c6.988,4.898,15.289,7.539,24,7.539
	c9.956,0,19.274-3.618,26.806-9.945c0.944-0.793,1.968-1.461,2.85-2.344L192,463.027z"/>
<polygon style="fill:#2D9CCA;" points="253.656,444.684 253.656,476.684 261.656,476.684 269.656,476.684 269.656,444.684 "/>
<path style="fill:#7AA520;" d="M165.251,156.684h16.405l-16-17.778v13.778C165.656,154.054,165.515,155.391,165.251,156.684z"/>
<path style="fill:#A0D92A;" d="M56.057,100.684h21.6c4.418,0,8,3.578,8,8v16c0,4.414,3.59,8,8,8v-56h-8h-8L56.057,100.684z"/>
<path style="fill:#7AA520;" d="M93.656,132.684c4.41,0,8-3.586,8-8v-8c0-4.422,3.582-8,8-8h24c4.418,0,8,3.578,8,8v36
	c0,2.203,1.793,4,4,4s4-1.797,4-4v-28h3.2l-43.2-48h-8h-8V132.684z"/>
<path style="fill:#1B923F;" d="M125.656,124.684h-8c0,13.234-10.766,24-24,24v8h32.405c-0.264-1.293-0.405-2.63-0.405-4V124.684z"/>
<path style="fill:#25C656;" d="M69.656,124.684v-8h-24v-4.444l-40,44.444h88v-8C80.422,148.684,69.656,137.918,69.656,124.684z"/>
<path style="fill:#D0DFEA;" d="M93.656,20.684v-16h-16C77.656,13.504,84.832,20.684,93.656,20.684z"/>
<path style="fill:#A2AEB6;" d="M109.656,4.684h-16v16C102.48,20.684,109.656,13.504,109.656,4.684z"/>
<g>
	<path style="fill:#D0DFEA;" d="M69.656,25.626c-0.983,1.126-2.142,2.075-3.268,3.058h5.553l-0.358-1.254
		C70.953,26.814,70.236,26.29,69.656,25.626z"/>
	<path style="fill:#D0DFEA;" d="M45.656,20.684c8.824,0,16-7.18,16-16h-32C29.656,13.504,36.832,20.684,45.656,20.684z"/>
</g>
<g>
	<path style="fill:#A2AEB6;" d="M141.656,20.684c8.824,0,16-7.18,16-16h-32C125.656,13.504,132.832,20.684,141.656,20.684z"/>
	<path style="fill:#A2AEB6;" d="M115.729,27.43l-0.358,1.254h5.553c-1.125-0.983-2.284-1.932-3.268-3.058
		C117.076,26.29,116.359,26.814,115.729,27.43z"/>
</g>
<path style="fill:#5A8E97;" d="M93.656,36.684v40h8l13.714-48l0.358-1.254C109.979,33.043,102.31,36.684,93.656,36.684z"/>
<path style="fill:#79BFCB;" d="M93.656,36.684c-8.654,0-16.323-3.64-22.073-9.254l0.358,1.254l13.714,48h8V36.684z"/>
<path style="fill:#133249;" d="M93.656,20.684v16c8.654,0,16.323-3.64,22.073-9.254c0.63-0.616,1.347-1.14,1.927-1.804
	c0.983,1.126,2.142,2.075,3.268,3.058c5.591,4.883,12.739,8,20.732,8c17.645,0,32-14.352,32-32h-8h-8c0,8.82-7.176,16-16,16
	s-16-7.18-16-16h-16C109.656,13.504,102.48,20.684,93.656,20.684z"/>
<path style="fill:#20557D;" d="M71.583,27.43c5.75,5.614,13.419,9.254,22.073,9.254v-16c-8.824,0-16-7.18-16-16h-16
	c0,8.82-7.176,16-16,16s-16-7.18-16-16h-8h-8c0,17.648,14.355,32,32,32c7.994,0,15.142-3.117,20.732-8
	c1.125-0.983,2.284-1.932,3.268-3.058C70.236,26.29,70.953,26.814,71.583,27.43z"/>
<path style="fill:#DBCE00;" d="M149.656,152.684c0,2.203-1.793,4-4,4s-4-1.797-4-4v-36c0-4.422-3.582-8-8-8h-24
	c-4.418,0-8,3.578-8,8v8c0,4.414-3.59,8-8,8v16c13.234,0,24-10.766,24-24h8v28c0,1.37,0.141,2.707,0.405,4
	c1.858,9.12,9.938,16,19.595,16s17.737-6.88,19.595-16c0.264-1.293,0.405-2.63,0.405-4v-13.778v-14.222h-12.8h-3.2V152.684z"/>
<path style="fill:#F1E200;" d="M69.656,116.684v8c0,13.234,10.766,24,24,24v-16c-4.41,0-8-3.586-8-8v-16c0-4.422-3.582-8-8-8h-21.6
	h-10.4v11.556v4.444H69.656z"/>
<g>
</g>
<g>
</g>
<g>
</g>
<g>
</g>
<g>
</g>
<g>
</g>
<g>
</g>
<g>
</g>
<g>
</g>
<g>
</g>
<g>
</g>
<g>
</g>
<g>
</g>
<g>
</g>
<g>
</g>
</svg>
