<?xml version="1.0" encoding="iso-8859-1"?>
<!-- Generator: Adobe Illustrator 19.0.0, SVG Export Plug-In . SVG Version: 6.00 Build 0)  -->
<svg version="1.1" id="Capa_1" xmlns="http://www.w3.org/2000/svg" xmlns:xlink="http://www.w3.org/1999/xlink" x="0px" y="0px"
	 viewBox="0 0 464 464" style="enable-background:new 0 0 464 464;" xml:space="preserve">
<path style="fill:#F1E200;" d="M80.16,224.16C83.84,152,138,93.04,208,81.92V112l31.84-31.84L264,56l-23.84-23.84L208,0v33.52
	C111.52,44.96,36.08,125.2,32.16,223.84L56,200L80.16,224.16z"/>
<path style="fill:#25C656;" d="M430.48,208C419.04,111.52,338.8,36.08,240.16,32.16L264,56l-24.16,24.16
	c4.187,0.213,8.317,0.633,12.407,1.182c1.482,0.198,2.932,0.487,4.401,0.728c2.551,0.42,5.093,0.859,7.6,1.406
	c1.809,0.392,3.588,0.851,5.372,1.307c2.059,0.529,4.104,1.084,6.129,1.697c1.997,0.601,3.973,1.237,5.935,1.917
	c1.659,0.578,3.293,1.2,4.925,1.834c2.187,0.845,4.365,1.697,6.501,2.639c1.095,0.485,2.158,1.023,3.239,1.532
	c22.263,10.453,41.586,26.087,56.374,45.437c0.457,0.596,0.875,1.22,1.322,1.823c2.279,3.076,4.455,6.224,6.502,9.471
	c0.678,1.072,1.317,2.166,1.968,3.255c1.709,2.867,3.327,5.786,4.849,8.771c0.688,1.348,1.364,2.697,2.013,4.068
	c1.353,2.864,2.593,5.783,3.77,8.741c0.59,1.481,1.203,2.945,1.748,4.449c1.12,3.098,2.086,6.261,3.007,9.448
	c0.401,1.386,0.867,2.742,1.229,4.144c1.183,4.59,2.198,9.246,2.952,13.992H352l31.84,31.84L408,264l23.84-23.84L464,208H430.48z"/>
<path style="fill:#59D541;" d="M383.84,239.84C380.16,312,326,370.96,256,382.08V352l-31.84,31.84L200,408l23.84,23.84L256,464
	v-33.52c96.48-11.44,171.92-91.68,175.84-190.32L408,264L383.84,239.84z"/>
<path style="fill:#A0D92A;" d="M224.16,383.84c-4.001-0.204-7.943-0.619-11.856-1.129c-0.964-0.125-1.925-0.254-2.884-0.398
	c-3.789-0.568-7.544-1.234-11.236-2.078c-0.605-0.138-1.193-0.316-1.796-0.461c-3.118-0.753-6.191-1.612-9.229-2.555
	c-1.151-0.356-2.299-0.709-3.439-1.092c-3.262-1.099-6.486-2.279-9.644-3.59c-1.269-0.525-2.5-1.114-3.752-1.672
	c-2.047-0.916-4.071-1.869-6.069-2.872c-1.517-0.759-3.03-1.514-4.518-2.321c-2.587-1.409-5.136-2.881-7.63-4.434
	c-1.796-1.115-3.535-2.302-5.28-3.489c-1.037-0.707-2.064-1.425-3.083-2.157c-6.086-4.361-11.823-9.15-17.194-14.34
	c-0.299-0.29-0.593-0.583-0.889-0.875c-11.715-11.507-21.56-24.865-29.078-39.644c-0.534-1.043-1.049-2.096-1.56-3.152
	c-0.96-2.001-1.919-3.997-2.793-6.045c-1.275-2.967-2.464-5.98-3.551-9.041c-0.447-1.267-0.827-2.562-1.241-3.844
	c-0.824-2.534-1.586-5.093-2.277-7.684c-0.317-1.198-0.634-2.393-0.923-3.603c-0.898-3.742-1.707-7.518-2.318-11.364H112
	l-31.84-31.84L56,200l-23.84,23.84L0,256h33.52c11.44,96.48,91.68,171.92,190.32,175.84L200,408L224.16,383.84z"/>
<path style="fill:#2D9CCA;" d="M208,81.92C138,93.04,83.84,152,80.16,224.16L112,256H81.92c0.611,3.846,1.419,7.623,2.318,11.364
	c0.29,1.208,0.604,2.406,0.923,3.603c0.691,2.591,1.453,5.15,2.277,7.684c0.416,1.28,0.792,2.579,1.241,3.844
	c1.087,3.061,2.276,6.074,3.551,9.041c0.878,2.044,1.829,4.048,2.793,6.045c0.51,1.056,1.026,2.109,1.56,3.152
	c3.861,7.544,8.298,14.748,13.304,21.512c23.235,17.129,51.457,27.872,82.113,29.436l31.84-31.84v30.08
	c70-11.12,124.16-70.08,127.84-142.24l-31.84-31.84h30.08c-3.901-24.555-13.788-47.083-27.967-66.245
	c-7.97-5.875-16.564-10.935-25.604-15.195c-1.081-0.509-2.144-1.047-3.239-1.532c-2.133-0.944-4.318-1.792-6.501-2.639
	c-1.632-0.634-3.267-1.256-4.925-1.834c-1.959-0.683-3.941-1.314-5.935-1.917c-2.024-0.613-4.07-1.168-6.129-1.697
	c-1.782-0.458-3.565-0.913-5.372-1.307c-2.507-0.546-5.048-0.986-7.6-1.406c-1.467-0.241-2.919-0.529-4.401-0.728
	c-4.089-0.549-8.22-0.968-12.407-1.182L208,112V81.92z M218.64,184L256,128l-10.16,56H312v24h16v48h-16v24h-69.68L208,328l4.8-48
	H136v-96H218.64z"/>
<path style="fill:#20557D;" d="M321.953,109.595c14.179,19.162,24.066,41.69,27.967,66.245h-30.08l31.84,31.84
	C348,279.84,293.84,338.8,223.84,349.92v-30.08L192,351.68c-30.656-1.563-58.878-12.306-82.113-29.436
	c4.777,6.456,10.063,12.511,15.774,18.132c0.296,0.292,0.59,0.585,0.889,0.875c5.363,5.193,11.12,9.975,17.194,14.34
	c1.019,0.732,2.046,1.45,3.083,2.157c1.742,1.188,3.487,2.373,5.28,3.489c2.494,1.553,5.042,3.025,7.63,4.434
	c1.485,0.809,3.003,1.561,4.518,2.321c1.998,1.003,4.022,1.956,6.069,2.872c1.25,0.559,2.484,1.146,3.752,1.672
	c3.158,1.311,6.382,2.492,9.644,3.59c1.138,0.384,2.289,0.735,3.439,1.092c3.039,0.943,6.112,1.802,9.229,2.555
	c0.602,0.146,1.191,0.323,1.796,0.461c3.691,0.844,7.447,1.51,11.236,2.078c0.958,0.144,1.92,0.272,2.884,0.398
	c3.913,0.51,7.855,0.925,11.856,1.129L256,352v30.08c70-11.12,124.16-70.08,127.84-142.24L352,208h30.08
	c-0.754-4.746-1.767-9.404-2.952-13.992c-0.362-1.402-0.828-2.758-1.229-4.144c-0.921-3.186-1.886-6.353-3.007-9.448
	c-0.544-1.503-1.157-2.968-1.748-4.449c-1.178-2.956-2.415-5.88-3.77-8.741c-0.649-1.371-1.325-2.72-2.013-4.068
	c-1.524-2.981-3.138-5.908-4.849-8.771c-0.651-1.09-1.291-2.183-1.968-3.255c-2.049-3.243-4.22-6.4-6.502-9.471
	c-0.448-0.603-0.866-1.227-1.322-1.823C343.939,128.372,333.584,118.17,321.953,109.595z"/>
<g>
	<polygon style="fill:#F1E200;" points="136,280 212.8,280 216,248 176,248 218.64,184 136,184 	"/>
	<polygon style="fill:#F1E200;" points="288,216 242.32,280 312,280 312,256 328,256 328,208 312,208 312,184 245.84,184 240,216 	
		"/>
</g>
<polygon style="fill:#FFFFFF;" points="216,248 212.8,280 208,328 242.32,280 288,216 240,216 245.84,184 256,128 218.64,184 
	176,248 "/>
<g>
</g>
<g>
</g>
<g>
</g>
<g>
</g>
<g>
</g>
<g>
</g>
<g>
</g>
<g>
</g>
<g>
</g>
<g>
</g>
<g>
</g>
<g>
</g>
<g>
</g>
<g>
</g>
<g>
</g>
</svg>
