<?xml version="1.0" encoding="iso-8859-1"?>
<!-- Generator: Adobe Illustrator 19.0.0, SVG Export Plug-In . SVG Version: 6.00 Build 0)  -->
<svg version="1.1" id="Capa_1" xmlns="http://www.w3.org/2000/svg" xmlns:xlink="http://www.w3.org/1999/xlink" x="0px" y="0px"
	 viewBox="0 0 464.72 464.72" style="enable-background:new 0 0 464.72 464.72;" xml:space="preserve">
<path style="fill:#2580A6;" d="M256.8,216.48l42.48,65.68l13.52-9.68l-2.4,14.48c22.48,7.36,45.52,11.04,69.76,8.96
	c12.4-1.12,24.72-3.6,36.64-7.36V119.92l-64,64v-64l-64,64v-64l-64,64h-96l-16-120h-32l-16,120h-32V292
	c4.88-7.04,10.64-13.6,17.28-19.2c6.88-5.92,14.56-10.72,22.72-14.64v-41.68h48v28c18.08-2.56,36.48-2.88,54.64-1.2l17.36-26.8
	H256.8z M376.8,216.48h16v16h-16V216.48z M376.8,248.48h16v16h-16V248.48z M344.8,216.48h16v16h-16V216.48z M344.8,248.48h16v16h-16
	V248.48z"/>
<path style="fill:#AEBBC4;" d="M176.8,64.48c56,0,48-64,48-64s-1.608,1.524-4.298,3.556c-4.126,17.337-15.559,36.444-46.165,36.444
	c-40,0-32-32-56-32c-2.095,0-3.946,0-5.692,0c-12.173,9.478-15.845,24-15.845,24s0,0,24,0S136.8,64.48,176.8,64.48z"/>
<path style="fill:#D0DFEA;" d="M174.337,40.48c30.606,0,42.038-19.106,46.165-36.444C214.27,8.744,201.563,16.48,184.8,16.48
	c-24,0-24-16-48-16c-10.428,0-18.271,3.418-24.155,8c1.746,0,3.597,0,5.692,0C142.337,8.48,134.337,40.48,174.337,40.48z"/>
<g>
	<circle style="fill:#F1E200;" cx="352.8" cy="56.48" r="16"/>
	<path style="fill:#F1E200;" d="M352.8,40.48l11.652-19.42c5.434-9.057-1.09-20.58-11.652-20.58s-17.086,11.522-11.652,20.58
		L352.8,40.48z"/>
	<path style="fill:#F1E200;" d="M315.513,56.617l22.07-5.081l-14.869-17.083c-6.935-7.967-19.909-5.323-23.173,4.722
		C296.277,49.221,305.219,58.986,315.513,56.617z"/>
	<path style="fill:#F1E200;" d="M319.884,101.785c8.545,6.208,20.596,0.721,21.523-9.8l1.988-22.56l-20.841,8.862
		C312.833,82.42,311.339,95.577,319.884,101.785z"/>
	<path style="fill:#F1E200;" d="M383.046,78.287l-20.841-8.862l1.988,22.56c0.927,10.521,12.979,16.009,21.523,9.8
		C394.261,95.577,392.766,82.42,383.046,78.287z"/>
	<path style="fill:#F1E200;" d="M406.059,39.175c-3.264-10.045-16.239-12.689-23.173-4.722l-14.869,17.083l22.07,5.081
		C400.38,58.986,409.323,49.221,406.059,39.175z"/>
	<path style="fill:#F1E200;" d="M161.84,274.96c-2.32-0.08-4.56-0.16-6.88-0.16l-0.88,1.44L161.84,274.96z"/>
	<path style="fill:#F1E200;" d="M176.8,272.48l0.56,3.52l3.12,18.48l10.32-16.72l17.92-29.2l0.08-0.08h31.12l7.92,12.72l24.88,39.92
		l-2.8,2l-13.12,9.36l25.76,4.32l22.24,3.68l0.48-2.72l3.44-20.96l1.68-9.84l2.4-14.48l-13.52,9.68l-42.48-65.68h-64l-17.36,26.8
		l-20.48,31.52c2.32,0,4.56,0.08,6.88,0.16L176.8,272.48z"/>
</g>
<polygon style="fill:#1D9942;" points="304.8,320.48 282.56,316.8 304.8,352.48 296.473,364.971 288.8,376.48 240.8,376.48 
	240.8,360.48 224.8,376.48 208.8,392.48 224.8,408.48 240.8,424.48 240.8,408.48 304.8,408.48 335.588,365.376 344.8,352.48 
	326.4,324.08 308.72,296.8 305.28,317.76 "/>
<polygon style="fill:#25C656;" points="224.8,376.48 160.8,376.48 144.8,352.48 170.72,310.4 184.8,320.48 180.48,294.48 
	177.36,276 176.8,272.48 161.84,274.96 154.08,276.24 128.8,280.48 144.24,291.52 104.8,352.48 111.484,361.839 144.8,408.48 
	224.8,408.48 208.8,392.48 "/>
<path style="fill:#FFFFFF;" d="M72.8,216.48v41.68c13.92-6.72,29.28-10.8,44.64-13.2c1.12-0.16,2.24-0.32,3.36-0.48v-28H72.8z"/>
<g>
	<path style="fill:#84B323;" d="M446,308.8c-6.72,3.68-13.76,6.8-20.96,9.52c-2.72,1.04-5.44,1.92-8.24,2.8
		c-11.92,3.76-24.24,6.24-36.64,7.36c-18.48,1.6-36.32-0.16-53.76-4.4l18.4,28.4l-9.211,12.896
		c32.927-2.998,64.941-14.456,92.66-33.945l35.292-24.815c0.421-3.216,0.937-6.419,1.179-9.656
		C464.48,300.08,448.8,307.28,446,308.8z"/>
	<path style="fill:#84B323;" d="M111.484,361.839l-6.685-9.358l39.44-60.96l-15.44-11.04l25.28-4.24l0.88-1.44
		c-12.56-0.08-25.12,0.8-37.52,2.72c-24.32,3.84-48.64,11.84-67.36,27.84c-6.64,5.6-12.4,12.16-17.28,19.2
		C26,334,20.72,344.4,16.56,355.2c-6.8,17.44-11.36,36.08-14.48,54.48c-1.44,8.56-1.92,17.36-2.08,26.08
		c0,2.64,2.16,28.08,1.52,28.32c2.756-1.281,5.591-2.378,8.391-3.561c10.736-24.033,26.309-45.694,45.913-63.516
		C72.303,382.022,91.182,370.224,111.484,361.839z"/>
</g>
<path style="fill:#A0D92A;" d="M335.588,365.376L304.8,408.48h-64v16l-16-16h-80l-33.315-46.642
	c-20.302,8.385-39.181,20.184-55.661,35.166C36.22,414.826,20.647,436.487,9.911,460.52c39.856-16.832,83.833-23.756,126.889-19.72
	c52.16,4.96,102.8,25.44,155.12,23.28c43.84-1.76,86.72-20.16,118.24-50.64c29.189-28.226,48.11-66.561,53.381-106.824
	l-35.292,24.815C400.529,350.92,368.516,362.379,335.588,365.376z"/>
<path style="fill:#84B323;" d="M170.72,310.4l-25.293,41.063c8.352-1.743,16.808-3.086,25.395-3.699l11.533-0.824
	c22.78-1.627,45.667,0.84,67.576,7.284l14.386,4.231c10.598,3.117,21.356,5.276,32.157,6.516l8.327-12.491l-22.24-35.68l-25.76-4.32
	l13.12-9.36c-20.88-9.2-41.52-17.92-64.24-22.72c-4.96-1.04-9.84-1.92-14.88-2.64l-10.32,16.72l4.32,26L170.72,310.4z"/>
<path style="fill:#A0D92A;" d="M249.93,354.224c-21.91-6.444-44.796-8.911-67.576-7.284l-11.533,0.824
	c-8.587,0.613-17.043,1.957-25.395,3.699l-0.626,1.017l16,24h64l16-16v16h48l7.673-11.509c-10.801-1.239-21.559-3.398-32.157-6.516
	L249.93,354.224z"/>
<g>
	<rect x="376.8" y="216.48" style="fill:#FFFFFF;" width="16" height="16"/>
	<rect x="344.8" y="216.48" style="fill:#FFFFFF;" width="16" height="16"/>
	<rect x="344.8" y="248.48" style="fill:#FFFFFF;" width="16" height="16"/>
	<rect x="376.8" y="248.48" style="fill:#FFFFFF;" width="16" height="16"/>
</g>
<g>
</g>
<g>
</g>
<g>
</g>
<g>
</g>
<g>
</g>
<g>
</g>
<g>
</g>
<g>
</g>
<g>
</g>
<g>
</g>
<g>
</g>
<g>
</g>
<g>
</g>
<g>
</g>
<g>
</g>
</svg>
