<?xml version="1.0" encoding="iso-8859-1"?>
<!-- Generator: Adobe Illustrator 19.0.0, SVG Export Plug-In . SVG Version: 6.00 Build 0)  -->
<svg version="1.1" id="Capa_1" xmlns="http://www.w3.org/2000/svg" xmlns:xlink="http://www.w3.org/1999/xlink" x="0px" y="0px"
	 viewBox="0 0 496.129 496.129" style="enable-background:new 0 0 496.129 496.129;" xml:space="preserve">
<path style="fill:#59D541;" d="M313.104,451.833c-5.52-4.24-9.04-11.04-9.04-18.64c0-3.92,0.96-7.6,2.56-10.8
	c-7.52-2.72-15.28-4.96-23.04-6.56c-7.52,23.28-19.36,45.44-35.52,65.36c17.68,0,34.56-3.6,49.84-10.08h0.08
	c9.04-3.84,17.6-8.72,25.44-14.4c-1.12-0.24-2.24-0.56-3.36-0.96C317.504,454.873,315.185,453.593,313.104,451.833z"/>
<path style="fill:#F1E200;" d="M169.751,430.939c-0.719,0.361-1.421,0.767-2.136,1.14c-4.624,2.436-9.19,5.029-13.631,7.914
	c12.235,13.283,27.306,23.86,44.185,31.012c-11.243-12.451-20.485-26.05-27.515-40.476
	C170.357,430.678,170.047,430.789,169.751,430.939z"/>
<path style="fill:#039D7B;" d="M268.078,413.357c-1.677-0.195-3.362-0.267-5.042-0.414c-3.556-0.309-7.114-0.569-10.68-0.658
	c-1.938-0.048-3.876-0.008-5.814,0.008c-3.352,0.028-6.697,0.13-10.044,0.353c-1.97,0.131-3.938,0.303-5.903,0.501
	c-3.366,0.34-6.716,0.796-10.062,1.334c-1.885,0.304-3.77,0.594-5.646,0.96c-0.736,0.144-1.46,0.359-2.195,0.512
	c7.542,23.21,19.243,45.384,35.374,65.238v0c16.16-19.92,28-42.08,35.52-65.36C278.451,414.756,273.274,413.963,268.078,413.357z"/>
<path style="fill:#A0D92A;" d="M212.69,415.955c-2.787,0.583-5.564,1.221-8.326,1.942c-1.644,0.43-3.3,0.794-4.934,1.274
	c-4.263,1.25-8.475,2.706-12.653,4.294c-0.824,0.313-1.67,0.548-2.49,0.875c-4.617,1.834-9.151,3.94-13.633,6.189
	c7.03,14.426,16.272,28.025,27.515,40.476c15.347,6.502,32.18,10.188,49.895,10.188v0
	C231.933,461.339,220.233,439.166,212.69,415.955z"/>
<path style="fill:#F1E200;" d="M333.984,409.913c0.72,0.24,1.44,0.48,2.16,0.72c-0.08-0.48-0.08-0.96-0.08-1.44
	c0-13.28,10.72-24,24-24c4.08,0,7.92,1.04,11.2,2.8c3.12-11.04,4.8-22.72,4.8-34.8h-32.707
	C343.353,372.372,340.229,391.552,333.984,409.913z"/>
<path style="fill:#25C656;" d="M184.064,353.193h18.555c0-21.168,3.438-42.304,10.038-62.652
	c-14.438-3.015-28.546-7.935-42.011-14.679c-7.086,14.488-12.058,29.749-14.902,45.331c2.72,4.72,4.32,10.16,4.32,16h8
	C176.864,337.193,184.064,344.393,184.064,353.193z"/>
<path style="fill:#039D7B;" d="M325.467,275.87c-7.072-14.444-16.21-28.135-27.483-40.597h-0.08
	c-15.28-6.48-32.16-10.08-49.84-10.08c16.152,19.876,27.938,42.075,35.473,65.335C297.946,287.514,312.027,282.6,325.467,275.87z"/>
<path style="fill:#F1E200;" d="M202.619,353.193h-18.555c0,4.4-1.76,8.4-4.72,11.28c-2.88,2.96-6.88,4.72-11.28,4.72h-14.56
	c1.92,21.04,7.6,41.84,17.12,61.28c4.483-2.257,9.043-4.294,13.663-6.133c0.82-0.327,1.666-0.561,2.49-0.875
	c4.178-1.589,8.39-3.044,12.653-4.294c1.634-0.479,3.29-0.844,4.934-1.274c2.758-0.721,5.504-1.493,8.286-2.075
	C206.056,395.481,202.619,374.354,202.619,353.193z"/>
<path style="fill:#59D541;" d="M343.358,353.193h32.707c0-33.532-12.878-64.004-33.937-86.812
	c-5.412,3.506-10.981,6.645-16.661,9.488C337.379,300.201,343.364,326.689,343.358,353.193z"/>
<g>
	<path style="fill:#F1E200;" d="M293.443,353.193c0.003-21.166-3.316-42.32-9.906-62.665c-23.37,4.89-47.509,4.893-70.88,0.012
		c-6.6,20.349-10.038,41.484-10.038,62.652H293.443z"/>
	<path style="fill:#F1E200;" d="M342.128,266.382c-12.251-13.269-27.254-23.958-44.144-31.108
		c11.272,12.461,20.411,26.152,27.483,40.597C331.146,273.027,336.716,269.888,342.128,266.382z"/>
</g>
<path style="fill:#A0D92A;" d="M155.745,321.193c2.844-15.582,7.816-30.843,14.902-45.331c-5.636-2.822-11.163-5.937-16.536-9.413
	c-10.396,11.278-18.881,24.347-24.687,38.824C140.705,305.673,150.464,311.993,155.745,321.193z"/>
<path style="fill:#F1E200;" d="M198.145,235.273c-16.871,7.137-31.795,17.898-44.034,31.176c5.373,3.476,10.899,6.59,16.536,9.413
	C177.712,261.415,186.88,247.736,198.145,235.273z"/>
<path style="fill:#A0D92A;" d="M169.751,430.939c0.294-0.147,0.579-0.321,0.874-0.466c-9.52-19.44-15.2-40.24-17.12-61.28h-17.44
	c-1.28,0-2.48-0.16-3.68-0.48c-1.76,0.32-3.6,0.48-5.44,0.48h-5.84c3.36,27.12,15.2,51.68,32.88,70.8
	c4.44-2.885,9.007-5.478,13.631-7.914C168.33,431.707,169.032,431.3,169.751,430.939z"/>
<path style="fill:#25C656;" d="M202.619,353.193c0,21.161,3.437,42.288,10.031,62.629c0.741-0.155,1.493-0.235,2.235-0.38
	c1.876-0.367,3.761-0.657,5.646-0.96c3.346-0.539,6.696-0.994,10.062-1.334c1.966-0.199,3.933-0.37,5.903-0.501
	c3.347-0.223,6.692-0.324,10.044-0.353c1.938-0.016,3.876-0.057,5.814-0.008c3.566,0.089,7.125,0.349,10.68,0.658
	c1.681,0.146,3.366,0.218,5.042,0.414c5.196,0.606,10.373,1.399,15.506,2.476c6.59-20.329,9.855-41.483,9.858-62.64H202.619z"/>
<g>
	<path style="fill:#F1E200;" d="M212.657,290.541c7.541-23.25,19.25-45.462,35.407-65.348c-17.68,0-34.56,3.6-49.84,10.08h-0.08
		c-11.264,12.462-20.432,26.142-27.498,40.589C184.111,282.606,198.22,287.526,212.657,290.541z"/>
	<path style="fill:#F1E200;" d="M293.443,353.193c-0.003,21.156-3.269,42.311-9.858,62.64c7.76,1.6,15.52,3.84,23.04,6.56
		c3.92-7.84,12.08-13.2,21.44-13.2c2.08,0,4.08,0.24,5.92,0.72c6.245-18.361,9.369-37.541,9.374-56.72H293.443z"/>
</g>
<g>
	<path style="fill:#A0D92A;" d="M283.537,290.529c-7.534-23.26-19.321-45.459-35.473-65.335
		c-16.157,19.885-27.867,42.098-35.407,65.348C236.028,295.422,260.167,295.418,283.537,290.529z"/>
	<path style="fill:#A0D92A;" d="M343.358,353.193c0.006-26.504-5.979-52.993-17.891-77.323c-13.44,6.729-27.521,11.644-41.93,14.659
		c6.59,20.345,9.909,41.499,9.906,62.665H343.358z"/>
</g>
<circle style="fill:#F1E200;" cx="248.064" cy="73.193" r="24"/>
<path style="fill:#D0DFEA;" d="M132.384,368.713c-7.04-1.6-12.32-8-12.32-15.52c0-0.56,0-1.12,0.08-1.6c0.4-3.76,2.08-7.2,4.64-9.68
	c2.88-2.96,6.88-4.72,11.28-4.72h24c0-5.84-1.6-11.28-4.32-16c-5.28-9.2-15.04-15.52-26.32-15.92c-0.48-0.08-0.88-0.08-1.36-0.08
	c-14.88,0-27.44,10.16-30.96,24h-13.04c-5.52,0-10.56,2.24-14.16,5.84c-3.36,3.36-5.52,7.92-5.84,12.96
	c-0.64,11.6,9.6,21.2,25.44,21.2h31.6h5.84C128.785,369.193,130.625,369.033,132.384,368.713z"/>
<path style="fill:#FFFFFF;" d="M179.344,364.473c2.96-2.88,4.72-6.88,4.72-11.28c0-8.8-7.2-16-16-16h-8h-24
	c-4.4,0-8.4,1.76-11.28,4.72c-2.56,2.48-4.24,5.92-4.64,9.68c-0.08,0.48-0.08,1.04-0.08,1.6c0,7.52,5.28,13.92,12.32,15.52
	c1.2,0.32,2.4,0.48,3.68,0.48h17.44h14.56C172.464,369.193,176.464,367.433,179.344,364.473z"/>
<path style="fill:#D0DFEA;" d="M392.064,393.193c-4.32,0-8.4,0.88-12.16,2.48c-2.16-3.2-5.12-5.84-8.64-7.68
	c-3.28-1.76-7.12-2.8-11.2-2.8c-13.28,0-24,10.72-24,24c0,0.48,0,0.96,0.08,1.44c-0.72-0.24-1.44-0.48-2.16-0.72
	c-1.84-0.48-3.84-0.72-5.92-0.72c-9.36,0-17.52,5.36-21.44,13.2c-1.6,3.2-2.56,6.88-2.56,10.8c0,7.6,3.52,14.4,9.04,18.64
	c2.08,1.76,4.4,3.04,6.96,3.92c1.12,0.4,2.24,0.72,3.36,0.96c1.52,0.32,3.04,0.48,4.64,0.48h64c17.68,0,32-14.32,32-32
	C424.064,407.513,409.745,393.193,392.064,393.193z"/>
<path style="fill:#2D9CCA;" d="M160.064,65.193c0,0-25.463-19.059-48-23.178v46.356C134.601,84.252,160.064,65.193,160.064,65.193z"
	/>
<g>
	<polygon style="fill:#A0D92A;" points="104.064,41.193 80.064,17.193 40.064,17.193 72.064,49.193 83.146,46.423 	"/>
	<polygon style="fill:#A0D92A;" points="72.064,81.193 40.064,113.193 80.064,113.193 104.064,89.193 83.146,83.964 	"/>
</g>
<g>
	<polygon style="fill:#F1E200;" points="72.064,65.193 40.064,49.193 16.064,65.193 40.064,81.193 	"/>
	<path style="fill:#F1E200;" d="M397.344,72.313c4.32,5.52,11.12,9.04,18.72,9.04s14.4-3.52,18.72-9.04
		c-5.92,0.48-12.24,0.72-18.72,0.72S403.265,72.793,397.344,72.313z"/>
</g>
<path style="fill:#2D9CCA;" d="M397.344,72.313c5.92,0.48,12.24,0.72,18.72,0.72s12.8-0.24,18.72-0.72
	c3.28-4.08,5.28-9.28,5.28-14.96c0-5.84-2.08-11.12-5.52-15.28c-4.32-5.36-11.04-8.72-18.48-8.72s-14.16,3.36-18.48,8.72
	c-3.44,4.16-5.52,9.44-5.52,15.28C392.064,63.033,394.064,68.233,397.344,72.313z"/>
<path style="fill:#F1E200;" d="M397.344,72.313c-3.28-4.08-5.28-9.28-5.28-14.96c0-5.84,2.08-11.12,5.52-15.28
	c-26.32,1.92-45.52,8-45.52,15.12S371.104,70.393,397.344,72.313z"/>
<path style="fill:#A0D92A;" d="M434.785,72.313c26.24-1.92,45.28-8,45.28-15.12s-19.2-13.2-45.52-15.12
	c3.44,4.16,5.52,9.44,5.52,15.28C440.064,63.033,438.064,68.233,434.785,72.313z"/>
<path style="fill:#CCCCCC;" d="M72.064,81.193l11.082,2.771l20.918,5.229c2.587,0,5.277-0.324,8-0.822V42.015
	c-2.723-0.498-5.413-0.822-8-0.822l-20.918,5.229l-11.082,2.771v8v8v8V81.193z"/>
<path style="fill:#2F6780;" d="M58.393,443.389c0.219-3.074-1.344-6-4.023-7.523l-18.781-10.664l5.719-20.824
	c0.82-2.973-0.141-6.148-2.469-8.168l-16.32-14.145l9.695-19.305c1.383-2.754,1.063-6.059-0.828-8.496l-13.258-17.07l13.258-17.07
	c1.891-2.438,2.211-5.742,0.828-8.496l-9.695-19.305l16.32-14.156c2.328-2.016,3.289-5.191,2.469-8.16l-5.719-20.832l18.789-10.668
	c2.68-1.523,4.242-4.449,4.023-7.527l-1.531-21.543l20.508-6.797c2.93-0.969,5.039-3.539,5.422-6.598l2.688-21.438l21.438-2.688
	c3.063-0.383,5.633-2.492,6.602-5.422l6.797-20.504l21.539,1.535c3.227,0.227,6.008-1.348,7.523-4.031l10.672-18.781l20.828,5.727
	l4.234-15.43l-26.828-7.375c-3.531-0.953-7.266,0.582-9.07,3.766l-11.25,19.805l-22.719-1.617c-3.773-0.25-7.016,1.988-8.164,5.465
	l-7.164,21.617l-22.594,2.832c-3.633,0.453-6.492,3.313-6.945,6.941l-2.836,22.598l-21.617,7.164
	c-3.477,1.152-5.727,4.512-5.461,8.16l1.617,22.719l-19.813,11.25c-3.18,1.809-4.734,5.547-3.758,9.074l6.031,21.973L7.33,284.311
	c-2.766,2.395-3.547,6.363-1.906,9.633l10.227,20.355L1.682,332.287c-2.242,2.887-2.242,6.926,0,9.813l13.969,17.988L5.424,380.443
	c-1.641,3.27-0.859,7.238,1.906,9.637l17.219,14.918l-6.039,21.965c-0.977,3.531,0.578,7.27,3.758,9.078l19.813,11.246
	l-1.617,22.723c-0.266,3.648,1.984,7.008,5.461,8.16l26.406,8.75l5.031-15.188l-20.5-6.793L58.393,443.389z"/>
<g>
	<rect x="240.064" y="9.193" style="fill:#DA6901;" width="16" height="16"/>
	
		<rect x="191.567" y="37.197" transform="matrix(-0.5001 0.866 -0.866 -0.5001 338.5063 -105.0158)" style="fill:#DA6901;" width="15.992" height="15.992"/>
	
		<rect x="191.565" y="93.196" transform="matrix(-0.866 0.5001 -0.5001 -0.866 422.98 89.0118)" style="fill:#DA6901;" width="15.992" height="15.992"/>
	<rect x="240.064" y="121.193" style="fill:#DA6901;" width="16" height="16"/>
	
		<rect x="288.553" y="93.212" transform="matrix(-0.5001 0.866 -0.866 -0.5001 532.5038 -104.9711)" style="fill:#DA6901;" width="15.992" height="15.992"/>
	
		<rect x="288.542" y="37.202" transform="matrix(-0.866 0.5001 -0.5001 -0.866 575.9303 -63.971)" style="fill:#DA6901;" width="15.992" height="15.992"/>
</g>
<path style="fill:#2F6780;" d="M494.447,332.287l-13.969-17.988l10.227-20.355c1.641-3.27,0.859-7.238-1.906-9.637l-17.219-14.918
	l6.039-21.965c0.977-3.531-0.578-7.27-3.758-9.078L454.049,227.1l1.617-22.723c0.266-3.648-1.984-7.008-5.461-8.16l-21.609-7.16
	l-2.836-22.602c-0.453-3.629-3.313-6.488-6.945-6.941l-22.594-2.832l-7.164-21.617c-1.156-3.473-4.555-5.727-8.156-5.465
	l-22.727,1.613l-11.258-19.809c-1.805-3.188-5.531-4.723-9.07-3.766l-26.828,7.371l4.234,15.43l20.828-5.723l10.672,18.781
	c1.516,2.684,4.477,4.266,7.516,4.031l21.555-1.527l6.797,20.504c0.969,2.93,3.539,5.039,6.602,5.422l21.438,2.688l2.688,21.441
	c0.383,3.059,2.492,5.629,5.422,6.598l20.5,6.793l-1.531,21.551c-0.219,3.074,1.344,6,4.023,7.523l18.781,10.664l-5.719,20.824
	c-0.82,2.973,0.141,6.148,2.469,8.168l16.32,14.145l-9.695,19.305c-1.383,2.754-1.063,6.059,0.828,8.496l13.258,17.07l-13.258,17.07
	c-1.891,2.438-2.211,5.742-0.828,8.496l9.695,19.305l-16.32,14.156c-2.328,2.016-3.289,5.191-2.469,8.16l5.719,20.832
	l-18.789,10.668c-2.68,1.523-4.242,4.449-4.023,7.523l1.531,21.547l-20.508,6.797l5.031,15.188l26.414-8.754
	c3.477-1.152,5.727-4.512,5.461-8.164l-1.617-22.715l19.813-11.25c3.18-1.809,4.734-5.547,3.758-9.074l-6.031-21.973l17.219-14.93
	c2.766-2.395,3.547-6.363,1.906-9.633l-10.227-20.355l13.969-17.988C496.689,339.213,496.689,335.174,494.447,332.287z"/>
<g>
	<path style="fill:#F1E200;" d="M321.635,209.037l69.492-13.898l-5.484,60.32l-11.922-11.922l-11.313,11.313l24,24
		c1.539,1.535,3.586,2.344,5.656,2.344c1.219,0,2.438-0.277,3.578-0.844l32-16l-7.156-14.313l-19.153,9.577l6.7-73.698
		c0.227-2.512-0.742-4.984-2.625-6.672c-1.875-1.688-4.453-2.391-6.914-1.895l-74.273,14.855l-37.164-66.898l-13.984,7.773l40,72
		C314.76,208.111,318.205,209.725,321.635,209.037z"/>
	<path style="fill:#F1E200;" d="M183.057,205.08l40-72l-13.984-7.773l-37.164,66.898L97.635,177.35
		c-2.477-0.496-5.047,0.207-6.914,1.895c-1.883,1.688-2.852,4.16-2.625,6.672l6.7,73.698l-19.153-9.577l-7.156,14.313l32,16
		c1.141,0.566,2.359,0.844,3.578,0.844c2.07,0,4.117-0.809,5.656-2.344l24-24l-11.313-11.313l-11.922,11.922l-5.484-60.32
		l69.492,13.898C177.932,209.732,181.369,208.111,183.057,205.08z"/>
</g>
<g>
</g>
<g>
</g>
<g>
</g>
<g>
</g>
<g>
</g>
<g>
</g>
<g>
</g>
<g>
</g>
<g>
</g>
<g>
</g>
<g>
</g>
<g>
</g>
<g>
</g>
<g>
</g>
<g>
</g>
</svg>
