<?xml version="1.0" encoding="iso-8859-1"?>
<!-- Generator: Adobe Illustrator 19.0.0, SVG Export Plug-In . SVG Version: 6.00 Build 0)  -->
<svg version="1.1" id="Capa_1" xmlns="http://www.w3.org/2000/svg" xmlns:xlink="http://www.w3.org/1999/xlink" x="0px" y="0px"
	 viewBox="0 0 472 472" style="enable-background:new 0 0 472 472;" xml:space="preserve">
<polygon style="fill:#E2CC03;" points="260,40 236,0 236,40 "/>
<polygon style="fill:#F1E200;" points="236,0 212,40 236,40 "/>
<polygon style="fill:#E2CC03;" points="171.79,63.215 125.149,64 159.79,84 "/>
<polygon style="fill:#F1E200;" points="159.79,84 125.149,64 147.79,104.785 "/>
<polygon style="fill:#E2CC03;" points="147.79,151.215 125.149,192 159.79,172 "/>
<polygon style="fill:#F1E200;" points="159.79,172 125.149,192 171.79,192.785 "/>
<polygon style="fill:#E2CC03;" points="212,216 236,256 236,216 "/>
<polygon style="fill:#F1E200;" points="236,256 260,216 236,216 "/>
<polygon style="fill:#E2CC03;" points="312.21,172 300.21,192.785 346.851,192 "/>
<polygon style="fill:#F1E200;" points="324.21,151.215 312.21,172 346.851,192 "/>
<polygon style="fill:#E2CC03;" points="324.21,104.785 346.851,64 312.21,84 "/>
<g>
	<polygon style="fill:#F1E200;" points="346.851,64 300.21,63.215 312.21,84 	"/>
	<path style="fill:#F1E200;" d="M236,184V72c-30.928,0-56,25.072-56,56C180,158.928,205.072,184,236,184z"/>
</g>
<path style="fill:#E2CC03;" d="M292,128c0-30.928-25.072-56-56-56v112C266.928,184,292,158.928,292,128z"/>
<g>
	<path style="fill:#B3C0C9;" d="M100,384c-13.234,0-24,10.766-24,24s10.766,24,24,24h8c4.41,0,8,3.59,8,8s-3.59,8-8,8H36v16h72
		c13.234,0,24-10.766,24-24s-10.766-24-24-24h-8c-4.41,0-8-3.59-8-8s3.59-8,8-8h64v-16H100z"/>
	<path style="fill:#B3C0C9;" d="M364,448c-4.41,0-8-3.59-8-8s3.59-8,8-8h8c13.234,0,24-10.766,24-24s-10.766-24-24-24h-64v16h64
		c4.41,0,8,3.59,8,8s-3.59,8-8,8h-8c-13.234,0-24,10.766-24,24s10.766,24,24,24h72v-16H364z"/>
</g>
<g>
	<path style="fill:#183F5E;" d="M439.907,376.595l-54.251-54.251l-11.313,11.313l54.251,54.251
		C430.063,382.38,434.38,378.063,439.907,376.595z"/>
	<polygon style="fill:#183F5E;" points="436,448 436,464 436,472 452,472 452,408 444,408 436,408 	"/>
	<path style="fill:#183F5E;" d="M43.405,387.907l54.251-54.251l-11.313-11.313l-54.251,54.251
		C37.62,378.063,41.938,382.38,43.405,387.907z"/>
	<polygon style="fill:#183F5E;" points="36,408 28,408 20,408 20,472 36,472 36,464 36,448 	"/>
</g>
<polygon style="fill:#2D9CCA;" points="388,272 340,272 308,304 356,304 "/>
<g>
	<polygon style="fill:#1B7DA4;" points="308,304 276,336 324,336 356,304 	"/>
	<polygon style="fill:#1B7DA4;" points="388,272 420,240 372,240 340,272 	"/>
</g>
<g>
	<polygon style="fill:#2D9CCA;" points="436,272 468,240 420,240 388,272 	"/>
	<polygon style="fill:#2D9CCA;" points="324,336 372,336 389.36,318.64 404,304 356,304 	"/>
</g>
<polygon style="fill:#1B7DA4;" points="356,304 404,304 434.64,273.36 436,272 388,272 "/>
<path style="fill:#F1E200;" d="M444,376c-1.424,0-2.779,0.246-4.093,0.595c-5.527,1.468-9.845,5.785-11.313,11.313
	C428.246,389.221,428,390.576,428,392c0,8.836,7.164,16,16,16s16-7.164,16-16C460,383.163,452.836,376,444,376z"/>
<polygon style="fill:#2D9CCA;" points="132,272 100,240 52,240 84,272 "/>
<g>
	<polygon style="fill:#1B7DA4;" points="84,272 52,240 4,240 36,272 	"/>
	<polygon style="fill:#1B7DA4;" points="116,304 164,304 132,272 84,272 	"/>
</g>
<polygon style="fill:#2D9CCA;" points="148,336 196,336 164,304 116,304 "/>
<polygon style="fill:#1B7DA4;" points="68,304 82.64,318.64 100,336 148,336 116,304 "/>
<polygon style="fill:#2D9CCA;" points="84,272 36,272 37.36,273.36 68,304 116,304 "/>
<path style="fill:#F1E200;" d="M44,392c0-1.424-0.246-2.779-0.595-4.093c-1.468-5.527-5.786-9.845-11.313-11.313
	C30.779,376.246,29.424,376,28,376c-8.836,0-16,7.163-16,16c0,8.836,7.164,16,16,16S44,400.836,44,392z"/>
<path style="fill:#A0D92A;" d="M233.656,445.656l-11.313-11.313l8.152-8.152l-6.074-3.035c-2.301-1.152-3.906-3.336-4.32-5.875
	c-0.41-2.539,0.422-5.121,2.242-6.938L236,396.688V376h-32h-16h-24v8v16v64h72v-20.688L233.656,445.656z"/>
<path style="fill:#4BB437;" d="M308,376h-24h-16h-32v20.688l2.344-2.344l11.313,11.313l-8.152,8.152l6.074,3.035
	c2.301,1.152,3.906,3.336,4.32,5.875c0.41,2.539-0.422,5.121-2.242,6.938L236,443.313V464h72v-64v-16V376z"/>
<g>
	<rect x="188" y="360" style="fill:#F1E200;" width="16" height="16"/>
	<rect x="268" y="360" style="fill:#F1E200;" width="16" height="16"/>
	<path style="fill:#F1E200;" d="M220.102,417.281c0.414,2.539,2.02,4.723,4.32,5.875l6.074,3.035l-8.152,8.152l11.313,11.313
		l2.344-2.344l13.656-13.656c1.82-1.816,2.652-4.398,2.242-6.938c-0.414-2.539-2.02-4.723-4.32-5.875l-6.074-3.035l8.152-8.152
		l-11.313-11.313L236,396.688l-13.656,13.656C220.523,412.16,219.691,414.742,220.102,417.281z"/>
</g>
<g>
</g>
<g>
</g>
<g>
</g>
<g>
</g>
<g>
</g>
<g>
</g>
<g>
</g>
<g>
</g>
<g>
</g>
<g>
</g>
<g>
</g>
<g>
</g>
<g>
</g>
<g>
</g>
<g>
</g>
</svg>
