<?xml version="1.0" encoding="iso-8859-1"?>
<!-- Generator: Adobe Illustrator 19.0.0, SVG Export Plug-In . SVG Version: 6.00 Build 0)  -->
<svg version="1.1" id="Capa_1" xmlns="http://www.w3.org/2000/svg" xmlns:xlink="http://www.w3.org/1999/xlink" x="0px" y="0px"
	 viewBox="0 0 480 480" style="enable-background:new 0 0 480 480;" xml:space="preserve">
<polygon style="fill:#D0DFEA;" points="188,288 188,344 196,344 196,384 196,424 188,424 188,472 244,472 244,464 260,464 260,424 
	228,424 228,384 228,344 268,344 308,344 308,384 308,424 276,424 276,464 292,464 292,472 372,472 372,288 "/>
<path style="fill:#AEBBC4;" d="M372,288v184h96V288l-48-40L372,288z M449.121,342.148L418.098,368H444
	c3.367,0,6.375,2.109,7.523,5.273c1.145,3.172,0.184,6.719-2.402,8.875l-48,40l-10.242-12.297L421.902,384H396
	c-3.367,0-6.375-2.109-7.523-5.273c-1.145-3.172-0.184-6.719,2.402-8.875l48-40L449.121,342.148z"/>
<polygon style="fill:#25C656;" points="396,192 404,192 404,161.84 404,160 388,160 372,160 372,161.84 372,192 380,192 388,192 "/>
<g>
	<polygon style="fill:#F1E200;" points="124,8 108,40 140,40 	"/>
	<polygon style="fill:#F1E200;" points="64.506,61.213 29.438,54.121 44.805,86.43 	"/>
	<polygon style="fill:#F1E200;" points="34.743,133.764 7.564,157.03 42.485,164.814 	"/>
	<polygon style="fill:#F1E200;" points="73.59,201.884 75.191,237.625 102.824,214.9 	"/>
	<polygon style="fill:#F1E200;" points="151.187,213.211 180.336,233.954 179.44,198.188 	"/>
	<polygon style="fill:#F1E200;" points="242.177,148.838 213.441,127.524 207.885,159.038 	"/>
	<polygon style="fill:#F1E200;" points="213.177,47.704 178.69,57.226 200.103,81.007 	"/>
</g>
<polygon style="fill:#A0D92A;" points="52,344 44,344 44,384 84,384 84,344 68,344 60,344 "/>
<polygon style="fill:#25C656;" points="44,384 4,384 4,424 36,424 44,424 "/>
<g>
	<rect x="4" y="344" style="fill:#2D9CCA;" width="40" height="40"/>
	<polygon style="fill:#2D9CCA;" points="44,424 52,424 84,424 84,384 44,384 	"/>
	<rect x="116" y="344" style="fill:#2D9CCA;" width="40" height="40"/>
</g>
<polygon style="fill:#A0D92A;" points="196,384 196,344 188,344 156,344 156,384 "/>
<polygon style="fill:#25C656;" points="156,384 116,384 116,424 148,424 156,424 "/>
<g>
	<polygon style="fill:#2D9CCA;" points="196,384 156,384 156,424 164,424 188,424 196,424 	"/>
	<polygon style="fill:#2D9CCA;" points="268,424 276,424 308,424 308,384 268,384 	"/>
</g>
<polygon style="fill:#25C656;" points="268,384 228,384 228,424 260,424 268,424 "/>
<rect x="228" y="344" style="fill:#2D9CCA;" width="40" height="40"/>
<g>
	<rect x="268" y="344" style="fill:#A0D92A;" width="40" height="40"/>
	<polygon style="fill:#A0D92A;" points="420,248 396,248 388,248 380,248 228,248 188,288 372,288 	"/>
</g>
<path style="fill:#DBCE00;" d="M180,128c0-29.969-23.561-54.368-53.159-55.856l-1.324,111.78C155.736,183.112,180,158.416,180,128z"
	/>
<g>
	<path style="fill:#F1E200;" d="M126.841,72.144C125.894,72.096,124.959,72,124,72c-30.928,0-56,25.072-56,56
		c0,30.928,25.072,56,56,56c0.512,0,1.008-0.063,1.517-0.077L126.841,72.144z"/>
	<rect x="380" style="fill:#F1E200;" width="16" height="16"/>
	
		<rect x="323.433" y="23.43" transform="matrix(-0.707 0.7072 -0.7072 -0.707 587.9781 -180.7489)" style="fill:#F1E200;" width="16" height="16"/>
	<rect x="300" y="80" style="fill:#F1E200;" width="16" height="16"/>
	
		<rect x="323.427" y="136.56" transform="matrix(-0.7071 0.7071 -0.7071 -0.7071 668.0004 12.4262)" style="fill:#F1E200;" width="16" height="16"/>
	
		<rect x="436.555" y="136.57" transform="matrix(-0.707 0.7072 -0.7072 -0.707 861.0925 -67.6255)" style="fill:#F1E200;" width="16" height="16"/>
	<rect x="460" y="80" style="fill:#F1E200;" width="16" height="16"/>
	
		<rect x="436.563" y="23.437" transform="matrix(-0.7071 0.7071 -0.7071 -0.7071 781.145 -260.6876)" style="fill:#F1E200;" width="16" height="16"/>
</g>
<polygon style="fill:#183F5E;" points="396,248 396,192 388,192 380,192 380,248 388,248 "/>
<path style="fill:#D0DFEA;" d="M388,160l-24-68.604c0-9.087,10.128-14.507,17.689-9.467c3.822,2.548,8.8,2.548,12.622,0
	C401.872,76.889,412,82.31,412,91.396L388,160h16v1.84c0.32-0.24,0.64-0.56,0.96-0.88c4.32-4.32,7.04-10.32,7.04-16.96
	c0-8.16,3.44-15.84,9.28-21.52c10.8-10.32,16.72-25.6,14.08-42.24c-3.28-20.8-20.64-37.44-41.6-39.92C364.72,36.96,340,59.6,340,88
	c0,13.84,5.84,26.24,15.2,35.04c5.76,5.36,8.8,13.04,8.8,20.96c0,6.64,2.72,12.64,7.04,16.96c0.32,0.32,0.64,0.64,0.96,0.88V160H388
	z"/>
<g>
	<path style="fill:#F1E200;" d="M394.311,81.93c-3.822,2.548-8.8,2.548-12.622,0C374.128,76.889,364,82.31,364,91.396L388,160
		l24-68.604C412,82.31,401.872,76.889,394.311,81.93z"/>
	<path style="fill:#F1E200;" d="M388.477,378.727c1.148,3.164,4.156,5.273,7.523,5.273h25.902l-31.023,25.852l10.242,12.297l48-40
		c2.586-2.156,3.547-5.703,2.402-8.875C450.375,370.109,447.367,368,444,368h-25.902l31.023-25.852l-10.242-12.297l-48,40
		C388.293,372.008,387.332,375.555,388.477,378.727z"/>
</g>
<g>
	<polygon style="fill:#183F5E;" points="36,424 36,464 20,464 20,480 68,480 68,464 52,464 52,424 44,424 	"/>
	<polygon style="fill:#183F5E;" points="148,424 148,464 132,464 132,480 180,480 180,464 164,464 164,424 156,424 	"/>
	<polygon style="fill:#183F5E;" points="276,464 276,424 268,424 260,424 260,464 244,464 244,472 244,480 292,480 292,472 292,464 
			"/>
	<rect x="116.48" y="240" style="fill:#183F5E;" width="16" height="16"/>
	<rect x="116.48" y="272" style="fill:#183F5E;" width="16" height="16"/>
	<rect x="116.48" y="304" style="fill:#183F5E;" width="16" height="16"/>
	
		<rect x="139.86" y="238.073" transform="matrix(-0.9397 0.3421 -0.3421 -0.9397 370.9759 426.713)" style="fill:#183F5E;" width="15.992" height="16"/>
	
		<rect x="150.807" y="268.144" transform="matrix(-0.9397 0.3421 -0.3421 -0.9397 402.4978 481.2943)" style="fill:#183F5E;" width="15.992" height="16"/>
	
		<rect x="161.763" y="298.239" transform="matrix(-0.9397 0.3421 -0.3421 -0.9397 434.0451 535.9215)" style="fill:#183F5E;" width="15.992" height="16"/>
	
		<rect x="93.116" y="238.067" transform="matrix(-0.3421 0.9397 -0.9397 -0.3421 366.925 235.2312)" style="fill:#183F5E;" width="16" height="15.992"/>
	
		<rect x="82.202" y="268.141" transform="matrix(-0.3419 0.9397 -0.9397 -0.3419 380.5385 285.7822)" style="fill:#183F5E;" width="16" height="15.992"/>
	
		<rect x="71.243" y="298.211" transform="matrix(-0.3421 0.9397 -0.9397 -0.3421 394.0823 336.5046)" style="fill:#183F5E;" width="16" height="15.992"/>
</g>
<g>
</g>
<g>
</g>
<g>
</g>
<g>
</g>
<g>
</g>
<g>
</g>
<g>
</g>
<g>
</g>
<g>
</g>
<g>
</g>
<g>
</g>
<g>
</g>
<g>
</g>
<g>
</g>
<g>
</g>
</svg>
