<?xml version="1.0" encoding="iso-8859-1"?>
<!-- Generator: Adobe Illustrator 19.0.0, SVG Export Plug-In . SVG Version: 6.00 Build 0)  -->
<svg version="1.1" id="Capa_1" xmlns="http://www.w3.org/2000/svg" xmlns:xlink="http://www.w3.org/1999/xlink" x="0px" y="0px"
	 viewBox="0 0 464 464" style="enable-background:new 0 0 464 464;" xml:space="preserve">
<path style="fill:#FFFFFF;" d="M463.979,340.22L424,304L463.979,340.22z"/>
<g>
	<path style="fill:#F1E200;" d="M0.024,340.218L0,340.211L0.024,340.218z"/>
	<polygon style="fill:#F1E200;" points="0,340.211 0.014,340.227 0.014,340.227 	"/>
	<path style="fill:#F1E200;" d="M463.986,340.227l0.014-0.016L463.986,340.227z"/>
	<polygon style="fill:#F1E200;" points="464,340.211 463.979,340.22 463.979,340.22 	"/>
	<polygon style="fill:#F1E200;" points="463.979,340.22 463.979,340.22 463.979,340.22 	"/>
</g>
<path style="fill:#20557D;" d="M419.942,163.263c-8.451,5.634-18.827,7.016-28.23,4.164c1.921,7.807,6.501,14.999,13.757,19.836
	c11.222,7.481,25.841,7.481,37.063,0c15.989-10.66,19.711-32.578,8.137-47.918L424,104l-2.24,2.969l6.319,8.375
	C439.653,130.685,435.931,152.603,419.942,163.263z"/>
<path style="fill:#2D9CCA;" d="M419.942,163.263c15.989-10.66,19.711-32.578,8.137-47.918l-6.319-8.375l-24.428,32.375
	c-6.323,8.379-7.932,18.685-5.62,28.083C401.115,170.279,411.491,168.897,419.942,163.263z"/>
<path style="fill:#D0DFEA;" d="M156.72,121.68c2.16,8.08,3.44,16.32,3.84,24.64L176,136l15.28,5.76
	c-2.24-15.44-9.28-29.36-19.68-39.92c-1.52-1.6-3.12-3.12-4.8-4.48c-4.32,4.72-9.12,8.64-14.24,11.68
	C154.24,113.2,155.6,117.44,156.72,121.68z"/>
<path style="fill:#2D9CCA;" d="M120,118.08V80c-6.055,0-11.87,0.718-17.528,2.146c-6.262,8.435-11.232,17.493-14.948,26.937
	C97.503,115.051,108.75,118.08,120,118.08z"/>
<g>
	<path style="fill:#20557D;" d="M87.523,109.083c3.716-9.444,8.686-18.502,14.948-26.937c-0.023,0.006-0.048,0.008-0.072,0.014
		c-10.96,2.8-20.96,8.08-29.2,15.2c4.32,4.72,9.12,8.64,14.24,11.68C87.467,109.056,87.497,109.066,87.523,109.083z"/>
	<path style="fill:#20557D;" d="M166.8,97.36c-8.24-7.12-18.24-12.4-29.2-15.2c6.32,8.4,11.28,17.44,14.96,26.88
		C157.68,106,162.48,102.08,166.8,97.36z"/>
</g>
<path style="fill:#D0DFEA;" d="M120,118.08c-11.25,0-22.497-3.029-32.477-8.998c-5.422,13.781-8.227,28.336-8.227,42.917H120V118.08
	z"/>
<path style="fill:#2D9CCA;" d="M79.296,152c0-14.582,2.805-29.137,8.227-42.917c-0.027-0.016-0.057-0.026-0.083-0.042
	c-5.12-3.04-9.92-6.96-14.24-11.68C57.76,110.56,48,130.16,48,152h31.28H79.296z"/>
<g>
	<path style="fill:#D0DFEA;" d="M152.56,109.04c-3.68-9.44-8.64-18.48-14.96-26.88C131.92,80.72,126.08,80,120,80v38.08
		C131.28,118.08,142.56,115.04,152.56,109.04z"/>
	<path style="fill:#D0DFEA;" d="M120,185.92V224c6.08,0,11.92-0.72,17.6-2.16c6.32-8.4,11.28-17.44,14.96-26.88
		C142.56,188.96,131.28,185.92,120,185.92z"/>
</g>
<path style="fill:#2D9CCA;" d="M152.56,194.96c-3.68,9.44-8.64,18.48-14.96,26.88c9.68-2.48,18.56-6.88,26.24-12.8l1.92-3.52
	C161.76,201.28,157.28,197.76,152.56,194.96z"/>
<g>
	<path style="fill:#20557D;" d="M87.523,194.917c3.716,9.444,8.686,18.501,14.948,26.936C108.129,223.281,113.945,224,120,224
		v-38.08C108.75,185.92,97.503,188.949,87.523,194.917z"/>
	<path style="fill:#20557D;" d="M87.523,194.917c-5.422-13.781-8.227-28.335-8.227-42.917H79.28H48c0,21.84,9.76,41.44,25.2,54.64
		c4.32-4.72,9.12-8.64,14.24-11.68C87.467,194.944,87.497,194.934,87.523,194.917z"/>
</g>
<g>
	<path style="fill:#2D9CCA;" d="M87.44,194.96c-5.12,3.04-9.92,6.96-14.24,11.68c8.24,7.12,18.24,12.4,29.2,15.2
		c0.023,0.006,0.048,0.007,0.071,0.013c-6.262-8.434-11.232-17.492-14.948-26.936C87.497,194.934,87.467,194.944,87.44,194.96z"/>
	<path style="fill:#2D9CCA;" d="M79.296,152c0,14.582,2.805,29.136,8.227,42.917c9.98-5.968,21.227-8.998,32.477-8.998V152H79.296z"
		/>
	<path style="fill:#2D9CCA;" d="M166.8,206.64c-0.4-0.4-0.72-0.8-1.04-1.12l-1.92,3.52c0.48-0.4,1.04-0.8,1.52-1.2
		S166.32,207.04,166.8,206.64z"/>
	<path style="fill:#2D9CCA;" d="M152,152l8.56-5.68c-0.4-8.32-1.68-16.56-3.84-24.64c-1.12-4.24-2.48-8.48-4.16-12.64
		c-10,6-21.28,9.04-32.56,9.04V152H152z"/>
</g>
<g>
	<path style="fill:#20557D;" d="M152,192v-40h-32v33.92c11.28,0,22.56,3.04,32.56,9.04c0.32-0.8,0.64-1.6,0.88-2.4L152,192z"/>
	<path style="fill:#20557D;" d="M153.44,192.56c-0.24,0.8-0.56,1.6-0.88,2.4c4.72,2.8,9.2,6.32,13.2,10.56
		c0.32,0.32,0.64,0.72,1.04,1.12c2.48-2.08,4.8-4.32,6.88-6.72l-6.56-2.4L153.44,192.56z"/>
</g>
<g>
	<polygon style="fill:#FBF8EC;" points="154.667,272 144,256 112,248 88,272 136,272 	"/>
	<polygon style="fill:#FBF8EC;" points="328,272 384,272 360,248 320,256 314.667,272 	"/>
</g>
<polygon style="fill:#E8E5D1;" points="152,320 184,304 232,304 272,304 304,320 368,320 373.36,304 384,272 328,272 320,296 
	272,280 184,280 144,296 136,272 88,272 98.64,304 104,320 "/>
<polygon style="fill:#FBF8EC;" points="154.667,272 136,272 144,296 184,280 272,280 320,296 328,272 314.667,272 "/>
<polygon style="fill:#E8E5D1;" points="296,264 319.81,254.476 312,192 283.852,203.259 "/>
<path style="fill:#FBF8EC;" d="M314.667,272L320,256l-0.19-1.524L296,264l-12.148-60.741L232,224l-58.32-24.08
	c-2.08,2.4-4.4,4.64-6.88,6.72c-0.48,0.4-0.96,0.8-1.44,1.2s-1.04,0.8-1.52,1.2L160,216l-16,40l10.667,16H314.667z"/>
<g>
	<polygon style="fill:#D0DFEA;" points="463.986,340.227 463.986,340.227 463.958,340.258 464,340.24 	"/>
	<polygon style="fill:#D0DFEA;" points="0.014,340.227 0.014,340.227 0,340.24 0.035,340.25 	"/>
	<polygon style="fill:#D0DFEA;" points="56,356.211 88,368 160,344 232,384 304,344 400,368 463.979,340.22 463.979,340.22 424,304 
		373.36,304 368,320 304,320 272,304 232,304 184,304 152,320 104,320 98.64,304 40,304 0.024,340.218 0.024,340.218 	"/>
</g>
<g>
	<polygon style="fill:#2D9CCA;" points="56,356.211 0.024,340.218 0,340.211 0.014,340.227 0.035,340.25 32,376 	"/>
	<polygon style="fill:#2D9CCA;" points="32,376 88,416 88,368 	"/>
</g>
<g>
	<polygon style="fill:#20557D;" points="56,356.211 32,376 88,368 	"/>
	<polygon style="fill:#20557D;" points="88,416 136,368 88,368 	"/>
</g>
<g>
	<polygon style="fill:#2D9CCA;" points="88,368 136,368 160,344 	"/>
	<polygon style="fill:#2D9CCA;" points="160,344 184,424 232,384 	"/>
</g>
<polygon style="fill:#20557D;" points="136,368 184,424 160,344 "/>
<polygon style="fill:#2D9CCA;" points="232,384 232,464 304,344 "/>
<g>
	<polygon style="fill:#20557D;" points="184,424 232,464 232,384 	"/>
	<polygon style="fill:#20557D;" points="232,464 344,392 304,344 	"/>
	<polygon style="fill:#20557D;" points="344,392 384,424 400,368 	"/>
</g>
<polygon style="fill:#2D9CCA;" points="304,344 344,392 400,368 "/>
<polygon style="fill:#20557D;" points="463.986,340.227 464,340.211 463.979,340.22 463.979,340.22 400,368 432,376 
	463.958,340.258 "/>
<polygon style="fill:#2D9CCA;" points="384,424 432,376 400,368 "/>
<polygon style="fill:#FBF8EC;" points="296,44 288,32 288.271,32.407 "/>
<g>
	<polygon style="fill:#E8E5D1;" points="256,96 232,88 232,120 288,96 304,56 296,44 296,64 	"/>
	<polygon style="fill:#E8E5D1;" points="232,88 200,96 160,56 176,96 232,120 	"/>
</g>
<path style="fill:#FBF8EC;" d="M232,88h-8l-8-24h32l-8,24H232l24,8l40-32V44l-7.729-11.593L288,32l16-16L272,0l-8,16l-32-8l-32,8
	l-8-16l-32,16l16,16l-4.364,6.545L160,56l40,40L232,88z M248,32h16v16h-16V32z M200,32h16v16h-16V32z"/>
<g>
	<polygon style="fill:#183F5E;" points="248,64 216,64 224,88 232,88 240,88 	"/>
	<rect x="200" y="32" style="fill:#183F5E;" width="16" height="16"/>
	<rect x="248" y="32" style="fill:#183F5E;" width="16" height="16"/>
</g>
<path style="fill:#FBF8EC;" d="M232,160l51.25-30.75L288,96l-56,24l-56-24l-4.4,5.84c10.4,10.56,17.44,24.48,19.68,39.92L232,160z"
	/>
<polygon style="fill:#E8E5D1;" points="283.25,129.25 312,112 304,56 288,96 "/>
<polygon style="fill:#D0DFEA;" points="232,224 312,192 309.52,192.96 "/>
<polygon style="fill:#FBF8EC;" points="232,160 191.28,141.76 176,136 160.56,146.32 152,152 152,192 200,192 232,208 312,160 
	336.186,121.302 336,120 312,112 283.25,129.25 "/>
<polygon style="fill:#E8E5D1;" points="232,208 200,192 152,192 153.44,192.56 167.12,197.52 173.68,199.92 232,224 309.52,192.96 
	312,192 344,176 336.186,121.302 312,160 "/>
<g>
</g>
<g>
</g>
<g>
</g>
<g>
</g>
<g>
</g>
<g>
</g>
<g>
</g>
<g>
</g>
<g>
</g>
<g>
</g>
<g>
</g>
<g>
</g>
<g>
</g>
<g>
</g>
<g>
</g>
</svg>
