<?xml version="1.0" encoding="iso-8859-1"?>
<!-- Generator: Adobe Illustrator 19.0.0, SVG Export Plug-In . SVG Version: 6.00 Build 0)  -->
<svg version="1.1" id="Capa_1" xmlns="http://www.w3.org/2000/svg" xmlns:xlink="http://www.w3.org/1999/xlink" x="0px" y="0px"
	 viewBox="0 0 464 464" style="enable-background:new 0 0 464 464;" xml:space="preserve">
<polygon style="fill:#25C656;" points="121.185,124.148 88,120 56,152 216,152 232,184 232,128 216,136 143.271,126.909 "/>
<polygon style="fill:#59D541;" points="56,152 88,120 100.444,107.556 96,104 105.992,91.508 111.826,96.174 120,88 128,80 72,24 
	71.3,24.7 79.431,45.027 64.572,50.973 58.988,37.012 22.033,73.967 23.97,95.277 8.033,96.723 7.303,88.697 0,96 "/>
<g>
	<polygon style="fill:#25C656;" points="128,40 72,24 128,80 	"/>
	<path style="fill:#25C656;" d="M232,376h8h24c17.673,0,32-14.327,32-32h-32C246.327,344,232,358.327,232,376z"/>
</g>
<g>
	<path style="fill:#A0D92A;" d="M200,376h-32c0,17.673,14.327,32,32,32h24v-20.964C218.134,380.326,209.613,376,200,376z"/>
	<path style="fill:#A0D92A;" d="M32,376H0c0,17.673,14.327,32,32,32h24h8C64,390.327,49.673,376,32,376z"/>
</g>
<path style="fill:#2D9CCA;" d="M201.468,266.887c-9.779,16.298-5.033,37.402,10.781,47.945c11.96,7.974,27.542,7.974,39.502,0
	c15.814-10.543,20.56-31.647,10.781-47.945L232,216L201.468,266.887z"/>
<path style="fill:#59D541;" d="M432,352c17.673,0,32-14.327,32-32h-32c-9.613,0-18.134,4.326-24,11.036V352H432z"/>
<path style="fill:#A0D92A;" d="M368,352h-32c0,17.673,14.327,32,32,32h24v-20.964C386.134,356.326,377.613,352,368,352z"/>
<path style="fill:#F1E200;" d="M432,288c17.673,0,32-14.327,32-32h-32c-9.613,0-18.134,4.326-24,11.036V288H432z"/>
<path style="fill:#25C656;" d="M368,288h-32c0,17.673,14.327,32,32,32h24v-20.964C386.134,292.326,377.613,288,368,288z"/>
<path style="fill:#59D541;" d="M432,224c17.673,0,32-14.327,32-32h-32c-9.613,0-18.134,4.326-24,11.036V224H432z"/>
<path style="fill:#A0D92A;" d="M368,224h-32c0,17.673,14.327,32,32,32h24v-20.964C386.134,228.326,377.613,224,368,224z"/>
<path style="fill:#F1E200;" d="M432,160c17.673,0,32-14.327,32-32h-32c-9.613,0-18.134,4.326-24,11.036V160H432z"/>
<path style="fill:#25C656;" d="M368,160h-32c0,17.673,14.327,32,32,32h24v-20.964C386.134,164.326,377.613,160,368,160z"/>
<path style="fill:#59D541;" d="M432,96c17.673,0,32-14.327,32-32h-32c-9.613,0-18.134,4.326-24,11.036V96H432z"/>
<path style="fill:#A0D92A;" d="M368,96h-32c0,17.673,14.327,32,32,32h24v-20.964C386.134,100.326,377.613,96,368,96z"/>
<path style="fill:#F1E200;" d="M432,32c17.673,0,32-14.327,32-32h-32c-17.673,0-32,14.327-32,32h8H432z"/>
<path style="fill:#25C656;" d="M368,32h-32c0,17.673,14.327,32,32,32h24V43.036C386.134,36.326,377.613,32,368,32z"/>
<g>
	<polygon style="fill:#DBCE00;" points="56,432 24,464 104,464 72,432 	"/>
	<polygon style="fill:#DBCE00;" points="192,464 272,464 240,432 224,432 	"/>
	<polygon style="fill:#DBCE00;" points="440,464 400,424 360,464 	"/>
</g>
<path style="fill:#59D541;" d="M23.97,95.277l-1.938-21.31L16.763,16h33.82l8.404,21.012l5.584,13.96l14.859-5.945L71.3,24.7
	L63.431,5.027C62.212,1.992,59.271,0,56.001,0h-48C5.755,0,3.611,0.945,2.095,2.605S-0.17,6.484,0.033,8.723l7.271,79.974
	l0.729,8.026L23.97,95.277z"/>
<g>
	<polygon style="fill:#183F5E;" points="224,376 224,387.036 224,408 224,432 240,432 240,376 232,376 	"/>
	<polygon style="fill:#183F5E;" points="72,408 64,408 56,408 56,432 72,432 	"/>
	<polygon style="fill:#183F5E;" points="408,75.036 408,32 400,32 392,32 392,43.036 392,64 392,107.036 392,128 392,171.036 
		392,192 392,235.036 392,256 392,299.036 392,320 392,363.036 392,384 392,424 400,424 408,424 408,352 408,331.036 408,288 
		408,267.036 408,224 408,203.036 408,160 408,139.036 408,96 	"/>
</g>
<polygon style="fill:#59D541;" points="96,104 100.444,107.556 121.185,124.148 151.535,127.942 111.826,96.174 105.992,91.508 "/>
<g>
</g>
<g>
</g>
<g>
</g>
<g>
</g>
<g>
</g>
<g>
</g>
<g>
</g>
<g>
</g>
<g>
</g>
<g>
</g>
<g>
</g>
<g>
</g>
<g>
</g>
<g>
</g>
<g>
</g>
</svg>
