<?xml version="1.0" encoding="iso-8859-1"?>
<!-- Generator: Adobe Illustrator 19.0.0, SVG Export Plug-In . SVG Version: 6.00 Build 0)  -->
<svg version="1.1" id="Capa_1" xmlns="http://www.w3.org/2000/svg" xmlns:xlink="http://www.w3.org/1999/xlink" x="0px" y="0px"
	 viewBox="0 0 480 480" style="enable-background:new 0 0 480 480;" xml:space="preserve">
<polygon style="fill:#2D9CCA;" points="312,216 240,184 240,216 "/>
<polygon style="fill:#20557D;" points="176,184 128,184 136,192 112,216 176,216 "/>
<rect x="176" y="184" style="fill:#1B7DA4;" width="64" height="32"/>
<path style="fill:#59D541;" d="M160,240c17.648,0,32,14.355,32,32h112c0-17.645,14.352-32,32-32s32,14.355,32,32h24l-8-8l8-32
	l-56-16h-24h-72h-64h-64v56h16C128,254.355,142.352,240,160,240z"/>
<g>
	<circle style="fill:#F1E200;" cx="160" cy="272" r="16"/>
	<circle style="fill:#F1E200;" cx="336" cy="272" r="16"/>
</g>
<g>
	<path style="fill:#183F5E;" d="M192,272c0-17.645-14.352-32-32-32s-32,14.355-32,32s14.352,32,32,32S192,289.645,192,272z M160,288
		c-8.82,0-16-7.176-16-16s7.18-16,16-16s16,7.176,16,16S168.82,288,160,288z"/>
	<path style="fill:#183F5E;" d="M336,240c-17.648,0-32,14.355-32,32s14.352,32,32,32s32-14.355,32-32S353.648,240,336,240z M336,288
		c-8.82,0-16-7.176-16-16s7.18-16,16-16s16,7.176,16,16S344.82,288,336,288z"/>
</g>
<path style="fill:#F1E200;" d="M256,408v-8h-56v8c0,4.418-3.578,8-8,8h-8v32h8c2.125,0,4.156,0.844,5.656,2.344L211.313,464h49.375
	L272,452.688V416h-8C259.578,416,256,412.418,256,408z"/>
<path style="fill:#1B7DA4;" d="M304,424h-16v-16c0-4.418-3.578-8-8-8h-8v-8c0-4.418-3.578-8-8-8h-72c-4.422,0-8,3.582-8,8v8h-8
	c-4.422,0-8,3.582-8,8v48c0,4.418,3.578,8,8,8h12.688l13.656,13.656c1.5,1.5,3.531,2.344,5.656,2.344h56
	c2.125,0,4.156-0.844,5.656-2.344l16-16c1.5-1.5,2.344-3.535,2.344-5.656v-16h16v24h16v-64h-16V424z M272,452.688L260.688,464
	h-49.375l-13.656-13.656c-1.5-1.5-3.531-2.344-5.656-2.344h-8v-32h8c4.422,0,8-3.582,8-8v-8h56v8c0,4.418,3.578,8,8,8h8V452.688z"/>
<path style="fill:#F1E200;" d="M288,64c0-4.418,3.578-8,8-8h8V40h-8c-4.422,0-8-3.582-8-8V16H184v64h104V64z M208,72h-16V24h16V72z
	 M232,72h-16V24h16V72z M256,72h-16V24h16V72z M280,72h-16V24h16V72z"/>
<g>
	<path style="fill:#1B7DA4;" d="M176,96h120c4.422,0,8-3.582,8-8V72h8c4.422,0,8-3.582,8-8V32c0-4.418-3.578-8-8-8h-8V8
		c0-4.418-3.578-8-8-8H176c-4.422,0-8,3.582-8,8v80C168,92.418,171.578,96,176,96z M184,16h104v16c0,4.418,3.578,8,8,8h8v16h-8
		c-4.422,0-8,3.582-8,8v16H184V16z"/>
	<rect x="192" y="24" style="fill:#1B7DA4;" width="16" height="48"/>
	<rect x="216" y="24" style="fill:#1B7DA4;" width="16" height="48"/>
	<rect x="240" y="24" style="fill:#1B7DA4;" width="16" height="48"/>
	<rect x="264" y="24" style="fill:#1B7DA4;" width="16" height="48"/>
</g>
<path style="fill:#F1E200;" d="M48,240c0-8.508-6.609-15.504-15.047-15.934c-0.297-0.012-0.594-0.047-0.891-0.094
	C23.18,224,16,231.176,16,240s7.18,16,16,16c0.297-0.047,0.656-0.055,0.953-0.066C41.391,255.504,48,248.508,48,240z"/>
<path style="fill:#1B7DA4;" d="M42.273,270.305c0.812-0.272,1.562-0.662,2.343-0.996c0.565-0.242,1.144-0.446,1.69-0.719
	c1.523-0.76,2.982-1.627,4.353-2.611c0.104-0.075,0.225-0.129,0.328-0.205c1.464-1.078,2.81-2.301,4.067-3.608
	c0.392-0.408,0.726-0.859,1.096-1.287c0.823-0.952,1.61-1.934,2.317-2.98c0.375-0.554,0.709-1.127,1.05-1.705
	c0.601-1.021,1.145-2.078,1.632-3.167c0.277-0.621,0.548-1.236,0.787-1.877c0.441-1.189,0.786-2.421,1.086-3.671
	c0.14-0.585,0.319-1.149,0.426-1.747C63.785,243.867,64,241.959,64,240s-0.215-3.867-0.552-5.731
	c-0.107-0.597-0.286-1.162-0.426-1.747c-0.3-1.25-0.645-2.482-1.086-3.671c-0.238-0.641-0.509-1.256-0.787-1.877
	c-0.487-1.09-1.031-2.146-1.632-3.167c-0.34-0.578-0.675-1.151-1.05-1.705c-0.707-1.046-1.494-2.028-2.317-2.98
	c-0.37-0.428-0.704-0.879-1.096-1.287c-1.257-1.307-2.603-2.53-4.067-3.608c-0.104-0.076-0.224-0.13-0.328-0.205
	c-1.371-0.984-2.83-1.852-4.353-2.611c-0.547-0.272-1.125-0.477-1.69-0.719c-0.781-0.334-1.531-0.724-2.343-0.996
	C51.143,151.233,85.496,99.919,136,69.162V88h16V55.426c0-3.723-2.563-6.953-6.195-7.793l-32-7.426l-3.609,15.586l12.509,2.903
	c-52.153,33.733-87.342,88.163-96.329,149.873C11.411,211.243,0,224.281,0,240s11.411,28.757,26.375,31.431
	c9.967,68.448,52.111,128.022,113.929,160.233l7.391-14.188C90.805,387.828,51.813,333.188,42.273,270.305z M32,256
	c-8.82,0-16-7.176-16-16s7.18-16,16.063-16.027c0.297,0.047,0.594,0.082,0.891,0.094C41.391,224.496,48,231.492,48,240
	s-6.609,15.504-15.047,15.934C32.656,255.945,32.297,255.953,32,256z"/>
<path style="fill:#2D9CCA;" d="M448,224c-0.297,0.047-0.656,0.055-0.953,0.066C438.609,224.496,432,231.492,432,240
	s6.609,15.504,15.047,15.934c0.297,0.012,0.594,0.047,0.891,0.094C456.82,256,464,248.824,464,240S456.82,224,448,224z"/>
<path style="fill:#F1E200;" d="M453.625,208.569c-9.968-68.444-52.111-128.022-113.929-160.237l-7.391,14.188
	c56.891,29.652,95.883,84.297,105.422,147.176c-0.812,0.272-1.562,0.662-2.343,0.996c-0.565,0.242-1.144,0.446-1.69,0.719
	c-1.521,0.758-2.973,1.623-4.342,2.604c-0.108,0.078-0.233,0.134-0.341,0.213c-1.464,1.078-2.808,2.3-4.065,3.607
	c-0.392,0.408-0.726,0.859-1.096,1.287c-0.825,0.953-1.609,1.933-2.317,2.98c-0.375,0.554-0.709,1.127-1.05,1.705
	c-0.602,1.023-1.143,2.074-1.631,3.166c-0.278,0.623-0.55,1.239-0.789,1.882c-0.441,1.188-0.783,2.414-1.083,3.664
	c-0.141,0.586-0.319,1.153-0.428,1.751C416.215,236.134,416,238.04,416,240s0.215,3.866,0.552,5.73
	c0.108,0.599,0.287,1.165,0.428,1.751c0.3,1.25,0.642,2.476,1.083,3.664c0.239,0.643,0.51,1.259,0.789,1.882
	c0.488,1.092,1.029,2.143,1.631,3.166c0.34,0.578,0.675,1.151,1.05,1.705c0.708,1.047,1.493,2.027,2.317,2.98
	c0.37,0.428,0.704,0.879,1.096,1.287c1.257,1.308,2.601,2.529,4.065,3.607c0.108,0.079,0.232,0.135,0.341,0.213
	c1.369,0.981,2.821,1.847,4.342,2.604c0.547,0.272,1.125,0.477,1.69,0.719c0.781,0.334,1.531,0.724,2.343,0.996
	c-8.869,58.462-43.223,109.776-93.727,140.533V392h-16v32.574c0,3.07,1.758,5.871,4.523,7.207l32,15.426l6.953-14.414l-18.313-8.826
	c54.44-33.492,91.25-89.199,100.476-152.538C468.596,268.75,480,255.714,480,240C480,224.281,468.589,211.243,453.625,208.569z
	 M447.938,256.027c-0.297-0.047-0.594-0.082-0.891-0.094C438.609,255.504,432,248.508,432,240s6.609-15.504,15.047-15.934
	c0.297-0.012,0.656-0.02,0.953-0.066c8.82,0,16,7.176,16,16S456.82,256,447.938,256.027z"/>
<g>
</g>
<g>
</g>
<g>
</g>
<g>
</g>
<g>
</g>
<g>
</g>
<g>
</g>
<g>
</g>
<g>
</g>
<g>
</g>
<g>
</g>
<g>
</g>
<g>
</g>
<g>
</g>
<g>
</g>
</svg>
