<?xml version="1.0" encoding="iso-8859-1"?>
<!-- Generator: Adobe Illustrator 19.0.0, SVG Export Plug-In . SVG Version: 6.00 Build 0)  -->
<svg version="1.1" id="Capa_1" xmlns="http://www.w3.org/2000/svg" xmlns:xlink="http://www.w3.org/1999/xlink" x="0px" y="0px"
	 viewBox="0 0 480 480" style="enable-background:new 0 0 480 480;" xml:space="preserve">
<path style="fill:#F1E200;" d="M232.175,408c-17.673,0-32,14.327-32,32v16h8h8h8h16v-48H232.175z"/>
<path style="fill:#DBCE00;" d="M240.175,456h16h8h8h8v-16c0-17.673-14.327-32-32-32h-8V456z"/>
<g>
	<path style="fill:#A0D92A;" d="M192.175,352c-4.41,0-8,3.586-8,8s3.59,8,8,8h48v-16H192.175z"/>
	<path style="fill:#A0D92A;" d="M240.175,336v-16h-48c-4.193,0-8.079-1.176-11.512-3.073c-2.767,2.876-4.488,6.767-4.488,11.073
		s1.721,8.197,4.488,11.073c3.434-1.897,7.319-3.073,11.512-3.073H240.175z"/>
</g>
<path style="fill:#25C656;" d="M248.175,80v20.688l10.344-10.344l11.313,11.313l-21.656,21.656v49.375l26.344-26.344l11.313,11.313
	l-37.656,37.656v22.43c9.934,1.352,32.359-0.25,48.691-36.992c26.102-58.734-24.289-113.281-35.766-124.625
	c-4.076,0.263-11.72,1.098-20.926,3.653V80H248.175z"/>
<g>
	<path style="fill:#92C612;" d="M288.175,336c4.41,0,8-3.586,8-8s-3.59-8-8-8h-48v16H288.175z"/>
	<path style="fill:#92C612;" d="M240.175,304h48c4.193,0,8.079,1.175,11.512,3.073c2.767-2.876,4.488-6.767,4.488-11.073
		c0-2.929-0.845-5.638-2.219-8h-61.781V304z"/>
	<path style="fill:#92C612;" d="M240.175,352v16c4.418,0,8,3.578,8,8h40c8.836,0,16-7.164,16-16c0-4.306-1.721-8.197-4.488-11.073
		c-3.434,1.897-7.319,3.073-11.512,3.073H240.175z"/>
</g>
<path style="fill:#A0D92A;" d="M237.21,231.43c-3.043-1.211-5.035-4.156-5.035-7.43v-4.688l-45.656-45.656l11.313-11.313
	l34.344,34.344v-41.375l-29.656-29.656l11.313-11.313l18.344,18.344V80h8V59.778c-28.475,7.903-72,32.377-72,108.222
	c0,60.043,61.179,77.23,72,79.798v-15.465C238.348,231.862,237.277,231.458,237.21,231.43z"/>
<path style="fill:#DBCE00;" d="M240.175,43.579c13.762-3.424,23.669-3.579,24-3.579c1.961,0,3.852,0.719,5.316,2.023
	c3.117,2.766,75.977,68.758,41.992,145.227c-23.525,52.919-60.653,47.828-71.309,45.083v15.465c0.796,0.189,1.376,0.316,1.582,0.358
	c3.727,0.758,6.418,4.039,6.418,7.844v16h52.508l23.48-25.336c28.086-26.859,43.875-64.07,43.66-102.445
	c-0.384-70.273-57.532-127.461-127.648-128.154V32V43.579z"/>
<path style="fill:#F1E200;" d="M232.175,280v-17.844c-20.043-5.938-80-29.148-80-94.156c0-89.224,55.094-116.234,88-124.421V32
	V16.064C239.746,16.06,239.331,16,238.901,16c-69.879,0-126.727,56.852-126.727,126.727v1.102
	c0,39.242,15.285,76.141,43.035,103.891l26.621,26.625c1.5,1.5,2.344,3.531,2.344,5.656v16c0,4.414,3.59,8,8,8h48v-16
	C235.757,288,232.175,284.422,232.175,280z"/>
<g>
	<path style="fill:#20557D;" d="M310.042,285.438l25.516-27.555c30.91-29.539,48.504-71,48.266-113.758
		C383.389,64.656,318.378,0,238.901,0C160.202,0,96.175,64.023,96.175,142.727v1.102c0,43.516,16.949,84.43,47.723,115.203
		l24.277,24.281V296c0,9.042,5.084,16.835,12.488,20.927c3.433,1.897,7.319,3.073,11.512,3.073h48h48c4.41,0,8,3.586,8,8
		s-3.59,8-8,8h-48h-48c-4.193,0-8.079,1.175-11.512,3.073c-7.404,4.091-12.488,11.886-12.488,20.927c0,13.234,10.766,24,24,24h40v24
		h8h8v-32c0-4.422-3.582-8-8-8h-48c-4.41,0-8-3.586-8-8s3.59-8,8-8h48h48c4.193,0,8.079-1.176,11.512-3.073
		c7.404-4.091,12.488-11.885,12.488-20.927s-5.084-16.836-12.488-20.927c-3.434-1.897-7.319-3.073-11.512-3.073h-48h-48
		c-4.41,0-8-3.586-8-8v-16c0-2.125-0.844-4.156-2.344-5.656l-26.621-26.625c-27.75-27.75-43.035-64.648-43.035-103.891v-1.102
		C112.175,72.852,169.022,16,238.901,16c0.43,0,0.845,0.06,1.273,0.064c70.117,0.693,127.264,57.881,127.648,128.154
		c0.215,38.375-15.574,75.586-43.66,102.445L300.682,272h-52.508v-16c0-3.805-2.691-7.086-6.418-7.844
		c-0.206-0.042-0.786-0.169-1.582-0.358c-10.821-2.568-72-19.754-72-79.798c0-75.845,43.525-100.319,72-108.222
		c9.206-2.555,16.85-3.39,20.926-3.653c11.477,11.344,61.867,65.891,35.766,124.625c-16.332,36.742-38.758,38.344-48.691,36.992
		v-22.43l37.656-37.656l-11.313-11.313l-26.344,26.344v-49.375l21.656-21.656l-11.313-11.313l-10.344,10.344V80h-8h-8v52.688
		l-18.344-18.344l-11.313,11.313l29.656,29.656v41.375l-34.344-34.344l-11.313,11.313l45.656,45.656V224
		c0,3.273,1.992,6.219,5.035,7.43c0.067,0.029,1.138,0.433,2.965,0.903c10.655,2.745,47.783,7.836,71.309-45.083
		c33.984-76.469-38.875-142.461-41.992-145.227c-1.465-1.305-3.355-2.023-5.316-2.023c-0.331,0-10.238,0.154-24,3.579
		c-32.906,8.188-88,35.198-88,124.421c0,65.008,59.957,88.219,80,94.156V280c0,4.422,3.582,8,8,8h61.781h2.219
		C306.401,288,308.53,287.07,310.042,285.438z"/>
	<polygon style="fill:#20557D;" points="208.175,456 208.175,480 224.175,480 224.175,456 216.175,456 	"/>
	<polygon style="fill:#20557D;" points="256.175,456 256.175,480 272.175,480 272.175,456 264.175,456 	"/>
</g>
<g>
</g>
<g>
</g>
<g>
</g>
<g>
</g>
<g>
</g>
<g>
</g>
<g>
</g>
<g>
</g>
<g>
</g>
<g>
</g>
<g>
</g>
<g>
</g>
<g>
</g>
<g>
</g>
<g>
</g>
</svg>
