<?xml version="1.0" encoding="UTF-8" standalone="no"?>
<!-- Created with Inkscape (http://www.inkscape.org/) -->

<svg
   xmlns:dc="http://purl.org/dc/elements/1.1/"
   xmlns:cc="http://creativecommons.org/ns#"
   xmlns:rdf="http://www.w3.org/1999/02/22-rdf-syntax-ns#"
   xmlns:svg="http://www.w3.org/2000/svg"
   xmlns="http://www.w3.org/2000/svg"
   xmlns:xlink="http://www.w3.org/1999/xlink"
   xmlns:sodipodi="http://sodipodi.sourceforge.net/DTD/sodipodi-0.dtd"
   xmlns:inkscape="http://www.inkscape.org/namespaces/inkscape"
   width="200"
   height="200"
   viewBox="0 0 52.916664 52.916669"
   version="1.1"
   id="svg8"
   inkscape:version="0.92.3 (unknown)"
   sodipodi:docname="help.svg">
  <defs
     id="defs2">
    <inkscape:path-effect
       simplifyJustCoalesce="false"
       simplifyindividualpaths="false"
       simplify_just_coalesce="false"
       simplify_individual_paths="false"
       helper_size="0"
       smooth_angles="360"
       threshold="0.0129582"
       steps="1"
       is_visible="true"
       id="path-effect8565"
       effect="simplify" />
    <inkscape:path-effect
       effect="simplify"
       id="path-effect8561"
       is_visible="true"
       steps="1"
       threshold="0.0129582"
       smooth_angles="360"
       helper_size="0"
       simplify_individual_paths="false"
       simplify_just_coalesce="false"
       simplifyindividualpaths="false"
       simplifyJustCoalesce="false" />
    <inkscape:path-effect
       simplifyJustCoalesce="false"
       simplifyindividualpaths="false"
       simplify_just_coalesce="false"
       simplify_individual_paths="false"
       helper_size="0"
       smooth_angles="360"
       threshold="0.0129582"
       steps="1"
       is_visible="true"
       id="path-effect8509"
       effect="simplify" />
    <inkscape:path-effect
       effect="simplify"
       id="path-effect8505"
       is_visible="true"
       steps="1"
       threshold="0.0129582"
       smooth_angles="360"
       helper_size="0"
       simplify_individual_paths="false"
       simplify_just_coalesce="false"
       simplifyindividualpaths="false"
       simplifyJustCoalesce="false" />
    <inkscape:path-effect
       effect="simplify"
       id="path-effect8493"
       is_visible="true"
       steps="1"
       threshold="0.0129582"
       smooth_angles="360"
       helper_size="0"
       simplify_individual_paths="false"
       simplify_just_coalesce="false"
       simplifyindividualpaths="false"
       simplifyJustCoalesce="false" />
    <linearGradient
       id="linearGradient8272"
       inkscape:collect="always">
      <stop
         id="stop8268"
         offset="0"
         style="stop-color:#55ffdd;stop-opacity:1" />
      <stop
         id="stop8270"
         offset="1"
         style="stop-color:#2ad4ff;stop-opacity:1" />
    </linearGradient>
    <linearGradient
       inkscape:collect="always"
       xlink:href="#linearGradient8272"
       id="linearGradient8260"
       x1="-113.73759"
       y1="62.394947"
       x2="-128.24442"
       y2="61.926983"
       gradientUnits="userSpaceOnUse"
       gradientTransform="translate(0,-0.44119898)" />
    <inkscape:path-effect
       simplifyJustCoalesce="false"
       simplifyindividualpaths="false"
       simplify_just_coalesce="false"
       simplify_individual_paths="false"
       helper_size="0"
       smooth_angles="360"
       threshold="0.0129582"
       steps="1"
       is_visible="true"
       id="path-effect2872"
       effect="simplify" />
    <inkscape:path-effect
       simplifyJustCoalesce="false"
       simplifyindividualpaths="false"
       simplify_just_coalesce="false"
       simplify_individual_paths="false"
       helper_size="0"
       smooth_angles="360"
       threshold="0.00893901"
       steps="1"
       is_visible="true"
       id="path-effect4345"
       effect="simplify" />
  </defs>
  <sodipodi:namedview
     id="base"
     pagecolor="#ffffff"
     bordercolor="#666666"
     borderopacity="1.0"
     inkscape:pageopacity="0.0"
     inkscape:pageshadow="2"
     inkscape:zoom="1.696184"
     inkscape:cx="146.09131"
     inkscape:cy="81.554426"
     inkscape:document-units="px"
     inkscape:current-layer="g929"
     showgrid="false"
     showguides="true"
     inkscape:measure-start="0,0"
     inkscape:measure-end="0,0"
     inkscape:window-width="1366"
     inkscape:window-height="713"
     inkscape:window-x="0"
     inkscape:window-y="27"
     inkscape:window-maximized="1"
     showborder="true"
     units="px"
     inkscape:snap-nodes="true"
     inkscape:snap-global="false" />
  <metadata
     id="metadata5">
    <rdf:RDF>
      <cc:Work
         rdf:about="">
        <dc:format>image/svg+xml</dc:format>
        <dc:type
           rdf:resource="http://purl.org/dc/dcmitype/StillImage" />
        <dc:title />
      </cc:Work>
    </rdf:RDF>
  </metadata>
  <g
     inkscape:label="Layer 1"
     inkscape:groupmode="layer"
     id="layer1"
     transform="translate(0,-244.08332)">
    <g
       style="fill:#ffffff;stroke-width:5.68888903"
       id="g8856"
       transform="matrix(0.04650879,0,0,0.04650879,-83.224232,447.73992)" />
    <g
       style="fill:#ffffff;stroke-width:5.68888903"
       id="g8858"
       transform="matrix(0.04650879,0,0,0.04650879,-83.224232,447.73992)" />
    <g
       style="fill:#ffffff;stroke-width:5.68888903"
       id="g8860"
       transform="matrix(0.04650879,0,0,0.04650879,-83.224232,447.73992)" />
    <g
       style="fill:#ffffff;stroke-width:5.68888903"
       id="g8862"
       transform="matrix(0.04650879,0,0,0.04650879,-83.224232,447.73992)" />
    <g
       style="fill:#ffffff;stroke-width:5.68888903"
       id="g8864"
       transform="matrix(0.04650879,0,0,0.04650879,-83.224232,447.73992)" />
    <g
       style="fill:#ffffff;stroke-width:5.68888903"
       id="g8866"
       transform="matrix(0.04650879,0,0,0.04650879,-83.224232,447.73992)" />
    <g
       style="fill:#ffffff;stroke-width:5.68888903"
       id="g8868"
       transform="matrix(0.04650879,0,0,0.04650879,-83.224232,447.73992)" />
    <g
       style="fill:#ffffff;stroke-width:5.68888903"
       id="g8870"
       transform="matrix(0.04650879,0,0,0.04650879,-83.224232,447.73992)" />
    <g
       style="fill:#ffffff;stroke-width:5.68888903"
       id="g8872"
       transform="matrix(0.04650879,0,0,0.04650879,-83.224232,447.73992)" />
    <g
       style="fill:#ffffff;stroke-width:5.68888903"
       id="g8874"
       transform="matrix(0.04650879,0,0,0.04650879,-83.224232,447.73992)" />
    <g
       style="fill:#ffffff;stroke-width:5.68888903"
       id="g8876"
       transform="matrix(0.04650879,0,0,0.04650879,-83.224232,447.73992)" />
    <g
       style="fill:#ffffff;stroke-width:5.68888903"
       id="g8878"
       transform="matrix(0.04650879,0,0,0.04650879,-83.224232,447.73992)" />
    <g
       style="fill:#ffffff;stroke-width:5.68888903"
       id="g8880"
       transform="matrix(0.04650879,0,0,0.04650879,-83.224232,447.73992)" />
    <g
       style="fill:#ffffff;stroke-width:5.68888903"
       id="g8882"
       transform="matrix(0.04650879,0,0,0.04650879,-83.224232,447.73992)" />
    <g
       style="fill:#ffffff;stroke-width:5.68888903"
       id="g8884"
       transform="matrix(0.04650879,0,0,0.04650879,-83.224232,447.73992)" />
    <text
       xml:space="preserve"
       style="font-style:normal;font-variant:normal;font-weight:normal;font-stretch:normal;font-size:3.27315044px;line-height:0;font-family:Roboto;-inkscape-font-specification:Roboto;letter-spacing:0px;word-spacing:0px;fill:#000000;fill-opacity:1;stroke:none;stroke-width:0.26458332"
       x="-1119.8395"
       y="98.320374"
       id="text5055"><tspan
         sodipodi:role="line"
         id="tspan5053"
         x="-1119.8395"
         y="99.138664"
         style="stroke-width:0.26458332" /></text>
    <flowRoot
       xml:space="preserve"
       id="flowRoot4921"
       style="font-style:normal;font-variant:normal;font-weight:normal;font-stretch:normal;font-size:10.66666698px;line-height:0;font-family:Roboto;-inkscape-font-specification:Roboto;letter-spacing:0px;word-spacing:0px;fill:#000000;fill-opacity:1;stroke:none"
       transform="translate(-1287.6185,-43.015364)"><flowRegion
         id="flowRegion4923"><rect
           id="rect4925"
           width="1680.8938"
           height="1616.244"
           x="226.27417"
           y="-2061.4812" /></flowRegion><flowPara
         id="flowPara4927" /></flowRoot>    <g
       id="g929">
      <rect
         inkscape:export-ydpi="96"
         inkscape:export-xdpi="96"
         inkscape:export-filename="E:\Mockup\Project Moretrash\Assets\faq.png"
         ry="2.6458333"
         rx="2.6458333"
         y="244.08331"
         x="-3.6865235e-06"
         height="52.916668"
         width="52.916668"
         id="rect8626"
         style="opacity:1;fill:#00c43e;fill-opacity:1;stroke:none;stroke-width:0.42002603;stroke-linecap:round;stroke-linejoin:round;stroke-miterlimit:4;stroke-dasharray:none;stroke-dashoffset:0;stroke-opacity:1;paint-order:fill markers stroke" />
      <g
         transform="translate(101.09663,-194.25299)"
         id="g9303">
        <g
           id="g9157"
           transform="translate(-3.3155875,-1.5999499)">
          <g
             transform="matrix(0.04650879,0,0,0.04650879,-83.224232,447.73992)"
             id="g8812"
             style="fill:#ffffff;stroke-width:5.68888903">
            <g
               id="g8810"
               style="fill:#ffffff;stroke-width:5.68888903">
              <path
                 id="path8808"
                 d="m 346,319 c -5.522,0 -10,4.477 -10,10 v 69 c 0,27.57 -22.43,50 -50,50 H 178.032 c -5.521,0 -9.996,4.473 -10,9.993 l -0.014,19.882 -23.868,-23.867 C 142.605,450.461 139.069,448 134.979,448 H 70 C 42.43,448 20,425.57 20,398 V 244 c 0,-27.57 22.43,-50 50,-50 h 101 c 5.522,0 10,-4.477 10,-10 0,-5.523 -4.478,-10 -10,-10 H 70 C 31.402,174 0,205.402 0,244 v 154 c 0,38.598 31.402,70 70,70 h 59.858 l 41.071,41.071 c 1.913,1.913 4.47,2.929 7.073,2.929 1.287,0 2.586,-0.249 3.821,-0.76 3.737,-1.546 6.174,-5.19 6.177,-9.233 L 188.024,468 H 286 c 38.598,0 70,-31.402 70,-70 v -69 c 0,-5.523 -4.478,-10 -10,-10 z"
                 inkscape:connector-curvature="0"
                 style="fill:#ffffff;stroke-width:5.68888903" />
            </g>
          </g>
          <g
             transform="matrix(0.04650879,0,0,0.04650879,-83.224232,447.73992)"
             id="g8818"
             style="fill:#ffffff;stroke-width:5.68888903">
            <g
               id="g8816"
               style="fill:#ffffff;stroke-width:5.68888903">
              <path
                 id="path8814"
                 d="M 366.655,0 H 341.346 C 261.202,0 196,65.202 196,145.346 c 0,80.144 65.202,145.345 145.345,145.345 h 25.309 c 12.509,0 24.89,-1.589 36.89,-4.729 l 37.387,37.366 c 1.913,1.911 4.469,2.927 7.071,2.927 1.289,0 2.589,-0.249 3.826,-0.762 3.736,-1.548 6.172,-5.194 6.172,-9.238 V 258.399 C 473.829,245.58 486.978,229.387 496.206,211.297 506.687,190.751 512,168.562 512,145.346 512,65.202 446.798,0 366.655,0 Z m 75.328,245.535 c -2.507,1.889 -3.983,4.847 -3.983,7.988 v 38.6 l -24.471,-24.458 c -1.904,-1.902 -4.458,-2.927 -7.07,-2.927 -0.98,0 -1.97,0.145 -2.936,0.442 -11.903,3.658 -24.307,5.512 -36.868,5.512 H 341.346 C 272.229,270.692 216,214.462 216,145.346 216,76.23 272.23,20 341.346,20 h 25.309 C 435.771,20 492,76.23 492,145.346 c 0,39.731 -18.23,76.249 -50.017,100.189 z"
                 inkscape:connector-curvature="0"
                 style="fill:#ffffff;stroke-width:5.68888903" />
            </g>
          </g>
          <g
             transform="matrix(0.04650879,0,0,0.04650879,-83.224232,447.73992)"
             id="g8836"
             style="fill:#ffffff;stroke-width:5.68888903">
            <g
               id="g8834"
               style="fill:#ffffff;stroke-width:5.68888903">
              <path
                 id="path8832"
                 d="M 275,310 H 64 c -5.522,0 -10,4.477 -10,10 0,5.523 4.478,10 10,10 h 211 c 5.523,0 10,-4.477 10,-10 0,-5.523 -4.478,-10 -10,-10 z"
                 inkscape:connector-curvature="0"
                 style="fill:#ffffff;stroke-width:5.68888903" />
            </g>
          </g>
          <g
             transform="matrix(0.04650879,0,0,0.04650879,-83.224232,447.73992)"
             id="g8842"
             style="fill:#ffffff;stroke-width:5.68888903">
            <g
               id="g8840"
               style="fill:#ffffff;stroke-width:5.68888903">
              <path
                 id="path8838"
                 d="M 282.069,368.93 C 280.21,367.07 277.63,366 275,366 c -2.63,0 -5.21,1.07 -7.07,2.93 -1.861,1.86 -2.93,4.44 -2.93,7.07 0,2.63 1.07,5.21 2.93,7.07 1.86,1.86 4.44,2.93 7.07,2.93 2.63,0 5.21,-1.07 7.069,-2.93 1.861,-1.86 2.931,-4.43 2.931,-7.07 0,-2.63 -1.071,-5.21 -2.931,-7.07 z"
                 inkscape:connector-curvature="0"
                 style="fill:#ffffff;stroke-width:5.68888903" />
            </g>
          </g>
          <g
             transform="matrix(0.04650879,0,0,0.04650879,-83.224232,447.73992)"
             id="g8848"
             style="fill:#ffffff;stroke-width:5.68888903">
            <g
               id="g8846"
               style="fill:#ffffff;stroke-width:5.68888903">
              <path
                 id="path8844"
                 d="M 235.667,366 H 64 c -5.522,0 -10,4.477 -10,10 0,5.523 4.478,10 10,10 h 171.667 c 5.523,0 10,-4.477 10,-10 0,-5.523 -4.478,-10 -10,-10 z"
                 inkscape:connector-curvature="0"
                 style="fill:#ffffff;stroke-width:5.68888903" />
            </g>
          </g>
          <g
             transform="matrix(0.04650879,0,0,0.04650879,-83.224232,447.73992)"
             id="g8854"
             style="fill:#ffffff;stroke-width:5.68888903">
            <g
               id="g8852"
               style="fill:#ffffff;stroke-width:5.68888903">
              <path
                 id="path8850"
                 d="M 210,254 H 64 c -5.522,0 -10,4.477 -10,10 0,5.523 4.478,10 10,10 h 146 c 5.523,0 10,-4.477 10,-10 0,-5.523 -4.478,-10 -10,-10 z"
                 inkscape:connector-curvature="0"
                 style="fill:#ffffff;stroke-width:5.68888903" />
            </g>
          </g>
          <path
             style="opacity:1;fill:#f9f9f9;fill-opacity:1;stroke:none;stroke-width:5.29166651;stroke-linecap:round;stroke-linejoin:round;stroke-miterlimit:4;stroke-dasharray:none;stroke-dashoffset:0;stroke-opacity:1;paint-order:fill markers stroke"
             d="m -66.394621,457.33917 a 4.6656718,3.9090765 12.960801 0 0 -3.565516,-4.82718 3.9090765,3.9090765 0 0 0 -0.444087,1.1095 3.9090765,3.9090765 0 0 0 2.932683,4.68613 3.9090765,3.9090765 0 0 0 0.626763,0.09 4.6656718,3.9090765 12.960801 0 0 0.450157,-1.05846 z"
             id="path4929"
             inkscape:connector-curvature="0"
             inkscape:transform-center-x="0.14871583"
             inkscape:transform-center-y="-0.27232554" />
          <path
             inkscape:connector-curvature="0"
             id="path4931"
             d="m -67.530181,457.18269 a 4.7408051,5.6583804 70.649436 0 1 3.645761,-6.29913 4.7408051,4.7408051 0 0 1 0.684982,1.27727 4.7408051,4.7408051 0 0 1 -2.902089,6.04372 4.7408051,4.7408051 0 0 1 -0.743251,0.19308 4.7408051,5.6583804 70.649436 0 1 -0.685403,-1.21494 z"
             style="opacity:1;fill:#00dc3e;fill-opacity:1;stroke:none;stroke-width:5.29166651;stroke-linecap:round;stroke-linejoin:round;stroke-miterlimit:4;stroke-dasharray:none;stroke-dashoffset:0;stroke-opacity:1;paint-order:fill markers stroke"
             inkscape:transform-center-x="-0.141679"
             inkscape:transform-center-y="-0.34859505" />
        </g>
        <text
           xml:space="preserve"
           style="font-style:normal;font-variant:normal;font-weight:normal;font-stretch:normal;font-size:4.93888855px;line-height:0;font-family:Righteous;-inkscape-font-specification:Righteous;letter-spacing:0px;word-spacing:0px;fill:#ffffff;fill-opacity:1;stroke:none;stroke-width:0.26458332"
           x="-81.081467"
           y="476.71375"
           id="text9161"><tspan
             sodipodi:role="line"
             id="tspan9159"
             x="-81.081467"
             y="476.71375"
             style="font-style:normal;font-variant:normal;font-weight:bold;font-stretch:normal;font-family:'Nunito Sans';-inkscape-font-specification:'Nunito Sans Bold';fill:#ffffff;stroke-width:0.26458332">HELP</tspan></text>
        <text
           xml:space="preserve"
           style="font-style:normal;font-variant:normal;font-weight:normal;font-stretch:normal;font-size:2.7699132px;line-height:0;font-family:Righteous;-inkscape-font-specification:Righteous;letter-spacing:0px;word-spacing:0px;fill:#ffffff;fill-opacity:1;stroke:none;stroke-width:0.26458332"
           x="-74.62545"
           y="480.65234"
           id="text9165"><tspan
             sodipodi:role="line"
             x="-74.585762"
             y="480.65234"
             style="font-style:normal;font-variant:normal;font-weight:500;font-stretch:normal;line-height:1;font-family:Roboto;-inkscape-font-specification:'Roboto Medium';text-align:center;letter-spacing:0.079375px;text-anchor:middle;fill:#ffffff;stroke-width:0.26458332"
             id="tspan9167">Questions about Moretrash</tspan></text>
      </g>
    </g>
  </g>
</svg>
