<?xml version="1.0" encoding="iso-8859-1"?>
<!-- Generator: Adobe Illustrator 19.0.0, SVG Export Plug-In . SVG Version: 6.00 Build 0)  -->
<svg version="1.1" id="Capa_1" xmlns="http://www.w3.org/2000/svg" xmlns:xlink="http://www.w3.org/1999/xlink" x="0px" y="0px"
	 viewBox="0 0 496.83 496.83" style="enable-background:new 0 0 496.83 496.83;" xml:space="preserve">
<path style="fill:#D0DFEA;" d="M354.722,364.681c-0.173-0.204-0.352-0.399-0.523-0.604c-40.84-48.168-63.888-108.088-65.67-171.662
	h-23.937c1.81,60.974,24.181,119.414,63.261,165.919c0.506,0.604,1.031,1.19,1.543,1.791c4.543,5.312,9.242,10.512,14.22,15.49
	l24.8,24.8h20.688l-19.145-19.145C364.615,375.928,359.571,370.368,354.722,364.681z"/>
<path style="fill:#FEFEFE;" d="M329.396,360.125c-0.512-0.601-1.037-1.187-1.543-1.791c-39.08-46.505-61.451-104.945-63.261-165.919
	h-56.29c-0.961,33.922-8.031,67.02-21.055,98.5c-8.106,19.527-18.41,38.056-30.624,55.083c-0.001,0.001,0,0.002-0.001,0.003
	c-0.002,0.003-0.005,0.006-0.008,0.01c-0.007,0.009-0.013,0.02-0.02,0.029c-8.879,12.531-18.891,24.398-29.723,35.23l-19.145,19.145
	h260.688l-24.8-24.8C338.637,370.637,333.939,365.437,329.396,360.125z"/>
<path style="fill:#D0DFEA;" d="M129.611,354.655c1.475-1.737,2.816-3.583,4.246-5.358c2.507-3.114,4.978-6.254,7.336-9.479
	c-7.678-24.489-11.933-49.795-12.666-75.402H96.738c0.785,26.366,5.222,52.334,13.357,76.96c-8.56,12.08-18.24,23.6-28.88,34.24
	l-32.8,32.8l-32,32v28.688l66.344-66.344l32.801-32.801C120.438,365.077,125.115,359.947,129.611,354.655z"/>
<path style="fill:#FEFEFE;" d="M81.215,375.615c10.64-10.64,20.32-22.16,28.88-34.24c-8.136-24.626-12.573-50.594-13.357-76.96
	H48.302c-0.961,33.922-8.031,67.02-21.055,98.5c-3.406,8.152-6.953,15.723-10.832,23.094v54.406l32-32L81.215,375.615z"/>
<polygon style="fill:#A0D92A;" points="403.287,430.53 437.138,448.45 409.659,420.971 "/>
<g>
	<polygon style="fill:#F1E200;" points="275.653,416.415 299.756,431.91 320.416,416.415 	"/>
	<polygon style="fill:#F1E200;" points="393.467,416.415 376.625,416.415 389.073,423.005 	"/>
	<polygon style="fill:#F1E200;" points="198.681,433.115 222.803,416.415 176.414,416.415 	"/>
</g>
<polygon style="fill:#A0D92A;" points="87.663,420.479 59.692,448.45 94.915,429.804 "/>
<polygon style="fill:#F1E200;" points="120.206,416.415 104.772,416.415 109.274,422.202 "/>
<polygon style="fill:#A0D92A;" points="345.157,417.86 314.115,441.141 358.122,469.431 380.152,436.387 "/>
<g>
	<polygon style="fill:#25C656;" points="272.415,472.415 333.176,472.415 300.459,451.383 	"/>
	<polygon style="fill:#25C656;" points="394.365,443.912 375.363,472.415 448.207,472.415 	"/>
</g>
<polygon style="fill:#A0D92A;" points="286.1,442.152 248.579,418.032 212.175,443.235 248.415,470.415 "/>
<polygon style="fill:#25C656;" points="48.624,472.415 128.058,472.415 104.89,442.628 "/>
<polygon style="fill:#A0D92A;" points="184.814,442.715 151.673,417.86 119.248,435.026 146.083,469.528 "/>
<polygon style="fill:#25C656;" points="170.027,472.415 224.416,472.415 198.308,452.835 "/>
<path style="fill:#D0DFEA;" d="M454.095,384.015v58.768l26.32,26.32v-83.094c-3.879-7.371-7.426-14.938-10.824-23.07
	c-13.031-31.5-20.102-64.602-21.063-98.523h-26.235c0.979,33.057,7.925,65.383,20.362,95.44
	C446.095,368.095,449.855,376.095,454.095,384.015z"/>
<path style="fill:#FEFEFE;" d="M381.271,369.958l32.801,32.801l40.024,40.024v-58.768c-4.24-7.92-8-15.92-11.44-24.16
	c-12.437-30.057-19.383-62.383-20.362-95.44h-53.992c-0.734,25.664-5,51.027-12.711,75.566c3.706,5.063,7.628,9.974,11.691,14.753
	c0.46,0.538,0.924,1.075,1.389,1.609C372.726,361.034,376.913,365.6,381.271,369.958z"/>
<path style="fill:#79BFCB;" d="M108.175,156.735c2.72,6,4.24,12.64,4.24,19.68c0,16.32-8.16,30.8-20.64,39.44
	c2.96,4.88,4.64,10.48,4.64,16.56c0,5.886-1.738,11.284-4.501,16h23.585c2.763-4.716,4.501-10.114,4.501-16
	c0-6.08-1.68-11.68-4.64-16.56c12.48-8.64,20.64-23.12,20.64-39.44c0-7.04-1.52-13.68-4.24-19.68c26.4-15.12,44.24-43.6,44.24-76.32
	h-23.585C152.415,113.135,134.575,141.615,108.175,156.735z"/>
<path style="fill:#D0DFEA;" d="M96.415,232.415c0-6.08-1.68-11.68-4.64-16.56c12.48-8.64,20.64-23.12,20.64-39.44
	c0-7.04-1.52-13.68-4.24-19.68c26.4-15.12,44.24-43.6,44.24-76.32H0c0,32.72,17.84,61.2,44.24,76.32c-2.72,6-4.24,12.64-4.24,19.68
	c0,16.32,8.16,30.8,20.64,39.44c-2.96,4.88-4.64,10.48-4.64,16.56c0,5.886,1.738,11.284,4.501,16h31.413
	C94.677,243.699,96.415,238.301,96.415,232.415z"/>
<path style="fill:#79BFCB;" d="M429.005,156.735c2.72,6,4.24,12.64,4.24,19.68c0,16.32-8.16,30.8-20.64,39.44
	c2.96,4.88,4.64,10.48,4.64,16.56c0,5.886-1.738,11.284-4.501,16h23.585c2.763-4.716,4.501-10.114,4.501-16
	c0-6.08-1.68-11.68-4.64-16.56c12.48-8.64,20.64-23.12,20.64-39.44c0-7.04-1.52-13.68-4.24-19.68c26.4-15.12,44.24-43.6,44.24-76.32
	h-23.585C473.245,113.135,455.405,141.615,429.005,156.735z"/>
<path style="fill:#D0DFEA;" d="M417.245,232.415c0-6.08-1.68-11.68-4.64-16.56c12.48-8.64,20.64-23.12,20.64-39.44
	c0-7.04-1.52-13.68-4.24-19.68c26.4-15.12,44.24-43.6,44.24-76.32H320.83c0,32.72,17.84,61.2,44.24,76.32
	c-2.72,6-4.24,12.64-4.24,19.68c0,16.32,8.16,30.8,20.64,39.44c-2.96,4.88-4.64,10.48-4.64,16.56c0,5.886,1.738,11.284,4.501,16
	h31.413C415.507,243.699,417.245,238.301,417.245,232.415z"/>
<path style="fill:#79BFCB;" d="M268.59,84.735c2.72,6,4.24,12.64,4.24,19.68c0,16.32-8.16,30.8-20.64,39.44
	c2.96,4.88,4.64,10.48,4.64,16.56c0,5.886-1.738,11.284-4.501,16h23.585c2.763-4.716,4.501-10.114,4.501-16
	c0-6.08-1.68-11.68-4.64-16.56c12.48-8.64,20.64-23.12,20.64-39.44c0-7.04-1.52-13.68-4.24-19.68c26.4-15.12,44.24-43.6,44.24-76.32
	H312.83C312.83,41.135,294.99,69.615,268.59,84.735z"/>
<path style="fill:#D0DFEA;" d="M256.83,160.415c0-6.08-1.68-11.68-4.64-16.56c12.48-8.64,20.64-23.12,20.64-39.44
	c0-7.04-1.52-13.68-4.24-19.68c26.4-15.12,44.24-43.6,44.24-76.32H160.415c0,32.72,17.84,61.2,44.24,76.32
	c-2.72,6-4.24,12.64-4.24,19.68c0,16.32,8.16,30.8,20.64,39.44c-2.96,4.88-4.64,10.48-4.64,16.56c0,5.886,1.738,11.284,4.501,16
	h31.413C255.092,171.699,256.83,166.301,256.83,160.415z"/>
<g>
	<path style="fill:#B3C0C9;" d="M14.393,488.112c-0.688-0.181-1.328-0.465-1.938-0.815c-0.138-0.079-0.291-0.114-0.425-0.202
		c-0.733-0.481-1.366-1.095-1.91-1.796c-0.04-0.051-0.1-0.078-0.139-0.13c-0.125-0.168-0.159-0.37-0.268-0.545
		c-0.237-0.377-0.515-0.725-0.689-1.146c-0.07-0.169-0.072-0.35-0.13-0.522c-0.108-0.319-0.173-0.632-0.239-0.96
		c-0.11-0.544-0.167-1.079-0.163-1.626c0.002-0.326,0.007-0.638,0.048-0.961c0.074-0.575,0.229-1.122,0.426-1.669
		c0.097-0.273,0.16-0.546,0.288-0.809c0.382-0.787,0.863-1.53,1.505-2.171l5.656-5.656v-28.688v-54.406
		c3.879-7.371,7.426-14.941,10.832-23.094c13.023-31.48,20.094-64.578,21.055-98.5h48.436h31.791
		c0.733,25.607,4.987,50.914,12.666,75.402c0.763-1.043,1.626-2.012,2.374-3.066c3.314-4.619,6.432-9.38,9.439-14.216
		c-5.624-21.592-8.591-43.745-8.591-66.12c0-4.418-3.582-8-8-8h-20.916H91.914H60.501H40.415c-4.418,0-8,3.582-8,8
		c0,34.609-6.711,68.383-19.941,100.359c-3.473,8.309-7.105,15.984-11.109,23.465c-0.625,1.164-0.949,2.461-0.949,3.777v96.398
		c0,4.418,3.582,8,8,8h8c-0.377,0-0.727-0.112-1.093-0.164C15.007,488.208,14.7,488.193,14.393,488.112z"/>
	<polygon style="fill:#B3C0C9;" points="156.624,345.998 156.614,346.011 156.622,346.001 	"/>
	<path style="fill:#B3C0C9;" d="M133.857,349.296c-1.43,1.776-2.771,3.622-4.246,5.358
		C131.088,352.917,132.426,351.074,133.857,349.296z"/>
	<path style="fill:#B3C0C9;" d="M484.364,356.798c-13.238-32-19.949-65.773-19.949-100.383c0-4.418-3.582-8-8-8h-20.086h-23.585
		h-31.413h-20.916c-4.418,0-8,3.582-8,8c0,22.431-2.987,44.638-8.638,66.282c6.965,11.187,14.814,21.888,23.505,32.038
		c-4.063-4.779-7.985-9.69-11.691-14.753c7.711-24.539,11.977-49.902,12.711-75.566h53.992h26.235
		c0.961,33.922,8.031,67.023,21.063,98.523c3.398,8.133,6.945,15.699,10.824,23.07v83.094l5.656,5.656
		c0.642,0.642,1.123,1.385,1.505,2.171c0.128,0.263,0.19,0.536,0.288,0.809c0.196,0.547,0.352,1.094,0.426,1.669
		c0.042,0.324,0.046,0.635,0.048,0.961c0.003,0.547-0.053,1.082-0.163,1.626c-0.066,0.328-0.131,0.641-0.239,0.96
		c-0.058,0.172-0.06,0.353-0.13,0.522c-0.174,0.421-0.452,0.769-0.689,1.146c-0.109,0.175-0.144,0.377-0.268,0.545
		c-0.033,0.044-0.088,0.059-0.122,0.102c-0.678,0.881-1.534,1.566-2.498,2.095c-0.214,0.117-0.418,0.208-0.641,0.304
		c-0.993,0.436-2.045,0.745-3.173,0.745h8c4.418,0,8-3.582,8-8v-96.398c0-1.316-0.324-2.613-0.949-3.777
		C491.462,372.759,487.829,365.083,484.364,356.798z"/>
	<path style="fill:#B3C0C9;" d="M354.198,364.077c0.172,0.205,0.351,0.4,0.523,0.604C354.549,364.479,354.37,364.28,354.198,364.077
		z"/>
	<path style="fill:#B3C0C9;" d="M381.271,369.958c-4.358-4.358-8.545-8.924-12.599-13.614
		C372.715,360.991,376.873,365.56,381.271,369.958z"/>
	<path style="fill:#B3C0C9;" d="M143.567,336.751c-0.747,1.054-1.61,2.023-2.374,3.066c-2.359,3.225-4.829,6.365-7.336,9.479
		c-1.431,1.777-2.769,3.621-4.246,5.358c-4.497,5.292-9.173,10.422-14.052,15.303l-32.801,32.801c1.5-1.5,3.535-2.344,5.656-2.344
		h19.313l19.145-19.145c10.832-10.832,20.844-22.699,29.723-35.23c0.007-0.009,0.013-0.02,0.02-0.029
		c0.003-0.005,0.006-0.008,0.009-0.013c12.214-17.027,22.517-35.556,30.624-55.083c13.023-31.48,20.094-64.578,21.055-98.5h56.29
		h23.937c1.782,63.574,24.83,123.494,65.67,171.662c0.172,0.203,0.351,0.401,0.523,0.604c4.85,5.688,9.893,11.247,15.236,16.59
		l19.145,19.145h19.313c2.121,0,4.156,0.844,5.656,2.344l-32.801-32.801c-4.398-4.398-8.556-8.967-12.599-13.614
		c-0.465-0.535-0.929-1.071-1.389-1.609c-8.691-10.15-16.541-20.852-23.505-32.038c-25.604-41.125-39.362-88.635-39.362-138.282
		c0-4.418-3.582-8-8-8h-20.501h-23.585h-31.413h-20.501c-4.418,0-8,3.582-8,8c0,34.609-6.711,68.383-19.945,100.375
		c-5.45,13.122-11.997,25.737-19.463,37.745C150,327.371,146.881,332.132,143.567,336.751z"/>
</g>
<path style="fill:#1B7DA4;" d="M484.229,487.366c0.963-0.529,1.819-1.214,2.498-2.095c0.034-0.043,0.089-0.058,0.122-0.102
	c0.125-0.168,0.159-0.37,0.268-0.545c0.237-0.377,0.515-0.725,0.689-1.146c0.07-0.169,0.072-0.35,0.13-0.522
	c0.108-0.319,0.173-0.632,0.239-0.96c0.11-0.544,0.167-1.079,0.163-1.626c-0.002-0.326-0.007-0.638-0.048-0.961
	c-0.074-0.575-0.229-1.122-0.426-1.669c-0.097-0.273-0.16-0.546-0.288-0.809c-0.382-0.787-0.863-1.53-1.505-2.171l-5.656-5.656
	l-26.32-26.32l-40.024-40.024c-1.5-1.5-3.535-2.344-5.656-2.344h-19.313h-20.688H107.728H88.415c-2.121,0-4.156,0.844-5.656,2.344
	l-66.344,66.344l-5.656,5.656c-0.642,0.642-1.123,1.385-1.505,2.171c-0.128,0.263-0.19,0.536-0.288,0.809
	c-0.196,0.547-0.352,1.094-0.426,1.669c-0.042,0.324-0.046,0.635-0.048,0.961c-0.003,0.547,0.053,1.082,0.163,1.626
	c0.066,0.328,0.131,0.641,0.239,0.96c0.058,0.172,0.06,0.353,0.13,0.522c0.174,0.421,0.452,0.769,0.689,1.146
	c0.109,0.175,0.144,0.377,0.268,0.545c0.039,0.053,0.099,0.079,0.139,0.13c0.544,0.701,1.177,1.314,1.91,1.796
	c0.134,0.088,0.287,0.123,0.425,0.202c0.609,0.351,1.25,0.634,1.938,0.815c0.307,0.081,0.615,0.095,0.93,0.139
	c0.366,0.051,0.716,0.164,1.093,0.164h464c1.128,0,2.181-0.309,3.173-0.745C483.811,487.574,484.016,487.483,484.229,487.366z
	 M272.415,472.415l28.044-21.032l32.717,21.032H272.415z M170.027,472.415l28.281-19.58l26.107,19.58H170.027z M120.206,416.415
	l-10.932,5.787l-4.501-5.787H120.206z M393.467,416.415l-4.394,6.59l-12.449-6.59H393.467z M275.653,416.415h44.763l-20.66,15.495
	L275.653,416.415z M198.681,433.115l-22.267-16.7h46.389L198.681,433.115z M87.663,420.479l7.252,9.324L59.692,448.45
	L87.663,420.479z M48.624,472.415l56.266-29.787l23.168,29.787H48.624z M151.673,417.86l33.141,24.854l-38.731,26.813
	l-26.835-34.502L151.673,417.86z M248.579,418.032l37.521,24.12l-37.685,28.263l-36.24-27.18L248.579,418.032z M314.115,441.141
	l31.042-23.28l34.995,18.526l-22.03,33.044L314.115,441.141z M394.365,443.912l53.841,28.503h-72.844L394.365,443.912z
	 M403.287,430.53l6.372-9.559l27.479,27.479L403.287,430.53z"/>
<g>
</g>
<g>
</g>
<g>
</g>
<g>
</g>
<g>
</g>
<g>
</g>
<g>
</g>
<g>
</g>
<g>
</g>
<g>
</g>
<g>
</g>
<g>
</g>
<g>
</g>
<g>
</g>
<g>
</g>
</svg>
